<svg width="127" height="146" viewBox="0 0 127 146" fill="none" xmlns="http://www.w3.org/2000/svg">
<path d="M126.86 7.9032H34.4414V129.678H126.86V7.9032Z" fill="white"/>
<path d="M126.861 129.678C126.861 128.68 126.818 80.0791 126.75 7.90357L126.861 8.0193L34.4765 8.03376L34.6019 7.90357C34.6019 53.2303 34.6019 95.225 34.6019 129.678L34.5006 129.577L126.919 129.678L34.5006 129.784H34.3945V129.678C34.3945 95.225 34.3945 53.211 34.3945 7.90357V7.7782H34.4765H126.885H127.001V7.8891C126.909 80.0791 126.866 128.685 126.861 129.678Z" fill="#77A11D"/>
<path d="M126.86 16.7994C126.86 16.8428 106.169 16.8765 80.6554 16.8765C55.1422 16.8765 34.4414 16.8428 34.4414 16.7994C34.4414 16.756 55.1278 16.7271 80.6554 16.7271C106.183 16.7271 126.86 16.7608 126.86 16.7994Z" fill="#77A11D"/>
<path d="M98.5408 12.6386C98.5408 12.682 91.4814 12.7158 82.7777 12.7158C74.074 12.7158 67.0098 12.682 67.0098 12.6386C67.0098 12.5952 74.0692 12.5663 82.7777 12.5663C91.4862 12.5663 98.5408 12.6 98.5408 12.6386Z" fill="#ACCD53"/>
<path d="M39.0621 12.6387C39.0621 12.8409 39.0022 13.0385 38.8898 13.2067C38.7775 13.3748 38.6178 13.5058 38.431 13.5832C38.2442 13.6605 38.0387 13.6808 37.8404 13.6413C37.6421 13.6019 37.46 13.5045 37.317 13.3616C37.174 13.2186 37.0767 13.0365 37.0372 12.8382C36.9978 12.6399 37.018 12.4343 37.0954 12.2475C37.1728 12.0607 37.3038 11.9011 37.4719 11.7887C37.64 11.6764 37.8377 11.6165 38.0398 11.6165C38.1741 11.6165 38.307 11.6429 38.431 11.6943C38.5551 11.7456 38.6678 11.8209 38.7627 11.9159C38.8576 12.0108 38.9329 12.1235 38.9843 12.2475C39.0357 12.3715 39.0621 12.5045 39.0621 12.6387Z" fill="#E3EDC3"/>
<path d="M42.523 12.6387C42.523 12.8411 42.463 13.0389 42.3504 13.2072C42.2379 13.3754 42.0779 13.5064 41.8909 13.5836C41.7038 13.6609 41.498 13.6808 41.2996 13.641C41.1011 13.6011 40.919 13.5033 40.7762 13.3599C40.6334 13.2164 40.5365 13.0338 40.4976 12.8352C40.4587 12.6366 40.4796 12.4309 40.5577 12.2442C40.6358 12.0575 40.7676 11.8981 40.9364 11.7864C41.1051 11.6747 41.3032 11.6155 41.5056 11.6165C41.6396 11.6165 41.7723 11.6429 41.8961 11.6944C42.0198 11.7458 42.1322 11.8212 42.2267 11.9162C42.3213 12.0112 42.3961 12.1239 42.447 12.2479C42.4978 12.3719 42.5237 12.5047 42.523 12.6387Z" fill="#E3EDC3"/>
<path d="M45.9898 12.6387C45.9898 12.8409 45.9299 13.0385 45.8176 13.2067C45.7052 13.3748 45.5456 13.5058 45.3588 13.5832C45.172 13.6605 44.9664 13.6808 44.7681 13.6413C44.5698 13.6019 44.3877 13.5045 44.2447 13.3616C44.1018 13.2186 44.0044 13.0365 43.965 12.8382C43.9255 12.6399 43.9458 12.4343 44.0231 12.2475C44.1005 12.0607 44.2315 11.9011 44.3996 11.7887C44.5677 11.6764 44.7654 11.6165 44.9676 11.6165C45.1018 11.6165 45.2348 11.6429 45.3588 11.6943C45.4828 11.7456 45.5955 11.8209 45.6904 11.9159C45.7854 12.0108 45.8607 12.1235 45.912 12.2475C45.9634 12.3715 45.9898 12.5045 45.9898 12.6387Z" fill="#E3EDC3"/>
<path d="M69.5981 29.2453H67.4813L67.0762 30.2097H65.9961L68.031 25.6481H69.0725L71.1219 30.2193H70.0128L69.5981 29.2453ZM69.2654 28.44L68.5421 26.6944L67.8188 28.44H69.2654Z" fill="#ACCD53"/>
<path d="M74.4967 30.2193L73.6191 28.9511H72.6547V30.2193H71.6035V25.6577H73.5805C74.7957 25.6577 75.5624 26.2894 75.5624 27.3165C75.5765 27.6256 75.4934 27.9315 75.3248 28.1909C75.1561 28.4504 74.9104 28.6505 74.6221 28.7631L75.6444 30.2097L74.4967 30.2193ZM73.5082 26.5209H72.6451V28.1073H73.5082C74.1495 28.1073 74.4726 27.8083 74.4726 27.3165C74.4726 26.8246 74.1447 26.5209 73.5034 26.5209H73.5082Z" fill="#ACCD53"/>
<path d="M77.2571 26.5209H75.8105V25.6577H79.7839V26.5209H78.3373V30.2193H77.2813L77.2571 26.5209Z" fill="#ACCD53"/>
<path d="M80.3359 25.6577H81.3919V30.2193H80.3359V25.6577Z" fill="#ACCD53"/>
<path d="M82.2129 27.9389C82.2439 27.4495 82.4176 26.98 82.7127 26.5884C83.0077 26.1968 83.4111 25.9003 83.873 25.7356C84.3348 25.5708 84.8348 25.5451 85.3111 25.6616C85.7874 25.7781 86.219 26.0317 86.5527 26.391L85.8776 27.0131C85.7378 26.8449 85.5622 26.71 85.3637 26.6182C85.1652 26.5265 84.9487 26.4802 84.73 26.4826C84.3463 26.4826 83.9784 26.635 83.7071 26.9063C83.4358 27.1776 83.2834 27.5456 83.2834 27.9292C83.2834 28.3129 83.4358 28.6808 83.7071 28.9521C83.9784 29.2234 84.3463 29.3758 84.73 29.3758C84.9497 29.3789 85.1673 29.3319 85.3661 29.2383C85.565 29.1447 85.7399 29.0071 85.8776 28.8358L86.5527 29.4626C86.219 29.8219 85.7874 30.0755 85.3111 30.192C84.8348 30.3085 84.3348 30.2828 83.873 30.1181C83.4111 29.9534 83.0077 29.6569 82.7127 29.2652C82.4176 28.8736 82.2439 28.4041 82.2129 27.9148V27.9389Z" fill="#ACCD53"/>
<path d="M87.248 25.6577H88.3041V29.361H90.5945V30.2193H87.248V25.6577Z" fill="#ACCD53"/>
<path d="M94.7162 29.3755V30.2193H91.1816V25.6577H94.6294V26.5064H92.2184V27.4708H94.3352V28.2953H92.2184V29.3514L94.7162 29.3755Z" fill="#ACCD53"/>
<path d="M63.741 28.3479C63.741 28.3865 58.8515 28.4202 52.8192 28.4202C46.7869 28.4202 41.8926 28.3865 41.8926 28.3479C41.8926 28.3093 46.7821 28.2708 52.8192 28.2708C58.8564 28.2708 63.741 28.3045 63.741 28.3479Z" fill="#77A11D"/>
<path d="M121.845 28.3479C121.845 28.3865 116.71 28.4202 110.374 28.4202C104.038 28.4202 98.9023 28.3865 98.9023 28.3479C98.9023 28.3093 104.038 28.2708 110.374 28.2708C116.71 28.2708 121.845 28.3045 121.845 28.3479Z" fill="#77A11D"/>
<path d="M117.703 102.114H95.541V123.558H117.703V102.114Z" fill="#ACCD53"/>
<g opacity="0.3">
<path opacity="0.3" d="M97.2578 121.726L103.391 110.688L108.406 117.743L111.454 113.996L115.986 121.726H97.2578Z" fill="#77A11D"/>
</g>
<g opacity="0.3">
<path opacity="0.3" d="M110.113 107.376C111.415 109.083 109.486 111.011 107.779 109.714C106.477 108.002 108.406 106.074 110.113 107.376Z" fill="#77A11D"/>
</g>
<g opacity="0.3">
<path opacity="0.3" d="M115.967 121.784C115.965 121.755 115.965 121.726 115.967 121.697C115.967 121.634 115.967 121.552 115.967 121.446C115.967 121.219 115.967 120.896 115.967 120.482C115.967 119.633 115.967 118.403 115.943 116.841C115.943 113.707 115.914 109.246 115.894 103.894L115.986 103.981H97.2622C97.2937 103.943 97.3275 103.908 97.3635 103.875V108.697C97.3635 110.269 97.3635 111.812 97.3635 113.316C97.3635 116.32 97.3635 119.156 97.3635 121.769L97.2719 121.678L110.812 121.726L114.631 121.75H115.644H114.645L110.851 121.774L97.2477 121.817H97.161V121.726C97.161 119.112 97.161 116.277 97.161 113.273V108.721C97.161 107.93 97.161 107.134 97.161 106.31V103.899C97.0693 103.99 97.2911 103.769 97.2719 103.793H115.996H116.087V103.899C116.087 109.275 116.049 113.755 116.039 116.918C116.039 118.471 116.039 119.691 116.039 120.54C116.039 120.945 116.039 121.263 116.039 121.504C116.039 121.605 116.039 121.682 116.039 121.745C116.016 121.76 115.992 121.773 115.967 121.784Z" fill="#77A11D"/>
</g>
<path d="M63.3597 36.4691C63.3597 36.5415 58.5136 36.5945 52.5392 36.5945C46.5647 36.5945 41.709 36.5415 41.709 36.4691C41.709 36.3968 46.531 36.3438 52.5344 36.3438C58.5377 36.3438 63.3597 36.392 63.3597 36.4691Z" fill="#77A11D"/>
<path d="M80.0583 41.6671C80.0583 41.7346 71.4703 41.7925 60.8861 41.7925C50.3018 41.7925 41.709 41.7346 41.709 41.6671C41.709 41.5996 50.2921 41.5417 60.8812 41.5417C71.4703 41.5417 80.0583 41.5948 80.0583 41.6671Z" fill="#77A11D"/>
<path d="M93.1639 41.2863C93.1639 41.3538 90.8397 41.4116 87.9706 41.4116C85.1015 41.4116 82.7773 41.3538 82.7773 41.2863C82.7773 41.2188 85.1015 41.1609 87.9706 41.1609C90.8397 41.1609 93.1639 41.2139 93.1639 41.2863Z" fill="#77A11D"/>
<path d="M118.581 41.0642C118.581 41.1317 113.783 41.1896 107.862 41.1896C101.94 41.1896 97.1426 41.1317 97.1426 41.0642C97.1426 40.9967 101.94 40.9388 107.862 40.9388C113.783 40.9388 118.581 40.9967 118.581 41.0642Z" fill="#77A11D"/>
<path d="M118.379 45.486C118.379 45.5535 101.159 45.6113 79.9231 45.6113C58.687 45.6113 41.4629 45.5535 41.4629 45.486C41.4629 45.4185 58.6774 45.3606 79.9231 45.3606C101.169 45.3606 118.379 45.4136 118.379 45.486Z" fill="#77A11D"/>
<path d="M77.2523 50.1248C77.2523 50.1971 69.2816 50.2501 59.4592 50.2501C49.6368 50.2501 41.666 50.1971 41.666 50.1248C41.666 50.0524 49.6319 49.9994 59.4592 49.9994C69.2864 49.9994 77.2523 50.0573 77.2523 50.1248Z" fill="#77A11D"/>
<path d="M90.2904 50.1239C88.6735 50.2509 87.0511 50.2928 85.4298 50.2493C83.807 50.2928 82.1829 50.251 80.5645 50.1239C82.1831 49.9997 83.807 49.9579 85.4298 49.9985C87.0511 49.958 88.6734 49.9998 90.2904 50.1239Z" fill="#77A11D"/>
<path d="M118.377 49.6856C118.377 49.7531 112.789 49.8109 105.893 49.8109C98.9978 49.8109 93.4043 49.7531 93.4043 49.6856C93.4043 49.618 98.993 49.5602 105.893 49.5602C112.794 49.5602 118.377 49.6132 118.377 49.6856Z" fill="#77A11D"/>
<path d="M79.5711 89.9148C79.5711 89.9871 70.9879 90.0402 60.4036 90.0402C49.8194 90.0402 41.2266 89.9678 41.2266 89.9148C41.2266 89.8618 49.8097 89.7894 60.3988 89.7894C70.9879 89.7894 79.5711 89.828 79.5711 89.9148Z" fill="#77A11D"/>
<path d="M92.6756 89.5205C92.6756 89.588 90.3514 89.6459 87.4823 89.6459C84.6133 89.6459 82.2891 89.588 82.2891 89.5205C82.2891 89.453 84.6133 89.3951 87.4823 89.3951C90.3514 89.3951 92.6756 89.4337 92.6756 89.5205Z" fill="#77A11D"/>
<path d="M118.099 89.2986C118.099 89.3661 113.277 89.424 107.379 89.424C101.482 89.424 96.6602 89.3661 96.6602 89.2986C96.6602 89.2311 101.458 89.1732 107.379 89.1732C113.301 89.1732 118.099 89.2263 118.099 89.2986Z" fill="#77A11D"/>
<path d="M117.896 93.7202C117.896 93.7877 100.677 93.8455 79.4407 93.8455C58.2046 93.8455 40.9805 93.7877 40.9805 93.7202C40.9805 93.6527 58.195 93.59 79.4407 93.59C100.686 93.59 117.896 93.6478 117.896 93.7202Z" fill="#77A11D"/>
<path d="M76.764 98.359C76.764 98.4313 68.7981 98.4844 58.9709 98.4844C49.1437 98.4844 41.1777 98.4313 41.1777 98.359C41.1777 98.2867 49.1437 98.2336 58.9709 98.2336C68.7981 98.2336 76.764 98.2915 76.764 98.359Z" fill="#77A11D"/>
<path d="M89.8061 98.3583C88.1876 98.4854 86.5635 98.5273 84.9407 98.4837C83.3194 98.5273 81.6969 98.4855 80.0801 98.3583C81.6971 98.2341 83.3194 98.1922 84.9407 98.2329C86.5635 98.1923 88.1874 98.2342 89.8061 98.3583Z" fill="#77A11D"/>
<path d="M117.896 97.9151C117.896 97.9874 112.302 98.0404 105.407 98.0404C98.5115 98.0404 92.918 97.9874 92.918 97.9151C92.918 97.8427 98.5115 97.7897 105.407 97.7897C112.302 97.7897 117.896 97.8475 117.896 97.9151Z" fill="#77A11D"/>
<path d="M90.29 103.45C90.29 103.523 79.4212 103.576 66.0161 103.576C52.611 103.576 41.7422 103.523 41.7422 103.45C41.7422 103.378 52.6061 103.325 66.0161 103.325C79.4261 103.325 90.29 103.383 90.29 103.45Z" fill="#77A11D"/>
<path d="M89.8079 108.543C89.8079 108.615 78.9584 108.668 65.5822 108.668C52.206 108.668 41.3613 108.615 41.3613 108.543C41.3613 108.471 52.2012 108.417 65.5822 108.417C78.9632 108.417 89.8079 108.475 89.8079 108.543Z" fill="#77A11D"/>
<path d="M88.4629 55.0385H41.3906V85.0939H88.4629V55.0385Z" fill="#77A11D"/>
<path d="M86.4414 82.6832C86.4414 82.6832 86.4414 82.5193 86.4414 82.201C86.4414 81.8828 86.4414 81.4343 86.4414 80.846C86.4414 79.655 86.4414 77.9143 86.4173 75.6817C86.4173 71.2165 86.3883 64.7936 86.3642 56.9241L86.4655 57.0206L43.8053 57.0495L43.9307 56.9241C43.9307 66.0473 43.9307 74.7655 43.9307 82.6687L43.8149 82.553L74.4925 82.6109L83.3022 82.6398H85.6554H86.263H86.4751H86.2774H85.6795H83.3553L74.5696 82.6687L43.8149 82.7266H43.6992V82.6832C43.6992 74.7607 43.6992 66.0618 43.6992 56.9386V56.8132H43.8246L86.4848 56.8422H86.5812V56.9386C86.5571 64.837 86.5426 71.2792 86.5282 75.7444C86.5282 77.9673 86.5282 79.6984 86.5041 80.8846C86.5041 81.4633 86.5041 81.9117 86.5041 82.2203C86.5041 82.5289 86.4414 82.6832 86.4414 82.6832Z" fill="#77A11D"/>
<g opacity="0.2">
<path opacity="0.2" d="M44.9336 82.702L57.2731 66.7991L66.1889 76.9831L73.0169 70.8399L85.4287 82.702H44.9336Z" fill="#77A11D"/>
</g>
<g opacity="0.2">
<path opacity="0.2" d="M68.952 64.9086C68.952 65.4532 68.7905 65.9855 68.488 66.4383C68.1855 66.8911 67.7554 67.244 67.2523 67.4524C66.7492 67.6608 66.1956 67.7153 65.6615 67.6091C65.1274 67.5029 64.6368 67.2406 64.2518 66.8556C63.8667 66.4705 63.6045 65.9799 63.4982 65.4458C63.392 64.9117 63.4465 64.3581 63.6549 63.855C63.8633 63.3519 64.2162 62.9218 64.669 62.6193C65.1218 62.3168 65.6541 62.1553 66.1987 62.1553C66.5602 62.1553 66.9183 62.2265 67.2523 62.3649C67.5864 62.5032 67.8899 62.706 68.1456 62.9617C68.4013 63.2174 68.6041 63.5209 68.7424 63.855C68.8808 64.189 68.952 64.5471 68.952 64.9086Z" fill="#77A11D"/>
</g>
<path d="M118.377 54.7781C118.377 54.8456 112.47 54.9035 105.184 54.9035C97.8981 54.9035 91.9863 54.8456 91.9863 54.7781C91.9863 54.7106 97.8933 54.6527 105.184 54.6527C112.475 54.6527 118.377 54.7154 118.377 54.7781Z" fill="#77A11D"/>
<path d="M118.377 59.4557C118.377 59.5232 112.47 59.5811 105.184 59.5811C97.8981 59.5811 91.9863 59.5232 91.9863 59.4557C91.9863 59.3882 97.8933 59.3303 105.184 59.3303C112.475 59.3303 118.377 59.3834 118.377 59.4557Z" fill="#77A11D"/>
<path d="M117.414 79.8135C117.414 79.881 111.507 79.9389 104.221 79.9389C96.9352 79.9389 91.0234 79.881 91.0234 79.8135C91.0234 79.746 96.9304 79.6881 104.221 79.6881C111.512 79.6881 117.414 79.7412 117.414 79.8135Z" fill="#77A11D"/>
<path d="M117.414 85.094C117.414 85.1615 111.507 85.2194 104.221 85.2194C96.9352 85.2194 91.0234 85.1615 91.0234 85.094C91.0234 85.0265 96.9304 84.9686 104.221 84.9686C111.512 84.9686 117.414 85.0217 117.414 85.094Z" fill="#77A11D"/>
<path d="M109.743 64.1321C109.743 64.1996 105.764 64.2575 100.856 64.2575C95.9469 64.2575 91.9688 64.1996 91.9688 64.1321C91.9688 64.0646 95.9469 64.0067 100.856 64.0067C105.764 64.0067 109.743 64.0646 109.743 64.1321Z" fill="#77A11D"/>
<path d="M118.555 64.0796C117.454 64.2036 116.345 64.2455 115.237 64.205C114.13 64.2455 113.021 64.2036 111.92 64.0796C113.021 63.9527 114.13 63.9108 115.237 63.9542C116.345 63.9108 117.454 63.9527 118.555 64.0796Z" fill="#77A11D"/>
<path d="M118.557 69.2622C118.557 69.3297 114.598 69.3876 109.709 69.3876C104.819 69.3876 100.855 69.3297 100.855 69.2622C100.855 69.1947 104.819 69.1368 109.709 69.1368C114.598 69.1368 118.557 69.1802 118.557 69.2622Z" fill="#77A11D"/>
<path d="M109.743 74.4845C109.743 74.5568 105.764 74.6099 100.856 74.6099C95.9469 74.6099 91.9688 74.5568 91.9688 74.4845C91.9688 74.4122 95.9469 74.3591 100.856 74.3591C105.764 74.3591 109.743 74.4315 109.743 74.4845Z" fill="#77A11D"/>
<path d="M118.555 74.4474C117.454 74.5714 116.345 74.6133 115.237 74.5727C114.13 74.6133 113.021 74.5714 111.92 74.4474C113.021 74.3233 114.13 74.2814 115.237 74.322C116.345 74.2814 117.454 74.3233 118.555 74.4474Z" fill="#77A11D"/>
<path d="M97.3446 69.1424C96.5359 69.2662 95.7169 69.3082 94.8998 69.2678C94.0828 69.3082 93.2637 69.2662 92.4551 69.1424C93.2637 69.0187 94.0828 68.9767 94.8998 69.0171C95.7169 68.9767 96.5359 69.0187 97.3446 69.1424Z" fill="#77A11D"/>
<path d="M90.2901 113.543C90.2901 113.615 79.3345 113.673 65.8281 113.673C52.3217 113.673 41.3613 113.615 41.3613 113.543C41.3613 113.471 52.3121 113.418 65.8281 113.418C79.3442 113.418 90.2901 113.461 90.2901 113.543Z" fill="#77A11D"/>
<path d="M91.0273 119.175C91.0273 119.243 80.0718 119.301 66.5605 119.301C53.0493 119.301 42.0938 119.243 42.0938 119.175C42.0938 119.108 53.0445 119.05 66.5605 119.05C80.0766 119.05 91.0273 119.103 91.0273 119.175Z" fill="#77A11D"/>
<path d="M122.08 4.72974H29.6621V126.504H122.08V4.72974Z" fill="white"/>
<path d="M122.087 126.506C122.087 125.508 122.039 76.907 121.972 4.73145L122.087 4.84236H29.6788L29.8041 4.71698C29.8041 50.0196 29.8041 92.0336 29.8041 126.492L29.6981 126.385L122.121 126.492L29.6547 126.607H29.5534V126.506C29.5534 92.0481 29.5534 50.0341 29.5293 4.73145V4.60608H29.6691H122.078H122.189V4.72181C122.131 76.8974 122.087 125.508 122.087 126.506Z" fill="#77A11D"/>
<path d="M122.087 13.6273C122.087 13.6658 101.396 13.6996 75.8779 13.6996C50.3599 13.6996 29.6543 13.6658 29.6543 13.6273C29.6543 13.5887 50.3406 13.5549 75.8683 13.5549C101.396 13.5549 122.087 13.5839 122.087 13.6273Z" fill="#77A11D"/>
<path d="M93.786 9.46631C93.786 9.50489 86.7314 9.53864 78.0229 9.53864C69.3143 9.53864 62.2598 9.50489 62.2598 9.46631C62.2598 9.42774 69.2902 9.38916 77.9988 9.38916C86.7073 9.38916 93.786 9.42292 93.786 9.46631Z" fill="#ACCD53"/>
<path d="M33.2664 10.4875C33.831 10.4875 34.2887 10.0298 34.2887 9.46526C34.2887 8.90068 33.831 8.44299 33.2664 8.44299C32.7018 8.44299 32.2441 8.90068 32.2441 9.46526C32.2441 10.0298 32.7018 10.4875 33.2664 10.4875Z" fill="#E3EDC3"/>
<path d="M37.7494 9.46514C37.7456 9.66646 37.6825 9.86217 37.5678 10.0277C37.4532 10.1933 37.2923 10.3213 37.1052 10.3957C36.9181 10.4701 36.7132 10.4877 36.5162 10.4461C36.3192 10.4045 36.1388 10.3056 35.9978 10.1619C35.8567 10.0182 35.7613 9.83605 35.7234 9.63829C35.6854 9.44054 35.7068 9.23599 35.7847 9.05032C35.8626 8.86465 35.9936 8.70611 36.1613 8.59462C36.3289 8.48312 36.5258 8.42362 36.7272 8.42358C36.863 8.42356 36.9976 8.45063 37.1229 8.5032C37.2482 8.55578 37.3617 8.63281 37.4569 8.72979C37.5521 8.82676 37.627 8.94174 37.6772 9.068C37.7274 9.19427 37.752 9.32928 37.7494 9.46514Z" fill="#E3EDC3"/>
<path d="M41.226 9.46524C41.2222 9.66615 41.1593 9.86148 41.0451 10.0268C40.9309 10.1922 40.7705 10.3202 40.584 10.3949C40.3974 10.4696 40.193 10.4877 39.9962 10.4469C39.7995 10.406 39.6191 10.3081 39.4777 10.1654C39.3363 10.0226 39.2401 9.84137 39.2011 9.64425C39.1621 9.44713 39.1821 9.24289 39.2585 9.05705C39.3349 8.87121 39.4644 8.71202 39.6308 8.59938C39.7972 8.48673 39.9931 8.42562 40.1941 8.42369C40.331 8.42171 40.4668 8.44736 40.5936 8.49913C40.7203 8.55089 40.8353 8.62769 40.9316 8.72494C41.028 8.82219 41.1037 8.93787 41.1543 9.06508C41.2048 9.19228 41.2292 9.32839 41.226 9.46524Z" fill="#E3EDC3"/>
<path d="M64.8236 26.0683H62.7068L62.3017 27.0327H61.2168L63.2517 22.4711H64.2932L66.3329 27.0327H65.2287L64.8236 26.0683ZM64.4909 25.2678L63.7676 23.5223L63.0443 25.2678H64.4909Z" fill="#ACCD53"/>
<path d="M69.7144 27.046L68.8368 25.7826H67.8724V27.0556H66.8164V22.494H68.7886C70.0086 22.494 70.7704 23.1257 70.7704 24.148C70.7839 24.457 70.7005 24.7625 70.5319 25.0218C70.3633 25.2811 70.118 25.4814 69.8301 25.5946L70.8572 27.0412L69.7144 27.046ZM68.7114 23.3427H67.8531V24.9339H68.7114C69.3576 24.9339 69.6758 24.635 69.6758 24.1383C69.6758 23.6417 69.3721 23.3427 68.7114 23.3427Z" fill="#ACCD53"/>
<path d="M72.4778 23.3427H71.0312V22.4844H74.9805V23.3427H73.5339V27.046H72.4778V23.3427Z" fill="#ACCD53"/>
<path d="M75.5586 22.4844H76.6146V27.046H75.5586V22.4844Z" fill="#ACCD53"/>
<path d="M77.3906 24.7657C77.4229 24.2771 77.5972 23.8085 77.8922 23.4176C78.1872 23.0268 78.5901 22.7306 79.0511 22.5657C79.5122 22.4007 80.0115 22.3741 80.4875 22.4891C80.9635 22.6041 81.3955 22.8558 81.7304 23.2131L81.0505 23.8399C80.9123 23.6695 80.7372 23.5328 80.5384 23.4401C80.3396 23.3473 80.1223 23.301 79.9029 23.3047C79.5192 23.3047 79.1513 23.4571 78.88 23.7284C78.6087 23.9997 78.4563 24.3676 78.4563 24.7513C78.4563 25.1349 78.6087 25.5029 78.88 25.7742C79.1513 26.0455 79.5192 26.1979 79.9029 26.1979C80.1226 26.2009 80.3402 26.1539 80.5391 26.0603C80.7379 25.9667 80.9128 25.8291 81.0505 25.6578L81.7304 26.2847C81.3971 26.6438 80.9658 26.8973 80.4899 27.014C80.0141 27.1307 79.5144 27.1054 79.0528 26.9413C78.5911 26.7771 78.1876 26.4813 77.8922 26.0904C77.5968 25.6995 77.4225 25.2306 77.3906 24.7416V24.7657Z" fill="#ACCD53"/>
<path d="M82.4727 22.4844H83.5287V26.1828H85.8143V27.046H82.4727V22.4844Z" fill="#ACCD53"/>
<path d="M89.9283 26.1973V27.046H86.4082V22.4844H89.8559V23.3282H87.4449V24.336H89.5618V25.1558H87.4449V26.2118L89.9283 26.1973Z" fill="#ACCD53"/>
<path d="M58.9666 25.1708C58.9666 25.2142 54.0722 25.248 48.0399 25.248C42.0076 25.248 37.1133 25.2142 37.1133 25.1708C37.1133 25.1274 42.0028 25.0985 48.0399 25.0985C54.077 25.0985 58.9666 25.1323 58.9666 25.1708Z" fill="#77A11D"/>
<path d="M117.066 25.1708C117.066 25.2142 111.931 25.248 105.599 25.248C99.2681 25.248 94.123 25.2142 94.123 25.1708C94.123 25.1274 99.2585 25.0985 105.599 25.0985C111.94 25.0985 117.066 25.1323 117.066 25.1708Z" fill="#77A11D"/>
<path d="M112.924 98.9421H90.7617V120.386H112.924V98.9421Z" fill="#ACCD53"/>
<g opacity="0.3">
<path opacity="0.3" d="M92.4844 118.547L98.6131 107.515L103.628 114.569L106.676 110.822L111.208 118.547H92.4844Z" fill="#77A11D"/>
</g>
<g opacity="0.3">
<path opacity="0.3" d="M105.358 104.198C106.66 105.91 104.726 107.839 103.019 106.537C101.703 104.83 103.632 102.901 105.358 104.198Z" fill="#77A11D"/>
</g>
<g opacity="0.3">
<path opacity="0.3" d="M111.208 118.611C111.208 118.611 111.208 118.577 111.208 118.519C111.208 118.462 111.208 118.375 111.208 118.273C111.208 118.042 111.208 117.719 111.208 117.309C111.208 116.46 111.208 115.231 111.184 113.668C111.184 110.539 111.184 106.079 111.141 100.721L111.228 100.813H92.5039C92.4798 100.837 92.7016 100.615 92.61 100.712V103.123C92.61 103.928 92.61 104.724 92.61 105.51V110.168C92.61 113.172 92.61 116.012 92.61 118.625L92.5184 118.534L106.059 118.577H109.878H110.89H111.151H110.909H109.916L106.116 118.601L92.5184 118.65H92.4267V118.558C92.4267 115.944 92.4267 113.104 92.4267 110.1C92.4267 108.601 92.4267 107.058 92.4267 105.481V100.659C92.3303 100.75 92.5521 100.524 92.5328 100.548H111.257H111.348V100.639C111.348 106.021 111.315 110.5 111.305 113.659C111.305 115.211 111.305 116.436 111.305 117.28C111.305 117.69 111.305 118.003 111.305 118.245C111.305 118.341 111.305 118.423 111.305 118.486C111.305 118.548 111.213 118.611 111.208 118.611Z" fill="#77A11D"/>
</g>
<path d="M58.5854 33.2957C58.5854 33.3632 53.7634 33.421 47.76 33.421C41.7566 33.421 36.9395 33.3632 36.9395 33.2957C36.9395 33.2282 41.7614 33.1703 47.76 33.1703C53.7586 33.1703 58.5854 33.2233 58.5854 33.2957Z" fill="#77A11D"/>
<path d="M75.2791 38.4889C75.2791 38.5564 66.696 38.6143 56.1117 38.6143C45.5274 38.6143 36.9395 38.5564 36.9395 38.4889C36.9395 38.4214 45.5178 38.3635 56.1117 38.3635C66.7056 38.3635 75.2791 38.4214 75.2791 38.4889Z" fill="#77A11D"/>
<path d="M88.3866 38.108C88.3866 38.1804 86.0624 38.2334 83.1933 38.2334C80.3242 38.2334 78 38.1804 78 38.108C78 38.0357 80.3242 37.9827 83.1933 37.9827C86.0624 37.9827 88.3866 38.0405 88.3866 38.108Z" fill="#77A11D"/>
<path d="M113.806 37.886C113.806 37.9583 108.984 38.0162 103.086 38.0162C97.1892 38.0162 92.3672 37.9583 92.3672 37.886C92.3672 37.8137 97.1651 37.7606 103.086 37.7606C109.008 37.7606 113.806 37.8378 113.806 37.886Z" fill="#77A11D"/>
<path d="M113.584 42.3076C113.584 42.38 96.3652 42.433 75.1291 42.433C53.893 42.433 36.6641 42.38 36.6641 42.3076C36.6641 42.2353 53.8834 42.1823 75.1291 42.1823C96.3748 42.1823 113.584 42.2401 113.584 42.3076Z" fill="#77A11D"/>
<path d="M72.4711 46.9513C72.4711 47.0188 64.5051 47.0767 54.6779 47.0767C44.8507 47.0767 36.8848 46.9995 36.8848 46.9513C36.8848 46.9031 44.8507 46.8259 54.6779 46.8259C64.5051 46.8259 72.4711 46.879 72.4711 46.9513Z" fill="#77A11D"/>
<path d="M85.517 46.9522C83.8984 47.0764 82.2745 47.1182 80.6516 47.0776C79.0303 47.1183 77.408 47.0765 75.791 46.9522C77.4079 46.8251 79.0303 46.7833 80.6516 46.8269C82.2745 46.7833 83.8985 46.8252 85.517 46.9522Z" fill="#77A11D"/>
<path d="M113.583 46.5182C113.583 46.5905 107.99 46.6436 101.094 46.6436C94.199 46.6436 88.6055 46.5905 88.6055 46.5182C88.6055 46.4459 94.199 46.3928 101.094 46.3928C107.99 46.3928 113.583 46.441 113.583 46.5182Z" fill="#77A11D"/>
<path d="M74.7976 86.7233C74.7976 86.7908 66.2145 86.8486 55.6254 86.8486C45.0363 86.8486 36.4531 86.7908 36.4531 86.7233C36.4531 86.6558 45.0363 86.5979 55.6254 86.5979C66.2145 86.5979 74.7976 86.6509 74.7976 86.7233Z" fill="#77A11D"/>
<path d="M87.9022 86.3423C87.9022 86.4098 85.578 86.4677 82.7089 86.4677C79.8398 86.4677 77.5156 86.4098 77.5156 86.3423C77.5156 86.2748 79.8398 86.2169 82.7089 86.2169C85.578 86.2169 87.9022 86.2748 87.9022 86.3423Z" fill="#77A11D"/>
<path d="M113.319 86.1204C113.319 86.1927 108.522 86.2458 102.6 86.2458C96.6787 86.2458 91.8809 86.1927 91.8809 86.1204C91.8809 86.048 96.6787 85.995 102.6 85.995C108.522 85.995 113.319 86.0577 113.319 86.1204Z" fill="#77A11D"/>
<path d="M113.097 90.542C113.097 90.6095 95.8779 90.6674 74.6418 90.6674C53.4058 90.6674 36.1816 90.6095 36.1816 90.542C36.1816 90.4745 53.3962 90.4166 74.6418 90.4166C95.8875 90.4166 113.097 90.4745 113.097 90.542Z" fill="#77A11D"/>
<path d="M71.9906 95.1857C71.9906 95.2532 64.0247 95.311 54.1975 95.311C44.3702 95.311 36.4043 95.2532 36.4043 95.1857C36.4043 95.1182 44.3702 95.0603 54.1975 95.0603C64.0247 95.0603 71.9906 95.1133 71.9906 95.1857Z" fill="#77A11D"/>
<path d="M85.0307 95.1853C83.4136 95.3095 81.7914 95.3513 80.1701 95.3106C78.5472 95.3512 76.9233 95.3094 75.3047 95.1853C76.9232 95.0582 78.5472 95.0164 80.1701 95.0599C81.7914 95.0163 83.4138 95.0581 85.0307 95.1853Z" fill="#77A11D"/>
<path d="M113.098 94.7368C113.098 94.8043 107.509 94.8622 100.614 94.8622C93.7185 94.8622 88.125 94.8043 88.125 94.7368C88.125 94.6693 93.7137 94.6115 100.614 94.6115C107.514 94.6115 113.098 94.6741 113.098 94.7368Z" fill="#77A11D"/>
<path d="M85.5166 100.278C85.5166 100.346 74.6478 100.403 61.2427 100.403C47.8375 100.403 36.9688 100.346 36.9688 100.278C36.9688 100.211 47.8327 100.153 61.2427 100.153C74.6526 100.153 85.5166 100.206 85.5166 100.278Z" fill="#77A11D"/>
<path d="M85.0286 105.369C85.0286 105.437 74.1839 105.495 60.8077 105.495C47.4315 105.495 36.582 105.437 36.582 105.369C36.582 105.302 47.4267 105.244 60.8077 105.244C74.1887 105.244 85.0286 105.297 85.0286 105.369Z" fill="#77A11D"/>
<path d="M83.6895 51.8651H36.6172V81.9206H83.6895V51.8651Z" fill="#77A11D"/>
<path d="M81.6633 79.5287C81.6633 79.5287 81.6633 79.3648 81.6633 79.0465C81.6633 78.7283 81.6633 78.2847 81.6633 77.6915C81.6633 76.5005 81.6633 74.7598 81.6633 72.532C81.6633 68.0669 81.6296 61.644 81.6103 53.7745L81.7067 53.8709L39.0514 53.8999L39.1768 53.7745C39.1768 62.8929 39.1768 71.6158 39.1768 79.5191L39.061 79.3985L69.7434 79.4564L78.5532 79.4902H80.9015H81.509H81.7212H80.9304H78.6014L69.8205 79.5239L39.061 79.5818H38.9453V79.466C38.9453 71.5435 38.9453 62.8398 38.9453 53.7214V53.5961H39.0755L81.7309 53.6202H81.8321V53.7214C81.8321 61.615 81.7935 68.0572 81.7839 72.5272C81.7839 74.7501 81.7839 76.4812 81.7598 77.6674C81.7598 78.2509 81.7598 78.6945 81.7598 79.0031C81.7598 79.3117 81.6633 79.5287 81.6633 79.5287Z" fill="#77A11D"/>
<g opacity="0.2">
<path opacity="0.2" d="M40.1562 79.529L52.5006 63.6261L61.4164 73.8102L68.2395 67.6669L80.6513 79.529H40.1562Z" fill="#77A11D"/>
</g>
<g opacity="0.2">
<path opacity="0.2" d="M64.1727 61.7308C64.1737 62.2758 64.0129 62.8088 63.7107 63.2623C63.4086 63.7158 62.9786 64.0695 62.4753 64.2785C61.972 64.4875 61.418 64.5424 60.8834 64.4363C60.3489 64.3302 59.8578 64.0679 59.4725 63.6826C59.0871 63.2972 58.8248 62.8062 58.7187 62.2716C58.6126 61.7371 58.6675 61.1831 58.8765 60.6798C59.0855 60.1765 59.4392 59.7465 59.8927 59.4443C60.3462 59.1421 60.8792 58.9814 61.4242 58.9823C62.1528 58.9836 62.8511 59.2736 63.3663 59.7887C63.8815 60.3039 64.1715 61.0023 64.1727 61.7308Z" fill="#77A11D"/>
</g>
<path d="M113.586 51.5999C113.586 51.6722 107.679 51.7252 100.388 51.7252C93.0974 51.7252 87.1953 51.6722 87.1953 51.5999C87.1953 51.5275 93.1023 51.4745 100.388 51.4745C107.674 51.4745 113.586 51.5323 113.586 51.5999Z" fill="#77A11D"/>
<path d="M113.586 56.2775C113.586 56.3498 107.679 56.4028 100.388 56.4028C93.0974 56.4028 87.1953 56.3498 87.1953 56.2775C87.1953 56.2051 93.1023 56.1521 100.388 56.1521C107.674 56.1521 113.586 56.21 113.586 56.2775Z" fill="#77A11D"/>
<path d="M112.639 76.6353C112.639 76.7076 106.727 76.7606 99.441 76.7606C92.155 76.7606 86.248 76.7076 86.248 76.6353C86.248 76.5629 92.155 76.5099 99.441 76.5099C106.727 76.5099 112.639 76.5678 112.639 76.6353Z" fill="#77A11D"/>
<path d="M112.639 81.9158C112.639 81.9881 106.727 82.0412 99.441 82.0412C92.155 82.0412 86.248 81.9881 86.248 81.9158C86.248 81.8435 92.155 81.7904 99.441 81.7904C106.727 81.7904 112.639 81.8483 112.639 81.9158Z" fill="#77A11D"/>
<path d="M104.964 60.9551C104.964 61.0274 100.986 61.0805 96.0822 61.0805C91.1783 61.0805 87.1953 61.0274 87.1953 60.9551C87.1953 60.8828 91.1735 60.8297 96.0822 60.8297C100.991 60.8297 104.964 60.8876 104.964 60.9551Z" fill="#77A11D"/>
<path d="M113.783 60.9021C112.683 61.029 111.573 61.0709 110.466 61.0274C109.359 61.0709 108.249 61.029 107.148 60.9021C108.25 60.778 109.359 60.7361 110.466 60.7767C111.573 60.7361 112.682 60.778 113.783 60.9021Z" fill="#77A11D"/>
<path d="M113.783 66.0852C113.783 66.1575 109.819 66.2106 104.929 66.2106C100.04 66.2106 96.0762 66.1575 96.0762 66.0852C96.0762 66.0129 100.04 65.9598 104.929 65.9598C109.819 65.9598 113.783 66.0177 113.783 66.0852Z" fill="#77A11D"/>
<path d="M104.964 71.3269C104.964 71.3944 100.986 71.4523 96.0822 71.4523C91.1783 71.4523 87.1953 71.3944 87.1953 71.3269C87.1953 71.2594 91.1735 71.2015 96.0822 71.2015C100.991 71.2015 104.964 71.2546 104.964 71.3269Z" fill="#77A11D"/>
<path d="M113.783 71.2739C112.682 71.3979 111.573 71.4399 110.466 71.3993C109.359 71.4399 108.25 71.3979 107.148 71.2739C108.249 71.1438 109.358 71.1003 110.466 71.1437C111.574 71.1003 112.683 71.1438 113.783 71.2739Z" fill="#77A11D"/>
<path d="M92.5672 65.9654C91.7589 66.0921 90.9395 66.1341 90.1225 66.0908C89.3054 66.1341 88.4861 66.0921 87.6777 65.9654C88.4864 65.8417 89.3054 65.7997 90.1225 65.8401C90.9395 65.7997 91.7586 65.8417 92.5672 65.9654Z" fill="#77A11D"/>
<path d="M85.5156 110.356C85.5156 110.424 74.56 110.482 61.0488 110.482C47.5376 110.482 36.582 110.424 36.582 110.356C36.582 110.289 47.5328 110.231 61.0488 110.231C74.5649 110.231 85.5156 110.289 85.5156 110.356Z" fill="#77A11D"/>
<path d="M86.2491 115.997C86.2491 116.07 75.2935 116.123 61.7871 116.123C48.2807 116.123 37.3203 116.07 37.3203 115.997C37.3203 115.925 48.2711 115.872 61.7871 115.872C75.3031 115.872 86.2491 115.954 86.2491 115.997Z" fill="#77A11D"/>
<path d="M117.491 0.135864H25.0723V121.91H117.491V0.135864Z" fill="white"/>
<path d="M117.491 121.91C117.491 120.911 117.447 72.3106 117.38 0.135015L117.491 0.250746H25.082L25.2073 0.125373C25.2073 45.4521 25.2073 87.4468 25.2073 121.9L25.1061 121.799L117.524 121.9L25.1061 122.001H25V121.9C25 87.4468 25 45.4328 25 0.125373V0H25.135H117.544H117.659V0.110907C117.539 72.3106 117.491 120.911 117.491 121.91Z" fill="#77A11D"/>
<path d="M117.491 9.03205C117.491 9.07545 96.7994 9.1092 71.2814 9.1092C45.7634 9.1092 25.0723 9.07545 25.0723 9.03205C25.0723 8.98865 45.7586 8.95972 71.2814 8.95972C96.8042 8.95972 117.491 8.99347 117.491 9.03205Z" fill="#77A11D"/>
<path d="M89.1714 4.87128C89.1714 4.91468 82.112 4.94361 73.4035 4.94361C64.695 4.94361 57.6211 4.91468 57.6211 4.87128C57.6211 4.82788 64.6805 4.79895 73.3842 4.79895C82.0879 4.79895 89.1714 4.8327 89.1714 4.87128Z" fill="#ACCD53"/>
<path d="M106.294 5.89242C106.858 5.89242 107.316 5.43474 107.316 4.87016C107.316 4.30558 106.858 3.8479 106.294 3.8479C105.729 3.8479 105.271 4.30558 105.271 4.87016C105.271 5.43474 105.729 5.89242 106.294 5.89242Z" fill="#E3EDC3"/>
<path d="M110.779 4.87016C110.779 5.07234 110.719 5.26999 110.607 5.4381C110.494 5.60621 110.335 5.73723 110.148 5.81461C109.961 5.89198 109.756 5.91223 109.557 5.87278C109.359 5.83334 109.177 5.73598 109.034 5.59301C108.891 5.45004 108.793 5.2679 108.754 5.0696C108.715 4.8713 108.735 4.66575 108.812 4.47896C108.89 4.29216 109.021 4.13251 109.189 4.02018C109.357 3.90786 109.554 3.8479 109.757 3.8479C110.028 3.8479 110.288 3.9556 110.479 4.14731C110.671 4.33903 110.779 4.59904 110.779 4.87016Z" fill="#E3EDC3"/>
<path d="M114.246 4.87016C114.246 5.07234 114.186 5.26999 114.073 5.4381C113.961 5.60621 113.801 5.73723 113.615 5.81461C113.428 5.89198 113.222 5.91223 113.024 5.87278C112.826 5.83334 112.644 5.73598 112.501 5.59301C112.358 5.45004 112.26 5.2679 112.221 5.0696C112.181 4.8713 112.202 4.66575 112.279 4.47896C112.356 4.29216 112.487 4.13251 112.655 4.02018C112.824 3.90786 113.021 3.8479 113.223 3.8479C113.495 3.8479 113.755 3.9556 113.946 4.14731C114.138 4.33903 114.246 4.59904 114.246 4.87016Z" fill="#E3EDC3"/>
<path d="M60.2289 21.4732H58.1024L57.6973 22.4376H56.6172L58.6472 17.876H59.6936L61.7333 22.4376H60.6243L60.2289 21.4732ZM59.8961 20.6727L59.1728 18.9272L58.4495 20.6727H59.8961Z" fill="#ACCD53"/>
<path d="M65.1216 22.4513L64.2392 21.1782H63.2748V22.4513H62.2188V17.8896H64.1909C65.4109 17.8896 66.1728 18.5213 66.1728 19.5436C66.1866 19.852 66.1039 20.1571 65.9362 20.4164C65.7686 20.6756 65.5243 20.8762 65.2373 20.9902L66.2596 22.4368L65.1216 22.4513ZM64.1283 18.748H63.2699V20.3392H64.1283C64.7744 20.3392 65.0927 20.0403 65.0927 19.5436C65.0927 19.0469 64.7744 18.748 64.1283 18.748Z" fill="#ACCD53"/>
<path d="M67.8802 18.748H66.4336V17.8896H70.4069V18.748H68.9603V22.4513H67.9043L67.8802 18.748Z" fill="#ACCD53"/>
<path d="M70.9668 17.8896H72.0228V22.4513H70.9668V17.8896Z" fill="#ACCD53"/>
<path d="M72.8145 20.1702C72.8467 19.6815 73.021 19.2129 73.316 18.8221C73.6111 18.4312 74.0139 18.135 74.475 17.9701C74.9361 17.8051 75.4353 17.7785 75.9113 17.8935C76.3873 18.0085 76.8194 18.2602 77.1543 18.6175L76.4744 19.2443C76.3367 19.0746 76.1623 18.9382 75.9644 18.8455C75.7665 18.7528 75.5501 18.7062 75.3315 18.7091C74.944 18.7091 74.5724 18.863 74.2984 19.137C74.0244 19.411 73.8705 19.7827 73.8705 20.1702C73.8705 20.5577 74.0244 20.9293 74.2984 21.2033C74.5724 21.4773 74.944 21.6312 75.3315 21.6312C75.5505 21.6336 75.7671 21.5862 75.965 21.4926C76.163 21.3991 76.3372 21.2618 76.4744 21.0912L77.1543 21.7132C76.8209 22.0723 76.3896 22.3258 75.9138 22.4425C75.4379 22.5592 74.9382 22.5339 74.4766 22.3698C74.0149 22.2056 73.6115 21.9098 73.3161 21.5189C73.0207 21.128 72.8463 20.6591 72.8145 20.1702Z" fill="#ACCD53"/>
<path d="M77.8711 17.8896H78.9271V21.5929H81.2127V22.4513H77.8711V17.8896Z" fill="#ACCD53"/>
<path d="M85.3451 21.6026V22.4513H81.8105V17.8896H85.2583V18.7383H82.8473V19.7027H84.9641V20.5225H82.8473V21.5785L85.3451 21.6026Z" fill="#ACCD53"/>
<path d="M54.3709 20.5806C54.3709 20.6191 49.4813 20.6529 43.4442 20.6529C37.4071 20.6529 32.5176 20.6191 32.5176 20.5806C32.5176 20.542 37.4119 20.5034 43.4442 20.5034C49.4765 20.5034 54.3709 20.5372 54.3709 20.5806Z" fill="#77A11D"/>
<path d="M112.476 20.5806C112.476 20.6191 107.336 20.6529 101.005 20.6529C94.6734 20.6529 89.5332 20.6191 89.5332 20.5806C89.5332 20.542 94.6686 20.5034 101.005 20.5034C107.341 20.5034 112.476 20.5372 112.476 20.5806Z" fill="#77A11D"/>
<path d="M108.334 94.3469H86.1719V115.79H108.334V94.3469Z" fill="#ACCD53"/>
<g opacity="0.3">
<path opacity="0.3" d="M87.8887 113.958L94.0222 102.92L99.0371 109.975L102.085 106.228L106.617 113.958H87.8887Z" fill="#77A11D"/>
</g>
<g opacity="0.3">
<path opacity="0.3" d="M100.744 99.6071C102.046 101.314 100.117 103.243 98.4055 101.941C97.1084 100.234 99.0372 98.3051 100.744 99.6071Z" fill="#77A11D"/>
</g>
<g opacity="0.3">
<path opacity="0.3" d="M106.616 114.026C106.612 113.997 106.612 113.967 106.616 113.939C106.616 113.871 106.616 113.789 106.616 113.688C106.616 113.456 106.616 113.138 106.616 112.724C106.616 111.87 106.616 110.64 106.616 109.078C106.616 105.949 106.588 101.488 106.568 96.1311L106.66 96.2227H87.9312L88.0373 96.1214V100.943C88.0373 102.52 88.0373 104.063 88.0373 105.568C88.0373 108.567 88.0373 111.407 88.0373 114.021L87.9457 113.929L101.486 113.972L105.305 113.997H106.318H105.324L101.524 114.021L87.9264 114.069H87.8348V114.026C87.8348 111.412 87.8348 108.572 87.8348 105.573C87.8348 104.068 87.8348 102.525 87.8348 100.948V96.1263C87.7432 96.2179 87.965 95.9961 87.9409 96.0154H106.67H106.761V96.1021C106.761 101.483 106.723 105.963 106.713 109.122C106.713 110.674 106.713 111.899 106.713 112.743C106.713 113.153 106.713 113.466 106.713 113.707C106.713 113.809 106.713 113.886 106.713 113.948C106.713 114.011 106.616 114.026 106.616 114.026Z" fill="#77A11D"/>
</g>
<path d="M53.9897 28.7006C53.9897 28.7681 49.1677 28.8259 43.1691 28.8259C37.1706 28.8259 32.3438 28.7681 32.3438 28.7006C32.3438 28.6331 37.1657 28.5752 43.1691 28.5752C49.1725 28.5752 53.9897 28.6282 53.9897 28.7006Z" fill="#77A11D"/>
<path d="M70.6834 33.8938C70.6834 33.9661 62.1003 34.0192 51.516 34.0192C40.9317 34.0192 32.3438 33.9661 32.3438 33.8938C32.3438 33.8215 40.9269 33.7684 51.516 33.7684C62.1051 33.7684 70.6834 33.8263 70.6834 33.8938Z" fill="#77A11D"/>
<path d="M83.7937 33.4983C83.7937 33.5658 81.4647 33.6237 78.6004 33.6237C75.7362 33.6237 73.4023 33.5658 73.4023 33.4983C73.4023 33.4308 75.7314 33.3729 78.6004 33.3729C81.4695 33.3729 83.7937 33.4453 83.7937 33.4983Z" fill="#77A11D"/>
<path d="M109.216 33.2957C109.216 33.3632 104.394 33.421 98.4966 33.421C92.5993 33.421 87.7773 33.3632 87.7773 33.2957C87.7773 33.2282 92.5752 33.1703 98.4966 33.1703C104.418 33.1703 109.216 33.2233 109.216 33.2957Z" fill="#77A11D"/>
<path d="M108.99 37.7125C108.99 37.7849 91.7704 37.8427 70.5343 37.8427C49.2983 37.8427 32.0645 37.7849 32.0645 37.7125C32.0645 37.6402 49.279 37.5872 70.5247 37.5872C91.7704 37.5872 108.99 37.645 108.99 37.7125Z" fill="#77A11D"/>
<path d="M67.8764 42.3562C67.8764 42.4237 59.9105 42.4816 50.0881 42.4816C40.2657 42.4816 32.2949 42.4237 32.2949 42.3562C32.2949 42.2887 40.256 42.2308 50.0881 42.2308C59.9201 42.2308 67.8764 42.2887 67.8764 42.3562Z" fill="#77A11D"/>
<path d="M80.9213 42.3567C79.3026 42.4809 77.6787 42.5227 76.0559 42.4821C74.4346 42.5228 72.8123 42.481 71.1953 42.3567C72.8123 42.2325 74.4346 42.1907 76.0559 42.2314C77.6787 42.1907 79.3026 42.2326 80.9213 42.3567Z" fill="#77A11D"/>
<path d="M108.99 41.9122C108.99 41.9846 103.401 42.0376 96.5007 42.0376C89.6004 42.0376 84.0117 41.9846 84.0117 41.9122C84.0117 41.8399 89.6052 41.7869 96.5007 41.7869C103.396 41.7869 108.99 41.8447 108.99 41.9122Z" fill="#77A11D"/>
<path d="M70.201 82.1281C70.201 82.1956 61.6178 82.2534 51.0287 82.2534C40.4397 82.2534 31.8613 82.1956 31.8613 82.1281C31.8613 82.0606 40.4397 82.0027 51.0287 82.0027C61.6178 82.0027 70.201 82.0606 70.201 82.1281Z" fill="#77A11D"/>
<path d="M83.3085 81.7472C83.3085 81.8195 80.9843 81.8726 78.1152 81.8726C75.2461 81.8726 72.9219 81.8195 72.9219 81.7472C72.9219 81.6749 75.2461 81.6218 78.1152 81.6218C80.9843 81.6218 83.3085 81.6797 83.3085 81.7472Z" fill="#77A11D"/>
<path d="M108.734 81.53C108.734 81.5975 103.912 81.6553 98.0151 81.6553C92.1178 81.6553 87.291 81.5975 87.291 81.53C87.291 81.4625 92.113 81.3998 98.0151 81.3998C103.917 81.3998 108.734 81.4576 108.734 81.53Z" fill="#77A11D"/>
<path d="M108.507 85.9469C108.507 86.0192 91.2879 86.0723 70.0471 86.0723C48.8062 86.0723 31.582 86.0192 31.582 85.9469C31.582 85.8746 48.8014 85.8215 70.0422 85.8215C91.2831 85.8215 108.507 85.8794 108.507 85.9469Z" fill="#77A11D"/>
<path d="M67.3949 90.5905C67.3949 90.658 59.429 90.7158 49.6017 90.7158C39.7745 90.7158 31.8086 90.658 31.8086 90.5905C31.8086 90.5229 39.7745 90.4651 49.6017 90.4651C59.429 90.4651 67.3949 90.5181 67.3949 90.5905Z" fill="#77A11D"/>
<path d="M80.434 90.5902C78.817 90.7144 77.1947 90.7563 75.5735 90.7156C73.9522 90.7563 72.3299 90.7144 70.7129 90.5902C72.3298 90.4631 73.9522 90.4212 75.5735 90.4648C77.1947 90.4212 78.8172 90.4631 80.434 90.5902Z" fill="#77A11D"/>
<path d="M108.507 90.1465C108.507 90.2188 102.914 90.2719 96.0183 90.2719C89.1228 90.2719 83.5293 90.2188 83.5293 90.1465C83.5293 90.0742 89.118 90.0211 96.0183 90.0211C102.919 90.0211 108.507 90.079 108.507 90.1465Z" fill="#77A11D"/>
<path d="M80.9209 95.7024C80.9209 95.7699 70.0521 95.8278 56.647 95.8278C43.2418 95.8278 32.373 95.7699 32.373 95.7024C32.373 95.6349 43.237 95.577 56.647 95.577C70.0569 95.577 80.9209 95.6156 80.9209 95.7024Z" fill="#77A11D"/>
<path d="M80.4348 100.776C80.4348 100.843 69.5902 100.901 56.214 100.901C42.8378 100.901 31.9883 100.843 31.9883 100.776C31.9883 100.708 42.8329 100.65 56.214 100.65C69.595 100.65 80.4348 100.708 80.4348 100.776Z" fill="#77A11D"/>
<path d="M79.0938 47.2699H32.0215V77.3254H79.0938V47.2699Z" fill="#77A11D"/>
<path d="M77.0686 74.9336C77.0686 74.9336 77.0686 74.7696 77.0686 74.4514C77.0686 74.1331 77.0686 73.6895 77.0686 73.1012C77.0686 71.9102 77.0686 70.1695 77.0686 67.9369C77.0686 63.4717 77.0396 57.0488 77.0155 49.1793L77.112 49.2758L34.4566 49.3047L34.582 49.1793C34.582 58.2977 34.582 67.0207 34.582 74.9239L34.4663 74.8082L65.1438 74.8612L73.9535 74.895H76.3019H76.9142H77.1216H76.9287H76.3308H74.0066L65.2209 74.9239L34.4663 74.9818H34.3457V74.8661C34.3457 66.9435 34.3457 58.2398 34.3457 49.1215V48.9961H34.4759L77.1312 49.025H77.2325V49.1215C77.2325 57.0151 77.1939 63.4621 77.1795 67.9272C77.1795 70.1502 77.1795 71.8861 77.1553 73.0723C77.1553 73.6509 77.1553 74.0994 77.1553 74.408C77.1553 74.7166 77.0686 74.9336 77.0686 74.9336Z" fill="#77A11D"/>
<g opacity="0.2">
<path opacity="0.2" d="M35.5645 74.9334L47.9039 59.0305L56.8198 69.2146L63.6429 63.0713L76.0547 74.9334H35.5645Z" fill="#77A11D"/>
</g>
<g opacity="0.2">
<path opacity="0.2" d="M59.579 57.1256C59.5799 57.6706 59.4191 58.2036 59.117 58.6571C58.8148 59.1106 58.3848 59.4643 57.8815 59.6733C57.3782 59.8823 56.8242 59.9372 56.2897 59.8311C55.7551 59.725 55.2641 59.4627 54.8787 59.0773C54.4934 58.692 54.231 58.2009 54.1249 57.6664C54.0189 57.1318 54.0738 56.5778 54.2828 56.0745C54.4918 55.5712 54.8454 55.1413 55.2989 54.8391C55.7525 54.5369 56.2855 54.3761 56.8304 54.3771C57.559 54.3784 58.2574 54.6683 58.7725 55.1835C59.2877 55.6987 59.5777 56.397 59.579 57.1256Z" fill="#77A11D"/>
</g>
<path d="M108.99 46.9999C108.99 47.0722 103.083 47.1301 95.7974 47.1301C88.5114 47.1301 82.5996 47.0722 82.5996 46.9999C82.5996 46.9276 88.5065 46.8745 95.7974 46.8745C103.088 46.8745 108.99 46.9372 108.99 46.9999Z" fill="#77A11D"/>
<path d="M108.99 51.6871C108.99 51.7546 103.083 51.8125 95.7974 51.8125C88.5114 51.8125 82.5996 51.7546 82.5996 51.6871C82.5996 51.6196 88.5065 51.5618 95.7974 51.5618C103.088 51.5618 108.99 51.6148 108.99 51.6871Z" fill="#77A11D"/>
<path d="M108.045 72.0402C108.045 72.1125 102.138 72.1656 94.8473 72.1656C87.5564 72.1656 81.6543 72.1125 81.6543 72.0402C81.6543 71.9678 87.5612 71.9148 94.8473 71.9148C102.133 71.9148 108.045 71.9727 108.045 72.0402Z" fill="#77A11D"/>
<path d="M108.045 77.3207C108.045 77.393 102.138 77.4461 94.8473 77.4461C87.5564 77.4461 81.6543 77.393 81.6543 77.3207C81.6543 77.2484 87.5612 77.1953 94.8473 77.1953C102.133 77.1953 108.045 77.2532 108.045 77.3207Z" fill="#77A11D"/>
<path d="M100.369 56.3635C100.369 56.431 96.3905 56.4889 91.4865 56.4889C86.5826 56.4889 82.5996 56.431 82.5996 56.3635C82.5996 56.296 86.5778 56.2382 91.4865 56.2382C96.3953 56.2382 100.369 56.2912 100.369 56.3635Z" fill="#77A11D"/>
<path d="M109.188 56.3058C108.087 56.4327 106.978 56.4746 105.87 56.4311C104.763 56.4746 103.654 56.4327 102.553 56.3058C103.654 56.1817 104.763 56.1398 105.87 56.1804C106.978 56.1398 108.087 56.1817 109.188 56.3058Z" fill="#77A11D"/>
<path d="M109.186 61.4949C109.186 61.5624 105.222 61.6202 100.338 61.6202C95.4529 61.6202 91.4844 61.5624 91.4844 61.4949C91.4844 61.4274 95.4432 61.3695 100.338 61.3695C105.232 61.3695 109.186 61.4225 109.186 61.4949Z" fill="#77A11D"/>
<path d="M100.369 66.7317C100.369 66.7992 96.3905 66.8571 91.4865 66.8571C86.5826 66.8571 82.5996 66.7992 82.5996 66.7317C82.5996 66.6642 86.5778 66.6063 91.4865 66.6063C96.3953 66.6063 100.369 66.6642 100.369 66.7317Z" fill="#77A11D"/>
<path d="M109.188 66.678C108.087 66.802 106.978 66.8439 105.87 66.8034C104.763 66.8439 103.654 66.802 102.553 66.678C103.654 66.5511 104.763 66.5091 105.87 66.5526C106.978 66.5091 108.087 66.5511 109.188 66.678Z" fill="#77A11D"/>
<path d="M87.9696 61.3743C87.1609 61.4981 86.3419 61.5401 85.5248 61.4997C84.7078 61.5401 83.8887 61.4981 83.0801 61.3743C83.8884 61.2476 84.7078 61.2056 85.5248 61.2489C86.3419 61.2056 87.1612 61.2476 87.9696 61.3743Z" fill="#77A11D"/>
<path d="M80.9219 105.761C80.9219 105.834 69.9663 105.887 56.4551 105.887C42.9439 105.887 31.9883 105.834 31.9883 105.761C31.9883 105.689 42.9439 105.636 56.4551 105.636C69.9663 105.636 80.9219 105.694 80.9219 105.761Z" fill="#77A11D"/>
<path d="M81.6534 111.407C81.6534 111.474 70.7026 111.532 57.1914 111.532C43.6802 111.532 32.7246 111.474 32.7246 111.407C32.7246 111.339 43.6754 111.277 57.1914 111.277C70.7074 111.277 81.6534 111.334 81.6534 111.407Z" fill="#77A11D"/>
<path d="M25.6546 89.4855L31.7266 92.2872L17.4794 123.163L11.4074 120.362L25.6546 89.4855Z" fill="#CFD2CC"/>
<path d="M0.000814438 140.991L9.18864 145.227L21.8184 117.853L12.6306 113.617L0.000814438 140.991Z" fill="#7A8371"/>
<path d="M22.1273 70.6985C22.1388 71.9961 22.2374 73.2915 22.4224 74.5759C22.5277 75.3696 22.6752 76.1423 22.8508 76.8939C23.1494 78.2222 23.563 79.5219 24.0871 80.7784C24.4135 81.5735 24.7888 82.3477 25.211 83.0964C26.004 84.5104 26.9794 85.814 28.1121 86.9738C28.6994 87.5805 29.3361 88.1373 30.0157 88.6386C30.4512 88.7439 30.9078 88.8282 31.3714 88.8985C35.1322 89.3746 38.9492 88.7037 42.3223 86.9738C44.4224 85.9415 46.3778 84.6379 48.1384 83.0964C48.2719 82.984 48.4124 82.8646 48.5458 82.7381C50.4833 80.9987 52.2091 79.0371 53.6876 76.8939C54.2074 76.1493 54.7062 75.3767 55.1768 74.5759C56.8484 71.7323 58.1446 68.6841 59.0331 65.5075L59.2017 64.8753C59.2579 64.6716 59.3071 64.4749 59.3492 64.2712C60.2736 60.6275 60.5776 56.8542 60.2484 53.1096C60.1781 52.3228 60.0727 51.5502 59.9323 50.7915C59.2954 46.6763 57.4886 42.8311 54.7272 39.7142C54.2873 39.2448 53.8181 38.8037 53.3224 38.3936C53.0484 38.1548 52.7604 37.93 52.4724 37.6912C52.0283 37.5783 51.578 37.4915 51.1238 37.4313C48.2216 37.0411 45.2681 37.3642 42.519 38.3725C40.8564 38.9645 39.2659 39.7421 37.7775 40.6906C36.0044 41.8059 34.3559 43.1081 32.8605 44.575C32.123 45.2774 31.4065 46.0712 30.7532 46.886C29.7168 48.1139 28.7663 49.4118 27.9084 50.7705C27.4307 51.5221 26.9812 52.2947 26.5527 53.0885C25.8778 54.3456 25.275 55.6402 24.7474 56.9659C24.4454 57.7245 24.1644 58.4972 23.9115 59.2839C23.6587 60.0707 23.462 60.6888 23.2723 61.4615C22.6797 63.7194 22.308 66.0295 22.1625 68.3594C22.1414 69.1672 22.1203 69.9328 22.1273 70.6985Z" fill="white"/>
<path d="M30.7806 46.9351H54.7266V44.6241H32.9512C32.1785 45.3196 31.462 46.0922 30.7806 46.9351Z" fill="#7A8371"/>
<path d="M26.5801 53.1089H54.7266V50.7909H27.9358C27.4581 51.5425 27.0086 52.3152 26.5801 53.1089Z" fill="#E1E8B2"/>
<path d="M37.805 40.7107H54.7266V39.7133C54.2866 39.2439 53.8174 38.8028 53.3217 38.3927H42.5183C40.8654 38.9866 39.2844 39.7642 37.805 40.7107Z" fill="#84949C"/>
<path d="M23.9383 59.3045H48.5234V56.9865H24.7531C24.4722 57.7451 24.1912 58.5178 23.9383 59.3045Z" fill="#84949C"/>
<path d="M37.6923 63.1891H48.5449V65.5071H37.6923V63.1891Z" fill="#7A8371"/>
<path d="M59.3489 50.7909V53.1089H60.248C60.1778 52.3222 60.0724 51.5495 59.9319 50.7909H59.3489Z" fill="#84949C"/>
<path d="M53.0066 56.9865H59.3496V59.3045H53.0066V56.9865Z" fill="#7A8371"/>
<path d="M53.0066 63.1891V65.5071H59.0335L59.2021 64.8749C59.2583 64.6712 59.3075 64.4745 59.3496 64.2708V63.1891H53.0066Z" fill="#84949C"/>
<path d="M22.1267 70.6979H54.7266V68.3799H22.1899C22.1407 69.1666 22.1196 69.9323 22.1267 70.6979Z" fill="#84949C"/>
<path d="M53.0057 74.5758V76.8938H53.7081C54.2279 76.1492 54.7266 75.3766 55.1973 74.5758H53.0057Z" fill="#84949C"/>
<path d="M22.4215 74.5758C22.5268 75.3696 22.6743 76.1422 22.8499 76.8938H48.5449V74.5758H22.4215Z" fill="#7A8371"/>
<path d="M24.0862 80.7782C24.4126 81.5734 24.7879 82.3475 25.2101 83.0962H48.1375C48.271 82.9838 48.4115 82.8644 48.5449 82.738V80.7782H24.0862Z" fill="#E1E8B2"/>
<path d="M28.1121 86.9735C28.6994 87.5802 29.3361 88.137 30.0156 88.6383C30.4512 88.7436 30.9077 88.8279 31.3713 88.8982C35.1322 89.3743 38.9491 88.7034 42.3223 86.9735H28.1121Z" fill="#84949C"/>
<path d="M35.7902 96.2111C34.7004 96.0505 33.6264 95.7967 32.58 95.4525C31.8176 95.1944 31.0736 94.8846 30.3534 94.5253C30.3275 94.5193 30.3034 94.5072 30.2831 94.4902C29.9881 94.3427 29.6931 94.1881 29.4051 94.0195C29.1171 93.851 29.0609 93.8229 28.8923 93.7105C26.4964 92.218 24.4523 90.2242 22.9005 87.8662C22.5423 87.3394 22.1981 86.7845 21.889 86.2225C21.4022 85.3562 20.9706 84.4599 20.5966 83.5392C20.4631 83.2232 20.3367 82.9 20.2243 82.5839C19.9854 81.9447 19.7677 81.2844 19.578 80.6171C19.3884 79.9498 19.2057 79.2123 19.0582 78.5098C18.9107 77.8074 18.7773 77.105 18.6789 76.3604C17.991 71.1926 18.3372 65.9397 19.6974 60.9069C24.2843 43.4093 38.909 30.7725 52.3746 32.7253C52.9295 32.8026 53.4774 32.915 54.0183 33.0344C54.5592 33.1538 55.0649 33.3153 55.5847 33.4839C55.8657 33.5823 56.1537 33.6806 56.4347 33.793L56.6313 33.8702L57.3338 34.1653C67.5331 38.8224 72.4501 52.7446 68.4673 67.9663C63.8875 85.5693 49.2558 98.1639 35.7902 96.2111ZM64.8568 67.5027C65.9199 63.5237 66.246 59.3838 65.8191 55.2874C65.784 54.9713 65.7489 54.6623 65.6997 54.3462C64.8147 48.1648 61.9979 43.037 57.7482 40.0657L57.4953 39.8971C57.3548 39.7918 57.2073 39.7004 57.0598 39.6091L56.7859 39.4476C56.5932 39.3243 56.3939 39.2117 56.1888 39.1104C55.95 38.9746 55.7158 38.8552 55.4864 38.7522H55.4372C54.9253 38.5113 54.4 38.3002 53.8637 38.12C53.4032 37.9664 52.9341 37.8398 52.4589 37.7407C52.0148 37.6278 51.5645 37.541 51.1102 37.4808C39.6325 35.823 27.1573 46.6124 23.2588 61.511C20.2524 73.0168 23.2026 83.6376 29.974 88.667C30.9224 89.3802 31.953 89.9768 33.0437 90.4442C33.2263 90.5214 33.4089 90.6057 33.6056 90.676C33.8023 90.7462 34.02 90.8375 34.2378 90.9078C35.1305 91.2021 36.0471 91.4183 36.9773 91.554C48.4972 93.1907 60.9583 82.4294 64.8568 67.5027Z" fill="#84949C"/>
<path opacity="0.4" d="M31.3994 88.898C30.9358 88.8277 30.4793 88.7434 30.0438 88.6381C23.2723 83.6087 20.3221 72.9879 23.3285 61.482C27.227 46.5554 39.7022 35.7941 51.1799 37.4518C51.6342 37.5121 52.0845 37.5988 52.5286 37.7117C59.293 42.7411 62.2503 53.3619 59.2298 64.8748C55.2821 79.8015 42.8421 90.5627 31.3994 88.898Z" fill="white"/>
<g opacity="0.3">
<path opacity="0.3" d="M59.4961 48.8039L26.5871 53.1098C27.4992 51.4052 28.5444 49.7752 29.713 48.235L57.9648 44.5402C58.6173 45.9063 59.1303 47.3348 59.4961 48.8039Z" fill="#EBEBEB"/>
<path opacity="0.3" d="M54.627 39.6159L35.8439 42.0744C40.5572 38.4991 45.9519 36.7079 51.1499 37.4524C51.6041 37.5127 52.0545 37.5995 52.4986 37.7123C53.2665 38.2783 53.9792 38.9157 54.627 39.6159Z" fill="#EBEBEB"/>
<path opacity="0.3" d="M60.1562 52.2181L24.838 56.8401C25.1681 56.0323 25.5404 55.2316 25.8916 54.4659L59.791 50.0336C59.9385 50.743 60.0579 51.4736 60.1562 52.2181Z" fill="#EBEBEB"/>
<path opacity="0.3" d="M50.0957 81.2421C49.1966 82.1754 48.2369 83.0483 47.2228 83.8551L27.5968 86.426C27.0183 85.7894 26.4877 85.1109 26.0093 84.396L50.0957 81.2421Z" fill="#EBEBEB"/>
<path opacity="0.3" d="M55.9843 73.1782L22.97 77.4911C22.222 74.4968 21.9494 71.4034 22.1622 68.3244L59.5176 63.4073C59.4192 63.878 59.2998 64.3627 59.1734 64.8122C58.447 67.7178 57.3764 70.5264 55.9843 73.1782Z" fill="#EBEBEB"/>
</g>
<path d="M37.0184 91.5252C36.0883 91.3895 35.1717 91.1733 34.2789 90.879C34.0612 90.8088 33.8504 90.7245 33.6467 90.6472C33.443 90.5699 33.2674 90.4927 33.0848 90.4154L32.6984 90.2538L27.079 87.6197C27.5914 87.8593 28.1167 88.0704 28.6524 88.2519C29.1135 88.4057 29.5824 88.5347 30.0573 88.6382C30.4928 88.7436 30.9494 88.8279 31.413 88.8981C42.8837 90.5629 55.3519 79.7665 59.2434 64.875C62.2638 53.3621 59.3066 42.7413 52.5422 37.7119C51.705 37.0799 50.8032 36.5383 49.8518 36.0963L55.4713 38.7234H55.5205C55.7593 38.8264 55.9934 38.9458 56.2229 39.0817C56.428 39.183 56.6273 39.2955 56.82 39.4188L57.0939 39.5804C57.2414 39.6717 57.3889 39.763 57.5294 39.8684L57.7823 40.0369C62.032 43.0082 64.8488 48.136 65.7338 54.3174C65.783 54.6335 65.8181 54.9426 65.8532 55.2587C66.2687 59.3572 65.9306 63.4971 64.8558 67.474C60.9573 82.4287 48.4961 93.19 37.0184 91.5252Z" fill="#7A8371"/>
<path d="M14.0545 58.3354C10.0927 73.508 14.9676 87.374 25.0897 92.0873L30.6951 94.7003C20.573 90.0011 15.7122 76.128 19.6669 60.9836C24.2467 43.486 38.8784 30.8563 52.337 32.795C53.4275 32.9555 54.5016 33.2117 55.5471 33.5606C56.1753 33.7742 56.792 34.0204 57.3945 34.2982L51.7751 31.6711C51.1692 31.4058 50.5503 31.1714 49.9207 30.9687C48.8781 30.6196 47.806 30.3657 46.7176 30.21C33.259 28.2011 18.6343 40.8308 14.0545 58.3354Z" fill="#7A8371"/>
</svg>
