<svg width="280" height="280" viewBox="0 0 280 280" fill="none" xmlns="http://www.w3.org/2000/svg">
<path d="M31.7126 71.9432L125.025 71.9432V67.8496L31.7126 67.8496V71.9432Z" fill="#EBEBEB"/>
<path d="M119.789 71.9489H115.695V85.4841H119.789V71.9489Z" fill="#EBEBEB"/>
<path d="M119.789 71.9489H115.695V76.132H119.789V71.9489Z" fill="#DBDBDB"/>
<path d="M41.0311 71.9489H36.9375V85.4841H41.0311V71.9489Z" fill="#EBEBEB"/>
<path d="M41.0311 71.9489H36.9375V76.132H41.0311V71.9489Z" fill="#DBDBDB"/>
<path d="M107.604 67.8553V41.7761H101.035V67.8553H107.604Z" fill="#C7C7C7"/>
<path d="M107.604 43.2488V40.3816H101.035V43.2488H107.604Z" fill="#DBDBDB"/>
<path d="M107.604 47.9809V46.9169H101.035V47.9809H107.604Z" fill="#DBDBDB"/>
<path d="M107.604 64.4336V61.5664H100.217V64.4336H107.604Z" fill="#DBDBDB"/>
<path d="M101.035 67.8552V37.4304H96.4432V67.8552H101.035Z" fill="#DBDBDB"/>
<path d="M100.139 51.9904V40.292H97.3835V51.9904H100.139Z" fill="#EBEBEB"/>
<path d="M67.023 67.8658L88.6602 46.4764L85.4319 43.2108L63.7947 64.6001L67.023 67.8658Z" fill="#C7C7C7"/>
<path d="M71.4402 62.1832L79.7598 53.959L77.8228 51.9996L69.5033 60.2238L71.4402 62.1832Z" fill="#DBDBDB"/>
<path d="M96.4473 67.8552V44.7496H88.6521V67.8552H96.4473Z" fill="#A6A6A6"/>
<path d="M96.4473 65.4136V63.2576H88.6521V65.4136H96.4473Z" fill="#C7C7C7"/>
<path d="M96.4473 61.8409V61.0065H88.6521V61.8409H96.4473Z" fill="#C7C7C7"/>
<path d="M112.99 67.8608V46.144H107.609V67.8608H112.99Z" fill="#A6A6A6"/>
<path d="M112.99 65.5536V63.532H107.609V65.5536H112.99Z" fill="#C7C7C7"/>
<path d="M112.99 52.64V50.6184H107.609V52.64H112.99Z" fill="#C7C7C7"/>
<path d="M112.984 54.8128V54.0288H107.603V54.8128H112.984Z" fill="#C7C7C7"/>
<path d="M50.5794 40.0344C55.1714 44.5144 55.9442 51.492 54.9754 57.5848C54.9754 57.7192 54.7346 57.6856 54.7346 57.5512C54.7346 56.168 54.7794 54.7904 54.7738 53.424C54.7738 53.3568 54.729 53.3008 54.701 53.2392C53.4636 52.424 52.4399 51.3235 51.7162 50.0304C50.949 48.524 50.6466 46.8216 50.0642 45.2424C50.0082 45.0912 50.1706 45.136 50.2714 45.2144C53.0714 47.2752 53.9562 49.4928 54.7514 52.4552C54.733 50.9053 54.5699 49.3604 54.2642 47.8408C53.7309 44.9765 52.4125 42.3166 50.4562 40.1576C50.4457 40.1405 50.4412 40.1203 50.4436 40.1003C50.446 40.0803 50.455 40.0617 50.4692 40.0475C50.4835 40.0333 50.5021 40.0242 50.522 40.0219C50.542 40.0195 50.5622 40.0239 50.5794 40.0344V40.0344Z" fill="#A6A6A6"/>
<path d="M49.7159 40.5608C48.9207 40.5608 48.4279 41.8488 47.8119 42.2408C47.747 42.2935 47.6718 42.3318 47.5912 42.3534C47.5105 42.375 47.4262 42.3793 47.3438 42.3661C47.2613 42.3529 47.1826 42.3224 47.1127 42.2767C47.0428 42.231 46.9834 42.1711 46.9383 42.1008C46.3279 41.2496 47.1679 40.2024 47.9519 39.6144C47.4326 39.9055 46.8846 40.1419 46.3167 40.32C46.2391 40.3473 46.1564 40.3572 46.0746 40.3489C45.9928 40.3407 45.9138 40.3145 45.8432 40.2723C45.7727 40.23 45.7123 40.1728 45.6664 40.1046C45.6204 40.0364 45.5901 39.9589 45.5775 39.8776C45.3087 38.7184 46.7647 38.1976 47.7671 38.1976C47.2799 37.8616 45.8911 36.9488 46.6471 36.5176C47.4031 36.0864 49.0271 37.3744 49.5535 37.8056C50.3375 38.4384 51.2671 39.3904 51.3063 40.3816C51.3343 41.5128 50.3207 40.8016 49.7159 40.5608Z" fill="#DBDBDB"/>
<path d="M49.9392 40.7568C48.9312 40.292 46.988 40.9584 46.8256 40.572C46.4896 39.7936 48.0408 39.2616 48.8808 39.1552C48.108 38.948 46.6408 38.5952 46.6744 37.8728C46.7304 36.9656 48.9424 37.744 50.0624 38.6008C51.468 39.6816 51.4624 40.7288 51.2272 40.936C50.908 41.2216 50.1072 40.8296 49.9392 40.7568Z" fill="#EBEBEB"/>
<path d="M61.039 39.592C56.279 43.9096 55.243 50.8312 55.999 56.952C55.999 57.092 56.2342 57.064 56.2398 56.952C56.2902 55.5688 56.3014 54.1912 56.3574 52.8248L56.4358 52.64C57.7034 51.8764 58.7678 50.8178 59.5382 49.5544C60.367 48.076 60.731 46.3848 61.375 44.8336C61.4366 44.6824 61.2742 44.7216 61.1678 44.7944C58.295 46.7488 57.3206 48.9328 56.4078 51.8616C56.4841 50.3136 56.7054 48.7763 57.0686 47.2696C57.7133 44.4245 59.1364 41.8148 61.179 39.732C61.1976 39.7134 61.208 39.6882 61.208 39.662C61.208 39.6357 61.1976 39.6105 61.179 39.592C61.1604 39.5734 61.1353 39.563 61.109 39.563C61.0827 39.563 61.0576 39.5734 61.039 39.592V39.592Z" fill="#A6A6A6"/>
<path d="M61.8784 40.1465C62.668 40.2025 63.116 41.4849 63.7152 41.8769C63.778 41.9321 63.8517 41.9734 63.9316 41.9982C64.0114 42.023 64.0956 42.0306 64.1786 42.0205C64.2616 42.0105 64.3416 41.983 64.4132 41.9399C64.4849 41.8968 64.5466 41.8391 64.5944 41.7705C65.2384 40.9417 64.4376 39.8609 63.676 39.2449C64.1825 39.5714 64.7211 39.8453 65.2832 40.0625C65.3597 40.0928 65.442 40.1058 65.5242 40.1007C65.6063 40.0956 65.6864 40.0724 65.7585 40.0329C65.8307 39.9933 65.8933 39.9383 65.9418 39.8718C65.9903 39.8053 66.0236 39.7289 66.0392 39.6481C66.3472 38.4945 64.9192 37.9233 63.9168 37.8617C64.4096 37.5425 65.832 36.6801 65.1152 36.1817C64.3984 35.6833 62.7184 36.9601 62.1584 37.3801C61.352 37.9849 60.3888 38.8977 60.316 39.8833C60.2264 41.0369 61.2624 40.3649 61.8784 40.1465Z" fill="#DBDBDB"/>
<path d="M61.6438 40.32C62.6742 39.9 64.5838 40.6336 64.763 40.2584C65.127 39.4968 63.5982 38.9032 62.7694 38.7688C63.5478 38.5896 65.0094 38.3096 65.0094 37.5648C65.0094 36.6576 62.7694 37.352 61.599 38.1696C60.1542 39.1944 60.1206 40.236 60.3446 40.4544C60.6582 40.7624 61.4758 40.404 61.6438 40.32Z" fill="#EBEBEB"/>
<path d="M56.1669 50.9992C55.8481 53.3089 55.3539 55.5909 54.6885 57.8256C54.6796 57.8694 54.6536 57.9079 54.6164 57.9325C54.5791 57.9572 54.5335 57.9661 54.4897 57.9572C54.4459 57.9482 54.4074 57.9223 54.3827 57.885C54.3581 57.8477 54.3492 57.8022 54.3581 57.7584C54.6717 55.6528 55.2429 53.5864 55.5509 51.4864C55.8949 49.3562 56.0187 47.1963 55.9205 45.0408C55.7189 41.496 54.7557 37.7216 52.4429 34.9608C52.3925 34.8936 52.4989 34.7984 52.5493 34.86C57.1861 40.264 56.4693 46.8888 56.4693 47.4824C57.1245 45.2424 57.8021 42.6832 60.2829 40.404C60.3893 40.3032 60.4733 40.3536 60.4565 40.5216C60.0141 44.6656 58.8605 46.8328 56.4525 49.0504C56.3573 49.6944 56.2733 50.3496 56.1669 50.9992Z" fill="#A6A6A6"/>
<path d="M52.3991 35.5713C51.5647 35.2017 50.4167 36.2601 49.5991 36.3329C49.5073 36.3549 49.4119 36.3576 49.319 36.3409C49.226 36.3242 49.1376 36.2884 49.0592 36.2357C48.9808 36.1831 48.9141 36.1148 48.8634 36.0352C48.8128 35.9555 48.7792 35.8662 48.7647 35.7729C48.5575 34.5857 49.9575 33.9137 51.0663 33.7009C50.3663 33.6561 49.6775 33.8465 48.9887 33.6617C48.8939 33.6506 48.8025 33.6191 48.721 33.5694C48.6394 33.5197 48.5696 33.4528 48.5164 33.3735C48.4632 33.2942 48.4278 33.2043 48.4126 33.11C48.3975 33.0157 48.403 32.9192 48.4287 32.8273C48.7367 31.4889 50.5063 31.7073 51.5591 32.1609C51.2231 31.6009 50.2431 29.9209 51.2343 29.8257C52.2255 29.7305 53.2727 31.9089 53.6031 32.6257C54.0959 33.6785 54.5887 35.1289 54.1239 36.1761C53.6031 37.3745 52.9087 36.1257 52.3991 35.5713Z" fill="#DBDBDB"/>
<path d="M52.5382 35.8848C51.7206 34.9048 49.3742 34.6136 49.3966 34.132C49.4414 33.1576 51.3174 33.3816 52.2414 33.6952C51.547 33.0904 50.1806 32.0152 50.6006 31.2536C51.1158 30.3408 53.0142 32.2616 53.7478 33.7176C54.6662 35.5488 54.1286 36.624 53.7814 36.7248C53.3054 36.8592 52.6726 36.0528 52.5382 35.8848Z" fill="#EBEBEB"/>
<path d="M59.2198 52.2424L61.2638 67.8552H48.8262C49.0838 66.472 51.3966 52.2256 51.3966 52.2256L59.2198 52.2424Z" fill="#DBDBDB"/>
<path d="M207.541 56.2408C207.88 54.8044 208.497 53.448 209.356 52.248C210.173 51.128 211.491 50.3141 213.309 49.8064C213.869 49.6384 214.524 49.4592 215.314 49.2464C216.127 49.0489 216.921 48.7829 217.688 48.4512C218.47 48.1178 219.19 47.658 219.822 47.0904C220.462 46.5125 220.91 45.7522 221.104 44.912C221.272 44.3077 221.293 43.6724 221.166 43.0584C221.048 42.5067 220.82 41.9847 220.494 41.524C220.157 41.0593 219.731 40.667 219.24 40.3704C218.737 40.0593 218.189 39.8288 217.616 39.6872C216.957 39.518 216.271 39.4856 215.6 39.592C214.989 39.6827 214.394 39.856 213.83 40.1072C213.28 40.3535 212.762 40.6636 212.284 41.0312C211.844 41.3653 211.424 41.7243 211.024 42.1064L207.608 38.1864C208.245 37.3272 209.021 36.5813 209.904 35.98C210.765 35.3954 211.709 34.9442 212.704 34.6416C213.719 34.3382 214.771 34.178 215.829 34.1656C216.922 34.1499 218.013 34.2799 219.072 34.552C220.278 34.8565 221.434 35.3337 222.504 35.9688C223.574 36.5993 224.507 37.437 225.248 38.4328C226.013 39.4727 226.54 40.6673 226.794 41.9328C227.079 43.4207 227.014 44.9544 226.604 46.4128C226.391 47.3252 226.044 48.2008 225.573 49.0112C225.155 49.709 224.63 50.3365 224.016 50.8704C223.409 51.3922 222.737 51.8344 222.017 52.1864C221.237 52.5626 220.43 52.8826 219.604 53.144C218.87 53.368 218.148 53.5696 217.425 53.76C216.729 53.9398 216.05 54.1835 215.398 54.488C214.775 54.7708 214.206 55.1613 213.718 55.6416C213.217 56.1696 212.869 56.8238 212.71 57.5344L207.541 56.2408ZM204.848 67.3456L206.5 60.7824L211.78 62.1096L210.128 68.6728L204.848 67.3456Z" fill="#EBEBEB"/>
<path d="M40.9243 177.957C41.1647 179.018 41.1951 180.115 41.0139 181.188C40.7466 182.329 40.1085 183.349 39.1995 184.089C38.8859 184.374 38.4995 184.71 38.0403 185.091C37.5649 185.483 37.1246 185.916 36.7243 186.385C36.3117 186.857 35.9805 187.394 35.7443 187.975C35.5073 188.566 35.4565 189.214 35.5987 189.834C35.6859 190.29 35.8776 190.72 36.1587 191.089C36.4158 191.416 36.7357 191.688 37.0995 191.89C37.4736 192.086 37.8828 192.205 38.3035 192.242C38.7375 192.288 39.1758 192.265 39.6027 192.175C40.0891 192.081 40.5518 191.891 40.9635 191.615C41.3402 191.359 41.6794 191.052 41.9715 190.702C42.256 190.358 42.5003 189.982 42.6995 189.582C42.8856 189.22 43.0483 188.846 43.1867 188.462L46.7147 189.941C46.5676 190.717 46.2912 191.463 45.8971 192.147C45.5141 192.816 45.0306 193.423 44.4635 193.945C43.8903 194.477 43.2434 194.924 42.5427 195.272C41.8228 195.634 41.0584 195.899 40.2691 196.062C39.3713 196.251 38.4509 196.309 37.5363 196.235C36.6238 196.163 35.7348 195.91 34.9211 195.49C34.0769 195.046 33.3394 194.423 32.7595 193.665C32.093 192.77 31.6425 191.733 31.4435 190.635C31.288 189.962 31.2351 189.269 31.2867 188.58C31.3365 187.982 31.4821 187.396 31.7179 186.844C31.9494 186.3 32.2526 185.79 32.6195 185.326C33.0129 184.821 33.4434 184.345 33.9075 183.904C34.3219 183.523 34.7363 183.154 35.1563 182.784C35.5623 182.445 35.9372 182.07 36.2763 181.664C36.5788 181.272 36.81 180.831 36.9595 180.359C37.123 179.846 37.1424 179.298 37.0155 178.774L40.9243 177.957ZM39.1211 169.719L40.1459 174.608L36.2259 175.431L35.2011 170.548L39.1211 169.719Z" fill="#EBEBEB"/>
<path d="M217.279 127.988C217.938 128.853 218.423 129.839 218.707 130.889C218.933 132.042 218.769 133.238 218.242 134.288C218.08 134.68 217.867 135.145 217.609 135.682C217.337 136.236 217.116 136.814 216.949 137.407C216.77 138.008 216.692 138.635 216.719 139.261C216.751 139.896 216.974 140.507 217.357 141.014C217.625 141.391 217.978 141.7 218.388 141.915C218.759 142.107 219.164 142.221 219.581 142.251C220.002 142.278 220.425 142.219 220.824 142.078C221.235 141.935 221.622 141.731 221.972 141.473C222.376 141.187 222.717 140.821 222.974 140.398C223.22 140.008 223.408 139.586 223.534 139.143C223.647 138.713 223.713 138.272 223.73 137.827C223.753 137.423 223.753 137.017 223.73 136.612L227.549 136.489C227.742 137.253 227.802 138.045 227.729 138.83C227.656 139.6 227.467 140.355 227.169 141.07C226.865 141.791 226.462 142.466 225.97 143.074C225.468 143.708 224.884 144.273 224.234 144.754C223.495 145.301 222.68 145.736 221.815 146.048C220.955 146.361 220.041 146.5 219.127 146.457C218.176 146.403 217.248 146.145 216.405 145.701C215.427 145.162 214.586 144.405 213.947 143.489C213.526 142.941 213.19 142.333 212.95 141.686C212.746 141.121 212.634 140.527 212.62 139.927C212.603 139.336 212.665 138.744 212.805 138.169C212.957 137.547 213.153 136.937 213.393 136.343C213.611 135.822 213.829 135.313 214.065 134.814C214.298 134.335 214.486 133.834 214.625 133.319C214.751 132.835 214.793 132.333 214.748 131.835C214.682 131.301 214.471 130.796 214.137 130.374L217.279 127.988ZM212.239 121.268L215.201 125.283L211.97 127.669L209.008 123.654L212.239 121.268Z" fill="#EBEBEB"/>
<path d="M235.67 117.886C235.651 116.688 235.867 115.499 236.308 114.386C236.855 113.217 237.778 112.265 238.929 111.681C239.327 111.44 239.819 111.171 240.402 110.863C240.992 110.549 241.555 110.183 242.082 109.771C242.634 109.359 243.111 108.855 243.493 108.282C243.876 107.697 244.072 107.009 244.053 106.31C244.063 105.827 243.964 105.348 243.764 104.909C243.565 104.469 243.269 104.079 242.899 103.768C242.545 103.47 242.133 103.247 241.69 103.113C241.233 102.969 240.757 102.895 240.279 102.894C239.734 102.888 239.194 102.989 238.688 103.191C238.226 103.385 237.791 103.639 237.395 103.947C237.01 104.251 236.662 104.599 236.359 104.983C236.079 105.331 235.821 105.696 235.586 106.075L232.125 103.69C232.457 102.888 232.921 102.148 233.497 101.5C234.063 100.871 234.72 100.329 235.446 99.8929C236.185 99.4522 236.983 99.1167 237.815 98.8961C238.67 98.6708 239.551 98.5579 240.435 98.5601C241.446 98.5604 242.452 98.7075 243.42 98.9969C244.385 99.2808 245.284 99.7549 246.063 100.391C246.868 101.059 247.519 101.891 247.973 102.833C248.503 103.946 248.769 105.167 248.751 106.4C248.762 107.157 248.662 107.912 248.455 108.64C248.262 109.271 247.973 109.867 247.598 110.41C247.226 110.941 246.785 111.422 246.287 111.838C245.746 112.289 245.174 112.701 244.574 113.07C244.047 113.389 243.515 113.697 242.983 113.988C242.471 114.268 241.986 114.594 241.533 114.962C241.107 115.307 240.744 115.724 240.463 116.194C240.172 116.705 240.027 117.287 240.043 117.874L235.67 117.886ZM235.748 127.148V121.66H240.161V127.148H235.748Z" fill="#EBEBEB"/>
<path d="M97.6185 149.699C97.3523 148.532 97.3181 147.324 97.5177 146.143C97.8112 144.887 98.517 143.765 99.5225 142.957C99.8641 142.638 100.284 142.274 100.794 141.837C101.312 141.402 101.795 140.926 102.239 140.414C102.688 139.892 103.049 139.3 103.308 138.662C103.568 138.012 103.623 137.299 103.465 136.618C103.37 136.117 103.159 135.645 102.849 135.24C102.562 134.893 102.207 134.607 101.807 134.4C101.398 134.181 100.948 134.048 100.486 134.008C100.01 133.964 99.531 133.99 99.0633 134.086C98.5291 134.194 98.0212 134.405 97.5681 134.708C97.1514 134.992 96.7747 135.331 96.4481 135.716C96.1376 136.093 95.8708 136.505 95.6529 136.942C95.4409 137.341 95.2539 137.753 95.0929 138.174L91.2793 136.539C91.4388 135.687 91.7397 134.867 92.1697 134.114C92.5899 133.379 93.1206 132.712 93.7433 132.138C94.3717 131.551 95.0807 131.057 95.8489 130.67C96.6412 130.275 97.4804 129.981 98.3465 129.797C99.3347 129.59 100.347 129.526 101.354 129.606C102.356 129.685 103.332 129.961 104.226 130.418C105.155 130.903 105.965 131.586 106.601 132.418C107.767 134.044 108.344 136.019 108.236 138.018C108.18 138.673 108.021 139.315 107.766 139.922C107.512 140.522 107.181 141.087 106.78 141.602C106.344 142.154 105.87 142.676 105.363 143.164C104.91 143.584 104.456 143.993 103.997 144.385C103.554 144.766 103.145 145.186 102.776 145.639C102.432 146.067 102.164 146.55 101.981 147.067C101.806 147.632 101.787 148.234 101.925 148.809L97.6185 149.699ZM99.6177 158.743L98.4977 153.378L102.815 152.46L103.935 157.83L99.6177 158.743Z" fill="#EBEBEB"/>
<path d="M232.282 193.138L239.764 192.982L243.448 192.92C244.675 192.892 245.89 192.92 247.111 192.886L246.864 193.138L246.831 186.872L247.111 187.152L239.68 187.118C237.21 187.118 234.74 187.051 232.265 187.023L232.422 186.872C232.422 187.897 232.372 188.927 232.344 189.974L232.282 193.138ZM232.282 193.138L232.204 190.036C232.204 188.994 232.142 187.936 232.131 186.872V186.721H232.282C234.757 186.693 237.227 186.631 239.696 186.626L247.111 186.592H247.391V186.872V193.138V193.39H247.139C245.89 193.39 244.636 193.39 243.392 193.357L239.663 193.295L232.282 193.138Z" fill="#EBEBEB"/>
<path d="M240.554 201.04L248.035 200.883L251.72 200.822C252.946 200.794 254.162 200.822 255.382 200.788L255.136 201.04L255.108 194.774L255.382 195.054L247.968 195.02C245.498 195.02 243.029 194.953 240.554 194.925L240.71 194.774C240.71 195.798 240.66 196.829 240.638 197.876L240.554 201.04ZM240.554 201.04L240.475 197.938C240.475 196.896 240.414 195.838 240.402 194.774V194.622H240.554C243.029 194.594 245.498 194.533 247.968 194.527L255.382 194.494H255.668V194.774L255.634 201.04V201.292H255.36C254.111 201.292 252.862 201.292 251.614 201.258L247.884 201.197L240.554 201.04Z" fill="#EBEBEB"/>
<path d="M223.999 201.04L231.48 200.883L235.165 200.822C236.386 200.794 237.607 200.822 238.828 200.788L238.581 201.04L238.559 194.774L238.839 195.054L231.424 195.02C228.955 195.02 226.48 194.953 224.01 194.925L224.161 194.774C224.161 195.798 224.116 196.829 224.088 197.876L223.999 201.04ZM223.999 201.04L223.92 197.938C223.892 196.896 223.859 195.838 223.848 194.774V194.622H223.999C226.468 194.594 228.944 194.533 231.413 194.527L238.828 194.494H239.108V194.774L239.119 201.04V201.292H238.872C237.624 201.292 236.369 201.292 235.126 201.258L231.396 201.197L223.999 201.04Z" fill="#EBEBEB"/>
<path d="M32.8873 201.04L40.3633 200.883L44.0481 200.822C45.2745 200.794 46.4953 200.822 47.7161 200.788L47.4641 201.04L47.4361 194.774L47.7161 195.054L40.3185 195.02C37.8433 195.02 35.3737 194.953 32.9041 194.925L33.0553 194.774C33.0553 195.798 33.0049 196.829 32.9825 197.876L32.8873 201.04ZM32.8873 201.04L32.8033 197.938C32.8033 196.896 32.7417 195.838 32.7305 194.774V194.622H32.8873C35.3569 194.594 37.8265 194.533 40.3017 194.527L47.7161 194.494H47.9961V194.774L47.9625 201.04V201.292H47.7161C46.4673 201.292 45.2129 201.292 43.9641 201.258L40.2345 201.197L32.8873 201.04Z" fill="#EBEBEB"/>
<path d="M32.8873 26.7512L40.3633 26.5944L44.0481 26.5272C45.2745 26.5272 46.4953 26.5272 47.7161 26.5272L47.4641 26.7792L47.4361 20.5128L47.7161 20.7872L40.3185 20.72C37.8433 20.72 35.3737 20.6584 32.9041 20.6304L33.0553 20.4792C33.0553 21.504 33.0049 22.5344 32.9825 23.576L32.8873 26.7512ZM32.8873 26.7512L32.8033 23.6488C32.8033 22.6016 32.7417 21.5433 32.7305 20.4849V20.3336H32.8873C35.3569 20.3336 37.8265 20.244 40.3017 20.244L47.7161 20.2104H47.9961V20.496L47.9625 26.7624V27.0088H47.7161C46.4673 27.0088 45.2129 27.0088 43.9641 26.9808L40.2345 26.88L32.8873 26.7512Z" fill="#EBEBEB"/>
<path d="M24.6392 34.6529L32.1152 34.4961L35.8 34.4289C37.0264 34.4289 38.2416 34.4289 39.468 34.4289L39.216 34.6809V28.4145L39.496 28.6889L32.0312 28.6273C29.556 28.6273 27.0864 28.5601 24.6392 28.5601L24.7904 28.4089C24.7904 29.4337 24.74 30.4641 24.7176 31.5057L24.6392 34.6529ZM24.6392 34.6529L24.5552 31.5505C24.5552 30.5033 24.4936 29.4449 24.4824 28.3865V28.2353H24.6392C27.1088 28.2353 29.5784 28.1457 32.0536 28.1457L39.468 28.1121H39.748V28.3977L39.7144 34.6641V34.9105H39.468C38.2136 34.9105 36.9648 34.9105 35.716 34.9105L31.9864 34.8433L24.6392 34.6529Z" fill="#EBEBEB"/>
<path d="M240.554 26.7568L248.035 26.6L251.72 26.5384C252.946 26.5384 254.162 26.5384 255.382 26.5048L255.136 26.7568L255.108 20.4904L255.382 20.7704L247.968 20.72C245.498 20.72 243.029 20.6584 240.554 20.6304L240.71 20.4792C240.71 21.504 240.66 22.5344 240.638 23.576L240.554 26.7568ZM240.554 26.7568L240.475 23.6544C240.475 22.6072 240.414 21.5544 240.402 20.4904V20.3392H240.554C243.029 20.3112 245.498 20.2552 247.968 20.2496L255.36 20.2104H255.646V20.4904L255.618 26.7568V27.0088H255.36C254.111 27.0088 252.862 27.0088 251.614 27.0088L247.884 26.9472L240.554 26.7568Z" fill="#EBEBEB"/>
<path d="M160.277 107.985L152.801 108.142L149.116 108.203C147.89 108.231 146.669 108.203 145.448 108.237L145.7 107.985L145.728 114.251L145.448 113.971L152.862 114.01C155.338 114.01 157.807 114.072 160.277 114.1L160.126 114.251C160.126 113.226 160.176 112.196 160.198 111.154L160.277 107.985ZM160.277 107.985L160.361 111.087C160.361 112.134 160.422 113.187 160.434 114.251V114.402H160.277C157.807 114.402 155.338 114.486 152.862 114.492L145.448 114.526H145.168V114.24L145.202 107.974V107.722H145.448C146.697 107.722 147.951 107.722 149.2 107.75L152.93 107.811L160.277 107.985Z" fill="#EBEBEB"/>
<path d="M152.005 100.083L144.529 100.24L140.844 100.302C139.618 100.302 138.397 100.302 137.176 100.335L137.428 100.083L137.456 106.35L137.176 106.07L144.591 106.109C147.06 106.109 149.535 106.17 152.005 106.198L151.854 106.35C151.854 105.325 151.899 104.294 151.927 103.253L152.005 100.083ZM152.005 100.083L152.083 103.186C152.111 104.233 152.151 105.286 152.156 106.35V106.501H151.999C149.53 106.529 147.055 106.585 144.585 106.59L137.171 106.624H136.891V106.344L136.924 100.078V99.8257H137.199C138.447 99.8257 139.702 99.8257 140.951 99.8537L144.68 99.9153L152.005 100.083Z" fill="#EBEBEB"/>
<path d="M21.4863 229.331L51.1159 229.197L80.7455 229.146L139.999 229.051L199.253 229.146L228.882 229.197L258.512 229.331L228.882 229.471L199.253 229.522L139.999 229.611L80.7455 229.522L51.1159 229.471L21.4863 229.331Z" fill="#263238"/>
<path d="M140.001 258.272C195.792 258.272 241.019 253.869 241.019 248.438C241.019 243.007 195.792 238.605 140.001 238.605C84.2099 238.605 38.9824 243.007 38.9824 248.438C38.9824 253.869 84.2099 258.272 140.001 258.272Z" fill="#EBEBEB"/>
<path d="M239.119 167.714C236.991 165.631 234.242 163.111 230.988 164.013C227.931 164.858 226.76 168.196 226.211 170.979C225.506 174.569 224.957 178.186 224.386 181.798C223.815 185.41 223.266 189.078 222.745 192.746C222.446 194.807 222.155 196.87 221.871 198.934C221.726 199.965 221.582 200.995 221.44 202.026C221.3 203.039 221.132 204.053 221.076 205.072C221.076 205.397 221.569 205.442 221.636 205.134C222.034 203.414 222.196 201.622 222.448 199.881C222.7 198.139 222.958 196.364 223.21 194.611C223.719 191.122 224.251 187.639 224.772 184.15C225.293 180.662 225.842 177.184 226.402 173.701C226.872 170.744 227.096 167.076 229.711 165.127C230.422 164.642 231.245 164.345 232.102 164.265C232.959 164.184 233.823 164.323 234.611 164.668C236.331 165.329 237.708 166.561 239.058 167.782C239.119 167.821 239.175 167.759 239.119 167.714Z" fill="#263238"/>
<path d="M236.225 165.586C236.225 165.586 231.874 164.024 229.729 167.194C227.584 170.363 230.149 178.438 249.945 182.991C249.366 176.804 247.757 170.756 245.185 165.099C240.94 155.842 233.375 159.348 236.225 165.586Z" fill="#B2BB77"/>
<path d="M248.809 181.67C248.51 181.116 248.177 180.581 247.812 180.068C247.482 179.558 247.146 179.049 246.81 178.545C246.558 178.164 246.295 177.783 246.037 177.425C246.037 177.335 246.037 177.24 246.071 177.145L246.138 176.63C246.188 176.26 246.244 175.885 246.295 175.51C246.345 175.134 246.412 174.776 246.485 174.39C246.53 173.993 246.617 173.603 246.743 173.225C246.743 173.163 246.664 173.135 246.659 173.225C246.616 173.449 246.556 173.67 246.479 173.886L246.345 174.384C246.25 174.759 246.16 175.134 246.076 175.504C245.992 175.874 245.931 176.204 245.869 176.551C245.841 176.725 245.819 176.893 245.796 177.061C245.443 176.557 245.079 176.058 244.71 175.571C243.657 174.188 242.548 172.855 241.395 171.55C241.395 171.55 241.395 171.55 241.395 171.517C241.501 169.439 241.451 167.378 241.91 165.357C241.91 165.301 241.843 165.267 241.826 165.323C241.304 167.252 241.055 169.244 241.087 171.242C240.678 170.783 240.258 170.324 239.838 169.87C238.869 168.834 237.889 167.81 236.887 166.813C236.847 166.774 236.78 166.813 236.819 166.874C238.499 168.672 240.073 170.542 241.619 172.446C240.409 172.427 239.2 172.472 237.995 172.581C236.657 172.676 235.324 172.85 233.991 173.034C233.93 173.034 233.947 173.13 233.991 173.124C235.316 172.929 236.651 172.809 237.99 172.766C239.283 172.71 240.566 172.766 241.859 172.766C242.696 173.796 243.519 174.838 244.329 175.89H244.161C243.859 175.89 243.556 175.89 243.254 175.89C242.649 175.89 242.05 175.946 241.451 175.997C240.22 176.099 238.998 176.286 237.794 176.557C237.782 176.557 237.77 176.562 237.762 176.57C237.754 176.578 237.749 176.59 237.749 176.602C237.749 176.613 237.754 176.625 237.762 176.633C237.77 176.642 237.782 176.646 237.794 176.646C239.009 176.506 240.23 176.394 241.451 176.35C242.011 176.35 242.621 176.35 243.203 176.35H244.161C244.328 176.372 244.499 176.357 244.659 176.305C245.189 176.995 245.72 177.688 246.25 178.382C246.67 178.942 247.084 179.502 247.493 180.062C247.902 180.622 248.288 181.266 248.747 181.804C248.77 181.765 248.831 181.714 248.809 181.67Z" fill="#263238"/>
<path d="M238.117 170.083C237.415 169.994 236.708 169.96 236.001 169.982C235.295 169.982 234.584 169.982 233.878 170.027C233.817 170.027 233.822 170.117 233.878 170.117C234.595 170.061 235.312 170.05 236.029 170.061C236.745 170.072 237.417 170.139 238.106 170.117C238.14 170.117 238.14 170.089 238.117 170.083Z" fill="#263238"/>
<path d="M244.333 171.679C244.412 171.002 244.496 170.324 244.641 169.658C244.641 169.646 244.636 169.634 244.628 169.626C244.62 169.618 244.608 169.613 244.596 169.613C244.584 169.613 244.573 169.618 244.565 169.626C244.556 169.634 244.552 169.646 244.552 169.658C244.451 170.324 244.322 170.985 244.227 171.651C244.176 171.982 244.132 172.318 244.087 172.648C244.03 172.96 244.004 173.277 244.008 173.594C244.012 173.607 244.02 173.618 244.031 173.626C244.041 173.633 244.054 173.638 244.067 173.638C244.08 173.638 244.093 173.633 244.104 173.626C244.114 173.618 244.122 173.607 244.126 173.594C244.185 173.282 244.218 172.966 244.227 172.648C244.255 172.323 244.294 171.998 244.333 171.679Z" fill="#263238"/>
<path d="M243.04 164.186C242.866 164.847 242.692 165.514 242.575 166.18C242.513 166.522 242.457 166.863 242.412 167.205C242.351 167.535 242.328 167.872 242.345 168.207C242.345 168.215 242.348 168.222 242.353 168.227C242.359 168.232 242.366 168.235 242.373 168.235C242.381 168.235 242.388 168.232 242.393 168.227C242.398 168.222 242.401 168.215 242.401 168.207C242.48 167.895 242.53 167.576 242.552 167.255C242.597 166.925 242.648 166.6 242.704 166.27C242.827 165.581 242.95 164.898 243.124 164.22C243.129 164.164 243.04 164.13 243.04 164.186Z" fill="#263238"/>
<path d="M217.28 204.338C217.168 203.095 217.045 201.846 216.916 200.603C216.651 198.139 216.354 195.677 216.025 193.217C215.695 190.77 215.381 188.311 214.984 185.87C214.841 184.728 214.588 183.603 214.228 182.51C214.1 182.043 213.867 181.613 213.546 181.251C213.226 180.889 212.827 180.605 212.38 180.421C210.05 179.62 208.46 182.034 207.541 183.742C207.513 183.792 207.586 183.831 207.62 183.786C208.18 182.974 209.737 180.706 211.506 180.813C212.693 180.88 213.645 181.726 214.217 184.688C215.639 192.074 216.921 207.088 217.073 208.046C217.151 208.566 217.515 208.544 217.521 207.984C217.498 206.786 217.358 205.559 217.28 204.338Z" fill="#263238"/>
<path d="M208.142 182.851C208.142 182.851 210.18 175.661 205.678 179.256C198.185 185.242 197.922 198.24 197.922 198.24C197.922 198.24 211.239 190.506 212.891 185.405C215.36 177.822 208.142 182.851 208.142 182.851Z" fill="#B2BB77"/>
<path d="M210.662 186.379C209.62 186.592 208.556 186.732 207.503 186.883L206.002 187.096C205.666 187.141 205.325 187.174 204.983 187.214C205.974 185.847 206.977 184.486 207.929 183.092C207.938 183.08 207.941 183.065 207.939 183.05C207.937 183.036 207.929 183.022 207.918 183.014C207.906 183.005 207.891 183.001 207.876 183.003C207.861 183.005 207.848 183.013 207.839 183.025C207.045 183.839 206.297 184.697 205.599 185.595L205.006 183.915C204.782 183.271 204.535 182.633 204.373 181.966C204.373 181.91 204.272 181.966 204.289 181.994C204.468 182.65 204.597 183.327 204.776 183.988C204.955 184.649 205.14 185.254 205.364 185.875C204.877 186.508 204.406 187.158 203.953 187.813C203.723 187.163 203.438 186.536 203.242 185.875C203.242 185.819 203.135 185.847 203.152 185.875C203.393 186.609 203.522 187.365 203.746 188.115C203.438 188.563 203.135 189.011 202.844 189.459C202.284 190.294 201.797 191.139 201.304 191.99C201.265 192.007 201.233 192.035 201.212 192.072C201.191 192.108 201.182 192.15 201.186 192.192C200.346 193.648 199.546 195.121 198.756 196.61C198.75 196.621 198.748 196.633 198.752 196.645C198.755 196.656 198.762 196.666 198.773 196.672C198.783 196.678 198.795 196.679 198.807 196.676C198.819 196.673 198.828 196.666 198.834 196.655C199.624 195.182 200.514 193.749 201.416 192.343C201.557 192.296 201.704 192.268 201.853 192.259L202.312 192.158C202.654 192.086 202.995 191.996 203.337 191.912C204.014 191.744 204.681 191.582 205.37 191.464C205.426 191.464 205.398 191.369 205.37 191.38C204.563 191.531 203.757 191.626 202.939 191.716C202.553 191.761 202.172 191.811 201.791 191.873H201.735C202.209 191.148 202.695 190.428 203.191 189.711C203.673 189.011 204.171 188.317 204.67 187.622C205.134 187.561 205.588 187.438 206.047 187.354L207.593 187.051C208.623 186.844 209.654 186.614 210.69 186.446C210.746 186.48 210.718 186.368 210.662 186.379Z" fill="#263238"/>
<path d="M202.658 187.09C202.596 186.9 202.54 186.71 202.479 186.53C202.354 186.133 202.251 185.729 202.171 185.321C202.171 185.265 202.076 185.293 202.087 185.321C202.176 185.73 202.272 186.133 202.361 186.536C202.443 186.943 202.559 187.342 202.708 187.729C202.718 187.745 202.732 187.758 202.75 187.765C202.767 187.772 202.786 187.773 202.804 187.768C202.822 187.763 202.838 187.752 202.849 187.736C202.86 187.721 202.866 187.703 202.865 187.684C202.804 187.494 202.72 187.292 202.658 187.09Z" fill="#263238"/>
<path d="M212.022 184.716C211.417 184.806 210.807 184.85 210.191 184.906C209.575 184.962 208.975 185.041 208.365 185.136C208.331 185.136 208.331 185.192 208.365 185.186C208.975 185.147 209.586 185.097 210.196 185.018C210.807 184.94 211.411 184.85 212.027 184.806C212.083 184.8 212.078 184.71 212.022 184.716Z" fill="#263238"/>
<path d="M227.052 195.238C226.811 189.946 226.492 184.66 225.932 179.39C225.669 176.764 225.372 174.143 225.002 171.55C224.676 168.981 224.169 166.438 223.485 163.94C223.016 161.998 222.154 160.172 220.954 158.575C220.36 157.798 219.579 157.185 218.684 156.793C217.789 156.401 216.808 156.244 215.835 156.335C213.522 156.621 211.652 158.082 210.039 159.667C208.23 161.448 206.573 163.391 204.898 165.267C204.473 165.749 204.053 166.236 203.633 166.723C203.599 166.768 203.661 166.83 203.7 166.785C205.341 164.903 207.06 163.072 208.824 161.325C210.47 159.706 212.184 157.965 214.424 157.27C215.484 156.934 216.619 156.907 217.694 157.192C218.551 157.462 219.323 157.951 219.934 158.609C221.222 159.942 221.939 161.75 222.454 163.503C223.877 168.37 224.386 173.471 224.913 178.494C225.439 183.518 225.814 188.714 226.072 193.844C226.33 198.974 226.531 204.154 227.03 209.294C227.091 209.927 227.17 210.56 227.254 211.193C227.304 211.613 227.965 211.618 227.931 211.193C227.534 205.873 227.287 200.558 227.052 195.238Z" fill="#263238"/>
<path d="M209.759 160.227C209.759 160.227 212.783 154.627 209.199 152.835C205.616 151.043 193.676 164.382 190.188 183.893C190.188 183.893 209.491 175.353 216.048 166.841C222.606 158.329 215.18 156.458 209.759 160.227Z" fill="#B2BB77"/>
<path d="M212.598 164.774C210.431 164.774 208.264 164.612 206.097 164.623L207.317 163.229C207.92 162.61 208.482 161.951 208.997 161.258C209.025 161.213 208.964 161.151 208.919 161.185C208.329 161.689 207.781 162.24 207.278 162.831C206.718 163.391 206.192 163.985 205.654 164.567C204.825 165.469 204.013 166.376 203.201 167.294C203.201 167.205 203.201 167.115 203.201 167.031C203.201 166.65 203.201 166.27 203.201 165.911C203.201 165.178 203.201 164.438 203.201 163.705C203.201 162.215 203.201 160.714 203.313 159.225C203.313 159.169 203.229 159.169 203.224 159.225C203.123 160.726 202.966 162.215 202.893 163.705C202.86 164.444 202.843 165.178 202.832 165.917C202.832 166.292 202.832 166.673 202.832 167.037C202.832 167.244 202.832 167.462 202.832 167.675C202.709 167.821 202.574 167.961 202.451 168.101C200.721 170.083 199.091 172.127 197.467 174.21C197.467 174.098 197.467 173.975 197.439 173.863C197.439 173.634 197.389 173.404 197.366 173.174C197.31 172.676 197.243 172.183 197.165 171.685C197.086 171.186 197.025 170.755 196.946 170.29C196.868 169.826 196.728 169.243 196.689 168.717C196.691 168.71 196.692 168.703 196.691 168.696C196.69 168.688 196.687 168.682 196.683 168.676C196.679 168.67 196.674 168.665 196.667 168.661C196.661 168.658 196.654 168.656 196.647 168.656C196.639 168.656 196.632 168.658 196.626 168.661C196.619 168.665 196.614 168.67 196.61 168.676C196.606 168.682 196.603 168.688 196.602 168.696C196.601 168.703 196.602 168.71 196.605 168.717C196.692 169.243 196.752 169.774 196.784 170.307L196.918 171.741C196.957 172.217 197.002 172.693 197.053 173.174L197.12 173.863C197.12 173.975 197.148 174.093 197.165 174.205C197.17 174.302 197.201 174.397 197.254 174.479L196.431 175.554C195.311 177.005 194.258 178.472 193.183 179.934C193.149 179.978 193.217 180.04 193.25 179.995C194.269 178.668 195.317 177.363 196.375 176.075C197.17 176.109 197.982 176.047 198.777 176.036C199.573 176.025 200.457 176.036 201.286 176.036C201.298 176.036 201.309 176.031 201.318 176.023C201.326 176.014 201.331 176.003 201.331 175.991C201.331 175.979 201.326 175.968 201.318 175.959C201.309 175.951 201.298 175.946 201.286 175.946C200.446 175.946 199.606 175.974 198.772 175.98C197.937 175.986 197.232 175.946 196.47 175.98C197.4 174.86 198.346 173.74 199.27 172.592L200.368 171.36C200.689 171.402 201.013 171.413 201.337 171.394H202.457C203.168 171.394 203.879 171.394 204.596 171.366C206.069 171.366 207.541 171.293 209.014 171.287C209.021 171.29 209.028 171.29 209.035 171.29C209.043 171.289 209.049 171.286 209.055 171.282C209.061 171.278 209.066 171.272 209.069 171.266C209.073 171.259 209.075 171.252 209.075 171.245C209.075 171.238 209.073 171.231 209.069 171.224C209.066 171.218 209.061 171.212 209.055 171.208C209.049 171.204 209.043 171.202 209.035 171.201C209.028 171.2 209.021 171.201 209.014 171.203C207.536 171.203 206.063 171.119 204.59 171.08C203.873 171.08 203.162 171.041 202.445 171.03H201.325C201.113 171.03 200.889 171.03 200.665 171.03L203.101 168.146C203.12 168.133 203.135 168.115 203.145 168.095C203.935 167.16 204.725 166.23 205.525 165.295C205.637 165.172 205.749 165.049 205.856 164.92C208.096 164.987 210.336 164.842 212.576 164.886C212.66 164.864 212.66 164.774 212.598 164.774Z" fill="#263238"/>
<path d="M211.489 168.61H210.963C210.953 168.61 210.943 168.614 210.935 168.622C210.928 168.629 210.924 168.639 210.924 168.65C210.924 168.66 210.928 168.67 210.935 168.677C210.943 168.685 210.953 168.689 210.963 168.689H211.484C211.491 168.685 211.497 168.68 211.502 168.674C211.507 168.667 211.509 168.659 211.51 168.651C211.51 168.643 211.509 168.635 211.505 168.628C211.502 168.621 211.496 168.615 211.489 168.61V168.61Z" fill="#263238"/>
<path d="M210.319 168.616C209.624 168.616 208.93 168.616 208.236 168.571L207.2 168.56C206.878 168.521 206.553 168.521 206.231 168.56C206.222 168.56 206.213 168.564 206.207 168.57C206.201 168.576 206.197 168.585 206.197 168.594C206.197 168.602 206.201 168.611 206.207 168.617C206.213 168.624 206.222 168.627 206.231 168.627C206.551 168.692 206.879 168.714 207.205 168.694H208.247H210.33C210.38 168.706 210.38 168.616 210.319 168.616Z" fill="#263238"/>
<path d="M204.255 175.134C202.843 174.897 201.414 174.768 199.982 174.748V174.776C201.405 174.91 202.822 174.989 204.233 175.218C204.289 175.23 204.311 175.14 204.255 175.134Z" fill="#263238"/>
<path d="M198.448 168.918C198.448 168.795 198.42 168.672 198.403 168.549C198.37 168.269 198.325 167.989 198.28 167.714C198.196 167.182 198.107 166.656 198.006 166.124C198.006 166.079 197.911 166.09 197.916 166.124C197.983 166.684 198.045 167.216 198.095 167.765L198.163 168.571C198.155 168.829 198.191 169.087 198.269 169.333C198.28 169.35 198.296 169.363 198.314 169.371C198.333 169.379 198.353 169.382 198.373 169.379C198.393 169.376 198.412 169.368 198.427 169.355C198.442 169.341 198.454 169.324 198.459 169.305C198.479 169.176 198.475 169.046 198.448 168.918V168.918Z" fill="#263238"/>
<path d="M226.863 153.042C226.168 151.754 225.289 150.058 223.564 150.164C222.142 150.254 221.498 151.704 221.196 152.908C220.255 156.621 220.188 160.541 220.008 164.349C219.616 172.396 219.269 180.449 219.219 188.507C219.219 190.747 219.219 192.987 219.219 195.227C219.219 197.506 219.219 199.797 219.376 202.07C219.376 202.115 219.393 202.158 219.425 202.189C219.456 202.221 219.499 202.238 219.544 202.238C219.588 202.238 219.631 202.221 219.662 202.189C219.694 202.158 219.712 202.115 219.712 202.07C219.712 200.122 219.656 198.15 219.65 196.224C219.644 194.298 219.65 192.422 219.684 190.518C219.747 186.668 219.85 182.819 219.992 178.97C220.137 175.146 220.305 171.321 220.468 167.496C220.546 165.586 220.63 163.671 220.714 161.762C220.798 159.852 220.876 158.06 221.089 156.218C221.207 155.182 221.358 154.151 221.576 153.138C221.683 152.381 221.99 151.668 222.467 151.071C222.796 150.746 223.23 150.55 223.691 150.517C224.152 150.484 224.61 150.617 224.981 150.892C225.771 151.461 226.389 152.236 226.768 153.132C226.779 153.145 226.796 153.152 226.813 153.152C226.83 153.153 226.847 153.147 226.86 153.135C226.873 153.123 226.88 153.106 226.88 153.089C226.881 153.072 226.875 153.055 226.863 153.042V153.042Z" fill="#263238"/>
<path d="M226.392 152.426C226.392 152.426 224.976 147.42 228.112 149.923C233.331 154.09 233.516 163.156 233.516 163.156C233.516 163.156 224.236 157.769 223.083 154.196C221.364 148.921 226.392 152.426 226.392 152.426Z" fill="#B2BB77"/>
<path d="M231.56 159.443C231.476 159.303 231.386 159.169 231.297 159.029C231.308 158.887 231.308 158.745 231.297 158.603C231.297 158.39 231.297 158.172 231.297 157.959C231.297 157.534 231.297 157.108 231.341 156.688C231.341 156.676 231.337 156.665 231.328 156.656C231.32 156.648 231.308 156.643 231.297 156.643C231.285 156.643 231.273 156.648 231.265 156.656C231.256 156.665 231.252 156.676 231.252 156.688C231.252 157.102 231.213 157.522 231.201 157.937C231.201 158.144 231.201 158.351 231.201 158.558C231.201 158.637 231.201 158.732 231.201 158.827C230.837 158.267 230.462 157.707 230.081 157.147C229.969 156.985 229.852 156.828 229.74 156.671C229.68 156.128 229.671 155.581 229.712 155.036C229.712 154.476 229.712 153.871 229.745 153.289C229.745 153.233 229.656 153.233 229.656 153.289C229.656 153.894 229.611 154.498 229.577 155.103C229.541 155.533 229.53 155.965 229.544 156.397C228.648 155.182 227.696 154.006 226.744 152.835C226.71 152.796 226.643 152.835 226.677 152.891C227.27 153.647 227.841 154.42 228.401 155.204C227.309 154.946 226.201 154.801 225.092 154.644C225.036 154.644 225.013 154.722 225.092 154.734C226.268 154.913 227.421 155.204 228.581 155.462C229.023 156.089 229.465 156.716 229.897 157.349L230.423 158.122H230.378L230.014 158.071L229.241 158.004C228.709 157.959 228.172 157.931 227.634 157.903C227.578 157.903 227.584 157.993 227.634 157.993C228.161 157.993 228.687 158.043 229.208 158.099L230.042 158.2L230.401 158.245H230.507C230.804 158.682 231.106 159.118 231.397 159.555C231.924 160.334 232.394 161.162 232.949 161.907C232.956 161.913 232.965 161.917 232.974 161.918C232.984 161.919 232.993 161.917 233.001 161.912C233.01 161.907 233.016 161.899 233.019 161.89C233.023 161.881 233.024 161.872 233.021 161.862C232.583 161.027 232.095 160.219 231.56 159.443V159.443Z" fill="#263238"/>
<path d="M229.254 153.787C229.254 153.591 229.254 153.395 229.254 153.199C229.243 152.79 229.26 152.38 229.304 151.973C229.307 151.966 229.308 151.959 229.307 151.952C229.306 151.944 229.303 151.938 229.299 151.932C229.295 151.926 229.289 151.921 229.283 151.917C229.277 151.914 229.27 151.912 229.262 151.912C229.255 151.912 229.248 151.914 229.242 151.917C229.235 151.921 229.23 151.926 229.226 151.932C229.221 151.938 229.219 151.944 229.218 151.952C229.217 151.959 229.218 151.966 229.22 151.973C229.22 152.382 229.176 152.785 229.153 153.188C229.153 153.395 229.153 153.597 229.153 153.798V154.078C229.139 154.175 229.139 154.273 229.153 154.37C229.153 154.38 229.157 154.39 229.165 154.397C229.172 154.405 229.182 154.409 229.192 154.409C229.203 154.409 229.213 154.405 229.22 154.397C229.227 154.39 229.232 154.38 229.232 154.37C229.246 154.281 229.246 154.19 229.232 154.101L229.254 153.787Z" fill="#263238"/>
<path d="M228.105 155.859C227.757 155.798 227.405 155.781 227.057 155.753C226.71 155.725 226.296 155.686 225.937 155.635C225.925 155.635 225.914 155.64 225.906 155.648C225.897 155.657 225.893 155.668 225.893 155.68C225.893 155.692 225.897 155.703 225.906 155.712C225.914 155.72 225.925 155.725 225.937 155.725C226.671 155.77 227.399 155.904 228.133 155.926C228.138 155.932 228.144 155.865 228.105 155.859Z" fill="#263238"/>
<path d="M231.016 155.887C231.044 155.926 231.016 156.038 231.016 156.083V156.593C231.016 156.71 231.016 156.828 231.016 156.946C230.997 157.045 230.997 157.148 231.016 157.248C231.016 157.248 231.044 157.248 231.05 157.248C231.061 157.2 231.061 157.15 231.05 157.102C231.047 157.048 231.047 156.994 231.05 156.94V156.593C231.05 156.475 231.05 156.358 231.05 156.24V156.083C231.05 156.033 231.05 155.926 231.05 155.887C231.05 155.848 230.96 155.803 231.016 155.887Z" fill="#263238"/>
<path d="M227.076 179.76C225.127 178.298 223.374 176.193 220.748 176.086C218.58 176.002 217.063 177.632 216.195 179.446C215.761 180.414 215.407 181.416 215.136 182.442C214.744 183.809 214.371 185.184 214.016 186.57C213.341 189.291 212.762 192.035 212.28 194.802C212.017 196.342 211.771 197.887 211.575 199.438C211.329 201.011 211.177 202.597 211.121 204.187C211.12 204.248 211.142 204.308 211.182 204.354C211.223 204.4 211.279 204.429 211.339 204.436C211.4 204.443 211.461 204.427 211.511 204.391C211.561 204.356 211.595 204.303 211.608 204.243C211.872 202.944 211.984 201.606 212.168 200.295C212.353 198.985 212.56 197.658 212.779 196.347C213.227 193.734 213.746 191.12 214.336 188.507C214.896 186.049 215.456 183.557 216.234 181.166C216.794 179.452 217.712 177.453 219.566 176.837C222.366 175.902 224.936 178.282 226.997 179.833C227.059 179.861 227.12 179.794 227.076 179.76Z" fill="#263238"/>
<path d="M225.059 178.36C225.059 178.36 223.256 173.225 225.86 172.2C229.78 170.694 239.961 182.185 237.962 199.791C237.962 199.791 230.083 195.451 224.259 190.562C218.435 185.674 216.979 179.295 219.515 177.649C222.052 176.002 225.059 178.36 225.059 178.36Z" fill="#B2BB77"/>
<path d="M236.784 196.034C236.513 195.419 236.197 194.826 235.838 194.258C235.502 193.654 235.166 193.054 234.819 192.461C234.141 191.302 233.469 190.142 232.775 188.989L232.433 188.429C232.433 188.362 232.461 188.289 232.472 188.222L232.59 187.712C232.679 187.331 232.747 186.945 232.814 186.558C232.959 185.808 233.088 185.046 233.29 184.318C233.29 184.268 233.217 184.251 233.206 184.318C233.043 185.069 232.803 185.814 232.584 186.558C232.472 186.922 232.355 187.281 232.259 187.65L232.159 188.026C231.324 186.654 230.479 185.287 229.549 183.966C229.609 183.785 229.641 183.596 229.644 183.406C229.672 183.148 229.7 182.89 229.734 182.633C229.801 182.073 229.868 181.474 229.952 180.897C230.12 179.777 230.288 178.657 230.568 177.537C230.568 177.481 230.495 177.464 230.484 177.537C230.199 178.657 229.896 179.777 229.683 180.897C229.583 181.457 229.482 182.017 229.409 182.577C229.375 182.857 229.342 183.137 229.314 183.417C229.314 183.495 229.314 183.585 229.28 183.669C229 183.271 228.72 182.868 228.423 182.482C227.522 181.294 226.587 180.141 225.623 178.987C225.59 178.942 225.511 178.987 225.551 179.038C227.163 181.1 228.645 183.262 229.986 185.511L230.753 186.76L230.495 186.726C230.165 186.682 229.835 186.665 229.504 186.631L227.511 186.458C226.183 186.351 224.851 186.273 223.529 186.133C223.473 186.133 223.456 186.211 223.529 186.217C224.873 186.374 226.206 186.586 227.544 186.777C228.205 186.872 228.86 186.962 229.521 187.046C230.021 187.145 230.529 187.196 231.039 187.197C231.559 188.048 232.086 188.877 232.607 189.739C232.489 189.739 232.366 189.739 232.254 189.739H230.355C229.499 189.739 228.642 189.739 227.791 189.739C227.729 189.739 227.74 189.823 227.791 189.823C228.659 189.823 229.521 189.879 230.389 189.924L231.621 189.997L232.237 190.042C232.421 190.084 232.613 190.084 232.797 190.042L234.13 192.203C234.539 192.87 234.953 193.53 235.373 194.191C235.769 194.892 236.216 195.562 236.711 196.196C236.734 196.118 236.807 196.09 236.784 196.034Z" fill="#263238"/>
<path d="M233.028 181.804C232.949 182.372 232.831 182.933 232.675 183.484C232.529 184.044 232.367 184.604 232.182 185.164C232.179 185.171 232.178 185.179 232.178 185.187C232.178 185.194 232.18 185.202 232.183 185.209C232.186 185.216 232.191 185.222 232.197 185.228C232.203 185.233 232.209 185.237 232.217 185.239C232.224 185.241 232.232 185.242 232.24 185.241C232.248 185.24 232.255 185.238 232.262 185.234C232.268 185.23 232.274 185.225 232.279 185.219C232.283 185.212 232.287 185.205 232.288 185.198C232.462 184.638 232.619 184.078 232.753 183.518C232.888 182.958 232.977 182.398 233.117 181.81C233.118 181.798 233.114 181.786 233.106 181.777C233.098 181.768 233.087 181.763 233.075 181.762C233.063 181.761 233.052 181.765 233.043 181.773C233.034 181.781 233.028 181.792 233.028 181.804V181.804Z" fill="#263238"/>
<path d="M227.238 185.242C227.117 185.141 226.965 185.083 226.807 185.08L226.062 184.979C225.603 184.918 225.138 184.867 224.679 184.811C223.715 184.699 222.758 184.604 221.795 184.486C221.739 184.486 221.722 184.565 221.795 184.57C222.702 184.682 223.603 184.822 224.511 184.94L225.838 185.114L226.482 185.181C226.73 185.183 226.976 185.227 227.21 185.31C227.218 185.31 227.225 185.307 227.232 185.303C227.238 185.299 227.244 185.293 227.247 185.285C227.25 185.278 227.25 185.27 227.249 185.263C227.247 185.255 227.243 185.248 227.238 185.242Z" fill="#263238"/>
<path d="M233.016 192.987C232.562 192.948 232.103 192.931 231.649 192.92H230.96H230.63C230.487 192.934 230.342 192.934 230.199 192.92C230.137 192.92 230.132 193.015 230.199 193.004C230.333 192.99 230.468 192.99 230.602 193.004H230.96L231.644 193.049C232.097 193.077 232.556 193.105 233.01 193.105C233.066 193.082 233.072 192.987 233.016 192.987Z" fill="#263238"/>
<path d="M235.793 191.016L235.944 190.243C236.034 189.734 236.129 189.224 236.224 188.72C236.224 188.708 236.22 188.697 236.211 188.688C236.203 188.68 236.192 188.675 236.18 188.675C236.168 188.675 236.156 188.68 236.148 188.688C236.14 188.697 236.135 188.708 236.135 188.72L235.799 190.204C235.743 190.45 235.687 190.697 235.636 190.943C235.636 191.061 235.592 191.173 235.564 191.29C235.528 191.408 235.515 191.532 235.524 191.654C235.526 191.666 235.53 191.676 235.537 191.685C235.545 191.694 235.554 191.7 235.565 191.703C235.576 191.706 235.588 191.706 235.598 191.702C235.609 191.698 235.619 191.691 235.625 191.682C235.723 191.473 235.78 191.247 235.793 191.016V191.016Z" fill="#263238"/>
<path d="M209.104 202.216L209.652 208.46L211.517 229.533H228.02L230.35 208.46L231.039 202.216H209.104Z" fill="#37474F"/>
<path d="M209.104 202.216L209.652 208.46H230.35L231.039 202.216H209.104Z" fill="#263238"/>
<path d="M207.468 205.582H232.674V200.519H207.468V205.582Z" fill="#37474F"/>
<path d="M119.839 181.513C119.839 172.553 121.303 164.502 124.23 157.36C127.156 150.218 133.193 143.996 142.34 138.695C145.088 137.049 148.474 135.182 152.498 133.095C156.64 130.92 160.587 128.395 164.298 125.546C168.091 122.678 171.383 119.202 174.042 115.259C176.722 111.24 178.111 106.498 178.023 101.668C178.103 98.1501 177.355 94.6626 175.839 91.4871C174.441 88.6522 172.48 86.1315 170.077 84.0783C167.608 82.0211 164.752 80.4805 161.677 79.5479C158.524 78.5529 155.238 78.0449 151.933 78.0415C148.186 77.9903 144.467 78.6831 140.99 80.0799C137.792 81.3978 134.792 83.1524 132.075 85.2935C129.427 87.3897 127.031 89.7857 124.935 92.4335C123.005 94.8404 121.22 97.3592 119.587 99.9767H115.454L95.7031 83.5127C97.9877 77.9765 101.189 72.8648 105.173 68.3927C109.068 64.0323 113.599 60.2848 118.613 57.2767C123.713 54.2445 129.216 51.9482 134.959 50.4559C140.871 48.8945 146.961 48.1095 153.075 48.1207C160.047 48.1246 166.981 49.1414 173.661 51.1391C180.322 53.0995 186.526 56.3662 191.911 60.7487C197.474 65.3537 201.97 71.1128 205.088 77.6271C208.47 84.489 210.162 92.6781 210.162 102.194C210.246 107.436 209.554 112.662 208.106 117.701C206.792 122.059 204.799 126.183 202.198 129.92C199.623 133.593 196.579 136.914 193.143 139.798C189.412 142.907 185.467 145.749 181.338 148.305C177.676 150.507 174.017 152.613 170.362 154.622C166.825 156.551 163.472 158.801 160.344 161.342C157.399 163.729 154.89 166.609 152.93 169.854C151.011 173.057 150.051 176.945 150.051 181.518L119.839 181.513ZM120.399 245.459V207.586H150.863V245.459H120.399Z" fill="#B2BB77"/>
<g opacity="0.2">
<path opacity="0.2" d="M119.839 181.513C119.839 172.553 121.303 164.502 124.23 157.36C127.156 150.218 133.193 143.996 142.34 138.695C145.088 137.049 148.474 135.182 152.498 133.095C156.64 130.92 160.587 128.395 164.298 125.546C168.091 122.678 171.383 119.202 174.042 115.259C176.722 111.24 178.111 106.498 178.023 101.668C178.103 98.1501 177.355 94.6626 175.839 91.4871C174.441 88.6522 172.48 86.1315 170.077 84.0783C167.608 82.0211 164.752 80.4805 161.677 79.5479C158.524 78.5529 155.238 78.0449 151.933 78.0415C148.186 77.9903 144.467 78.6831 140.99 80.0799C137.792 81.3978 134.792 83.1524 132.075 85.2935C129.427 87.3897 127.031 89.7857 124.935 92.4335C123.005 94.8404 121.22 97.3592 119.587 99.9767H115.454L95.7031 83.5127C97.9877 77.9765 101.189 72.8648 105.173 68.3927C109.068 64.0323 113.599 60.2848 118.613 57.2767C123.713 54.2445 129.216 51.9482 134.959 50.4559C140.871 48.8945 146.961 48.1095 153.075 48.1207C160.047 48.1246 166.981 49.1414 173.661 51.1391C180.322 53.0995 186.526 56.3662 191.911 60.7487C197.474 65.3537 201.97 71.1128 205.088 77.6271C208.47 84.489 210.162 92.6781 210.162 102.194C210.246 107.436 209.554 112.662 208.106 117.701C206.792 122.059 204.799 126.183 202.198 129.92C199.623 133.593 196.579 136.914 193.143 139.798C189.412 142.907 185.467 145.749 181.338 148.305C177.676 150.507 174.017 152.613 170.362 154.622C166.825 156.551 163.472 158.801 160.344 161.342C157.399 163.729 154.89 166.609 152.93 169.854C151.011 173.057 150.051 176.945 150.051 181.518L119.839 181.513ZM120.399 245.459V207.586H150.863V245.459H120.399Z" fill="black"/>
</g>
<path d="M115.729 181.513C115.729 172.553 117.192 164.502 120.119 157.36C123.046 150.218 129.085 143.997 138.235 138.695C140.979 137.049 144.364 135.182 148.388 133.095C152.532 130.922 156.482 128.396 160.193 125.546C163.985 122.677 167.277 119.201 169.937 115.259C172.613 111.238 174 106.497 173.913 101.668C173.985 98.1586 173.233 94.6812 171.718 91.5152C170.319 88.6803 168.359 86.1596 165.955 84.1064C163.487 82.0492 160.63 80.5086 157.555 79.576C154.403 78.5809 151.117 78.0729 147.811 78.0696C144.065 78.0075 140.343 78.6909 136.863 80.08C133.664 81.3981 130.662 83.1526 127.943 85.2936C125.297 87.3899 122.902 89.7859 120.808 92.4336C118.877 94.8404 117.089 97.3592 115.455 99.9768L91.5762 83.5128C93.8591 77.9757 97.0606 72.8638 101.046 68.3928C104.939 64.0307 109.471 60.283 114.486 57.2768C119.585 54.2454 125.086 51.9492 130.827 50.456C136.744 48.8926 142.839 48.1075 148.959 48.1208C155.931 48.1243 162.866 49.1411 169.545 51.1392C176.206 53.0983 182.411 56.3651 187.795 60.7488C193.36 65.3525 197.856 71.1119 200.972 77.6272C204.355 84.489 206.048 92.6781 206.051 102.194C206.134 107.437 205.44 112.662 203.991 117.701C202.673 122.061 200.674 126.185 198.066 129.92C195.491 133.593 192.447 136.914 189.011 139.798C185.282 142.909 181.337 145.752 177.206 148.305C173.551 150.507 169.892 152.613 166.23 154.622C162.692 156.551 159.339 158.801 156.211 161.342C153.268 163.729 150.761 166.609 148.803 169.854C146.884 173.057 145.922 176.945 145.919 181.518L115.729 181.513ZM116.289 245.459V207.586H146.719V245.459H116.289Z" fill="#B2BB77"/>
<path d="M103.174 248.489C101.981 248.87 67.9723 248.433 66.6899 247.593C66.1971 247.279 65.9731 242.323 65.8723 236.32V236.135C65.8723 234.898 65.8331 233.621 65.8275 232.333C65.8275 232.154 65.8275 231.974 65.8275 231.801C65.7827 223.143 65.9171 214.155 65.9171 214.155L88.6699 214.385L87.9811 231.84L87.9531 232.534L87.8131 236.152V236.522C87.8131 236.522 100.744 242.536 102.06 243.6C103.376 244.664 104.367 248.108 103.174 248.489Z" fill="#BC675A"/>
<path d="M103.175 248.489C101.982 248.87 67.9729 248.433 66.6905 247.593C66.1977 247.279 65.9737 242.323 65.8729 236.32V236.135C65.8729 234.898 65.8337 233.621 65.8281 232.333C65.8281 232.154 65.8281 231.974 65.8281 231.801L87.9873 231.862L87.9593 232.557L87.8193 236.174V236.544C87.8193 236.544 100.744 242.536 102.06 243.6C103.376 244.664 104.367 248.108 103.175 248.489Z" fill="#EBEBEB"/>
<path d="M103.175 248.489C102.441 248.724 89.2645 248.646 78.9493 248.354C72.5093 248.181 67.1893 247.912 66.6909 247.593C66.1925 247.274 65.9797 242.463 65.8789 236.572C65.8789 236.488 65.8789 236.404 65.8789 236.32C65.8789 236.236 65.8789 236.191 65.8789 236.13L87.8253 236.174V236.544C87.8253 236.544 100.773 242.536 102.083 243.606C103.393 244.675 104.368 248.108 103.175 248.489Z" fill="#B2BB77"/>
<path d="M102.81 247.162C97.0758 246.949 73.9422 246.602 68.2582 246.842C68.2134 246.842 68.2134 246.876 68.2582 246.882C73.9366 247.218 97.0702 247.358 102.805 247.257C102.928 247.257 102.928 247.167 102.81 247.162Z" fill="#263238"/>
<path d="M90.2551 236.264C88.0151 235.816 85.2431 236.124 83.4959 237.709C83.4287 237.77 83.4959 237.866 83.5911 237.843C85.7567 237.178 87.9868 236.744 90.2439 236.55C90.2773 236.544 90.3079 236.528 90.3303 236.503C90.3528 236.477 90.3658 236.445 90.3672 236.411C90.3685 236.378 90.358 236.344 90.3376 236.318C90.3172 236.291 90.288 236.272 90.2551 236.264V236.264Z" fill="#263238"/>
<path d="M91.8743 237.266C89.6343 236.818 86.8623 237.126 85.1151 238.711C85.0479 238.773 85.1151 238.868 85.2103 238.846C87.3684 238.181 89.591 237.747 91.8407 237.552C91.8753 237.551 91.9083 237.537 91.9337 237.513C91.9591 237.49 91.9753 237.458 91.9793 237.424C91.9834 237.389 91.975 237.354 91.9558 237.326C91.9365 237.297 91.9076 237.276 91.8743 237.266V237.266Z" fill="#263238"/>
<path d="M93.4856 238.269C91.2456 237.821 88.4736 238.129 86.7264 239.714C86.6592 239.775 86.7264 239.87 86.8216 239.848C88.9873 239.184 91.2174 238.753 93.4744 238.56C93.513 238.562 93.5506 238.548 93.579 238.521C93.6073 238.495 93.6241 238.459 93.6256 238.42C93.6271 238.381 93.6132 238.344 93.5869 238.315C93.5607 238.287 93.5242 238.27 93.4856 238.269V238.269Z" fill="#263238"/>
<path d="M93.2576 231.381C92.384 230.149 90.7264 230.681 89.7744 231.459C88.1647 232.826 86.9439 234.594 86.2352 236.583C86.2315 236.592 86.2299 236.601 86.2306 236.61C86.2314 236.619 86.2344 236.628 86.2394 236.636C86.2443 236.644 86.2512 236.65 86.2592 236.655C86.2673 236.659 86.2763 236.661 86.2855 236.662C86.2855 236.835 86.4424 237.02 86.6384 236.947C88.5088 236.281 90.5919 235.827 92.2048 234.584C93.1456 233.873 94.0808 232.551 93.2576 231.381ZM89.2647 235.357C88.3519 235.71 87.428 236.012 86.5319 236.393C87.2264 235.396 87.8704 234.377 88.6656 233.447C89.0425 232.998 89.4465 232.571 89.8752 232.17C90.5584 231.571 93.2352 230.306 92.7984 232.775C92.5632 234.136 90.3567 234.942 89.2647 235.357V235.357Z" fill="#263238"/>
<path d="M80.5052 235.917C82.3532 236.734 84.4924 236.723 86.4692 236.942C86.6708 236.942 86.7772 236.746 86.7436 236.578C86.7523 236.575 86.7602 236.57 86.7668 236.563C86.7734 236.557 86.7785 236.549 86.7817 236.541C86.785 236.532 86.7862 236.523 86.7854 236.514C86.7846 236.505 86.7818 236.496 86.7772 236.488C85.6256 234.718 84.0309 233.279 82.1516 232.316C81.0316 231.756 79.3068 231.644 78.7468 233.044C78.1868 234.444 79.4244 235.441 80.5052 235.917ZM79.5084 234.293C78.5228 231.991 81.418 232.613 82.2132 233.038C82.7269 233.323 83.2191 233.645 83.686 234.002C84.6452 234.744 85.5649 235.537 86.4412 236.376C85.478 236.208 84.5092 236.13 83.5404 235.995C82.3868 235.844 80.0796 235.564 79.5196 234.293H79.5084Z" fill="#263238"/>
<path d="M78.961 248.354C72.521 248.181 67.201 247.912 66.7026 247.593C66.2042 247.274 65.9914 242.463 65.8906 236.572C68.5226 238.93 75.0858 244.782 78.961 248.354Z" fill="#263238"/>
<path d="M58.9336 116.189C58.9336 116.189 64.0408 173.656 64.8696 178.041C65.0656 179.043 65.1832 184.475 65.2616 191.453C65.4352 206.69 65.3344 234.164 65.3344 234.164H89.308C89.308 234.164 88.5968 186.564 87.5328 177.8C86.4688 169.036 79.6928 116.2 79.6928 116.2L58.9336 116.189Z" fill="#37474F"/>
<path d="M88.2223 229.986C84.4815 229.908 85.5567 229.88 81.8159 229.841C79.9847 229.841 67.9559 229.723 66.2423 230.003C66.2319 230.003 66.222 230.007 66.2146 230.015C66.2073 230.022 66.2031 230.032 66.2031 230.042C66.2031 230.053 66.2073 230.063 66.2146 230.07C66.222 230.077 66.2319 230.082 66.2423 230.082C67.9559 230.362 79.9847 230.261 81.8159 230.238C85.5567 230.205 84.4815 230.177 88.2223 230.098C88.2372 230.098 88.2514 230.092 88.2619 230.082C88.2724 230.071 88.2783 230.057 88.2783 230.042C88.2783 230.028 88.2724 230.013 88.2619 230.003C88.2514 229.992 88.2372 229.986 88.2223 229.986V229.986Z" fill="#263238"/>
<path d="M69.8871 202.776C69.8573 199.297 69.8311 195.819 69.8087 192.343C69.8087 188.983 69.8087 185.623 69.6295 182.263C69.3047 175.448 67.9495 168.75 66.9415 162.014C65.9335 155.277 65.1383 148.512 64.3935 141.742C63.5591 134.148 62.8255 126.538 62.0471 118.938C62.0471 118.888 61.9575 118.888 61.9631 118.938C63.0831 132.513 64.3543 146.082 66.2303 159.572C66.7007 162.932 67.2122 166.281 67.7647 169.618C68.3247 172.978 68.8847 176.383 69.1479 179.805C69.4111 183.226 69.4503 186.525 69.4839 189.885C69.525 193.364 69.5605 196.84 69.5903 200.312C69.6631 208.029 69.7359 219.912 69.8143 227.629C69.8201 227.655 69.8347 227.678 69.8556 227.695C69.8764 227.712 69.9024 227.721 69.9291 227.721C69.9559 227.721 69.9819 227.712 70.0027 227.695C70.0236 227.678 70.0381 227.655 70.0439 227.629C69.9991 220.707 69.9375 209.658 69.8871 202.776Z" fill="#263238"/>
<path d="M53.877 116.189C53.877 116.189 64.0409 173.656 64.8697 178.041C65.0657 179.043 65.1834 184.475 65.2618 191.453L76.7193 116.189H53.877Z" fill="#263238"/>
<path d="M75.3365 250.516C74.1213 250.813 40.2245 247.962 39.0037 247.038C38.5333 246.691 38.6621 241.73 39.0037 235.738C39.0037 235.676 39.0037 235.609 39.0037 235.547C39.0709 234.315 39.1437 233.044 39.2333 231.756L39.2669 231.196C39.8269 222.555 40.6053 213.601 40.6053 213.601L63.2797 215.471L61.3589 232.831L61.2861 233.52L60.8941 237.121L60.8549 237.49C60.8549 237.49 73.3373 244.384 74.5749 245.543C75.8125 246.702 76.5517 250.219 75.3365 250.516Z" fill="#BC675A"/>
<path d="M75.3365 250.516C74.1213 250.813 40.2245 247.962 39.0037 247.038C38.5333 246.691 38.6621 241.73 39.0037 235.738C39.0037 235.676 39.0037 235.609 39.0037 235.547C39.0709 234.315 39.1437 233.044 39.2333 231.756L39.2669 231.196L61.3589 232.826L61.2861 233.514L60.8941 237.115L60.8549 237.485C60.8549 237.485 73.3373 244.378 74.5749 245.538C75.8125 246.697 76.5517 250.219 75.3365 250.516Z" fill="#EBEBEB"/>
<path d="M75.3365 250.516C74.1213 250.813 40.2245 247.962 39.0037 247.038C38.5333 246.691 38.6621 241.73 39.0037 235.738C39.0037 235.676 39.0037 235.609 39.0037 235.547L60.8941 237.143L60.8549 237.513C60.8549 237.513 73.3373 244.406 74.5749 245.566C75.8125 246.725 76.5517 250.219 75.3365 250.516Z" fill="#B2BB77"/>
<path d="M75.0402 249.166C69.3394 248.545 46.2842 246.585 40.6002 246.4C40.5554 246.4 40.5498 246.434 40.6002 246.439C46.2338 247.178 69.3058 248.954 75.0346 249.239C75.1746 249.267 75.1858 249.2 75.0402 249.166Z" fill="#263238"/>
<path d="M63.3145 237.406C61.0745 236.802 58.3249 236.914 56.4713 238.37C56.3985 238.426 56.4713 238.532 56.5553 238.515C58.7594 238.001 61.0123 237.725 63.2753 237.692C63.3103 237.692 63.3441 237.679 63.3705 237.656C63.3969 237.633 63.414 237.601 63.4188 237.566C63.4235 237.532 63.4156 237.496 63.3964 237.467C63.3773 237.438 63.3482 237.416 63.3145 237.406V237.406Z" fill="#263238"/>
<path d="M64.8587 238.521C62.6187 237.916 59.8634 238.028 58.0099 239.484C57.9427 239.54 58.0099 239.646 58.0939 239.63C60.298 239.116 62.5509 238.84 64.8138 238.806C64.8494 238.808 64.8842 238.796 64.9117 238.773C64.9391 238.751 64.9573 238.719 64.9628 238.683C64.9683 238.648 64.9608 238.612 64.9416 238.582C64.9224 238.552 64.8929 238.531 64.8587 238.521V238.521Z" fill="#263238"/>
<path d="M66.3995 239.635C64.1595 239.03 61.4043 239.142 59.5507 240.598C59.4835 240.654 59.5507 240.761 59.6403 240.744C61.8444 240.229 64.0973 239.953 66.3603 239.921C66.3954 239.921 66.4292 239.908 66.4556 239.885C66.4819 239.862 66.499 239.83 66.5038 239.795C66.5086 239.76 66.5006 239.725 66.4815 239.696C66.4623 239.666 66.4332 239.645 66.3995 239.635V239.635Z" fill="#263238"/>
<path d="M66.6398 232.753C65.8614 231.459 64.1702 231.868 63.1622 232.579C61.4495 233.825 60.097 235.502 59.2422 237.44C59.2422 237.485 59.2422 237.513 59.287 237.524C59.2818 237.568 59.287 237.612 59.3021 237.653C59.3173 237.695 59.3419 237.732 59.3741 237.762C59.4063 237.792 59.4451 237.814 59.4874 237.826C59.5296 237.838 59.5742 237.84 59.6174 237.832C61.527 237.3 63.6438 236.97 65.335 235.866C66.3654 235.2 67.3902 233.974 66.6398 232.753ZM62.3782 236.432C61.443 236.718 60.5022 236.953 59.5782 237.272C60.3084 236.299 61.0878 235.365 61.9134 234.472C62.3192 234.047 62.7532 233.651 63.2126 233.285C63.935 232.725 66.6902 231.655 66.0854 234.091C65.7662 235.446 63.5038 236.096 62.3894 236.432H62.3782Z" fill="#263238"/>
<path d="M53.6141 236.37C55.4005 237.317 57.5341 237.457 59.4885 237.81C59.6901 237.849 59.8133 237.642 59.7909 237.474C59.7996 237.471 59.8076 237.466 59.8142 237.46C59.8208 237.453 59.8258 237.445 59.8291 237.437C59.8323 237.428 59.8336 237.419 59.8328 237.41C59.832 237.401 59.8292 237.392 59.8245 237.384C58.8048 235.537 57.3154 233.991 55.5069 232.904C54.4429 232.282 52.7069 232.03 52.0629 233.386C51.4189 234.741 52.5725 235.816 53.6141 236.37ZM52.7349 234.69C51.9117 232.322 54.7565 233.145 55.5349 233.626C56.0252 233.951 56.4929 234.308 56.9349 234.696C57.8395 235.505 58.7012 236.361 59.5165 237.261C58.5645 237.026 57.6069 236.874 56.6493 236.701C55.4957 236.426 53.1997 235.99 52.7349 234.679V234.69Z" fill="#263238"/>
<path d="M61.8633 235.458L37.9121 234.444C37.9121 234.444 44.4529 181.882 44.5705 178.64C44.8841 170.24 50.4561 116.15 50.4561 116.15H79.7105C79.7105 116.15 77.8625 128.643 74.7097 136.562C72.5875 137.304 70.5386 138.242 68.5889 139.362C68.5889 139.362 65.8449 175.14 65.7441 179.603C65.5201 188.44 61.8633 235.458 61.8633 235.458Z" fill="#37474F"/>
<path d="M61.2253 231.067C57.4957 230.832 58.5709 230.849 54.8301 230.653C53.0045 230.558 40.9869 229.947 39.2677 230.154C39.2285 230.154 39.2285 230.222 39.2677 230.233C40.9477 230.586 52.9933 230.994 54.8189 231.05C58.5597 231.174 57.4901 231.101 61.2309 231.179C61.2457 231.179 61.2597 231.172 61.2697 231.161C61.2796 231.15 61.2848 231.135 61.2841 231.12C61.2833 231.106 61.2767 231.092 61.2657 231.082C61.2547 231.072 61.2401 231.067 61.2253 231.067V231.067Z" fill="#263238"/>
<path d="M52.6013 119.375C51.5149 133 50.4005 146.63 49.1517 160.255C47.9029 173.88 46.4413 187.561 44.6717 201.163C43.6805 208.751 42.5605 219.453 41.3789 227.024C41.3789 227.074 41.4461 227.097 41.4573 227.024C43.8709 213.584 45.6461 196.874 47.1525 183.294C48.6589 169.714 49.8965 156.094 50.9997 142.475C51.6213 134.77 52.1813 127.058 52.7749 119.353C52.7805 119.28 52.6405 119.28 52.6013 119.375Z" fill="#263238"/>
<path d="M75.7519 136.035C73.2709 136.944 70.8743 138.068 68.5896 139.395C68.5702 139.404 68.5553 139.42 68.5479 139.44C68.5406 139.46 68.5414 139.482 68.5504 139.502C68.5593 139.521 68.5755 139.536 68.5954 139.543C68.6154 139.551 68.6374 139.55 68.6567 139.541C71.0703 138.505 73.5287 137.514 75.8807 136.343C75.9216 136.326 75.954 136.293 75.9708 136.252C75.9876 136.212 75.9874 136.166 75.9703 136.125C75.9533 136.084 75.9207 136.052 75.8797 136.035C75.8387 136.018 75.7928 136.018 75.7519 136.035Z" fill="#263238"/>
<path d="M76.5187 119.476C76.5187 119.392 76.3675 119.375 76.3675 119.476C76.3675 122.338 76.2051 124.858 75.9643 127.54C75.8523 128.783 74.8443 135.649 72.6939 135.15C72.3355 135.066 72.1339 134.708 72.0947 134.165C72.0988 133.453 72.1948 132.746 72.3803 132.059C72.6155 130.62 72.8115 129.181 72.9403 127.725C73.1905 125.02 73.1605 122.297 72.8507 119.599C72.8464 119.584 72.8372 119.571 72.8245 119.561C72.8119 119.551 72.7965 119.546 72.7807 119.546C72.7649 119.546 72.7495 119.551 72.7369 119.561C72.7242 119.571 72.715 119.584 72.7107 119.599C72.7745 123.344 72.5554 127.088 72.0555 130.799C71.7867 132.586 70.8851 135.279 72.7555 135.548C74.6259 135.817 75.8915 131.326 76.1155 130.094C76.7098 126.587 76.8454 123.018 76.5187 119.476V119.476Z" fill="#263238"/>
<path d="M72.7503 135.324C72.5564 135.786 72.3955 136.261 72.2687 136.746C72.1273 137.12 72.0588 137.517 72.0671 137.917C72.0671 137.995 72.1735 138.001 72.2127 137.95C72.4354 137.604 72.6052 137.227 72.7167 136.83C72.8791 136.388 73.0527 135.951 73.2039 135.503C73.2276 135.443 73.2265 135.376 73.2008 135.317C73.1751 135.257 73.1268 135.21 73.0667 135.187C73.0065 135.163 72.9394 135.164 72.8801 135.19C72.8207 135.216 72.774 135.264 72.7503 135.324Z" fill="#263238"/>
<path d="M62.9946 121.722C63.0014 121.422 62.9713 121.123 62.905 120.831C62.9008 120.823 62.8943 120.816 62.8864 120.811C62.8785 120.807 62.8694 120.804 62.8602 120.804C62.8509 120.804 62.8419 120.807 62.834 120.811C62.8261 120.816 62.8196 120.823 62.8154 120.831C62.7562 121.085 62.7224 121.344 62.7146 121.604C62.7146 121.901 62.6474 122.164 62.6138 122.489C62.5516 123.095 62.4468 123.695 62.3002 124.286C62.0276 125.402 61.4588 126.424 60.6538 127.243C59.851 128.033 58.8992 128.656 57.8538 129.074C56.6968 129.484 55.5169 129.826 54.3202 130.099C54.3083 130.099 54.2969 130.104 54.2885 130.112C54.2801 130.121 54.2754 130.132 54.2754 130.144C54.2754 130.156 54.2801 130.167 54.2885 130.176C54.2969 130.184 54.3083 130.189 54.3202 130.189C55.6452 130.186 56.9573 129.928 58.1842 129.427C59.2718 129.019 60.2619 128.388 61.0906 127.574C61.9179 126.733 62.4989 125.681 62.7706 124.533C62.9077 123.941 62.9865 123.337 63.0058 122.73C63.0217 122.394 63.0179 122.057 62.9946 121.722Z" fill="#263238"/>
<path d="M91.6263 66.9648C93.4295 69.1432 95.3895 75.0288 95.3167 76.636C95.2439 78.2432 85.3375 81.8944 83.9375 81.0208C82.5375 80.1472 77.0271 72.3632 76.9767 69.4792C76.9263 66.5952 89.7559 64.7136 91.6263 66.9648Z" fill="#BC675A"/>
<path d="M76.7199 62.9663C75.8127 62.0199 72.8783 59.1919 71.5735 60.4687C70.7559 61.2639 72.7271 63.4423 73.5559 64.3047C75.2639 66.0743 76.5855 69.2047 77.2015 70.7335C77.8175 72.2623 80.7015 69.2439 80.7015 69.2439C80.7015 69.2439 79.0887 65.4247 76.7199 62.9663Z" fill="#BC675A"/>
<path d="M79.1286 72.4416C79.1286 72.4416 80.1422 75.1632 81.7942 75.1016C83.4462 75.04 83.0262 72.6992 83.0038 72.5312C83.0542 72.6768 84.051 75.152 85.7086 74.9224C87.3662 74.6928 86.6606 72.3912 86.6102 72.2456C86.6998 72.3632 87.9766 73.9256 89.1918 73.4608C91.2862 72.6656 88.1446 68.5944 88.447 66.808C88.447 66.808 91.5382 66.9816 91.6278 66.9648C91.6278 66.9648 88.7158 63.0448 86.2798 62.7536C85.9253 62.7045 85.5647 62.779 85.2587 62.9646C84.9527 63.1503 84.72 63.4357 84.5998 63.7728C84.5998 63.7728 83.799 62.4008 82.4886 62.5408C81.8166 62.6136 81.335 63.756 81.335 63.756C81.1385 63.4544 80.8623 63.2132 80.5371 63.059C80.2119 62.9048 79.8504 62.8437 79.4926 62.8824C78.5686 63.0336 78.1094 64.1872 78.059 64.6352C77.667 68.0624 79.1286 72.4416 79.1286 72.4416Z" fill="#BC675A"/>
<path d="M78.1652 64.3215C78.1652 64.3215 78.126 64.3215 78.1204 64.3215C77.6155 67.1048 77.969 69.9759 79.1341 72.5535C79.1733 72.6319 79.3189 72.6039 79.2909 72.5087C78.5224 69.8483 78.1433 67.0906 78.1652 64.3215V64.3215Z" fill="#263238"/>
<path d="M81.3281 63.7169C81.3281 63.6833 81.2778 63.6833 81.2722 63.7169C80.75 66.7903 81.346 69.949 82.9521 72.6209C83.0137 72.7161 83.1593 72.7385 83.0977 72.6209C82.0729 70.7617 81.2721 66.3097 81.3281 63.7169Z" fill="#263238"/>
<path d="M86.8005 72.3912C85.2661 69.7592 84.7229 66.9032 84.5941 63.8848C84.5941 63.8456 84.5381 63.8512 84.5269 63.8848C84.1909 65.38 84.4765 67.2896 84.8237 68.7624C85.1211 70.1324 85.7717 71.4008 86.7109 72.4416C86.7389 72.4864 86.8005 72.4472 86.8005 72.3912Z" fill="#263238"/>
<path d="M79.1289 72.4416C79.3726 72.9445 79.6612 73.4243 79.9913 73.8752C80.2945 74.3268 80.7118 74.69 81.2009 74.928C81.4334 75.0172 81.6908 75.0172 81.9233 74.928C82.1611 74.8429 82.3732 74.6983 82.5393 74.508C82.6861 74.304 82.7889 74.0717 82.8409 73.8258C82.893 73.58 82.8933 73.3259 82.8417 73.08L82.6345 71.8704L83.2505 72.9344C83.5198 73.4101 83.8639 73.8393 84.2697 74.2056C84.4469 74.3854 84.6605 74.5254 84.8961 74.6162C85.1317 74.707 85.384 74.7465 85.6361 74.732C85.871 74.7178 86.0938 74.6232 86.2671 74.4641C86.4405 74.305 86.5538 74.0911 86.5881 73.8584C86.6531 73.3349 86.5857 72.8035 86.3921 72.3128L85.8937 70.9464L86.8065 72.0664C87.0605 72.3791 87.352 72.6593 87.6745 72.9008C87.9738 73.1376 88.3359 73.2817 88.7161 73.3152C88.8876 73.323 89.0579 73.2832 89.2081 73.2002C89.3584 73.1171 89.4827 72.9941 89.5673 72.8448C89.6993 72.4866 89.7284 72.0986 89.6513 71.7248C89.4908 70.8984 89.2661 70.0858 88.9793 69.2944C88.8449 68.8912 88.7105 68.4824 88.5985 68.068C88.4612 67.6611 88.4115 67.2298 88.4529 66.8024C88.4604 67.2256 88.5478 67.6436 88.7105 68.0344C88.8561 68.432 89.0185 68.824 89.1809 69.2216C89.5283 70.0137 89.8002 70.8368 89.9929 71.68C90.1081 72.133 90.0887 72.6098 89.9369 73.052C89.8275 73.2839 89.6524 73.4786 89.4335 73.612C89.2145 73.7453 88.9611 73.8115 88.7049 73.8024C88.2316 73.7757 87.7772 73.6079 87.4001 73.3208C87.0356 73.0598 86.7063 72.753 86.4201 72.408L86.8345 72.1616C87.076 72.7358 87.1629 73.3633 87.0865 73.9816C87.0353 74.3256 86.8648 74.6408 86.6049 74.872C86.3457 75.0876 86.0277 75.2203 85.6921 75.2528C85.3719 75.2725 85.0512 75.2232 84.7517 75.1082C84.4522 74.9933 84.1809 74.8153 83.9561 74.5864C83.5057 74.1826 83.127 73.7055 82.8361 73.1752L83.2449 73.0296C83.2973 73.3366 83.2824 73.6514 83.2012 73.9521C83.1199 74.2528 82.9744 74.5323 82.7745 74.7712C82.5587 74.9962 82.2888 75.162 81.9905 75.2528C81.6868 75.3465 81.3589 75.3225 81.0721 75.1856C80.5571 74.904 80.132 74.4828 79.8457 73.9704C79.5497 73.4895 79.3092 72.9767 79.1289 72.4416V72.4416Z" fill="#263238"/>
<path d="M82.7684 79.8617C82.7684 79.8617 72.0892 74.4017 76.2724 71.2769C77.51 70.3473 83.7204 68.0121 84.2132 69.2497C84.8516 70.8457 82.438 72.3073 80.7804 72.9793C80.7804 72.9793 84.6724 74.3289 84.5436 77.3137C84.5112 77.8607 84.3283 78.3882 84.015 78.8378C83.7017 79.2874 83.2703 79.6418 82.7684 79.8617V79.8617Z" fill="#BC675A"/>
<path d="M75.9414 71.5568C76.3821 71.1329 76.8843 70.778 77.431 70.504C77.9742 70.2146 78.5353 69.9602 79.111 69.7424C80.2545 69.2933 81.435 68.9448 82.639 68.7008C82.9592 68.6337 83.2876 68.6148 83.6134 68.6448C83.8105 68.6569 84.0022 68.7144 84.1734 68.8128C84.2623 68.8643 84.3419 68.9306 84.4086 69.0088C84.4746 69.0866 84.5258 69.1758 84.5598 69.272C84.6886 69.6169 84.6886 69.9967 84.5598 70.3416C84.4418 70.6562 84.2672 70.9466 84.0446 71.1984C83.6227 71.6759 83.1204 72.0758 82.5606 72.38C82.0221 72.6882 81.4604 72.9541 80.8806 73.1752V72.7776C81.3194 72.9489 81.7412 73.1608 82.1406 73.4104C82.5423 73.6526 82.9177 73.936 83.2606 74.256C83.5985 74.5849 83.8854 74.9624 84.1118 75.376C84.341 75.7788 84.4912 76.2217 84.5542 76.6808C84.4356 76.2442 84.2465 75.83 83.9942 75.4544C83.7366 75.0906 83.4315 74.7629 83.087 74.48C82.7412 74.1911 82.3658 73.9395 81.967 73.7296C81.5795 73.5161 81.1726 73.3399 80.7518 73.2032L80.231 73.0408L80.735 72.8056C81.2811 72.5691 81.8105 72.2959 82.3198 71.988C82.8229 71.6977 83.2766 71.3291 83.6638 70.896C83.8493 70.7166 83.9857 70.4928 84.0602 70.2458C84.1347 69.9988 84.1448 69.7368 84.0894 69.4848C83.9662 69.0928 83.2998 69.1096 82.7342 69.1936C82.1686 69.2776 81.5694 69.4288 80.9814 69.5744C80.3934 69.72 79.8166 69.8824 79.2398 70.0672C78.0698 70.3898 76.957 70.8923 75.9414 71.5568V71.5568Z" fill="#263238"/>
<path d="M70.4754 87.5896C79.917 99.2431 93.6426 106.792 97.0306 104.334C100.419 101.875 89.0002 89.0064 88.8042 88.816C88.1378 88.1776 83.0866 85.5511 73.9138 81.6871C64.9146 77.8959 66.2586 82.3872 70.4754 87.5896Z" fill="#BC675A"/>
<path d="M84.5591 86.2399L77.4471 95.5919C77.4471 95.5919 71.4775 89.4319 68.3191 85.3551C65.1607 81.2783 65.4743 78.1087 72.5415 80.7407C76.6786 82.2723 80.6956 84.1105 84.5591 86.2399V86.2399Z" fill="#B2BB77"/>
<path d="M76.7704 93.4472C77.6384 92.1704 78.5456 90.916 79.4752 89.6896C79.94 89.0848 80.388 88.4688 80.864 87.8696C81.34 87.2704 81.8832 86.6712 82.3704 86.0552C82.404 86.0104 82.4712 86.0552 82.4376 86.1C81.9896 86.716 81.5864 87.36 81.1384 87.976C80.6904 88.592 80.1976 89.2304 79.7216 89.8576C78.7846 91.0896 77.8195 92.2992 76.8264 93.4864C76.7984 93.52 76.72 93.4864 76.7704 93.4472Z" fill="#263238"/>
<path d="M80.8522 91.1009L77.4474 95.5809C77.4474 95.5809 71.4778 89.4209 68.3194 85.3441L68.017 84.9465L67.8882 84.7617L67.6922 84.4761C67.5242 84.2297 67.373 83.9889 67.2386 83.7537C67.1882 83.6697 67.1434 83.5857 67.0986 83.5017C66.865 83.0767 66.6773 82.628 66.5386 82.1633C66.4973 82.0199 66.4655 81.874 66.4434 81.7265C66.4434 81.6537 66.4434 81.5865 66.4434 81.5193C69.5458 83.6697 76.8258 88.3793 80.8522 91.1009Z" fill="#263238"/>
<path d="M81.1386 121.929C81.1386 121.929 48.7314 122.489 48.541 122.287C48.037 121.727 54.5834 88.3569 61.3538 81.4801C63.745 79.0497 68.6786 80.0409 69.5018 80.4385C71.4002 81.3569 73.1866 83.3393 74.6818 87.0129C77.6722 94.3601 81.5474 121.402 81.1386 121.929Z" fill="#B2BB77"/>
<path opacity="0.1" d="M71.1198 81.536H61.303L61.3533 81.48C61.5818 81.249 61.8354 81.0442 62.1094 80.8696H70.2574C70.5624 81.068 70.8508 81.2909 71.1198 81.536V81.536ZM72.2005 82.656H60.3789C60.2221 82.8632 60.0709 83.0872 59.9197 83.3224H72.7158C72.5534 83.0872 72.3854 82.88 72.2398 82.656H72.2005ZM73.4214 84.4424H59.2422C59.1189 84.6608 58.9957 84.8848 58.8781 85.1144H73.8021C73.6845 84.8848 73.5614 84.6552 73.4326 84.4424H73.4214ZM74.3342 86.2344H58.3125L57.9933 86.9008H74.631C74.5414 86.6712 74.4461 86.4472 74.3453 86.24L74.3342 86.2344ZM75.0453 88.0208H57.5005L57.2149 88.6872H75.275C75.2022 88.48 75.1294 88.2336 75.0398 88.0208H75.0453ZM75.6053 89.8072H56.7613C56.6773 90.0312 56.5877 90.2496 56.4981 90.4792H75.8014L75.6053 89.8072ZM76.0869 91.5936H56.0837C56.0053 91.8176 55.9213 92.036 55.8429 92.2656H76.2662C76.1952 92.0379 76.1392 91.8139 76.0982 91.5936H76.0869ZM76.5237 93.3856H55.4397C55.3613 93.604 55.2885 93.828 55.2157 94.052H76.675L76.5237 93.3856ZM76.9269 95.172H54.8797C54.8069 95.3904 54.7398 95.6144 54.667 95.8384H77.1118C77.0334 95.6144 76.9886 95.3904 76.9382 95.2L76.9269 95.172ZM77.3078 96.9584H54.3197C54.2469 97.1768 54.1797 97.4008 54.1125 97.6304H77.4869C77.4141 97.4064 77.3694 97.1824 77.319 96.9584H77.3078ZM77.6718 98.7448H53.7597C53.6925 98.9688 53.6253 99.1928 53.5637 99.4168H77.8398L77.6718 98.7448ZM78.019 100.537H53.2333C53.1661 100.761 53.1045 100.979 53.0429 101.203H78.1534C78.1142 100.979 78.075 100.755 78.0302 100.537H78.019ZM78.3494 102.323H52.7349C52.6733 102.547 52.6117 102.771 52.5557 102.99H78.4837C78.4445 102.766 78.3997 102.547 78.3605 102.323H78.3494ZM78.6686 104.11H52.2589C52.1973 104.334 52.1413 104.558 52.0853 104.782H78.7974C78.7638 104.558 78.7246 104.334 78.6798 104.11H78.6686ZM78.9878 105.902H51.7941C51.7437 106.126 51.6877 106.344 51.6317 106.568H79.1053C79.0717 106.35 79.0326 106.126 78.999 105.902H78.9878ZM79.279 107.688H51.3517C51.3013 107.912 51.2453 108.136 51.1949 108.354H79.4021C79.3685 108.136 79.3294 107.912 79.2902 107.688H79.279ZM79.5702 109.474H50.9261C50.8757 109.704 50.8253 109.928 50.7693 110.146H79.6878C79.6542 109.922 79.6206 109.704 79.5814 109.474H79.5702ZM79.8558 111.261H50.5173C50.4669 111.485 50.4165 111.714 50.3661 111.933H79.9621C79.9285 111.714 79.895 111.49 79.867 111.261H79.8558ZM80.119 113.053H50.1197C50.0749 113.277 50.0245 113.501 49.9797 113.719H80.2198L80.119 113.053ZM80.3766 114.839H49.7389C49.6941 115.069 49.6493 115.287 49.6045 115.506H80.483C80.4494 115.287 80.4214 115.063 80.3878 114.839H80.3766ZM80.623 116.626H49.3861C49.3339 116.857 49.2891 117.081 49.2517 117.298H80.7237C80.6957 117.079 80.6398 116.855 80.6398 116.626H80.623ZM80.847 118.412H49.0445C48.9997 118.647 48.9605 118.871 48.9213 119.084H80.9421C80.9197 118.871 80.8918 118.647 80.8582 118.412H80.847ZM81.0542 120.204H48.7197C48.6805 120.445 48.6525 120.669 48.6189 120.87H81.099C81.1102 120.674 81.0878 120.45 81.0654 120.204H81.0542ZM48.5069 121.99C48.4821 122.088 48.4821 122.19 48.5069 122.287C48.6581 122.438 68.7566 122.13 77.319 121.99H48.5069Z" fill="#030402"/>
<path d="M63.2017 85.5232C61.0177 88.5192 49.8177 100.901 49.4033 102.049C48.9889 103.197 51.5817 105.734 51.5369 106.21C51.3689 108.147 47.1857 121.038 45.5113 119.728C43.3049 118.003 33.9641 105.65 35.2857 100.302C36.6073 94.9536 58.4193 82.1128 61.8801 80.9984C65.3409 79.884 65.3577 82.5664 63.2017 85.5232Z" fill="#BC675A"/>
<path d="M54.4046 96.796L48.043 87.864C48.043 87.864 55.1606 83.1936 59.9206 81.2C64.6806 79.2064 67.027 80.3152 62.6758 86.4696C60.1322 90.0775 57.37 93.5261 54.4046 96.796V96.796Z" fill="#B2BB77"/>
<path d="M49.9241 87.2817C50.9321 88.4502 51.9121 89.6449 52.8641 90.8657C53.3345 91.4649 53.8105 92.0585 54.2641 92.6689C54.7177 93.2793 55.1657 93.9625 55.6417 94.5897C55.6753 94.6345 55.6081 94.6905 55.5745 94.6457C55.0929 94.0857 54.5777 93.5257 54.0961 92.9097C53.6145 92.2937 53.1217 91.6777 52.6401 91.0617C51.6881 89.8409 50.7641 88.5921 49.8737 87.3265C49.8401 87.2929 49.8961 87.2481 49.9241 87.2817Z" fill="#263238"/>
<path d="M54.3925 96.8408C55.3669 95.5472 56.5149 94.3936 57.5677 93.1672C58.6205 91.9408 59.6677 90.6752 60.6701 89.3984C60.6701 89.3984 60.7429 89.3984 60.7205 89.432C60.2557 90.0984 59.8021 90.7704 59.3149 91.42C59.0741 91.7392 58.8221 92.0528 58.5645 92.3664L58.9397 92.0584C59.3236 91.7699 59.7217 91.5007 60.1325 91.252C60.1325 91.252 60.1773 91.252 60.1325 91.2856C59.7762 91.6154 59.4023 91.9257 59.0125 92.2152C58.7325 92.428 58.4525 92.624 58.1557 92.82L57.7077 93.38C56.7303 94.6418 55.6414 95.8132 54.4541 96.88C54.4205 96.9304 54.3589 96.88 54.3925 96.8408Z" fill="#263238"/>
<path d="M50.9882 124.622C52.4834 123.609 50.4282 122.422 50.4282 122.422C50.4282 122.422 53.7882 123.418 54.9082 121.778C56.0282 120.137 53.4746 118.849 53.2954 118.748C53.4746 118.804 56.5882 119.633 57.5626 117.869C58.537 116.105 55.8042 115.119 55.625 115.069C55.8098 115.069 58.2346 114.962 58.6714 113.45C59.4162 110.858 52.4498 110.555 50.949 108.97C50.949 108.97 51.621 105.543 51.677 105.448C51.2264 106.217 50.5272 106.81 49.6946 107.128C48.1882 107.554 46.833 107.8 46.2226 108.522C45.9378 108.838 45.7623 109.238 45.7219 109.661C45.6816 110.085 45.7786 110.51 45.9986 110.874C45.9986 110.874 44.0946 110.656 43.2826 112.022C42.8682 112.722 43.6242 114.016 43.6242 114.016C43.1933 113.985 42.7623 114.073 42.3781 114.271C41.994 114.468 41.6714 114.768 41.4458 115.136C40.925 116.144 41.765 117.281 41.765 117.281C41.765 117.281 40.2418 117.841 40.0458 119.05C39.6706 121.475 47.785 126.784 50.9882 124.622Z" fill="#BC675A"/>
<path d="M41.8996 117.488C41.8996 117.488 41.838 117.488 41.8604 117.527C44.1816 120.028 47.2092 121.762 50.5404 122.5C50.6468 122.5 50.7252 122.354 50.6132 122.31C47.4904 121.133 44.5552 119.509 41.8996 117.488V117.488Z" fill="#263238"/>
<path d="M43.6012 113.994C43.5975 113.991 43.5933 113.988 43.5888 113.987C43.5843 113.986 43.5795 113.985 43.5749 113.986C43.5702 113.986 43.5657 113.988 43.5615 113.99C43.5574 113.992 43.5538 113.996 43.5508 113.999C43.5479 114.003 43.5457 114.007 43.5444 114.012C43.5431 114.016 43.5427 114.021 43.5432 114.026C43.5437 114.03 43.5451 114.035 43.5474 114.039C43.5497 114.043 43.5527 114.047 43.5564 114.05C46.1442 116.778 49.6218 118.492 53.362 118.882C53.4908 118.882 53.6196 118.77 53.4684 118.748C50.9596 118.367 46.0652 115.92 43.6012 113.994Z" fill="#263238"/>
<path d="M55.9274 114.985C52.2762 114.57 49.1234 113.025 46.1162 110.975C46.077 110.975 46.0434 111.003 46.0658 111.037C47.2642 112.442 49.3194 113.551 50.9938 114.279C52.5314 114.983 54.2269 115.271 55.9106 115.114C56.0002 115.108 56.0002 114.996 55.9274 114.985Z" fill="#263238"/>
<path d="M73.7791 75.9907C71.4784 76.1894 70.2781 73.1695 70.7782 70.7293C70.7782 70.7293 64.6714 71.6734 64.3413 66.2574C63.8554 67.0062 63.2234 67.6251 62.4919 68.0685C61.7605 68.5118 60.9482 68.7683 60.115 68.8191L59.7099 70.7238C59.0797 70.5305 58.3995 68.5651 59.925 67.0082C59.925 67.0082 60.01 64.3085 61.8055 62.6688C62.2904 62.1997 62.8876 61.895 63.5254 61.7912C64.1633 61.6874 64.8147 61.7889 65.4016 62.0836C66.4609 61.2256 67.7808 60.8554 69.0827 61.0512C69.7621 61.1653 70.4068 61.4575 70.9628 61.9032C71.5188 62.3489 71.9701 62.9351 72.2787 63.6129C72.2787 63.6129 75.3146 64.2257 75.8447 66.5997C76.0092 67.2691 76.0435 67.9695 75.9452 68.6546C75.847 69.3397 75.6184 69.9941 75.2745 70.5747C75.2745 70.5747 76.0448 71.5022 75.6697 73.5339C75.4296 74.8368 74.4693 75.93 73.7791 75.9907Z" fill="#263238"/>
<path d="M41.6921 117.281C41.388 116.975 41.1746 116.59 41.0757 116.17C40.9769 115.75 40.9964 115.311 41.1321 114.901C41.3075 114.515 41.6155 114.205 42.0001 114.027C42.4585 113.869 42.9487 113.824 43.4281 113.898C43.1608 113.522 43.014 113.073 43.007 112.611C43 112.149 43.1332 111.696 43.3889 111.311C43.6757 110.982 44.0753 110.772 44.5089 110.723C45.0039 110.675 45.503 110.694 45.9929 110.779C45.7888 110.539 45.6436 110.254 45.5688 109.948C45.4939 109.642 45.4915 109.323 45.5617 109.015C45.6544 108.681 45.8244 108.374 46.0579 108.118C46.2914 107.862 46.5818 107.665 46.9057 107.542C47.6677 107.267 48.4587 107.079 49.2633 106.982C49.6764 106.92 50.0805 106.81 50.4673 106.652C50.8842 106.461 51.2336 106.149 51.4697 105.756C51.5145 105.689 51.5145 105.756 51.4697 105.818C51.3129 106.084 51.1122 106.323 50.8761 106.523C50.631 106.737 50.3578 106.916 50.0641 107.055C49.3352 107.33 48.5863 107.549 47.8241 107.71C47.156 107.888 46.5653 108.282 46.1441 108.83C45.9516 109.121 45.8434 109.458 45.8316 109.806C45.8197 110.155 45.9046 110.499 46.0769 110.802C46.0769 110.802 46.0769 110.874 46.0265 110.869C45.5794 110.867 45.1337 110.92 44.6993 111.026C44.339 111.112 44.0143 111.307 43.7697 111.586C43.5432 111.94 43.4136 112.349 43.3939 112.769C43.3743 113.19 43.4652 113.608 43.6577 113.982C43.1748 114.015 42.702 114.136 42.2633 114.341C41.9785 114.516 41.7493 114.768 41.6025 115.069C41.4348 115.415 41.3664 115.801 41.4049 116.183C41.4435 116.566 41.5875 116.93 41.8209 117.236C41.8231 117.245 41.8231 117.255 41.8209 117.264V117.264C41.8209 117.264 41.3337 117.466 41.3113 117.466C41.2889 117.466 41.3113 117.466 41.3113 117.466C41.4343 117.396 41.5615 117.335 41.6921 117.281V117.281Z" fill="#263238"/>
<path d="M69.4902 85.4056C67.7094 86.0608 64.2262 83.636 62.7086 81.5192C62.6078 81.3736 62.507 75.0736 62.3614 73.8304C62.3278 73.5728 70.4086 74.7936 70.4086 74.7936C70.1503 76.4042 70.0901 78.0404 70.2294 79.6656C70.2518 79.8448 71.2094 84.7784 69.4902 85.4056Z" fill="#BC675A"/>
<path d="M70.4086 74.7936C70.4086 74.7936 70.319 75.3144 70.2462 76.0872C68.0062 78.8368 64.411 79.128 62.5854 79.0664C62.5238 77.112 62.451 74.5864 62.3614 73.8304C62.3278 73.5784 70.4086 74.7936 70.4086 74.7936Z" fill="#263238"/>
<path d="M62.3956 60.4072C62.3956 60.4072 59.8196 61.404 59.2932 63.98C58.7668 66.556 59.2932 69.2888 59.506 69.4288C59.7188 69.5688 62.3956 60.4072 62.3956 60.4072Z" fill="#263238"/>
<path d="M72.8002 63.7336C73.461 66.5728 71.4562 74.5192 69.3506 76.1768C66.3042 78.5848 61.5778 78.5176 59.5954 74.9168C57.6802 71.428 60.4802 61.124 62.8042 59.64C66.2202 57.4615 71.809 59.5335 72.8002 63.7336Z" fill="#BC675A"/>
<path d="M73.7791 70.9913C71.4784 71.1768 70.2781 68.3582 70.7782 66.0807C70.7782 66.0807 64.6714 66.9618 64.3413 61.9069C63.8554 62.6058 63.2234 63.1834 62.4919 63.5972C61.7605 64.011 60.9482 64.2504 60.115 64.2978L59.7099 66.0755C59.0797 65.8952 58.3995 64.0608 59.925 62.6077C59.925 62.6077 60.01 60.088 61.8055 58.5576C62.2904 58.1198 62.8876 57.8354 63.5254 57.7385C64.1633 57.6416 64.8147 57.7363 65.4016 58.0114C66.4609 57.2106 67.7808 56.8651 69.0827 57.0478C69.7621 57.1543 70.4068 57.427 70.9628 57.843C71.5188 58.2589 71.9701 58.8061 72.2787 59.4387C72.2787 59.4387 75.3146 60.0107 75.8447 62.2264C76.0092 62.8512 76.0435 63.5048 75.9452 64.1443C75.847 64.7837 75.6184 65.3945 75.2745 65.9364C75.2745 65.9364 76.0448 66.8021 75.6697 68.6983C75.4296 69.9144 74.4693 70.9346 73.7791 70.9913Z" fill="#263238"/>
<path d="M64.1343 61C64.097 61.4088 64.097 61.8206 64.1343 62.2294C64.1633 62.6334 64.2351 63.0322 64.3481 63.4178C64.5715 64.178 65.046 64.8179 65.6774 65.2107C66.3278 65.5779 67.0475 65.7709 67.7783 65.7741C68.1455 65.7741 68.5173 65.7741 68.8891 65.7332C69.261 65.6922 69.6282 65.6358 70 65.6C69.6375 65.6973 69.2703 65.7844 68.9031 65.8766C68.5359 65.9688 68.1548 65.9534 67.7783 65.9944C67.0073 66.0345 66.2396 65.8583 65.5473 65.4822C64.8664 65.0486 64.3661 64.3391 64.1529 63.5049C63.9555 62.685 63.9491 61.8234 64.1343 61V61Z" fill="#263238"/>
<path d="M61 64C61.6536 63.7457 62.2651 63.368 62.8088 62.8827C63.0742 62.638 63.3099 62.3544 63.5098 62.0391C63.7066 61.7146 63.8711 61.3661 64 61C63.9693 61.4127 63.8606 61.8129 63.6814 62.1732C63.5065 62.5421 63.2681 62.867 62.9804 63.1285C62.6983 63.3891 62.3824 63.5983 62.0441 63.7486C61.7106 63.8974 61.3578 63.9823 61 64V64Z" fill="#263238"/>
<path d="M64.8085 68.1968C64.8085 68.1968 64.8477 68.2304 64.8421 68.2528C64.7301 68.8128 64.6909 69.4456 65.1613 69.7144C65.1613 69.7144 65.1613 69.748 65.1613 69.7424C64.5565 69.552 64.6125 68.6952 64.8085 68.1968Z" fill="#263238"/>
<path d="M65.3972 67.7041C66.2988 67.7881 66.058 69.5801 65.2292 69.5017C64.4004 69.4233 64.6468 67.6313 65.3972 67.7041Z" fill="#263238"/>
<path d="M61.6846 67.6423C61.6846 67.6423 61.6398 67.6423 61.6342 67.6871C61.5838 68.2471 61.4326 68.8687 60.9062 68.9919V69.0255C61.5334 69.0143 61.7238 68.1743 61.6846 67.6423Z" fill="#263238"/>
<path d="M61.2647 66.9984C60.3799 66.8192 60.0831 68.6 60.9063 68.768C61.7295 68.936 62.0039 67.1496 61.2647 66.9984Z" fill="#263238"/>
<path d="M62.0937 70.2744C62.0937 70.2744 61.8585 71.0808 61.8025 71.4728C62.5638 71.5841 63.305 71.8048 64.0033 72.128C64.1657 72.2064 64.1881 72.0664 64.0033 71.9208C63.4822 71.4976 62.8464 71.2401 62.1777 71.1816C62.1777 71.0696 62.5641 69.944 62.5025 69.9272C62.2 69.9098 61.8966 69.9343 61.6009 70C62.0377 68.32 62.7209 66.6848 63.1577 64.96C63.1577 64.8984 63.0849 64.8648 63.0569 64.9152C62.2488 66.6255 61.6111 68.4112 61.1529 70.2464C61.0801 70.4928 61.9257 70.3192 62.0937 70.2744Z" fill="#263238"/>
<path d="M66.0807 67.0936C65.8679 66.9592 65.6999 66.7968 65.5207 66.6456C65.3415 66.4944 65.1063 66.3544 65.0223 66.0856C65.0044 66.0047 65.0146 65.92 65.0512 65.8457C65.0879 65.7714 65.1488 65.7118 65.2239 65.6768C65.3815 65.6252 65.55 65.6173 65.7117 65.6537C65.8734 65.6902 66.0222 65.7698 66.1423 65.884C66.4252 66.0739 66.6253 66.3641 66.7023 66.696C66.7171 66.774 66.7082 66.8546 66.6767 66.9274C66.6453 67.0003 66.5928 67.0621 66.5259 67.1049C66.459 67.1476 66.3809 67.1694 66.3016 67.1674C66.2222 67.1654 66.1453 67.1397 66.0807 67.0936V67.0936Z" fill="#263238"/>
<path d="M60.8722 65.0272C61.1186 64.988 61.3426 64.9208 61.5834 64.8592C61.8428 64.837 62.0872 64.7285 62.2778 64.5512C62.3278 64.4851 62.3548 64.4044 62.3548 64.3216C62.3548 64.2387 62.3278 64.1581 62.2778 64.092C62.155 63.9802 62.0047 63.9032 61.8423 63.8687C61.68 63.8343 61.5113 63.8437 61.3538 63.896C61.0173 63.9523 60.7138 64.132 60.5026 64.4C60.46 64.4631 60.4361 64.537 60.4338 64.6132C60.4315 64.6893 60.4507 64.7646 60.4894 64.8302C60.5281 64.8959 60.5846 64.9492 60.6523 64.9841C60.7201 65.0189 60.7963 65.0339 60.8722 65.0272V65.0272Z" fill="#263238"/>
<path d="M70.4814 70.56C70.4814 70.56 72.5254 68.1184 73.651 68.88C74.7766 69.6416 73.091 73.276 71.6462 73.6736C71.4662 73.7362 71.2754 73.7618 71.0853 73.7489C70.8952 73.736 70.7096 73.6849 70.5397 73.5986C70.3698 73.5124 70.219 73.3927 70.0964 73.2468C69.9738 73.1009 69.8819 72.9318 69.8262 72.7496L70.4814 70.56Z" fill="#BC675A"/>
<path d="M97.7588 103.914C102.306 100.402 97.9604 82.5776 95.3172 76.0144C94.5388 74.0824 82.1908 77.6944 82.7676 79.8616C86.066 92.12 92.7804 107.761 97.7588 103.914Z" fill="#BC675A"/>
<path d="M84.8125 86.5872L86.1733 89.9472C86.6381 91.0672 87.0917 92.1872 87.5957 93.3072C88.0997 94.4272 88.5869 95.508 89.1021 96.6C89.6173 97.692 90.1885 98.7616 90.7485 99.8368C90.04 98.8501 89.3947 97.8195 88.8165 96.7512C88.2565 95.6816 87.6965 94.584 87.2093 93.4752C86.7221 92.3664 86.2741 91.2352 85.8709 90.0816C85.4677 88.928 85.1205 87.7688 84.8125 86.5872Z" fill="#263238"/>
<path d="M83.9987 51.156C84.0528 51.7858 83.9189 52.4175 83.6141 52.9713C83.3093 53.525 82.8471 53.976 82.2861 54.2673C81.7251 54.5585 81.0903 54.6769 80.462 54.6076C79.8337 54.5382 79.2401 54.2842 78.7561 53.8776C78.2721 53.471 77.9194 52.9301 77.7427 52.3232C77.566 51.7163 77.5731 51.0706 77.7632 50.4678C77.9533 49.8649 78.3178 49.3319 78.8107 48.9361C79.3035 48.5403 79.9027 48.2995 80.5323 48.244C80.9512 48.2071 81.3733 48.2532 81.7744 48.3797C82.1754 48.5061 82.5476 48.7105 82.8696 48.9809C83.1916 49.2514 83.4571 49.5828 83.6508 49.956C83.8446 50.3292 83.9628 50.737 83.9987 51.156V51.156Z" fill="white"/>
<path d="M84 51.156C84.0694 52.0135 83.8072 52.8648 83.2675 53.5347C82.7278 54.2046 81.9518 54.642 81.0992 54.7568C80.635 54.85 80.1563 54.844 79.6945 54.7392C79.2327 54.6344 78.7983 54.4331 78.4197 54.1487C78.0412 53.8643 77.727 53.503 77.4979 53.0887C77.2687 52.6743 77.1297 52.2162 77.09 51.7443C77.0502 51.2725 77.1107 50.7976 77.2674 50.3507C77.4241 49.9039 77.6734 49.4952 77.9991 49.1515C78.3248 48.8078 78.7194 48.5368 79.1572 48.3562C79.595 48.1757 80.0659 48.0898 80.5392 48.104C81.3967 48.0747 82.2329 48.3745 82.8764 48.942C83.5198 49.5095 83.9219 50.3016 84 51.156V51.156ZM84 51.156C83.9642 50.7441 83.8454 50.3436 83.6507 49.9789C83.456 49.6141 83.1894 49.2925 82.8671 49.0335C82.5448 48.7745 82.1733 48.5834 81.7752 48.4718C81.377 48.3602 80.9604 48.3303 80.5504 48.384C79.7666 48.4847 79.052 48.8845 78.556 49.4998C78.06 50.1151 77.821 50.8983 77.889 51.6857C77.9569 52.473 78.3266 53.2037 78.9207 53.7249C79.5148 54.2461 80.2873 54.5175 81.0768 54.4824C81.4903 54.4651 81.896 54.3641 82.2694 54.1856C82.6428 54.0071 82.9761 53.7548 83.2493 53.444C83.5225 53.1331 83.7299 52.7701 83.8589 52.3768C83.9879 51.9836 84.0359 51.5683 84 51.156V51.156Z" fill="#263238"/>
<path d="M77.0435 57.0528C77.0732 57.4037 76.9983 57.7555 76.8281 58.0638C76.6579 58.3721 76.4001 58.623 76.0874 58.7848C75.7746 58.9466 75.4209 59.0121 75.0709 58.9729C74.721 58.9337 74.3905 58.7917 74.1213 58.5647C73.852 58.3377 73.6561 58.036 73.5583 57.6977C73.4605 57.3594 73.4652 56.9998 73.5718 56.6641C73.6784 56.3285 73.8821 56.032 74.1571 55.8122C74.4322 55.5923 74.7663 55.4589 75.1171 55.4288C75.3504 55.4081 75.5855 55.4338 75.8088 55.5043C76.0322 55.5748 76.2393 55.6889 76.4184 55.8398C76.5975 55.9908 76.7449 56.1757 76.8522 56.3839C76.9595 56.592 77.0245 56.8194 77.0435 57.0528V57.0528Z" fill="white"/>
<path d="M77.0442 57.0528C77.0756 57.4371 76.9907 57.822 76.8004 58.1574C76.6101 58.4927 76.3233 58.7631 75.9773 58.9332C75.6312 59.1033 75.242 59.1654 74.8603 59.1113C74.4785 59.0572 74.1218 58.8894 73.8367 58.6298C73.5516 58.3703 73.3512 58.0309 73.2616 57.6558C73.172 57.2808 73.1973 56.8875 73.3343 56.527C73.4713 56.1666 73.7136 55.8558 74.0297 55.6349C74.3458 55.4141 74.721 55.2935 75.1066 55.2888C75.5918 55.2869 76.06 55.467 76.4188 55.7936C76.7775 56.1203 77.0007 56.5696 77.0442 57.0528V57.0528ZM77.0442 57.0528C77.0257 56.8256 76.9602 56.6048 76.8516 56.4043C76.7431 56.2039 76.594 56.0282 76.4138 55.8886C76.2336 55.749 76.0263 55.6484 75.8051 55.5934C75.5839 55.5383 75.3536 55.53 75.129 55.5688C74.8137 55.6222 74.5207 55.7662 74.2859 55.9834C74.0511 56.2005 73.8846 56.4813 73.8068 56.7915C73.729 57.1017 73.7432 57.4279 73.8477 57.7302C73.9522 58.0324 74.1425 58.2977 74.3953 58.4936C74.6481 58.6895 74.9525 58.8075 75.2712 58.8332C75.59 58.8589 75.9094 58.7913 76.1903 58.6385C76.4713 58.4857 76.7017 58.2543 76.8533 57.9727C77.0049 57.6912 77.0713 57.3715 77.0442 57.0528V57.0528Z" fill="#263238"/>
<path d="M107.89 36.2824C108.187 38.7408 107.497 41.2168 105.97 43.1665C104.443 45.1163 102.205 46.3805 99.7474 46.6816C98.1297 46.883 96.4876 46.6531 94.9874 46.0152C94.2557 46.9731 93.3129 47.7493 92.2324 48.2835C91.1519 48.8178 89.9628 49.0957 88.7574 49.0957C87.552 49.0957 86.3629 48.8178 85.2824 48.2835C84.2019 47.7493 83.2592 46.9731 82.5274 46.0152C82.1831 46.117 81.831 46.19 81.4746 46.2336C80.2552 46.3825 79.0188 46.1745 77.9153 45.6349C76.8117 45.0952 75.8884 44.2471 75.2571 43.1932C74.6259 42.1394 74.3139 40.9251 74.3588 39.6975C74.4038 38.4698 74.8039 37.2816 75.5106 36.2768C74.1345 34.526 73.4291 32.3411 73.5218 30.1161C73.6144 27.8911 74.4989 25.7725 76.0158 24.1421C77.5327 22.5117 79.5821 21.4768 81.7947 21.2242C84.0072 20.9715 86.2372 21.5176 88.0826 22.764C88.9482 21.6878 90.0827 20.8592 91.3714 20.3624C92.66 19.8655 94.0571 19.7178 95.4212 19.9344C96.7852 20.1509 98.0679 20.724 99.1393 21.5955C100.211 22.4671 101.033 23.6062 101.523 24.8976C101.85 24.7876 102.188 24.7125 102.531 24.6736C103.566 24.5495 104.615 24.744 105.537 25.2311C106.459 25.7182 107.211 26.4748 107.692 27.4C108.173 28.3253 108.361 29.3752 108.23 30.4099C108.099 31.4445 107.656 32.4148 106.96 33.1912C107.45 34.1588 107.765 35.2053 107.89 36.2824Z" fill="white"/>
<path d="M107.89 36.2824C108.181 38.74 107.5 41.214 105.991 43.176C105.486 43.8151 104.903 44.3889 104.255 44.884C102.945 45.8761 101.398 46.5094 99.7678 46.7215C98.1376 46.9336 96.4804 46.7172 94.9594 46.0936H95.049C94.3131 47.0698 93.3616 47.8627 92.2688 48.4106C91.176 48.9584 89.9714 49.2464 88.749 49.252C87.5208 49.2564 86.308 48.9786 85.2042 48.44C84.1008 47.8921 83.1345 47.1037 82.3762 46.1328L82.5778 46.2C81.2748 46.5935 79.882 46.5739 78.5906 46.144C77.2932 45.7159 76.163 44.8912 75.3594 43.7864C74.966 43.231 74.6548 42.6218 74.4354 41.9776C74.2255 41.3297 74.1141 40.6539 74.105 39.9728C74.0928 38.6002 74.5077 37.2577 75.2922 36.1312V36.4448C73.8598 34.6516 73.1293 32.3982 73.237 30.1056C73.2977 28.3979 73.817 26.738 74.7403 25.3001C75.6636 23.8623 76.957 22.6994 78.4845 21.9336C80.0121 21.1678 81.7177 20.8273 83.4223 20.9478C85.1268 21.0683 86.7675 21.6453 88.1722 22.6184L87.9258 22.652C88.8151 21.5573 89.9783 20.7175 91.2973 20.2178C92.6162 19.7182 94.0439 19.5765 95.4354 19.8072C96.8184 20.0367 98.1163 20.6272 99.1979 21.5191C100.28 22.4109 101.107 23.5725 101.595 24.8864L101.523 24.8472C102.617 24.4913 103.798 24.5071 104.883 24.892C105.68 25.1772 106.394 25.6546 106.963 26.282C107.532 26.9094 107.937 27.6675 108.142 28.4889C108.348 29.3103 108.347 30.1697 108.141 30.9909C107.935 31.8122 107.529 32.5699 106.96 33.1968C107.45 34.1622 107.765 35.207 107.89 36.2824ZM107.89 36.2824C107.758 35.2056 107.435 34.1609 106.938 33.1968C107.699 32.3614 108.16 31.2962 108.248 30.1696C108.336 29.0429 108.047 27.9189 107.425 26.9752C106.81 26.0341 105.9 25.3238 104.838 24.9559C103.776 24.5879 102.621 24.5832 101.556 24.9424H101.5V24.8864C101.003 23.615 100.183 22.4954 99.1202 21.6384C98.0571 20.7829 96.7851 20.2262 95.4354 20.0256C94.0918 19.825 92.7191 19.9794 91.4538 20.4736C90.1962 20.9729 89.093 21.796 88.2562 22.8592L88.1498 22.9936L88.0042 22.8928C86.2016 21.6915 84.0303 21.1708 81.8789 21.4239C79.7276 21.677 77.7365 22.6875 76.262 24.2745C74.7875 25.8615 73.9259 27.9213 73.8313 30.0855C73.7367 32.2497 74.4154 34.3769 75.7458 36.0864L75.869 36.2432L75.7514 36.4056C75.0198 37.4384 74.6283 38.6736 74.6314 39.9392C74.6403 40.5682 74.7403 41.1925 74.9282 41.7928C75.1246 42.3919 75.4096 42.9582 75.7738 43.4728C76.5149 44.5092 77.5591 45.2904 78.7626 45.7086C79.9661 46.1268 81.2697 46.1615 82.4938 45.808L82.6226 45.7744L82.6954 45.8752C83.408 46.8135 84.3229 47.5792 85.3722 48.1152C86.9697 48.9245 88.7991 49.1525 90.5464 48.7601C92.2938 48.3678 93.85 47.3795 94.9482 45.9648L94.9874 45.9144H95.0434C96.5356 46.5599 98.1719 46.7995 99.7866 46.6088C101.411 46.4092 102.955 45.7896 104.267 44.8112C104.913 44.3255 105.496 43.7611 106.003 43.1312C106.5 42.4868 106.916 41.7833 107.24 41.0368C107.862 39.5342 108.086 37.8967 107.89 36.2824V36.2824Z" fill="#263238"/>
<path d="M91.9226 36.5736C91.9109 35.8921 92.0327 35.2148 92.281 34.58C92.5931 33.9139 93.1196 33.3716 93.7762 33.04C94.0058 32.9 94.2802 32.7488 94.6162 32.5752C94.9564 32.3961 95.2805 32.1882 95.585 31.9536C95.8982 31.7155 96.1706 31.428 96.3914 31.1024C96.6125 30.7712 96.7277 30.3806 96.7218 29.9824C96.7276 29.6918 96.6642 29.4039 96.537 29.1424C96.4221 28.9084 96.26 28.7005 96.061 28.532C95.8588 28.3635 95.6245 28.2377 95.3722 28.1624C95.1136 28.0784 94.8434 28.0349 94.5714 28.0336C94.2603 28.0279 93.9513 28.087 93.6642 28.2072C93.4016 28.3154 93.1548 28.4585 92.9306 28.6328C92.7212 28.808 92.5333 29.0072 92.3706 29.2264C92.21 29.4239 92.0622 29.6316 91.9282 29.848L89.957 28.4872C90.1481 28.0325 90.413 27.6125 90.741 27.244C91.0565 26.8808 91.4269 26.569 91.8386 26.32C92.2587 26.0724 92.711 25.884 93.1826 25.76C93.6705 25.6314 94.1732 25.5674 94.6778 25.5696C95.2466 25.5726 95.8122 25.6555 96.3578 25.816C96.9072 25.9799 97.419 26.2501 97.8642 26.6112C98.3228 26.9899 98.6935 27.4638 98.9506 28C99.2406 28.6356 99.3823 29.3288 99.365 30.0272C99.3719 30.4588 99.3152 30.889 99.197 31.304C99.0897 31.664 98.9252 32.0043 98.7098 32.312C98.4978 32.6155 98.2475 32.8903 97.965 33.1296C97.658 33.3868 97.3323 33.6208 96.9906 33.8296L96.0834 34.3504C95.7928 34.5121 95.5173 34.6995 95.2602 34.9104C95.0121 35.1039 94.8014 35.3412 94.6386 35.6104C94.4701 35.9028 94.3867 36.2364 94.3978 36.5736H91.9226ZM91.9674 41.8488V38.724H94.4762V41.8488H91.9674Z" fill="#B2BB77"/>
<path d="M86.317 30.7272C86.4721 31.3904 86.4912 32.0781 86.373 32.7488C86.2133 33.4619 85.8189 34.1008 85.253 34.5632C85.057 34.7424 84.8162 34.9496 84.525 35.1904C84.2288 35.436 83.9535 35.7057 83.7018 35.9968C83.4453 36.2935 83.2391 36.6302 83.0914 36.9936C82.9435 37.3636 82.9122 37.7701 83.0018 38.1584C83.0526 38.4422 83.1718 38.7094 83.349 38.9368C83.5097 39.1442 83.7119 39.3159 83.9426 39.4408C84.1751 39.5653 84.4304 39.6415 84.693 39.6648C84.9644 39.6895 85.238 39.6744 85.505 39.62C85.8098 39.5616 86.0995 39.4415 86.3562 39.2672C86.5905 39.1087 86.8032 38.9205 86.989 38.7072C87.1683 38.4933 87.3206 38.2582 87.4426 38.0072C87.5571 37.78 87.6581 37.5463 87.745 37.3072L89.9514 38.2368C89.8612 38.7216 89.6888 39.1875 89.4418 39.6144C89.2023 40.0314 88.9001 40.4092 88.5458 40.7344C88.1864 41.0644 87.7831 41.3433 87.3474 41.5632C86.8971 41.7896 86.4189 41.9553 85.925 42.056C85.3622 42.1757 84.7848 42.2115 84.2114 42.1624C83.6406 42.1196 83.0843 41.9615 82.5762 41.6976C82.0521 41.4241 81.5921 41.0423 81.2266 40.5776C80.5654 39.6514 80.2395 38.5275 80.3026 37.3912C80.3337 37.0188 80.4244 36.6539 80.5714 36.3104C80.7153 35.9697 80.9036 35.6496 81.1314 35.3584C81.3783 35.0425 81.6478 34.7449 81.9378 34.468C82.1954 34.2328 82.4586 33.9976 82.7162 33.7736C82.9652 33.5514 83.1921 33.3058 83.3938 33.04C83.5907 32.7975 83.7441 32.5228 83.8474 32.228C83.9496 31.907 83.9612 31.564 83.881 31.2368L86.317 30.7272ZM85.197 25.5752L85.841 28.6328L83.3826 29.148L82.7386 26.0904L85.197 25.5752Z" fill="#B2BB77"/>
</svg>
