<svg width="392" height="392" viewBox="0 0 392 392" fill="none" xmlns="http://www.w3.org/2000/svg">
<path d="M356.655 92.8491H281.721C281.721 92.8491 289.153 72.5592 300.584 72.5592C312.014 72.5592 315.605 86.5614 315.605 86.5614C315.605 86.5614 323.32 78.9488 329.654 78.9488C335.989 78.9488 341.501 89.0075 341.501 89.0075C341.501 89.0075 350.446 83.5979 356.655 92.8491Z" fill="#EBEBEB"/>
<path d="M273.984 66.64H238.963C238.963 66.64 246.803 55.3033 252.957 55.3033C259.112 55.3033 260.938 62.8611 260.938 62.8611C260.938 62.8611 265.29 59.3331 269.319 59.9681C273.349 60.6032 273.984 66.64 273.984 66.64Z" fill="#EBEBEB"/>
<path d="M103.55 122.994H35.3418C35.3418 122.994 44.6871 102.14 54.6752 100.838C64.6634 99.5367 69.4458 116.33 69.4458 116.33C69.4458 116.33 75.8903 110.395 80.9628 110.395C86.0352 110.395 89.9396 118.235 89.9396 118.235C89.9396 118.235 100.077 112.896 103.55 122.994Z" fill="#EBEBEB"/>
<path d="M155.529 49.8232H109.461C109.461 49.8232 117.371 34.7077 125.925 34.4882C134.478 34.2686 139.026 45.9267 139.026 45.9267C139.026 45.9267 152.416 35.2094 155.529 49.8232Z" fill="#EBEBEB"/>
<path d="M199.982 140.446H168.881C168.881 140.446 174.228 130.254 180.021 130.097C185.815 129.94 188.865 137.812 188.865 137.812C188.865 137.812 197.881 130.583 199.982 140.446Z" fill="#EBEBEB"/>
<path d="M237.48 170.01H154.549V262.711H237.48V170.01Z" fill="#DBDBDB"/>
<path d="M239.394 164.389H152.637V170.018H239.394V164.389Z" fill="#EBEBEB"/>
<path d="M216.32 224.859H175.725V230.488H216.32V224.859Z" fill="#EBEBEB"/>
<path d="M179.026 183.44H164.945V205.267H179.026V183.44Z" fill="#C7C7C7"/>
<path d="M177.574 185.04H166.395V203.675H177.574V185.04Z" fill="white"/>
<path d="M181.048 205.275H162.93V208.411H181.048V205.275Z" fill="#EBEBEB"/>
<g opacity="0.5">
<path opacity="0.5" d="M177.574 185.047V187.345L166.395 198.532V194.275L175.63 185.047H177.574Z" fill="#EBEBEB"/>
<path opacity="0.5" d="M177.574 198.854V200.986L174.884 203.675H172.76L177.574 198.854Z" fill="#EBEBEB"/>
<path opacity="0.5" d="M170.158 185.047L166.395 188.811V186.686L168.025 185.047H170.158Z" fill="#EBEBEB"/>
<path opacity="0.5" d="M177.574 195.522V196.204L170.102 203.675H169.42L177.574 195.522Z" fill="#EBEBEB"/>
</g>
<path d="M179.026 196H164.945V197.599H179.026V196Z" fill="#C7C7C7"/>
<path d="M203.055 183.44H188.975V205.267H203.055V183.44Z" fill="#C7C7C7"/>
<path d="M201.606 185.04H190.426V203.675H201.606V185.04Z" fill="white"/>
<path d="M205.077 205.275H186.959V208.411H205.077V205.275Z" fill="#EBEBEB"/>
<g opacity="0.5">
<path opacity="0.5" d="M201.613 185.047V187.345L190.426 198.532V194.275L199.661 185.047H201.613Z" fill="#EBEBEB"/>
<path opacity="0.5" d="M201.613 198.854V200.986L198.916 203.675H196.791L201.613 198.854Z" fill="#EBEBEB"/>
<path opacity="0.5" d="M194.189 185.047L190.426 188.811V186.686L192.057 185.047H194.189Z" fill="#EBEBEB"/>
<path opacity="0.5" d="M201.613 195.522V196.204L194.141 203.675H193.451L201.613 195.522Z" fill="#EBEBEB"/>
</g>
<path d="M203.055 196H188.975V197.599H203.055V196Z" fill="#C7C7C7"/>
<path d="M227.085 183.44H213.004V205.267H227.085V183.44Z" fill="#C7C7C7"/>
<path d="M225.643 185.04H214.463V203.675H225.643V185.04Z" fill="white"/>
<path d="M229.107 205.275H210.988V208.411H229.107V205.275Z" fill="#EBEBEB"/>
<g opacity="0.5">
<path opacity="0.5" d="M225.643 185.047V187.345L214.455 198.532V194.275L223.691 185.047H225.643Z" fill="#EBEBEB"/>
<path opacity="0.5" d="M225.642 198.854V200.986L222.953 203.675H220.82L225.642 198.854Z" fill="#EBEBEB"/>
<path opacity="0.5" d="M218.226 185.047L214.455 188.811V186.686L216.094 185.047H218.226Z" fill="#EBEBEB"/>
<path opacity="0.5" d="M225.642 195.522V196.204L218.17 203.675H217.488L225.642 195.522Z" fill="#EBEBEB"/>
</g>
<path d="M227.085 196H213.004V197.599H227.085V196Z" fill="#C7C7C7"/>
<path d="M213.264 230.488H178.775V262.711H213.264V230.488Z" fill="#C7C7C7"/>
<path d="M210.943 232.872H181.096V262.718H210.943V232.872Z" fill="white"/>
<g opacity="0.5">
<path opacity="0.5" d="M210.942 245.322V250.872L199.096 262.711H193.553L210.942 245.322Z" fill="#EBEBEB"/>
<path opacity="0.5" d="M188.889 232.872L181.096 240.665V235.114L183.346 232.872H188.889Z" fill="#EBEBEB"/>
<path opacity="0.5" d="M205.541 232.872L181.096 257.317V254.549L202.773 232.872H205.541Z" fill="#EBEBEB"/>
<path opacity="0.5" d="M210.942 253.742V256.517L204.74 262.711H201.973L210.942 253.742Z" fill="#EBEBEB"/>
<path opacity="0.5" d="M210.943 235.639V236.149L184.381 262.711H183.863L210.943 235.639Z" fill="#EBEBEB"/>
<path opacity="0.5" d="M192.119 232.872L181.096 243.887V243.377L191.601 232.872H192.119Z" fill="#EBEBEB"/>
<path opacity="0.5" d="M201.519 232.872L181.096 253.287V252.77L201.001 232.872H201.519Z" fill="#EBEBEB"/>
</g>
<path d="M196.979 232.872H195.059V262.718H196.979V232.872Z" fill="#C7C7C7"/>
<path d="M154.549 188.685H84.2559V262.711H154.549V188.685Z" fill="#DBDBDB"/>
<path d="M148.262 188.685H154.549V262.711H151.766L148.262 188.685Z" fill="#C7C7C7"/>
<path d="M104.553 198.854H92.2363V217.936H104.553V198.854Z" fill="#C7C7C7"/>
<path d="M103.282 200.257H93.5059V216.549H103.282V200.257Z" fill="white"/>
<path d="M106.309 217.944H90.4727V220.688H106.309V217.944Z" fill="#EBEBEB"/>
<g opacity="0.5">
<path opacity="0.5" d="M103.282 200.257V202.272L93.5059 212.048V208.332L101.573 200.257H103.282Z" fill="#EBEBEB"/>
<path opacity="0.5" d="M103.282 212.331V214.189L100.93 216.549H99.0645L103.282 212.331Z" fill="#EBEBEB"/>
<path opacity="0.5" d="M96.7987 200.257L93.5059 203.55V201.684L94.9327 200.257H96.7987Z" fill="#EBEBEB"/>
<path opacity="0.5" d="M103.283 209.414V210.018L96.7521 216.549H96.1484L103.283 209.414Z" fill="#EBEBEB"/>
</g>
<path d="M104.553 209.838H92.2363V211.233H104.553V209.838Z" fill="#C7C7C7"/>
<path d="M125.565 198.854H113.248V217.936H125.565V198.854Z" fill="#C7C7C7"/>
<path d="M124.294 200.257H114.518V216.549H124.294V200.257Z" fill="white"/>
<path d="M127.321 217.944H111.484V220.688H127.321V217.944Z" fill="#EBEBEB"/>
<g opacity="0.5">
<path opacity="0.5" d="M124.294 200.257V202.272L114.51 212.048V208.332L122.585 200.257H124.294Z" fill="#EBEBEB"/>
<path opacity="0.5" d="M124.294 212.331V214.189L121.934 216.549H120.076L124.294 212.331Z" fill="#EBEBEB"/>
<path opacity="0.5" d="M117.803 200.257L114.51 203.55V201.684L115.944 200.257H117.803Z" fill="#EBEBEB"/>
<path opacity="0.5" d="M124.295 209.414V210.018L117.764 216.549H117.16L124.295 209.414Z" fill="#EBEBEB"/>
</g>
<path d="M125.565 209.838H113.248V211.233H125.565V209.838Z" fill="#C7C7C7"/>
<path d="M146.576 198.854H134.26V217.936H146.576V198.854Z" fill="#C7C7C7"/>
<path d="M145.306 200.257H135.529V216.549H145.306V200.257Z" fill="white"/>
<path d="M148.331 217.944H132.494V220.688H148.331V217.944Z" fill="#EBEBEB"/>
<g opacity="0.5">
<path opacity="0.5" d="M145.306 200.257V202.272L135.529 212.048V208.332L143.597 200.257H145.306Z" fill="#EBEBEB"/>
<path opacity="0.5" d="M145.306 212.331V214.189L142.954 216.549H141.088L145.306 212.331Z" fill="#EBEBEB"/>
<path opacity="0.5" d="M138.814 200.257L135.529 203.55V201.684L136.956 200.257H138.814Z" fill="#EBEBEB"/>
<path opacity="0.5" d="M145.306 209.414V210.018L138.776 216.549H138.172L145.306 209.414Z" fill="#EBEBEB"/>
</g>
<path d="M146.576 209.838H134.26V211.233H146.576V209.838Z" fill="#C7C7C7"/>
<path d="M104.553 227.674H92.2363V246.756H104.553V227.674Z" fill="#C7C7C7"/>
<path d="M103.282 229.077H93.5059V245.369H103.282V229.077Z" fill="white"/>
<path d="M106.309 246.764H90.4727V249.508H106.309V246.764Z" fill="#EBEBEB"/>
<g opacity="0.5">
<path opacity="0.5" d="M103.282 229.077V231.092L93.5059 240.868V237.152L101.573 229.077H103.282Z" fill="#EBEBEB"/>
<path opacity="0.5" d="M103.282 241.151V243.009L100.93 245.369H99.0645L103.282 241.151Z" fill="#EBEBEB"/>
<path opacity="0.5" d="M96.7987 229.077L93.5059 232.37V230.504L94.9327 229.077H96.7987Z" fill="#EBEBEB"/>
<path opacity="0.5" d="M103.283 238.234V238.83L96.7521 245.369H96.1484L103.283 238.234Z" fill="#EBEBEB"/>
</g>
<path d="M104.553 238.657H92.2363V240.053H104.553V238.657Z" fill="#C7C7C7"/>
<path d="M125.565 227.674H113.248V246.756H125.565V227.674Z" fill="#C7C7C7"/>
<path d="M124.294 229.077H114.518V245.369H124.294V229.077Z" fill="white"/>
<path d="M127.321 246.764H111.484V249.508H127.321V246.764Z" fill="#EBEBEB"/>
<g opacity="0.5">
<path opacity="0.5" d="M124.294 229.077V231.092L114.51 240.868V237.152L122.585 229.077H124.294Z" fill="#EBEBEB"/>
<path opacity="0.5" d="M124.294 241.151V243.009L121.934 245.369H120.076L124.294 241.151Z" fill="#EBEBEB"/>
<path opacity="0.5" d="M117.803 229.077L114.51 232.37V230.504L115.944 229.077H117.803Z" fill="#EBEBEB"/>
<path opacity="0.5" d="M124.295 238.234V238.83L117.764 245.369H117.16L124.295 238.234Z" fill="#EBEBEB"/>
</g>
<path d="M125.565 238.657H113.248V240.053H125.565V238.657Z" fill="#C7C7C7"/>
<path d="M146.576 227.674H134.26V246.756H146.576V227.674Z" fill="#C7C7C7"/>
<path d="M145.306 229.077H135.529V245.369H145.306V229.077Z" fill="white"/>
<path d="M148.331 246.764H132.494V249.508H148.331V246.764Z" fill="#EBEBEB"/>
<g opacity="0.5">
<path opacity="0.5" d="M145.306 229.077V231.092L135.529 240.868V237.152L143.597 229.077H145.306Z" fill="#EBEBEB"/>
<path opacity="0.5" d="M145.306 241.151V243.009L142.954 245.369H141.088L145.306 241.151Z" fill="#EBEBEB"/>
<path opacity="0.5" d="M138.814 229.077L135.529 232.37V230.504L136.956 229.077H138.814Z" fill="#EBEBEB"/>
<path opacity="0.5" d="M145.306 238.234V238.83L138.776 245.369H138.172L145.306 238.234Z" fill="#EBEBEB"/>
</g>
<path d="M146.576 238.657H134.26V240.053H146.576V238.657Z" fill="#C7C7C7"/>
<path d="M154.55 183.056H81.8574V188.685H154.55V183.056Z" fill="#EBEBEB"/>
<path d="M237.449 262.711H307.742V188.685H237.449V262.711Z" fill="#DBDBDB"/>
<path d="M243.737 188.685H237.449V262.711H240.232L243.737 188.685Z" fill="#C7C7C7"/>
<path d="M287.453 217.944H299.77V198.862H287.453V217.944Z" fill="#C7C7C7"/>
<path d="M288.724 216.541H298.5V200.249H288.724V216.541Z" fill="white"/>
<path d="M285.689 220.688H301.525V217.944H285.689V220.688Z" fill="#EBEBEB"/>
<g opacity="0.5">
<path opacity="0.5" d="M288.715 200.257V202.272L298.499 212.048V208.332L290.424 200.257H288.715Z" fill="#EBEBEB"/>
<path opacity="0.5" d="M288.715 212.331V214.189L291.067 216.549H292.933L288.715 212.331Z" fill="#EBEBEB"/>
<path opacity="0.5" d="M295.207 200.257L298.5 203.55V201.684L297.065 200.257H295.207Z" fill="#EBEBEB"/>
<path opacity="0.5" d="M288.715 209.414V210.018L295.246 216.549H295.849L288.715 209.414Z" fill="#EBEBEB"/>
</g>
<path d="M287.453 211.233H299.77V209.838H287.453V211.233Z" fill="#C7C7C7"/>
<path d="M266.441 217.944H278.758V198.862H266.441V217.944Z" fill="#C7C7C7"/>
<path d="M267.712 216.541H277.488V200.249H267.712V216.541Z" fill="white"/>
<path d="M264.677 220.688H280.514V217.944H264.677V220.688Z" fill="#EBEBEB"/>
<g opacity="0.5">
<path opacity="0.5" d="M267.703 200.257V202.272L277.487 212.048V208.332L269.412 200.257H267.703Z" fill="#EBEBEB"/>
<path opacity="0.5" d="M267.703 212.331V214.189L270.055 216.549H271.921L267.703 212.331Z" fill="#EBEBEB"/>
<path opacity="0.5" d="M274.195 200.257L277.488 203.55V201.684L276.053 200.257H274.195Z" fill="#EBEBEB"/>
<path opacity="0.5" d="M267.703 209.414V210.018L274.234 216.549H274.838L267.703 209.414Z" fill="#EBEBEB"/>
</g>
<path d="M266.441 211.233H278.758V209.838H266.441V211.233Z" fill="#C7C7C7"/>
<path d="M245.422 217.944H257.738V198.862H245.422V217.944Z" fill="#C7C7C7"/>
<path d="M246.7 216.541H256.477V200.249H246.7V216.541Z" fill="white"/>
<path d="M243.667 220.688H259.504V217.944H243.667V220.688Z" fill="#EBEBEB"/>
<g opacity="0.5">
<path opacity="0.5" d="M246.693 200.257V202.272L256.47 212.048V208.332L248.402 200.257H246.693Z" fill="#EBEBEB"/>
<path opacity="0.5" d="M246.693 212.331V214.189L249.053 216.549H250.911L246.693 212.331Z" fill="#EBEBEB"/>
<path opacity="0.5" d="M253.186 200.257L256.471 203.55V201.684L255.044 200.257H253.186Z" fill="#EBEBEB"/>
<path opacity="0.5" d="M246.693 209.414V210.018L253.224 216.549H253.828L246.693 209.414Z" fill="#EBEBEB"/>
</g>
<path d="M245.422 211.233H257.738V209.838H245.422V211.233Z" fill="#C7C7C7"/>
<path d="M287.453 246.764H299.77V227.682H287.453V246.764Z" fill="#C7C7C7"/>
<path d="M288.724 245.361H298.5V229.069H288.724V245.361Z" fill="white"/>
<path d="M285.689 249.508H301.525V246.764H285.689V249.508Z" fill="#EBEBEB"/>
<g opacity="0.5">
<path opacity="0.5" d="M288.715 229.077V231.092L298.499 240.868V237.152L290.424 229.077H288.715Z" fill="#EBEBEB"/>
<path opacity="0.5" d="M288.715 241.151V243.009L291.067 245.369H292.933L288.715 241.151Z" fill="#EBEBEB"/>
<path opacity="0.5" d="M295.207 229.077L298.5 232.37V230.504L297.065 229.077H295.207Z" fill="#EBEBEB"/>
<path opacity="0.5" d="M288.715 238.234V238.83L295.246 245.369H295.849L288.715 238.234Z" fill="#EBEBEB"/>
</g>
<path d="M287.453 240.053H299.77V238.657H287.453V240.053Z" fill="#C7C7C7"/>
<path d="M266.441 246.764H278.758V227.682H266.441V246.764Z" fill="#C7C7C7"/>
<path d="M267.712 245.361H277.488V229.069H267.712V245.361Z" fill="white"/>
<path d="M264.677 249.508H280.514V246.764H264.677V249.508Z" fill="#EBEBEB"/>
<g opacity="0.5">
<path opacity="0.5" d="M267.703 229.077V231.092L277.487 240.868V237.152L269.412 229.077H267.703Z" fill="#EBEBEB"/>
<path opacity="0.5" d="M267.703 241.151V243.009L270.055 245.369H271.921L267.703 241.151Z" fill="#EBEBEB"/>
<path opacity="0.5" d="M274.195 229.077L277.488 232.37V230.504L276.053 229.077H274.195Z" fill="#EBEBEB"/>
<path opacity="0.5" d="M267.703 238.234V238.83L274.234 245.369H274.838L267.703 238.234Z" fill="#EBEBEB"/>
</g>
<path d="M266.441 240.053H278.758V238.657H266.441V240.053Z" fill="#C7C7C7"/>
<path d="M245.422 246.764H257.738V227.682H245.422V246.764Z" fill="#C7C7C7"/>
<path d="M246.7 245.361H256.477V229.069H246.7V245.361Z" fill="white"/>
<path d="M243.667 249.508H259.504V246.764H243.667V249.508Z" fill="#EBEBEB"/>
<g opacity="0.5">
<path opacity="0.5" d="M246.693 229.077V231.092L256.47 240.868V237.152L248.402 229.077H246.693Z" fill="#EBEBEB"/>
<path opacity="0.5" d="M246.693 241.151V243.009L249.053 245.369H250.911L246.693 241.151Z" fill="#EBEBEB"/>
<path opacity="0.5" d="M253.186 229.077L256.471 232.37V230.504L255.044 229.077H253.186Z" fill="#EBEBEB"/>
<path opacity="0.5" d="M246.693 238.234V238.83L253.224 245.369H253.828L246.693 238.234Z" fill="#EBEBEB"/>
</g>
<path d="M245.422 240.053H257.738V238.657H245.422V240.053Z" fill="#C7C7C7"/>
<path d="M237.44 188.685H310.133V183.056H237.44V188.685Z" fill="#EBEBEB"/>
<path d="M224.56 157.725V164.381H167.477V157.725H177.582C177.582 157.725 182.514 150.144 196.014 150.144C209.515 150.144 214.462 157.725 214.462 157.725H224.56Z" fill="#DBDBDB"/>
<path d="M196 368.66C277.415 368.66 343.415 362.763 343.415 355.489C343.415 348.215 277.415 342.318 196 342.318C114.584 342.318 48.584 348.215 48.584 355.489C48.584 362.763 114.584 368.66 196 368.66Z" fill="#EBEBEB"/>
<path d="M27.0957 268.606L69.3219 268.418L111.548 268.348L196.001 268.214L280.453 268.348L322.679 268.418L364.906 268.606L322.679 268.794L280.453 268.865L196.001 268.998L111.548 268.865L69.3219 268.794L27.0957 268.606Z" fill="#263238"/>
<path d="M359.567 262.726H32.4277V268.426H359.567V262.726Z" fill="#C7C7C7"/>
<path d="M55.366 262.726C55.8782 264.592 55.8782 266.561 55.366 268.426C55.0897 267.5 54.9574 266.538 54.974 265.572C54.9616 264.609 55.0938 263.65 55.366 262.726Z" fill="#263238"/>
<path d="M80.9329 262.726C81.2052 263.65 81.3373 264.609 81.3249 265.572C81.3415 266.538 81.2093 267.5 80.9329 268.426C80.4208 266.561 80.4208 264.592 80.9329 262.726Z" fill="#263238"/>
<path d="M106.507 262.726C107.019 264.592 107.019 266.561 106.507 268.426C106.23 267.5 106.098 266.538 106.115 265.572C106.102 264.609 106.234 263.65 106.507 262.726Z" fill="#263238"/>
<path d="M132.074 262.726C132.346 263.65 132.478 264.609 132.466 265.572C132.482 266.538 132.35 267.5 132.074 268.426C131.561 266.561 131.561 264.592 132.074 262.726Z" fill="#263238"/>
<path d="M157.647 262.726C158.159 264.592 158.159 266.561 157.647 268.426C157.371 267.5 157.239 266.538 157.255 265.572C157.243 264.609 157.375 263.65 157.647 262.726Z" fill="#263238"/>
<path d="M183.214 262.726C183.486 263.65 183.619 264.609 183.606 265.572C183.623 266.538 183.491 267.5 183.214 268.426C182.702 266.561 182.702 264.592 183.214 262.726Z" fill="#263238"/>
<path d="M208.788 262.726C209.3 264.592 209.3 266.561 208.788 268.426C208.512 267.5 208.379 266.538 208.396 265.572C208.384 264.609 208.516 263.65 208.788 262.726Z" fill="#263238"/>
<path d="M234.355 262.726C234.627 263.65 234.759 264.609 234.747 265.572C234.763 266.538 234.631 267.5 234.355 268.426C233.843 266.561 233.843 264.592 234.355 262.726Z" fill="#263238"/>
<path d="M259.929 262.726C260.441 264.592 260.441 266.561 259.929 268.426C259.652 267.5 259.52 266.538 259.537 265.572C259.524 264.609 259.656 263.65 259.929 262.726Z" fill="#263238"/>
<path d="M285.493 262.726C285.766 263.65 285.898 264.609 285.885 265.572C285.902 266.538 285.77 267.5 285.493 268.426C284.981 266.561 284.981 264.592 285.493 262.726Z" fill="#263238"/>
<path d="M311.069 262.726C311.581 264.592 311.581 266.561 311.069 268.426C310.793 267.5 310.661 266.538 310.677 265.572C310.665 264.609 310.797 263.65 311.069 262.726Z" fill="#263238"/>
<path d="M336.634 262.726C336.906 263.65 337.039 264.609 337.026 265.572C337.043 266.538 336.91 267.5 336.634 268.426C336.122 266.561 336.122 264.592 336.634 262.726Z" fill="#263238"/>
<path d="M69.3214 262.726C69.3214 262.726 68.6628 259.645 67.3457 259.175C66.0286 258.704 65.2211 260.076 65.2211 260.076C65.2211 260.076 64.9153 257.136 63.0416 256.258C61.1678 255.38 59.7723 257.152 59.7723 257.152C59.7723 257.152 58.3376 253.42 55.7739 253.42C53.2102 253.42 51.9245 258.908 51.9245 258.908C51.9245 258.908 50.4113 257.277 48.859 258.203C47.3067 259.128 47.291 262.726 47.291 262.726H69.3214Z" fill="#37474F"/>
<path d="M287.933 262.726C287.933 262.726 287.274 259.645 285.957 259.175C284.64 258.704 283.84 260.076 283.84 260.076C283.84 260.076 283.527 257.136 281.661 256.258C279.795 255.38 278.391 257.176 278.391 257.176C278.391 257.176 276.957 253.444 274.393 253.444C271.829 253.444 270.536 258.932 270.536 258.932C270.536 258.932 269.03 257.301 267.478 258.226C265.926 259.151 265.91 262.75 265.91 262.75L287.933 262.726Z" fill="#455A64"/>
<path d="M127.558 262.726H104.391C104.391 262.726 105.175 259.457 106.688 259.23C107.15 259.186 107.614 259.285 108.018 259.513C108.422 259.742 108.745 260.089 108.946 260.507C108.946 260.507 108.875 255.952 111.745 255.176C114.614 254.4 117.013 258.43 117.013 258.43C117.013 258.43 118.816 256.133 121.262 256.282C123.708 256.431 124.343 260.202 124.343 260.202C124.343 260.202 126.57 258.9 127.558 262.726Z" fill="#37474F"/>
<path d="M48.7342 262.726H36.543C36.543 262.726 36.543 260.907 37.766 260.429C38.0909 260.286 38.4535 260.254 38.7987 260.336C39.144 260.418 39.453 260.61 39.679 260.884C39.679 260.884 40.1651 257.552 42.3994 257.552C44.6339 257.552 45.7079 260.429 45.7079 260.429C45.8975 260.154 46.1633 259.941 46.4726 259.816C46.7819 259.69 47.1211 259.658 47.4484 259.724C48.6871 259.88 48.7342 262.726 48.7342 262.726Z" fill="#455A64"/>
<path d="M137.123 262.726H124.932C124.932 262.726 124.932 260.907 126.155 260.429C126.48 260.286 126.842 260.254 127.187 260.336C127.533 260.418 127.842 260.61 128.068 260.884C128.068 260.884 128.562 257.552 130.796 257.552C133.03 257.552 134.097 260.429 134.097 260.429C134.286 260.154 134.552 259.941 134.861 259.816C135.171 259.69 135.51 259.658 135.837 259.724C137.076 259.88 137.123 262.726 137.123 262.726Z" fill="#455A64"/>
<path d="M337.67 262.726H325.479C325.479 262.726 325.479 260.907 326.702 260.429C327.026 260.286 327.389 260.254 327.734 260.336C328.08 260.418 328.389 260.61 328.615 260.884C328.615 260.884 329.101 257.552 331.335 257.552C333.569 257.552 334.643 260.429 334.643 260.429C334.832 260.154 335.098 259.94 335.407 259.814C335.717 259.689 336.057 259.657 336.384 259.724C337.623 259.88 337.67 262.726 337.67 262.726Z" fill="#455A64"/>
<path d="M355.459 262.726H335.357C335.357 262.726 335.404 259.731 337.38 258.94C337.917 258.714 338.513 258.668 339.079 258.81C339.644 258.951 340.148 259.272 340.516 259.724C340.516 259.724 341.3 254.236 345.008 254.236C348.717 254.236 350.449 258.94 350.449 258.94C350.762 258.486 351.2 258.134 351.71 257.927C352.219 257.719 352.779 257.665 353.319 257.771C355.381 258.038 355.459 262.726 355.459 262.726Z" fill="#37474F"/>
<path d="M242.108 261.072C242.108 261.072 258.031 287.548 258.039 287.571C261.113 292.612 263.715 297.097 264.844 299.535C265.172 300.079 265.371 300.69 265.425 301.323C265.425 301.323 265.425 301.362 265.425 301.37C264.546 303.306 224.931 329.021 223.245 329.453C221.56 329.884 220.196 325.117 220.94 322.89C221.685 320.664 232.45 304.035 232.45 304.035L216.77 277.418L242.108 261.072Z" fill="#C95F50"/>
<path d="M253.288 279.7L226.93 294.729C226.93 294.729 204.116 262.358 199.545 242.813C196.291 228.904 225.362 164.13 225.362 164.13L253.022 165.212C253.022 165.212 228.185 227.932 229.502 234.408C231.109 242.319 253.288 279.7 253.288 279.7Z" fill="#C95F50"/>
<path d="M265.432 301.393C265.432 301.393 265.432 301.432 265.432 301.44C264.546 303.377 224.931 329.092 223.253 329.523C221.575 329.954 220.203 325.187 220.948 322.961C221.356 321.754 224.672 316.36 227.643 311.648C224.884 316.226 219.168 329.601 260.948 292.44C262.704 295.427 264.084 297.928 264.868 299.566C265.198 300.122 265.391 300.748 265.432 301.393Z" fill="#263238"/>
<path d="M281.348 211.68L300.219 191.704C304.554 187.682 310.724 181.512 311.822 181.425C313.884 181.904 347.494 215.851 348.254 217.419C349.015 218.987 344.616 221.268 342.288 220.986C339.96 220.704 321.512 213.475 321.512 213.475L301.575 233.342L281.348 211.68Z" fill="#C95F50"/>
<path d="M342.287 221.017C341.111 220.868 335.921 218.995 331.013 217.152C336.682 218.234 347.697 218.085 301.002 190.998C305.259 187.008 310.778 181.52 311.813 181.457C313.883 181.935 347.493 215.882 348.246 217.45C348.998 219.018 344.616 221.3 342.287 221.017Z" fill="#263238"/>
<path d="M225.588 164.138C225.588 164.138 227.328 173.844 229.045 181.692C230.292 187.423 231.609 192.472 232.456 193.021C233.302 193.57 238.116 195.953 239.7 196.682C239.7 196.682 246.34 234.251 253.812 247.054C256.383 251.437 269.641 256.972 276.807 253.326C293.616 244.702 315.426 219.575 315.426 219.575L295.042 197.199L273.09 218.759C269.272 209.43 268.606 191.319 268.606 191.319C268.606 191.319 269.39 173.585 263.737 165.604L225.588 164.138Z" fill="#C95F50"/>
<path d="M225.134 164.123C225.134 164.123 197.976 217.952 197.466 240.061C197.302 247.195 200.893 256.29 200.893 256.29C200.893 256.29 227.07 261.064 241.817 254.494C256.564 247.924 262.985 234.722 269.43 223.597C272.276 218.681 274.432 217.442 274.432 217.442C274.432 217.442 269.43 194.652 269.351 192.111C269.351 192.111 270.582 175.491 263.777 165.604L225.134 164.123Z" fill="#263238"/>
<path d="M247.015 95.499C238.932 103.715 237.693 124.397 248.206 138.062C257.112 149.634 277.214 151.39 285.681 144.217C294.658 136.573 293.043 124.538 286.23 118.815C279.174 112.904 270.966 114.715 266.669 109.407C264.615 106.867 263.745 101.41 260.868 97.5296C257.661 93.2019 251.162 91.2811 247.015 95.499Z" fill="#263238"/>
<path d="M262.932 101.175C263.578 103.031 264.378 104.83 265.323 106.553C266.262 108.323 267.579 109.865 269.18 111.069C270.023 111.632 270.957 112.046 271.94 112.292C272.888 112.575 273.845 112.81 274.794 113.076C276.689 113.529 278.56 114.078 280.399 114.723C282.229 115.342 283.971 116.196 285.581 117.263C287.188 118.332 288.556 119.722 289.6 121.345C290.645 122.968 291.342 124.789 291.65 126.694C291.98 128.62 292.08 130.578 291.947 132.527C292.221 130.575 292.239 128.596 292.002 126.639C291.746 124.658 291.093 122.749 290.082 121.026C289.046 119.305 287.65 117.829 285.989 116.698C284.341 115.578 282.554 114.677 280.674 114.017C278.808 113.375 276.908 112.838 274.982 112.41C274.033 112.175 273.084 111.947 272.151 111.689C271.229 111.453 270.347 111.083 269.533 110.591C267.952 109.481 266.633 108.039 265.668 106.365C264.631 104.704 263.716 102.97 262.932 101.175Z" fill="#263238"/>
<path d="M245.478 97.3257C243.15 100.855 241.383 104.725 240.241 108.796C239.05 112.882 238.64 117.156 239.034 121.395C239.255 123.515 239.737 125.601 240.468 127.604C240.636 128.108 240.833 128.603 241.056 129.086C241.25 129.58 241.47 130.064 241.715 130.536C241.966 131.006 242.201 131.485 242.46 131.947L243.314 133.296C245.703 136.796 248.749 139.799 252.283 142.139C251.499 141.457 250.645 140.822 249.868 140.116C249.087 139.42 248.341 138.685 247.634 137.913C246.182 136.411 244.892 134.761 243.785 132.99C241.554 129.465 240.177 125.467 239.763 121.316C239.344 117.165 239.69 112.972 240.782 108.945C241.298 106.916 241.953 104.925 242.742 102.986C243.519 101.037 244.433 99.1453 245.478 97.3257Z" fill="#263238"/>
<path d="M242.774 129.485C237.137 132.112 212.198 137.09 204.569 131.218C196.8 125.236 191.124 101.136 190.198 98.1333C188.042 91.0773 209.885 90.2306 210.528 92.1592C212.817 99.0192 215.42 117.059 218.321 118.031C224.42 120.007 230.308 120.289 240.124 122.045C246.96 123.237 249.006 126.585 242.774 129.485Z" fill="#C95F50"/>
<path d="M190.725 99.4112C189.713 97.1533 185.872 86.2714 185.511 83.0413C185.151 79.8112 184.774 70.4424 187.22 69.9093C189.666 69.3762 189.996 72.128 189.996 72.128C189.996 72.128 190.466 68.1531 192.975 67.8395C195.484 67.5259 195.852 71.8066 195.852 71.8066C195.852 71.8066 196.636 67.7533 199.161 67.62C201.685 67.4867 201.332 71.8458 201.332 71.8458C201.332 71.8458 201.873 68.1061 203.998 68.8822C206.562 69.8074 204.782 76.5811 205.448 80.117C205.605 80.901 209.69 96.1733 209.69 96.1733L190.725 99.4112Z" fill="#C95F50"/>
<path d="M201.356 71.4616C200.063 76.4478 200.361 78.8547 201.905 83.692C201.905 83.7861 201.803 83.8488 201.764 83.7547C199.82 79.1605 199.012 76.1891 201.121 71.3832C201.223 71.148 201.419 71.2186 201.356 71.4616Z" fill="#263238"/>
<path d="M196 71.3911C195.106 76.6909 195.412 79.3095 196.651 84.4839C196.651 84.5005 196.644 84.5164 196.632 84.5282C196.621 84.54 196.605 84.5466 196.588 84.5466C196.571 84.5466 196.556 84.54 196.544 84.5282C196.532 84.5164 196.525 84.5005 196.525 84.4839C194.879 79.5055 194.173 76.5263 195.741 71.3519C195.757 71.1559 196 71.148 196 71.3911Z" fill="#263238"/>
<path d="M190.066 72.3789C189.572 77.569 189.775 80.4462 191.634 85.3227C191.637 85.3448 191.633 85.3674 191.622 85.3869C191.611 85.4064 191.594 85.4218 191.573 85.4307C191.553 85.4396 191.53 85.4416 191.508 85.4362C191.487 85.4309 191.467 85.4185 191.453 85.4011C189.101 80.6187 188.795 77.028 189.885 72.3789C189.979 72.0653 190.097 72.0496 190.066 72.3789Z" fill="#263238"/>
<path d="M210.731 99.223C210.731 99.223 213.475 93.3822 214.118 90.5441C214.761 87.7061 213.263 76.2753 210.77 76.4321C207.556 76.6673 207.125 83.4411 207.344 86.7888C207.344 86.7888 199.904 87.3297 198.54 92.12C197.176 96.9102 210.731 99.223 210.731 99.223Z" fill="#C95F50"/>
<path d="M209.908 76.832C207.133 79.184 207.705 83.5352 207.682 86.7967C207.684 86.8451 207.675 86.8935 207.654 86.9375C207.634 86.9815 207.603 87.0199 207.564 87.0492C207.526 87.0786 207.481 87.0981 207.433 87.106C207.385 87.1139 207.336 87.11 207.29 87.0946C204.154 87.5258 199.936 89.0467 198.446 91.9946C198.436 92.0099 198.421 92.0211 198.403 92.0262C198.385 92.0313 198.366 92.0299 198.349 92.0225C198.332 92.015 198.319 92.0018 198.311 91.9852C198.303 91.9686 198.301 91.9498 198.305 91.9319C199.473 88.5528 203.527 86.7261 206.929 86.4439C206.929 83.0962 206.529 78.6823 209.869 76.785C209.908 76.7693 209.932 76.832 209.908 76.832Z" fill="#263238"/>
<path d="M212.214 96.7691C212.214 96.7691 216.306 116.173 218.039 117.043C220.916 118.494 237.537 121.081 243.448 122.312C249.36 123.543 253.405 127.337 239.027 132.449C225.134 137.388 210.019 140.203 202.555 137.388C193.492 133.962 185.244 113.139 185.244 113.139L212.214 96.7691Z" fill="#B2BB77"/>
<path d="M188.695 117.6C199.404 110.497 211.031 104.272 213.038 103.104C213.14 103.049 213.195 103.229 213.1 103.284C211.211 104.397 198.063 112.818 188.757 117.796C188.647 117.874 188.593 117.686 188.695 117.6Z" fill="#263238"/>
<path opacity="0.1" d="M248.662 126.726C247.941 128.333 245.165 130.269 239.027 132.449C225.134 137.388 210.019 140.203 202.555 137.388C201.518 136.976 200.546 136.417 199.67 135.726L248.662 126.726Z" fill="black"/>
<path d="M225.135 164.123L264.115 165.644C264.115 165.644 262.32 138.486 256.479 127.29C253.821 122.194 249.956 121.802 246.099 123.504C245.135 123.935 231.987 133.539 229.996 137.616C228.216 141.198 230.121 146.24 230.121 146.24L225.135 164.123Z" fill="#EBEBEB"/>
<path d="M244.923 123.872C244.923 123.872 239.239 130.418 238.831 133.029C238.605 135.114 238.605 137.217 238.831 139.301C242.128 138.001 245.357 136.535 248.506 134.911C251.72 133.084 253.916 123.747 253.916 123.747C253.916 123.747 258.533 128.113 260.493 136.933C262.014 143.739 265.448 164.585 265.707 165.197C265.966 165.808 271.195 178.666 270.521 191.79C270.521 191.79 274.315 207.956 276.134 209.775C277.953 211.594 281.003 209.336 281.003 209.336C281.003 209.336 270.521 245.627 250.67 251.672C233.053 257.066 195.445 243.683 196.229 236.251C197.013 228.818 209.165 195.24 223.998 164.123L229.831 146.412C229.831 146.412 227.283 141.222 229.957 137.184C232.63 133.147 242.838 124.805 244.923 123.872Z" fill="#B2BB77"/>
<path opacity="0.1" d="M222.007 215.373C220.87 218.65 219.788 221.935 218.581 225.188C217.969 226.827 217.42 228.497 216.879 230.167C216.283 231.865 215.907 233.633 215.758 235.427C215.758 235.443 215.752 235.458 215.741 235.469C215.73 235.48 215.715 235.486 215.699 235.486C215.684 235.486 215.669 235.48 215.658 235.469C215.647 235.458 215.641 235.443 215.641 235.427C215.682 233.452 215.945 231.488 216.425 229.571C217.089 226.078 218.057 222.649 219.318 219.324C219.976 217.685 220.721 216.07 221.505 214.479C222.289 212.887 223.073 211.272 223.928 209.775C223.99 209.665 224.194 209.728 224.147 209.861C223.441 211.68 222.657 213.499 222.007 215.373Z" fill="black"/>
<path opacity="0.1" d="M251.742 223.526C251.742 221.174 251.742 218.885 251.891 216.564C252.032 214.518 252.197 212.472 252.479 210.441C252.761 208.411 253.2 206.357 253.671 204.334C254.604 200.296 255.678 196.274 256.854 192.3C256.203 194.534 255.607 196.784 255.137 199.065C254.353 203.095 253.898 207.164 253.302 211.225C252.706 215.286 252.15 219.41 251.836 223.511C251.86 223.597 251.742 223.605 251.742 223.526Z" fill="black"/>
<path opacity="0.1" d="M261.299 245.086C261.033 245.345 260.766 245.588 260.515 245.831C260.045 245.494 259.582 245.149 259.128 244.804C255.121 241.746 250.747 238.234 248.983 233.35C248.249 230.979 247.943 228.497 248.081 226.019C248.168 223.47 248.409 220.927 248.802 218.407C248.802 218.313 248.975 218.328 248.959 218.407C248.627 221.179 248.522 223.974 248.645 226.764C248.82 229.188 249.498 231.548 250.637 233.695C251.817 235.788 253.296 237.697 255.027 239.363C256.995 241.401 259.135 243.252 261.299 245.086Z" fill="black"/>
<path opacity="0.1" d="M237.426 211.39C236.188 214.824 235.004 218.273 234.008 221.786C233.517 223.521 233.078 225.264 232.691 227.015C232.307 228.787 232.025 230.574 231.703 232.354C231.374 234.11 231.162 235.886 231.068 237.67C231.021 238.587 231.021 239.504 231.068 240.421C231.115 241.339 231.013 242.201 231.068 243.095C231.068 243.22 230.888 243.22 230.872 243.095C230.786 242.53 230.637 241.989 230.527 241.441C230.45 240.955 230.401 240.466 230.378 239.975C230.292 238.963 230.261 237.952 230.245 236.948C230.192 234.936 230.266 232.922 230.464 230.919C230.93 227.295 231.717 223.719 232.816 220.233C233.851 216.737 235.067 213.295 236.313 209.869C237.615 206.302 238.877 202.719 240.445 199.261C242.013 195.804 243.534 192.135 244.929 188.513C244.929 188.427 245.094 188.458 245.063 188.513C244.349 190.536 243.714 192.59 243.016 194.612C242.319 196.635 241.801 198.72 241.143 200.751C240.562 202.554 239.982 204.334 239.331 206.114C238.681 207.893 238.061 209.642 237.426 211.39Z" fill="black"/>
<path opacity="0.1" d="M222.571 250.464L221.364 250.159C220.411 247.62 219.82 244.959 219.608 242.256C219.594 241.222 219.644 240.187 219.756 239.159C219.819 238.195 219.937 237.23 220.078 236.274C220.375 234.294 220.901 232.355 221.646 230.496C221.646 230.425 221.787 230.496 221.764 230.543C220.997 232.55 220.56 234.668 220.47 236.815C220.425 237.756 220.452 238.7 220.548 239.637C220.658 240.578 220.87 241.511 220.987 242.46C221.213 244.351 221.545 246.228 221.983 248.081C222.156 248.912 222.359 249.696 222.571 250.464Z" fill="black"/>
<path opacity="0.1" d="M255.899 249.312C254.261 250.31 252.504 251.1 250.67 251.664C247.61 252.527 244.441 252.944 241.262 252.903C240.666 252.08 240.109 251.248 239.576 250.386C237.66 247.394 236.402 244.03 235.884 240.516C235.374 236.439 236.362 232.315 237.224 228.356C238.11 224.255 244.421 206.451 245.456 207.776C246.711 209.391 243.143 228.254 242.924 230.512C242.617 232.612 242.991 234.755 243.99 236.627C245.14 238.404 246.48 240.05 247.989 241.535C249.494 243.165 251.046 244.752 252.645 246.294C253.696 247.336 254.801 248.316 255.899 249.312Z" fill="black"/>
<path opacity="0.1" d="M277.835 210.473C277.411 211.243 276.948 211.991 276.447 212.715C275.177 214.636 273.892 216.549 272.614 218.454C271.336 220.359 269.987 222.319 268.694 224.255C267.62 225.823 266.647 227.493 264.993 228.552C264.929 228.588 264.855 228.603 264.781 228.594C264.708 228.585 264.639 228.552 264.586 228.501C264.532 228.45 264.496 228.384 264.484 228.311C264.471 228.238 264.482 228.163 264.515 228.097C265.503 226.098 266.64 224.177 267.706 222.209C269.567 218.993 271.26 215.683 272.778 212.292C273.507 210.55 274.125 208.764 274.629 206.945C274.629 206.874 274.668 206.796 274.691 206.725C275.003 207.81 275.494 208.835 276.142 209.759C276.591 210.209 277.199 210.466 277.835 210.473Z" fill="black"/>
<path opacity="0.1" d="M262.789 162.845C260.359 163.801 257.936 164.781 255.435 165.542C252.988 166.265 250.495 166.818 247.971 167.196C243.547 167.981 238.999 167.713 234.698 166.412C232.256 165.548 230.018 164.192 228.12 162.429C228.066 162.382 227.987 162.429 228.042 162.523C231.032 166.013 235.235 168.237 239.802 168.748C244.835 169.407 249.728 168.34 254.392 166.49C257.223 165.369 260.029 164.138 262.82 162.947C262.875 162.923 262.852 162.821 262.789 162.845Z" fill="black"/>
<path d="M243.355 147.172C241.697 146.839 240.018 146.629 238.329 146.545C237.49 146.545 236.659 146.545 235.82 146.545C235.405 146.545 234.989 146.545 234.566 146.545C234.129 146.554 233.692 146.512 233.265 146.42C233.265 146.42 233.21 146.467 233.265 146.475C233.654 146.611 234.052 146.721 234.456 146.804C234.853 146.87 235.254 146.91 235.656 146.922C236.503 146.961 237.357 146.961 238.212 146.992C239.921 147.047 241.638 147.11 243.347 147.29C243.41 147.314 243.433 147.188 243.355 147.172Z" fill="#263238"/>
<path d="M246.913 149.744C245.634 149.213 244.325 148.755 242.993 148.372C242.327 148.184 241.645 148.035 240.963 147.902L239.983 147.729C239.622 147.674 239.246 147.659 238.893 147.596C238.854 147.596 238.838 147.651 238.893 147.659C239.238 147.729 239.559 147.855 239.896 147.941L240.9 148.207C241.574 148.388 242.241 148.576 242.915 148.748C244.263 149.101 245.596 149.454 246.929 149.854C246.943 149.852 246.957 149.844 246.965 149.832C246.974 149.82 246.978 149.806 246.976 149.791C246.974 149.776 246.966 149.763 246.954 149.755C246.943 149.746 246.928 149.742 246.913 149.744Z" fill="#263238"/>
<path d="M255.327 133.202C264.319 146.059 278.251 165.181 286.506 165.008C293.978 164.859 305.895 158.415 318.878 151.508C321.465 150.128 309.728 130.63 307.118 132.371C301.998 135.789 291.077 144.915 287.518 145.51C286.005 145.753 269.015 133.241 259.443 127.227C251.07 121.943 253.578 130.701 255.327 133.202Z" fill="#C95F50"/>
<path d="M330.229 145.722C326.599 148.717 315.074 153.413 312.408 153.28C309.743 153.147 303.722 136.628 305.188 134.315C306.654 132.002 319.652 122.868 324.458 122.806C329.264 122.743 333.984 142.625 330.229 145.722Z" fill="#C95F50"/>
<path d="M312.346 110.372C312.346 110.372 318.422 104.303 326.074 109C326.074 109 326.403 131.822 326.614 133.202C326.826 134.581 333.051 160.077 333.051 160.077C333.051 160.077 327.289 164.146 318.367 160.822C318.367 160.822 319.809 134.668 319.66 133.899C319.511 133.131 312.346 110.372 312.346 110.372Z" fill="#EBEBEB"/>
<path d="M333.052 160.077C333.052 160.077 324.694 155.373 318.367 160.822C318.367 160.822 324.921 164.64 333.052 160.077Z" fill="#DBDBDB"/>
<path d="M326.614 133.202C326.794 133.06 326.614 132.982 326.473 132.951C326.316 132.91 326.156 132.881 325.995 132.864C325.665 132.825 325.336 132.81 325.007 132.802C324.348 132.785 323.688 132.803 323.031 132.857C322.373 132.904 321.714 132.982 321.063 133.084C320.744 133.135 320.43 133.211 320.123 133.311C319.848 133.405 319.448 133.547 319.66 133.899C319.575 133.851 319.51 133.773 319.48 133.68C319.464 133.576 319.486 133.47 319.542 133.382C319.644 133.216 319.781 133.075 319.942 132.966C320.241 132.768 320.566 132.609 320.907 132.496C321.574 132.27 322.266 132.128 322.968 132.073C323.671 132.02 324.378 132.062 325.07 132.198C325.419 132.261 325.76 132.361 326.089 132.496C326.258 132.563 326.418 132.65 326.567 132.755C326.654 132.808 326.724 132.884 326.771 132.974C326.786 132.999 326.794 133.027 326.794 133.057C326.794 133.086 326.786 133.114 326.771 133.139C326.725 133.174 326.671 133.195 326.614 133.202Z" fill="#B2BB77"/>
<path d="M326.686 133.554C326.859 133.398 326.686 133.343 326.522 133.311C326.361 133.284 326.199 133.268 326.036 133.264C325.699 133.264 325.369 133.264 325.032 133.264C324.366 133.264 323.707 133.358 323.057 133.46C322.406 133.562 321.732 133.68 321.081 133.829C320.761 133.895 320.446 133.987 320.14 134.103C319.991 134.15 319.85 134.221 319.725 134.315C319.692 134.334 319.665 134.36 319.644 134.391C319.623 134.422 319.61 134.458 319.606 134.495C319.601 134.532 319.605 134.57 319.618 134.606C319.63 134.641 319.651 134.673 319.678 134.699C319.633 134.679 319.593 134.65 319.56 134.614C319.528 134.577 319.503 134.534 319.489 134.487C319.474 134.381 319.496 134.273 319.552 134.182C319.656 134.02 319.789 133.879 319.944 133.766C320.237 133.554 320.556 133.381 320.893 133.249C321.549 132.984 322.233 132.795 322.931 132.684C323.636 132.586 324.351 132.586 325.056 132.684C325.413 132.725 325.764 132.802 326.106 132.912C326.281 132.969 326.449 133.046 326.608 133.139C326.697 133.187 326.773 133.257 326.828 133.343C326.833 133.366 326.834 133.39 326.83 133.414C326.826 133.437 326.817 133.46 326.804 133.48C326.79 133.5 326.773 133.516 326.753 133.529C326.733 133.542 326.71 133.551 326.686 133.554Z" fill="#B2BB77"/>
<path d="M326.748 133.837C326.781 133.81 326.805 133.775 326.819 133.735C326.74 133.727 326.662 133.727 326.583 133.735L326.097 133.829L325.117 134.033C324.467 134.174 323.808 134.284 323.157 134.401C322.507 134.519 321.84 134.605 321.182 134.683C320.852 134.73 320.523 134.77 320.202 134.832C320.046 134.855 319.894 134.894 319.747 134.95C319.606 134.997 319.52 135.107 319.653 135.271C319.608 135.253 319.568 135.223 319.538 135.184C319.507 135.146 319.488 135.1 319.48 135.052C319.484 134.998 319.499 134.946 319.524 134.898C319.55 134.851 319.586 134.81 319.629 134.777C319.764 134.656 319.915 134.554 320.076 134.472C320.39 134.321 320.715 134.195 321.048 134.095C322.348 133.704 323.691 133.477 325.047 133.421C325.392 133.421 325.729 133.421 326.074 133.421C326.248 133.433 326.421 133.457 326.591 133.492C326.684 133.51 326.774 133.542 326.858 133.586C326.885 133.602 326.909 133.623 326.928 133.649C326.939 133.663 326.945 133.681 326.945 133.699C326.945 133.718 326.939 133.736 326.928 133.75C326.876 133.793 326.814 133.822 326.748 133.837Z" fill="#B2BB77"/>
<path d="M317.09 124.389C316.267 126.741 319.513 126.373 319.513 126.373C319.513 126.373 314.974 128.027 315.06 130.787C315.146 133.547 319.05 132.849 319.333 132.81C319.09 132.904 314.958 134.542 315.326 137.294C315.718 140.164 319.536 138.862 319.779 138.815C319.583 138.972 316.981 141.081 317.741 143.111C319.043 146.608 325.848 141.402 328.819 141.928C328.819 141.928 329.94 145.808 329.964 145.957C329.964 145.957 335.099 142.398 335.585 138.345C335.664 137.757 335.54 137.16 335.233 136.652C334.927 136.145 334.456 135.757 333.899 135.554C333.899 135.554 336.189 134.236 335.961 132.057C335.844 130.928 333.986 130.144 333.986 130.144C334.487 129.816 334.89 129.357 335.148 128.817C335.407 128.276 335.512 127.675 335.452 127.079C335.201 125.511 333.343 124.97 333.343 124.97C333.343 124.97 334.558 123.088 333.79 121.598C332.214 118.572 318.87 119.356 317.09 124.389Z" fill="#C95F50"/>
<path d="M333.985 130.097C334.04 130.097 334.04 130.011 333.985 130.003C328.874 129.1 323.61 130.056 319.144 132.7C318.995 132.794 318.948 133.037 319.144 132.935C322.28 131.289 329.696 129.979 333.985 130.097Z" fill="#263238"/>
<path d="M319.536 139.121C323.927 136.581 328.686 135.703 333.711 135.507C333.774 135.507 333.766 135.413 333.711 135.405C331.226 134.832 328.043 135.287 325.589 135.859C323.303 136.348 321.186 137.43 319.45 138.995C319.38 139.035 319.442 139.176 319.536 139.121Z" fill="#263238"/>
<path d="M319.512 126.373C318.669 126.767 317.865 127.243 317.113 127.792C316.359 128.289 315.753 128.979 315.357 129.791C315.193 130.171 315.177 130.599 315.31 130.991C315.454 131.386 315.694 131.739 316.008 132.018C316.343 132.262 316.725 132.433 317.13 132.521C317.535 132.608 317.954 132.611 318.36 132.527L320.375 132.198L318.595 133.209C317.802 133.655 317.084 134.224 316.471 134.895C316.17 135.191 315.936 135.548 315.783 135.941C315.63 136.334 315.563 136.755 315.585 137.177C315.611 137.564 315.769 137.931 316.033 138.216C316.297 138.502 316.651 138.688 317.035 138.745C317.905 138.861 318.79 138.753 319.607 138.431L321.888 137.647L320.006 139.152C319.481 139.571 319.012 140.056 318.611 140.595C318.212 141.091 317.966 141.693 317.905 142.327C317.894 142.613 317.961 142.896 318.1 143.146C318.238 143.396 318.442 143.604 318.689 143.746C319.294 143.98 319.953 144.032 320.587 143.895C321.965 143.635 323.32 143.266 324.64 142.79C325.314 142.57 325.988 142.359 326.678 142.171C327.359 141.943 328.081 141.865 328.795 141.943C328.09 141.947 327.392 142.088 326.741 142.359C326.075 142.594 325.416 142.861 324.757 143.143C323.444 143.721 322.079 144.172 320.681 144.491C319.926 144.677 319.133 144.639 318.399 144.381C318.016 144.195 317.696 143.902 317.476 143.538C317.256 143.173 317.146 142.753 317.16 142.327C317.211 141.54 317.498 140.786 317.984 140.164C318.418 139.556 318.929 139.008 319.505 138.533L319.904 139.223C318.949 139.622 317.905 139.763 316.878 139.63C316.311 139.547 315.79 139.27 315.404 138.846C315.044 138.412 314.822 137.879 314.769 137.318C314.741 136.785 314.827 136.252 315.02 135.755C315.213 135.257 315.51 134.807 315.89 134.433C316.569 133.701 317.363 133.086 318.242 132.614L318.478 133.296C317.966 133.384 317.442 133.359 316.941 133.224C316.44 133.089 315.974 132.846 315.577 132.512C315.209 132.149 314.939 131.698 314.793 131.202C314.641 130.696 314.683 130.151 314.91 129.674C315.384 128.82 316.087 128.116 316.941 127.643C317.744 127.118 318.608 126.692 319.512 126.373Z" fill="#263238"/>
<path d="M307.125 132.371C307.125 132.371 316.298 114.636 321.472 121.614C323.04 123.692 326.851 134.04 324.781 134.856C322.115 135.899 319.708 131.877 318.595 129.117C318.595 129.117 316.329 135.585 311.351 135.35C310.44 135.29 309.564 134.981 308.818 134.455C308.073 133.929 307.487 133.208 307.125 132.371Z" fill="#C95F50"/>
<path d="M321.001 121.065C321.7 121.808 322.289 122.648 322.749 123.558C323.227 124.457 323.643 125.387 323.996 126.342C324.739 128.248 325.314 130.215 325.713 132.222C325.817 132.756 325.846 133.302 325.799 133.845C325.764 134.154 325.666 134.453 325.509 134.723C325.423 134.871 325.311 135.004 325.179 135.115C325.049 135.225 324.9 135.313 324.74 135.373C324.166 135.585 323.535 135.585 322.961 135.373C322.439 135.173 321.956 134.884 321.534 134.519C320.75 133.809 320.092 132.972 319.59 132.041C319.078 131.147 318.638 130.214 318.272 129.25H318.931C318.648 129.979 318.293 130.677 317.873 131.336C317.467 131.999 316.992 132.617 316.454 133.178C315.916 133.737 315.297 134.213 314.619 134.589C313.949 134.97 313.211 135.215 312.447 135.311C313.174 135.119 313.863 134.806 314.486 134.385C315.1 133.964 315.652 133.457 316.124 132.88C316.602 132.311 317.022 131.697 317.379 131.046C317.735 130.403 318.032 129.728 318.265 129.031L318.539 128.168L318.923 129.007C319.314 129.916 319.765 130.799 320.272 131.649C320.752 132.491 321.363 133.25 322.083 133.899C322.381 134.21 322.753 134.439 323.165 134.564C323.577 134.689 324.014 134.706 324.435 134.613C325.093 134.409 325.062 133.304 324.929 132.363C324.771 131.381 324.564 130.407 324.309 129.446C324.066 128.466 323.807 127.502 323.525 126.545C322.978 124.597 322.126 122.748 321.001 121.065Z" fill="#263238"/>
<path d="M304.529 134.064C304.529 134.064 288.928 144.875 287.054 144.389C283.918 143.605 263.871 129.18 258.602 126.208C253.334 123.237 251.546 127.361 254.612 132.535C262.664 146.13 275.89 167.431 287.501 169.665C293.773 170.865 315.725 162.609 315.725 162.609L304.529 134.064Z" fill="#B2BB77"/>
<path d="M263.118 145.942C262.859 145.597 262.702 145.158 262.475 144.797L261.746 143.613C261.26 142.86 260.782 142.1 260.311 141.332C259.363 139.811 258.328 138.345 257.332 136.855C258.202 138.423 259.049 139.991 260.029 141.559C260.053 141.589 260.074 141.62 260.092 141.653L259.465 141.034L258.171 139.74C258.171 139.74 258.1 139.74 258.124 139.787C258.516 140.25 258.908 140.704 259.347 141.128C259.574 141.347 259.794 141.567 260.029 141.771L260.35 142.053L261.456 143.746C261.707 144.138 261.973 144.53 262.24 144.899C262.506 145.267 262.851 145.604 263.079 145.996C263.071 146.051 263.165 145.996 263.118 145.942Z" fill="#263238"/>
<path d="M300.272 138.768C305.165 149.854 309.03 161.582 309.829 163.644C309.829 163.738 309.688 163.762 309.649 163.644C308.912 161.716 303.189 148.168 300.069 138.768C300.061 138.666 300.272 138.65 300.272 138.768Z" fill="#263238"/>
<path d="M253.491 124.554C253.139 125.22 248.497 128.937 245.283 127.917C244.232 127.58 245.808 121.787 245.808 121.787V121.332L246.067 114.966L254.323 112.324L255.506 111.994C255.506 111.994 255.318 113.735 255.067 115.914C255.067 116.016 255.067 116.118 255.028 116.228C254.989 116.338 255.028 116.463 255.028 116.573C255.028 116.902 254.958 117.232 254.918 117.553C254.879 117.874 254.856 118.047 254.809 118.337C254.762 118.627 254.738 118.847 254.699 119.121C254.42 120.957 254.017 122.772 253.491 124.554Z" fill="#C95F50"/>
<path d="M255.083 115.891C254.027 117.415 252.652 118.692 251.053 119.631C249.454 120.571 247.67 121.151 245.824 121.332L246.083 114.966L254.338 112.324L255.522 111.994C255.522 111.994 255.334 113.735 255.083 115.891Z" fill="#263238"/>
<path d="M240.296 101.442C234.354 110.905 239.348 115.554 241.394 116.816C243.244 117.976 249.704 121.7 256.596 112.896C263.487 104.092 260.963 98.3371 256.87 95.4598C252.778 92.5825 246.247 91.9788 240.296 101.442Z" fill="#C95F50"/>
<path d="M242.657 100.65C242.9 100.76 243.143 100.815 243.394 100.901C243.636 101.023 243.911 101.064 244.178 101.018C244.26 100.985 244.328 100.925 244.372 100.848C244.416 100.772 244.433 100.683 244.421 100.595C244.375 100.426 244.284 100.272 244.159 100.149C244.034 100.027 243.878 99.9398 243.708 99.8973C243.372 99.768 243.001 99.768 242.665 99.8973C242.596 99.9322 242.537 99.9855 242.496 100.051C242.455 100.117 242.432 100.193 242.432 100.271C242.431 100.349 242.451 100.425 242.491 100.492C242.531 100.559 242.588 100.614 242.657 100.65Z" fill="#263238"/>
<path d="M249.25 104.562C249.052 104.397 248.864 104.222 248.685 104.037C248.46 103.881 248.292 103.655 248.207 103.394C248.195 103.306 248.213 103.217 248.258 103.142C248.304 103.066 248.375 103.008 248.458 102.978C248.628 102.939 248.806 102.946 248.973 102.998C249.139 103.051 249.289 103.147 249.406 103.276C249.686 103.505 249.871 103.829 249.924 104.186C249.931 104.267 249.914 104.349 249.876 104.421C249.838 104.493 249.78 104.552 249.708 104.592C249.637 104.632 249.556 104.65 249.475 104.645C249.393 104.639 249.315 104.611 249.25 104.562Z" fill="#263238"/>
<path d="M246.318 106.005C246.318 106.005 246.318 106.067 246.318 106.099C245.895 106.726 245.534 107.518 245.957 108.098C245.957 108.098 245.957 108.153 245.957 108.137C245.299 107.588 245.816 106.538 246.318 106.005Z" fill="#263238"/>
<path d="M247.321 105.699C248.403 106.271 247.18 108.396 246.168 107.863C245.157 107.33 246.411 105.213 247.321 105.699Z" fill="#263238"/>
<path d="M247.675 106.052C247.792 106.279 247.847 106.593 248.059 106.749C248.196 106.812 248.347 106.84 248.497 106.83C248.647 106.82 248.793 106.774 248.921 106.695C248.921 106.695 248.96 106.695 248.921 106.742C248.841 106.955 248.684 107.13 248.48 107.232C248.277 107.333 248.042 107.354 247.824 107.29C247.628 107.177 247.481 106.994 247.411 106.779C247.342 106.563 247.355 106.329 247.447 106.122C247.494 106.036 247.628 105.958 247.675 106.052Z" fill="#263238"/>
<path d="M242.734 103.755C242.734 103.755 242.671 103.755 242.656 103.755C242.303 104.429 241.778 105.142 241.088 105.017C241.088 105.017 241.049 105.017 241.088 105.017C241.833 105.401 242.507 104.452 242.734 103.755Z" fill="#263238"/>
<path d="M242.538 102.704C241.519 102.022 240.225 104.107 241.166 104.742C242.107 105.377 243.392 103.3 242.538 102.704Z" fill="#263238"/>
<path d="M242.022 102.594C241.787 102.594 241.497 102.704 241.293 102.594C241.089 102.484 241.027 102.14 241.011 101.81C241.011 101.81 241.011 101.81 240.964 101.81C240.817 101.975 240.732 102.185 240.723 102.405C240.715 102.626 240.783 102.842 240.917 103.018C241.223 103.3 241.701 103.12 242.038 102.782C242.101 102.743 242.116 102.594 242.022 102.594Z" fill="#263238"/>
<path d="M241.379 108.89C241.408 109.423 241.575 109.939 241.865 110.387C242.028 110.625 242.261 110.806 242.531 110.905C243.135 111.116 243.456 110.662 243.637 110.199C243.732 109.947 243.795 109.683 243.825 109.415C242.974 109.506 242.117 109.321 241.379 108.89Z" fill="#263238"/>
<path d="M241.865 110.387C242.028 110.625 242.261 110.806 242.532 110.905C243.135 111.116 243.457 110.662 243.637 110.199C243.364 110.025 243.04 109.948 242.718 109.983C242.396 110.017 242.095 110.159 241.865 110.387Z" fill="#FF9BBC"/>
<path d="M241.943 107.471C241.943 107.471 241.229 108.372 240.955 108.835C240.955 108.874 241.025 108.96 241.182 109.062C241.536 109.366 241.966 109.567 242.426 109.645C242.886 109.722 243.359 109.673 243.793 109.501C243.803 109.497 243.812 109.49 243.818 109.481C243.824 109.472 243.827 109.461 243.827 109.45C243.827 109.439 243.824 109.429 243.818 109.42C243.812 109.41 243.803 109.403 243.793 109.399C242.963 109.457 242.137 109.242 241.441 108.788C241.48 108.639 242.711 107.29 242.64 107.22C242.264 107.043 241.866 106.916 241.456 106.844C242.891 104.931 244.592 103.261 246.019 101.356C246.066 101.285 245.972 101.207 245.917 101.254C244.009 102.985 242.278 104.902 240.751 106.977C240.555 107.228 241.707 107.408 241.943 107.471Z" fill="#263238"/>
<path d="M256.196 113.17C255.146 112.488 254.001 107.894 256.878 102.586C256.878 102.586 254.62 107.533 254.589 108.427C254.558 109.321 253.954 105.848 256.212 101.536C254.338 101.738 252.445 101.672 250.591 101.34C248.239 100.768 247.055 100.062 246.992 99.8345C246.929 99.6072 250.402 100.344 251.696 99.8345C251.696 99.8345 244.969 99.3093 242.413 98.1098C242.116 97.9765 245.024 92.9589 250.214 92.6218C255.404 92.2846 259.959 97.3258 260.696 99.811C260.696 99.811 262.147 100.862 262.429 104.852C262.75 109.172 257.333 113.9 256.196 113.17Z" fill="#263238"/>
<path d="M254.417 116.401C254.241 116.381 254.067 116.341 253.9 116.283C253.73 116.231 253.569 116.154 253.421 116.056C253.23 115.931 253.067 115.768 252.943 115.577C252.847 115.426 252.774 115.263 252.724 115.091C252.644 114.838 252.612 114.572 252.629 114.307L254.542 111.955C254.542 111.955 258.306 109.972 259.317 111.469C260.328 112.967 256.369 116.636 254.417 116.401Z" fill="#C95F50"/>
<path d="M258.164 112.496C258.164 112.496 258.164 112.551 258.164 112.543C257.497 112.535 256.836 112.667 256.223 112.93C255.61 113.194 255.059 113.583 254.605 114.072C254.733 113.992 254.876 113.939 255.025 113.919C255.175 113.899 255.327 113.911 255.471 113.955C255.616 113.999 255.749 114.074 255.862 114.174C255.975 114.274 256.065 114.397 256.126 114.535C256.126 114.535 256.087 114.605 256.055 114.582C255.886 114.413 255.669 114.3 255.433 114.259C255.197 114.219 254.955 114.252 254.738 114.354C254.377 114.532 254.035 114.748 253.719 114.997C253.609 115.076 253.453 114.919 253.554 114.825C254.291 113.312 256.502 111.83 258.164 112.496Z" fill="#263238"/>
<path d="M254.496 115.914C254.431 115.994 254.345 116.052 254.247 116.083C254.15 116.113 254.045 116.114 253.947 116.085C253.849 116.056 253.762 115.999 253.696 115.92C253.631 115.842 253.59 115.746 253.579 115.644C253.568 115.543 253.588 115.44 253.635 115.349C253.682 115.259 253.755 115.184 253.845 115.135C253.935 115.086 254.037 115.064 254.139 115.073C254.241 115.082 254.338 115.121 254.417 115.185C254.471 115.228 254.515 115.281 254.547 115.34C254.58 115.4 254.601 115.466 254.608 115.534C254.615 115.601 254.609 115.67 254.59 115.735C254.571 115.801 254.539 115.861 254.496 115.914Z" fill="white"/>
<path d="M255.796 115.703C255.766 115.74 255.729 115.771 255.687 115.794C255.646 115.817 255.6 115.831 255.552 115.836C255.505 115.842 255.457 115.837 255.411 115.824C255.366 115.81 255.323 115.788 255.286 115.758C255.224 115.693 255.187 115.609 255.182 115.519C255.178 115.43 255.206 115.342 255.262 115.271C255.317 115.201 255.397 115.154 255.485 115.138C255.573 115.122 255.664 115.139 255.741 115.185C255.779 115.215 255.811 115.252 255.835 115.295C255.859 115.337 255.873 115.384 255.879 115.432C255.884 115.481 255.879 115.53 255.865 115.576C255.85 115.622 255.827 115.666 255.796 115.703Z" fill="white"/>
<path d="M278.682 111.869C278.058 111.871 277.438 111.77 276.847 111.571C276.213 111.392 275.632 111.063 275.153 110.611C274.674 110.159 274.311 109.598 274.096 108.976C273.711 107.69 274.503 106.177 275.334 104.578C276.299 102.72 277.302 100.807 276.408 99.2858C274.715 96.4085 268.082 93.8997 268.02 93.8683L268.223 93.3195C268.506 93.4293 275.123 95.9302 276.91 98.9878C277.968 100.783 276.847 102.908 275.852 104.852C275.068 106.342 274.346 107.753 274.66 108.772C274.847 109.301 275.158 109.777 275.568 110.16C275.977 110.543 276.472 110.823 277.012 110.975C277.629 111.211 278.291 111.303 278.948 111.245C279.606 111.186 280.241 110.979 280.807 110.638L281.151 111.116C280.427 111.618 279.563 111.881 278.682 111.869Z" fill="#263238"/>
<path d="M280.531 110.897C280.544 110.191 280.729 109.499 281.072 108.882C281.775 107.939 282.586 107.082 283.487 106.326L283.871 106.773C283.017 107.478 282.251 108.284 281.59 109.172C281.298 109.698 281.136 110.287 281.119 110.889L280.531 110.897Z" fill="#B2BB77"/>
<path d="M282.625 111.5C282.1 111.49 281.576 111.448 281.057 111.375L281.143 110.795C281.778 110.893 282.422 110.927 283.064 110.897C284.082 110.479 285.029 109.905 285.87 109.195L286.231 109.658C286.004 109.831 283.981 111.391 283.095 111.477C282.939 111.492 282.782 111.5 282.625 111.5Z" fill="#B2BB77"/>
<path d="M281.181 111.132L280.68 110.826C281.164 109.991 281.725 109.204 282.357 108.474L284.709 106.444L285.094 106.891C285.094 106.891 283.228 108.459 282.742 108.921C282.156 109.609 281.634 110.349 281.181 111.132Z" fill="#B2BB77"/>
<path d="M281.12 111.328L280.9 110.779C281.858 110.418 282.782 109.972 283.66 109.446C284.146 109.023 285.644 108.035 285.706 107.996L286.036 108.482C286.036 108.482 284.507 109.493 284.052 109.893C283.118 110.456 282.137 110.936 281.12 111.328Z" fill="#B2BB77"/>
<path d="M256.313 98.345L239.92 82.2495L263.534 85.7853L278.007 104.052L256.313 98.345Z" fill="#B2BB77"/>
<path opacity="0.1" d="M256.313 98.345L239.92 82.2495L263.534 85.7853L278.007 104.052L256.313 98.345Z" fill="black"/>
<path d="M245.393 94.3701L248.066 88.1843C248.066 88.1843 255.514 88.8586 260.085 91.4928C264.655 94.127 268.913 99.568 268.913 99.568L264.938 105.605C264.938 105.605 259.05 100.509 255.31 98.4547C252.105 96.8606 248.791 95.4957 245.393 94.3701Z" fill="#B2BB77"/>
<path d="M117.803 309.915C117.803 309.915 117.803 341.361 117.803 341.385C117.803 347.398 117.85 352.675 118.148 355.395C118.144 355.41 118.144 355.427 118.148 355.442C118.147 356.086 118.295 356.722 118.579 357.3V357.339C120.359 358.562 168.41 360.209 170.103 359.691C171.797 359.174 170.488 354.313 168.676 352.761C166.865 351.208 148.739 342.349 148.739 342.349L148.434 310.919L117.803 309.915Z" fill="#C95F50"/>
<path d="M117.811 334.933V341.385C117.811 347.398 117.858 352.675 118.156 355.395C118.152 355.41 118.152 355.427 118.156 355.442C118.225 356.076 118.369 356.7 118.587 357.3V357.339C120.366 358.562 168.418 360.209 170.111 359.691C171.805 359.174 170.495 354.313 168.684 352.761C166.873 351.208 148.747 342.349 148.747 342.349L148.833 335.803L117.811 334.933Z" fill="white"/>
<path d="M170.167 359.699C168.466 360.209 120.422 358.562 118.627 357.347C117.945 356.892 117.772 349.876 117.843 341.393C117.843 341.307 117.843 341.22 117.843 341.126L148.85 341.848V342.373C148.85 342.373 166.905 351.232 168.732 352.8C170.559 354.368 171.86 359.197 170.167 359.699Z" fill="#A6A6A6"/>
<path d="M169.681 357.817C161.59 357.339 128.913 356.187 120.869 356.328C120.807 356.328 120.807 356.375 120.869 356.383C128.882 357.026 161.575 357.951 169.681 357.951C169.854 357.951 169.854 357.825 169.681 357.817Z" fill="#263238"/>
<path d="M151.398 342.545C148.262 341.84 144.342 342.192 141.802 344.38C141.708 344.466 141.802 344.607 141.935 344.576C145.004 343.698 148.158 343.151 151.343 342.945C151.392 342.945 151.439 342.927 151.476 342.894C151.513 342.862 151.537 342.818 151.544 342.769C151.551 342.72 151.539 342.671 151.513 342.63C151.486 342.589 151.445 342.559 151.398 342.545Z" fill="#263238"/>
<path d="M153.663 344.011C150.527 343.306 146.607 343.658 144.075 345.846C143.973 345.932 144.075 346.073 144.2 346.042C147.269 345.165 150.423 344.618 153.608 344.411C153.657 344.411 153.705 344.393 153.742 344.361C153.778 344.328 153.802 344.284 153.809 344.235C153.816 344.186 153.805 344.137 153.778 344.096C153.751 344.055 153.71 344.025 153.663 344.011Z" fill="#263238"/>
<path d="M155.906 345.477C152.77 344.772 148.85 345.125 146.31 347.312C146.216 347.398 146.31 347.539 146.435 347.508C149.504 346.631 152.658 346.084 155.843 345.877C155.893 345.879 155.942 345.862 155.98 345.831C156.018 345.799 156.044 345.754 156.052 345.705C156.059 345.656 156.049 345.605 156.022 345.564C155.995 345.522 155.954 345.491 155.906 345.477Z" fill="#263238"/>
<path d="M116.251 287.305L116.259 287.657L116.957 342.71L150.591 342.036L143.684 174.205H115.279L116.251 287.305Z" fill="#263238"/>
<path d="M149.188 336.43C143.935 336.383 145.44 336.32 140.187 336.336C137.624 336.336 120.728 336.399 118.337 336.83C118.327 336.834 118.318 336.841 118.312 336.85C118.306 336.859 118.303 336.87 118.303 336.881C118.303 336.892 118.306 336.902 118.312 336.912C118.318 336.921 118.327 336.928 118.337 336.932C120.744 337.3 137.624 336.932 140.195 336.893C145.448 336.783 143.935 336.751 149.188 336.579C149.203 336.574 149.217 336.564 149.227 336.55C149.236 336.537 149.242 336.521 149.242 336.505C149.242 336.488 149.236 336.472 149.227 336.459C149.217 336.445 149.203 336.435 149.188 336.43Z" fill="#37474F"/>
<path d="M122.664 317.763C122.591 312.73 122.51 307.699 122.421 302.671C122.228 292.615 122.04 282.556 121.857 272.495C121.491 252.482 121.169 232.466 120.892 212.448C120.72 201.159 120.728 189.861 120.438 178.579H120.391C120.203 188.638 120.32 198.705 120.336 208.763C120.351 218.822 120.391 228.889 120.493 238.947C120.689 258.971 120.963 278.986 121.441 299.002C121.575 304.647 121.708 310.291 121.904 315.928C122.1 321.565 122.225 327.226 122.617 332.863C122.617 332.882 122.625 332.899 122.638 332.913C122.651 332.926 122.669 332.933 122.688 332.933C122.707 332.933 122.724 332.926 122.738 332.913C122.751 332.899 122.758 332.882 122.758 332.863C122.852 327.83 122.727 322.788 122.664 317.763Z" fill="#37474F"/>
<path d="M115.271 174.542L116.016 260.241L138.791 174.205H115.279L115.271 174.542Z" fill="#37474F"/>
<path d="M65.4167 294.188L49.18 320.578C46.5458 325.979 44.3349 330.77 43.4176 333.349C43.4142 333.364 43.4142 333.38 43.4176 333.396C43.1389 333.978 42.9968 334.616 43.0021 335.262C43.0021 335.262 43.0021 335.262 43.0021 335.309C44.0762 337.183 86.6631 359.503 88.4114 359.778C90.1597 360.052 91.0927 355.074 90.1283 352.918C89.164 350.762 76.6749 334.886 76.6749 334.886L92.6293 308.394L65.4167 294.188Z" fill="#C95F50"/>
<path d="M42.9949 335.262C42.9913 335.277 42.9913 335.294 42.9949 335.309C44.069 337.183 86.6559 359.503 88.4042 359.785C90.1525 360.068 91.0855 355.081 90.129 352.918C89.1725 350.754 76.6756 334.886 76.6756 334.886L79.5215 330.182C72.5596 326.473 59.9215 319.99 52.0815 315.921L49.2042 320.625C46.57 326.034 44.3513 330.817 43.4418 333.396C43.4384 333.412 43.4384 333.428 43.4418 333.443C43.1534 334.006 43.0004 334.629 42.9949 335.262Z" fill="white"/>
<path d="M88.4114 359.778C86.6631 359.503 44.0841 337.183 43.0021 335.309C42.5788 334.596 45.4717 328.206 49.1801 320.578L49.2977 320.342L76.9337 334.454L76.675 334.917C76.675 334.917 89.1562 350.746 90.1284 352.949C91.1006 355.152 90.1598 360.068 88.4114 359.778Z" fill="#A6A6A6"/>
<path d="M88.7949 357.88C81.7389 353.96 52.7309 338.727 45.4554 335.372C45.3927 335.372 45.377 335.372 45.4554 335.411C52.3938 339.472 81.4645 354.454 88.7557 357.998C88.889 358.068 88.9439 357.959 88.7949 357.88Z" fill="#263238"/>
<path d="M78.9405 336.187C76.3925 334.18 72.7155 332.8 69.5325 333.678C69.4071 333.717 69.4541 333.89 69.5325 333.913C72.6888 334.454 75.7774 335.335 78.7445 336.54C78.7903 336.557 78.841 336.558 78.8871 336.541C78.9332 336.524 78.9717 336.491 78.9955 336.448C79.0193 336.405 79.0269 336.355 79.0168 336.307C79.0067 336.259 78.9796 336.217 78.9405 336.187Z" fill="#263238"/>
<path d="M80.337 338.484C77.789 336.477 74.112 335.097 70.929 335.983C70.8036 335.983 70.8506 336.187 70.929 336.211C74.0853 336.751 77.1739 337.632 80.141 338.837C80.1868 338.854 80.2374 338.855 80.2836 338.838C80.3297 338.821 80.3682 338.788 80.392 338.746C80.4158 338.703 80.4234 338.653 80.4133 338.605C80.4032 338.557 80.3761 338.514 80.337 338.484Z" fill="#263238"/>
<path d="M81.7315 340.781C79.1835 338.774 75.5066 337.394 72.3235 338.28C72.1981 338.28 72.2451 338.484 72.3235 338.508C75.4799 339.049 78.5685 339.929 81.5355 341.134C81.5814 341.152 81.632 341.152 81.6781 341.135C81.7242 341.118 81.7627 341.086 81.7865 341.043C81.8104 341 81.8179 340.95 81.8078 340.902C81.7977 340.854 81.7706 340.811 81.7315 340.781Z" fill="#263238"/>
<path d="M139.85 174.173C139.724 174.761 137.733 183.973 135.679 191.892C134.181 197.67 132.637 202.758 131.759 203.283C130.755 203.871 125.879 206.035 124.24 206.709C124.24 206.709 113.264 261.48 107.478 278.461C102.139 294.141 80.0384 336.014 80.0384 336.014L47.9258 319.872C47.9258 319.872 73.0138 277.363 75.6167 269.735C79.7013 257.912 95.005 200.179 95.005 200.179C95.005 200.179 94.8874 182.107 100.979 174.213L139.85 174.173Z" fill="#263238"/>
<path d="M79.5452 329.79C74.9588 327.226 76.3073 327.9 71.7052 325.391C69.4473 324.161 54.6062 316.101 52.3012 315.325C52.2463 315.325 52.2071 315.388 52.2463 315.419C54.1828 316.901 69.1572 324.701 71.4387 325.885C76.1427 328.3 74.7942 327.555 79.4746 329.923C79.4913 329.926 79.5087 329.924 79.5241 329.917C79.5396 329.91 79.5523 329.898 79.5602 329.883C79.5682 329.868 79.5711 329.851 79.5684 329.834C79.5656 329.817 79.5575 329.801 79.5452 329.79Z" fill="#37474F"/>
<path d="M103.236 195.114C104.114 194.887 105.055 194.816 105.949 194.675C106.678 194.557 107.399 194.432 108.113 194.275C109.487 194.031 110.789 193.482 111.923 192.668C113.064 191.621 113.917 190.298 114.401 188.826C114.753 187.995 115.122 187.164 115.49 186.333L116.039 185.134C116.293 184.663 116.521 184.179 116.721 183.683C116.726 183.669 116.737 183.657 116.751 183.65C116.758 183.647 116.766 183.645 116.773 183.645C116.781 183.644 116.788 183.645 116.796 183.648C116.803 183.651 116.81 183.655 116.815 183.66C116.821 183.665 116.825 183.671 116.829 183.678C116.832 183.685 116.834 183.692 116.834 183.7C116.835 183.708 116.834 183.715 116.831 183.723C116.709 184.061 116.607 184.407 116.525 184.757C116.4 185.165 116.29 185.541 116.165 185.973C115.937 186.686 115.726 187.407 115.482 188.121C115.117 189.44 114.59 190.709 113.914 191.9C112.59 194.009 110.222 194.855 107.854 195.161C107.18 195.247 106.498 195.294 105.808 195.334C104.947 195.408 104.082 195.408 103.221 195.334C103.199 195.324 103.181 195.307 103.169 195.287C103.157 195.266 103.151 195.242 103.153 195.218C103.154 195.195 103.163 195.172 103.178 195.153C103.193 195.134 103.213 195.121 103.236 195.114Z" fill="#37474F"/>
<path d="M134.345 202.021C130.863 203.296 127.497 204.87 124.286 206.725C124.263 206.741 124.247 206.764 124.239 206.79C124.231 206.817 124.233 206.845 124.245 206.87C124.256 206.896 124.276 206.916 124.3 206.928C124.325 206.94 124.354 206.943 124.38 206.937C127.767 205.479 131.225 204.083 134.525 202.444C134.553 202.433 134.578 202.415 134.599 202.394C134.621 202.372 134.637 202.347 134.649 202.319C134.66 202.291 134.666 202.261 134.665 202.23C134.665 202.2 134.659 202.17 134.647 202.143C134.635 202.115 134.618 202.09 134.596 202.068C134.575 202.047 134.549 202.031 134.521 202.019C134.493 202.008 134.463 202.002 134.433 202.003C134.403 202.003 134.373 202.009 134.345 202.021Z" fill="#37474F"/>
<path d="M135.366 178.815C135.366 178.697 135.146 178.674 135.154 178.815C135.154 182.837 134.919 186.373 134.582 190.136C134.425 191.876 133.014 201.519 129.995 200.822C129.486 200.704 129.211 200.202 129.149 199.442C129.161 198.441 129.298 197.445 129.556 196.478C129.885 194.463 130.16 192.441 130.34 190.402C130.691 186.606 130.649 182.783 130.215 178.995C130.209 178.974 130.196 178.955 130.178 178.942C130.16 178.928 130.139 178.921 130.117 178.921C130.095 178.921 130.073 178.928 130.055 178.942C130.038 178.955 130.025 178.974 130.019 178.995C130.109 184.261 129.803 189.526 129.101 194.746C128.725 197.247 127.455 201.018 130.081 201.41C132.708 201.802 134.48 195.483 134.785 193.75C135.622 188.817 135.817 183.797 135.366 178.815Z" fill="#37474F"/>
<path d="M130.074 201.065C129.801 201.714 129.576 202.382 129.4 203.064C129.203 203.587 129.105 204.143 129.11 204.702C129.114 204.725 129.124 204.746 129.14 204.763C129.157 204.78 129.177 204.791 129.2 204.796C129.222 204.801 129.246 204.799 129.268 204.791C129.289 204.783 129.308 204.768 129.321 204.749C129.634 204.265 129.872 203.736 130.027 203.181C130.254 202.562 130.497 201.95 130.709 201.323C130.726 201.282 130.735 201.237 130.734 201.192C130.734 201.147 130.725 201.102 130.707 201.061C130.69 201.019 130.664 200.982 130.632 200.95C130.6 200.918 130.562 200.893 130.521 200.876C130.479 200.859 130.434 200.851 130.389 200.851C130.344 200.851 130.3 200.86 130.258 200.878C130.217 200.895 130.179 200.921 130.148 200.953C130.116 200.985 130.091 201.023 130.074 201.065Z" fill="#37474F"/>
<path d="M56.5889 314.509C61.1518 305.917 65.8558 297.395 70.5598 288.88C72.9118 284.686 75.3187 280.539 77.5452 276.289C79.6378 272.075 81.3359 267.677 82.6177 263.15C85.4505 253.972 88.1266 244.746 90.6459 235.474C93.1651 226.202 95.538 216.891 97.7646 207.54C98.3212 205.188 98.9327 202.836 99.3796 200.484C99.7833 198.1 99.7833 195.664 99.3796 193.279C99.0322 191.06 99.0137 188.801 99.3247 186.576C99.6792 184.355 100.203 182.163 100.893 180.022C101.246 178.893 101.63 177.772 102.022 176.659C102.061 176.533 102.257 176.588 102.218 176.714C100.83 181.245 99.4188 185.816 99.7167 190.614C99.8579 192.919 100.501 195.177 100.43 197.497C100.28 199.8 99.8885 202.081 99.262 204.302C97.0825 213.71 94.7305 223.074 92.206 232.393C89.6815 241.712 87.0525 251.011 84.319 260.288C82.9548 264.78 81.6847 269.343 79.7483 273.616C77.8118 277.889 75.3657 281.966 73.0607 286.074C68.294 294.549 63.4881 303.008 58.5724 311.397L56.6908 314.588C56.6516 314.643 56.5497 314.58 56.5889 314.509Z" fill="#37474F"/>
<path d="M121.848 138.133C127.642 140.728 153.161 145.44 160.852 139.34C168.692 133.123 173.788 107.196 174.376 104.131C174.964 101.065 155.004 96.2909 154.322 99.0741C152.581 106.248 149.579 125.048 146.631 126.051C140.437 128.153 134.432 128.529 124.444 130.465C117.482 131.814 115.451 135.263 121.848 138.133Z" fill="#C95F50"/>
<path d="M174.048 104.774C175.247 102.61 180.014 92.0964 180.657 88.9134C181.3 85.7304 182.476 76.4243 180.084 75.6873C177.693 74.9504 177.129 77.616 177.129 77.616C177.129 77.616 177.003 73.6097 174.534 73.0923C172.064 72.5748 171.319 76.7849 171.319 76.7849C171.319 76.7849 170.888 72.6767 168.387 72.3318C165.886 71.9868 165.847 76.3537 165.847 76.3537C165.847 76.3537 165.635 72.5827 163.495 73.1707C160.869 73.8684 162.045 80.7755 161.072 84.2408C160.853 85.0248 155.467 99.8659 155.467 99.8659L174.048 104.774Z" fill="#C95F50"/>
<path d="M165.864 76.048C166.718 81.1283 166.216 83.496 164.256 88.1843C164.252 88.1936 164.249 88.2037 164.248 88.214C164.248 88.2243 164.249 88.2347 164.252 88.2445C164.255 88.2544 164.261 88.2635 164.267 88.2713C164.274 88.2791 164.282 88.2855 164.292 88.2902C164.301 88.2948 164.311 88.2976 164.321 88.2983C164.332 88.299 164.342 88.2977 164.352 88.2944C164.362 88.2912 164.371 88.286 164.379 88.2792C164.386 88.2724 164.393 88.2641 164.397 88.2549C166.749 83.8488 167.792 80.9637 166.107 75.9931C166.02 75.7109 165.824 75.7658 165.864 76.048Z" fill="#263238"/>
<path d="M171.241 76.4086C171.672 81.7633 171.147 84.3427 169.461 89.3995C169.461 89.4701 169.555 89.5171 169.579 89.4465C171.656 84.6249 172.652 81.7241 171.515 76.4243C171.468 76.1891 171.225 76.1656 171.241 76.4086Z" fill="#263238"/>
<path d="M177.036 77.8982C177.075 83.1118 176.62 85.9656 174.354 90.6617C174.342 90.6836 174.339 90.7095 174.345 90.7337C174.352 90.758 174.368 90.7786 174.39 90.7911C174.411 90.8036 174.437 90.8069 174.462 90.8003C174.486 90.7936 174.506 90.7777 174.519 90.7558C177.302 86.1929 177.89 82.6414 177.192 77.9139C177.185 77.616 177.028 77.569 177.036 77.8982Z" fill="#263238"/>
<path d="M154.119 102.853C154.119 102.853 151.884 96.7926 151.492 93.9154C151.1 91.0381 153.585 79.8034 156.047 80.164C159.23 80.6814 159.081 87.4709 158.572 90.7794C158.572 90.7794 165.933 91.9632 166.874 96.8632C167.815 101.763 154.119 102.853 154.119 102.853Z" fill="#C95F50"/>
<path d="M156.877 80.5952C159.441 83.1588 158.492 87.463 158.234 90.7166C158.227 90.7649 158.232 90.8142 158.249 90.86C158.266 90.9058 158.294 90.9467 158.33 90.9793C158.367 91.0118 158.411 91.0349 158.458 91.0465C158.505 91.0581 158.555 91.0579 158.602 91.0459C161.652 91.7436 165.752 93.6252 166.991 96.6907C166.997 96.7094 167.011 96.7249 167.028 96.7337C167.046 96.7425 167.066 96.744 167.085 96.7377C167.104 96.7315 167.119 96.7181 167.128 96.7004C167.137 96.6828 167.138 96.6623 167.132 96.6436C166.254 93.1784 162.381 91.0067 158.986 90.45C159.3 87.118 160.06 82.759 156.901 80.5716C156.877 80.556 156.862 80.5795 156.877 80.5952Z" fill="#263238"/>
<path d="M153.084 103.849C153.084 103.849 148.662 124.154 146.913 125.072C143.997 126.592 127.078 129.478 121.041 130.826C115.005 132.175 110.316 138.713 125.745 141.104C141.175 143.496 155.193 147.22 162.593 143.872C167.196 141.786 181.605 120.752 181.605 120.752L153.084 103.849Z" fill="#B2BB77"/>
<path d="M152.551 111.03C163.841 117.169 174.754 124.538 176.753 125.754C176.855 125.816 176.753 125.95 176.628 125.887C174.754 124.742 161.16 117.067 152.402 111.171C152.3 111.108 152.442 110.967 152.551 111.03Z" fill="#263238"/>
<path opacity="0.1" d="M159.331 144.836C151.491 146.271 139.104 143.182 125.721 141.104C116.313 139.638 114.416 136.628 115.733 134.197L159.331 144.836Z" fill="black"/>
<path d="M94.8644 187.227C94.9977 187.329 144.907 183.848 145.252 183.307C145.44 183.009 144.782 176.212 142.218 168.082C137.961 154.534 128.89 136.267 122.83 130.638C120.407 128.388 113.673 129.36 111.023 132.3C103.151 140.995 94.3862 186.843 94.8644 187.227Z" fill="#EBEBEB"/>
<path d="M109.956 132.606C109.956 132.606 114.072 140.062 115.366 142.014C118.376 146.561 125.558 152.99 125.558 152.99C126.122 148.114 126.253 143.197 125.95 138.298C125.785 136.463 123.558 130.944 123.558 130.944C123.558 130.944 137.161 145.291 144.374 174.158C151.586 203.025 161.723 286.63 161.723 286.63C161.723 286.63 144.021 300.915 125.534 300.868C95.648 300.782 64.5938 280.75 64.5938 280.75C64.5938 280.75 74.8798 263.761 75.6168 261.542C76.3537 259.324 91.6417 200.1 91.8142 199.606C91.9867 199.112 102.524 141.347 109.956 132.606Z" fill="#B2BB77"/>
<path opacity="0.1" d="M130.733 274.071C129.988 277.779 125.456 291.993 122.618 300.797C116.887 300.498 111.197 299.648 105.629 298.257C111.031 291.554 120.721 276.556 122.187 272.769C123.904 268.332 125.456 247.14 127.934 245.094C130.411 243.048 131.83 268.598 130.733 274.071Z" fill="black"/>
<path opacity="0.1" d="M124.515 230.496C124.515 230.347 124.257 230.3 124.241 230.496C124.092 231.742 124.053 233.005 123.927 234.251C123.802 235.498 123.574 236.752 123.402 238.007C123.065 240.547 122.681 243.087 122.32 245.619C121.599 250.653 120.634 255.67 119.576 260.641C118.98 263.447 118.22 266.246 117.381 268.99C117.381 269.069 117.475 269.092 117.498 268.99C119.342 264.175 120.93 259.265 122.257 254.282C122.871 251.814 123.352 249.315 123.7 246.795C124.09 244.281 124.352 241.748 124.484 239.206C124.554 237.787 124.523 236.368 124.523 234.949C124.523 233.53 124.609 231.962 124.515 230.496Z" fill="black"/>
<path opacity="0.1" d="M155.356 288.01C155.356 289.053 155.255 290.088 155.176 291.146L154.18 291.75C154.18 291.671 154.18 291.585 154.18 291.507C154.11 289.939 154.071 288.441 154.024 286.905C153.851 281.526 153.663 276.156 153.177 270.794C153.052 269.453 153.012 268.112 152.887 266.772C152.72 265.411 152.639 264.042 152.644 262.671C152.618 261.331 152.489 259.994 152.26 258.673C152.095 257.309 151.891 255.952 151.719 254.596C151.723 254.584 151.731 254.574 151.742 254.566C151.752 254.559 151.765 254.555 151.778 254.555C151.79 254.555 151.803 254.559 151.813 254.566C151.824 254.574 151.832 254.584 151.836 254.596C152.181 256.094 152.456 257.599 152.746 259.104C152.887 259.888 153.012 260.609 153.161 261.362C153.31 262.115 153.53 262.836 153.671 263.581C154.638 268.963 155.189 274.413 155.317 279.88C155.404 282.561 155.443 285.282 155.356 288.01Z" fill="black"/>
<path opacity="0.1" d="M149.783 261.244C149.721 259.269 149.658 257.277 149.54 255.302C149.423 253.326 149.258 251.382 149.046 249.461C148.835 247.54 148.482 245.541 148.309 243.526C148.113 241.292 147.902 239.049 147.737 236.807C147.737 236.697 147.557 236.705 147.565 236.807C147.667 238.791 147.745 240.766 147.839 242.75C147.933 244.733 147.839 246.717 147.949 248.7C148.098 252.62 148.482 256.54 148.968 260.46C149.25 262.703 149.666 264.921 149.862 267.171C149.862 267.25 149.995 267.242 149.987 267.171C149.823 265.219 149.846 263.228 149.783 261.244Z" fill="black"/>
<path opacity="0.1" d="M117.302 274.737C116.001 277.089 114.637 279.441 113.257 281.793C112.026 283.871 110.818 285.964 109.392 287.916C107.965 289.868 106.53 291.656 105.017 293.467C103.951 294.737 102.877 296.007 101.755 297.222L100.768 296.94L101.755 295.74C104.515 292.416 107.047 288.92 109.666 285.486C111.007 283.73 112.386 282.013 113.641 280.186C114.895 278.359 116.071 276.54 117.216 274.698C117.221 274.686 117.231 274.677 117.242 274.673C117.254 274.669 117.267 274.669 117.279 274.674C117.29 274.679 117.299 274.689 117.303 274.701C117.308 274.713 117.307 274.726 117.302 274.737Z" fill="black"/>
<path opacity="0.1" d="M111.492 240.28C109.673 245.909 107.831 251.515 105.644 257.011C104.569 259.708 103.292 262.311 102.084 264.953C100.877 267.595 99.7322 270.245 98.3366 272.793C96.7691 275.674 95.028 278.457 93.123 281.127C93.123 281.189 93.1779 281.252 93.225 281.205C96.9487 276.71 100.108 271.776 102.633 266.513C103.859 263.831 104.934 261.083 105.855 258.281C106.851 255.506 107.76 252.707 108.654 249.9C109.665 246.709 110.622 243.51 111.586 240.312C111.585 240.301 111.581 240.292 111.574 240.284C111.568 240.276 111.559 240.27 111.549 240.266C111.539 240.263 111.529 240.263 111.519 240.265C111.509 240.268 111.499 240.273 111.492 240.28Z" fill="black"/>
<path opacity="0.1" d="M145.134 180.814C144.515 181.441 143.817 181.99 143.174 182.586L142.257 183.456C141.912 183.77 141.543 184.005 141.183 184.295C139.874 185.353 138.525 186.357 137.2 187.431C134.606 189.517 131.722 191.216 128.639 192.472C121.81 195.145 114.323 194.526 107.353 192.887C103.261 191.923 99.2702 190.536 95.2404 189.312C95.1855 189.312 95.1463 189.399 95.2404 189.422C98.7527 190.99 102.296 192.331 105.958 193.507C109.528 194.731 113.24 195.495 117.004 195.78C120.72 196.028 124.448 195.549 127.98 194.369C131.2 193.224 134.227 191.595 136.957 189.54C138.541 188.378 140.009 187.065 141.34 185.62C142.03 184.875 142.688 184.099 143.37 183.354C144.052 182.609 144.656 181.786 145.33 181.002C145.369 180.861 145.228 180.72 145.134 180.814Z" fill="black"/>
<path d="M102.154 141.12C87.8149 133.993 71.5783 123.668 70.7237 115.248C69.9397 107.675 74.9651 94.7934 80.3277 80.752C81.3939 77.9688 102.609 87.3925 101.182 90.2462C98.3597 95.8675 90.4727 108.074 90.3472 111.72C90.2923 113.288 103.166 126.396 110.394 135.389C119.167 146.381 107.87 143.982 102.154 141.12Z" fill="#C95F50"/>
<path d="M84.7496 68.6078C82.1781 72.6611 78.8696 84.9228 79.34 87.6041C79.8104 90.2854 97.2936 94.2995 99.4574 92.5276C101.621 90.7558 109.218 76.4321 108.685 71.5635C108.152 66.6948 87.4152 64.4056 84.7496 68.6078Z" fill="#C95F50"/>
<path d="M120.532 65.2444C120.532 65.2444 126.804 71.1244 122.328 78.9252C122.328 78.9252 99.5369 79.9601 98.157 80.2188C96.7772 80.4776 71.501 87.4865 71.501 87.4865C71.501 87.4865 67.2596 81.8496 70.3015 72.8257C70.3015 72.8257 96.495 73.4608 97.2554 73.2804C98.0159 73.1001 120.532 65.2444 120.532 65.2444Z" fill="#EBEBEB"/>
<path d="M71.4933 87.4865C71.4933 87.4865 75.97 78.9801 70.2938 72.8257C70.2938 72.8257 66.6404 79.4976 71.4933 87.4865Z" fill="#DBDBDB"/>
<path d="M98.1556 80.2189C98.3046 80.3913 98.3752 80.2189 98.4065 80.0621C98.4388 79.9041 98.4624 79.7444 98.4771 79.5838C98.4771 79.2545 98.4771 78.9253 98.4771 78.596C98.4735 77.9358 98.4343 77.2763 98.3595 76.6203C98.2889 75.9696 98.1948 75.311 98.0694 74.6681C98.0108 74.3484 97.9269 74.0338 97.8185 73.7273C97.7088 73.4608 97.5598 73.0688 97.2148 73.2805C97.2621 73.1974 97.337 73.1336 97.4265 73.1001C97.5317 73.0826 97.6397 73.102 97.7323 73.155C97.8989 73.2488 98.0412 73.3804 98.1478 73.5392C98.3628 73.829 98.5345 74.1485 98.6574 74.4878C98.9015 75.15 99.0621 75.84 99.1356 76.5419C99.2154 77.2414 99.1969 77.9486 99.0808 78.643C99.0261 78.9934 98.9368 79.3374 98.8142 79.6701C98.7523 79.8409 98.6707 80.0041 98.5712 80.1561C98.5185 80.2453 98.4426 80.3184 98.3516 80.3678C98.3277 80.3851 98.2989 80.3943 98.2693 80.3943C98.2398 80.3943 98.211 80.3851 98.187 80.3678C98.1698 80.3198 98.1592 80.2697 98.1556 80.2189Z" fill="#B2BB77"/>
<path d="M97.8036 80.2972C97.9682 80.4619 98.0231 80.2972 98.0466 80.1248C98.0588 79.9604 98.0588 79.7953 98.0466 79.6309C98.0466 79.3016 98.0466 78.9645 98.0466 78.6352C97.9962 77.9724 97.9098 77.3129 97.7879 76.6595C97.6703 76.0088 97.5292 75.3502 97.3646 74.7073C97.2839 74.3872 97.1818 74.0729 97.0588 73.7665C97.002 73.6209 96.9255 73.4837 96.8314 73.3589C96.8087 73.3296 96.7796 73.3058 96.7463 73.2895C96.713 73.2732 96.6764 73.2647 96.6393 73.2647C96.6023 73.2647 96.5657 73.2732 96.5324 73.2895C96.4991 73.3058 96.47 73.3296 96.4473 73.3589C96.4635 73.3125 96.4904 73.2706 96.5258 73.2366C96.5613 73.2025 96.6042 73.1773 96.6511 73.1629C96.7563 73.1483 96.8633 73.1676 96.9569 73.2177C97.1214 73.3203 97.2673 73.4502 97.3881 73.6019C97.6062 73.888 97.7904 74.1984 97.9369 74.527C98.2198 75.1754 98.4276 75.8541 98.5562 76.5497C98.6878 77.2499 98.7221 77.9648 98.6581 78.6744C98.6278 79.0302 98.5621 79.3821 98.4621 79.7249C98.4126 79.9016 98.3443 80.0724 98.2583 80.2345C98.2082 80.3246 98.1385 80.4023 98.0545 80.4619C97.9134 80.5011 97.8193 80.3678 97.8036 80.2972Z" fill="#B2BB77"/>
<path d="M97.5292 80.3678C97.5557 80.4006 97.5911 80.4251 97.6311 80.4384C97.638 80.3627 97.638 80.2866 97.6311 80.211C97.6311 80.0464 97.5606 79.8896 97.5214 79.7249L97.2862 78.7528C97.1294 78.1099 96.9961 77.4513 96.855 76.8006C96.7138 76.1499 96.6198 75.4913 96.51 74.8406C96.4551 74.5113 96.4081 74.182 96.3375 73.8684C96.3061 73.7133 96.2616 73.5612 96.2042 73.4137C96.1494 73.2726 96.0396 73.1942 95.8828 73.3353C95.8977 73.2877 95.9252 73.245 95.9625 73.2118C95.9998 73.1787 96.0454 73.1563 96.0945 73.1472C96.2032 73.1561 96.3043 73.2066 96.3767 73.2883C96.5001 73.4202 96.6056 73.5678 96.6903 73.7273C96.8507 74.0352 96.987 74.3549 97.098 74.6838C97.3178 75.327 97.4933 75.9845 97.6233 76.6516C97.7619 77.316 97.8536 77.9893 97.8977 78.6665C97.9173 79.0086 97.9173 79.3515 97.8977 79.6936C97.8977 79.866 97.8977 80.0385 97.8428 80.211C97.8237 80.3027 97.7948 80.392 97.7566 80.4776C97.745 80.5079 97.7227 80.533 97.6938 80.5481C97.6796 80.5603 97.6616 80.5669 97.6429 80.5669C97.6242 80.5669 97.6061 80.5603 97.5919 80.5481C97.5578 80.4935 97.5364 80.4318 97.5292 80.3678Z" fill="#B2BB77"/>
<path d="M108.004 79.2232C105.731 80.3521 105.699 77.0201 105.699 77.0201C105.699 77.0201 104.586 81.826 101.779 82.0848C98.9725 82.3435 99.1842 78.3059 99.192 78.0158C99.1293 78.2667 97.9925 82.6649 95.1544 82.6336C92.3163 82.6022 92.9984 78.5803 93.0533 78.3137C92.92 78.5411 91.1168 81.4497 88.9608 80.9245C85.2603 80.0464 89.6743 72.5043 88.7727 69.5565C88.7727 69.5565 84.6959 68.9057 84.5391 68.9057C84.5391 68.9057 87.5026 63.2531 91.5402 62.2574C92.1248 62.1035 92.7444 62.1541 93.2963 62.4008C93.8482 62.6475 94.2991 63.0755 94.5743 63.6137C94.5743 63.6137 95.6483 61.152 97.8671 61.0736C99.0195 61.0736 100.078 62.8689 100.078 62.8689C100.344 62.3197 100.756 61.8543 101.269 61.5238C101.782 61.1933 102.376 61.0104 102.987 60.9952C104.555 61.0579 105.393 62.8689 105.393 62.8689C105.393 62.8689 107.15 61.4029 108.749 61.9909C111.995 63.1747 112.896 76.832 108.004 79.2232Z" fill="#C95F50"/>
<path d="M100.101 62.8062C100.101 62.7513 100.179 62.7356 100.195 62.8062C101.753 67.8668 101.447 73.3181 99.3322 78.1726C99.2538 78.3372 99.0186 78.4078 99.0892 78.1726C100.351 74.8328 100.759 67.1652 100.101 62.8062Z" fill="#263238"/>
<path d="M92.7777 78.6038C94.8004 73.8371 95.1297 68.9057 94.6514 63.794C94.6514 63.7313 94.7455 63.7313 94.7612 63.794C95.6549 66.2323 95.5922 69.5172 95.3257 72.0652C95.1336 74.4386 94.3227 76.7201 92.9737 78.6822C92.8953 78.7528 92.7385 78.7057 92.7777 78.6038Z" fill="#263238"/>
<path d="M105.698 77.0201C105.401 77.9235 105.02 78.7974 104.562 79.6308C104.15 80.4549 103.528 81.1554 102.758 81.6614C102.392 81.8761 101.959 81.946 101.543 81.8574C101.126 81.7621 100.741 81.5624 100.422 81.2772C100.134 80.9622 99.9148 80.59 99.7797 80.1847C99.6446 79.7795 99.5964 79.3503 99.6382 78.9252L99.7244 76.8398L98.9404 78.7684C98.595 79.6261 98.1103 80.4209 97.5057 81.1204C97.2435 81.4609 96.9125 81.7424 96.5343 81.9464C96.156 82.1503 95.739 82.2723 95.3105 82.3043C94.9121 82.3297 94.517 82.2174 94.1916 81.9861C93.8661 81.7549 93.6301 81.4188 93.523 81.0342C93.2954 80.1682 93.2954 79.2581 93.523 78.3921L94.0561 75.9774L92.7625 78.0707C92.406 78.6463 91.9765 79.1734 91.4846 79.6387C91.0312 80.1048 90.4502 80.4266 89.8146 80.5638C89.5222 80.6214 89.2193 80.5945 88.9416 80.4862C88.6639 80.3779 88.4228 80.1927 88.2466 79.9523C87.9408 79.3662 87.8051 78.7063 87.8546 78.0472C87.9518 76.62 88.1562 75.2022 88.4662 73.8057C88.6073 73.1001 88.7406 72.3867 88.8425 71.6654C88.9954 70.9496 88.9954 70.2095 88.8425 69.4937C88.9211 70.2086 88.8653 70.9319 88.6778 71.6262C88.521 72.3318 88.3329 73.0296 88.1447 73.7273C87.7268 75.1297 87.4407 76.5681 87.2902 78.0236C87.2006 78.8118 87.3394 79.6092 87.69 80.3208C87.9246 80.6867 88.2612 80.976 88.6582 81.1529C89.0553 81.3299 89.4954 81.3867 89.9244 81.3164C90.716 81.1676 91.445 80.7853 92.0177 80.2188C92.5763 79.6977 93.0663 79.1076 93.4759 78.4627L92.6919 78.1491C92.4145 79.176 92.4145 80.2581 92.6919 81.2851C92.8566 81.8473 93.2077 82.3367 93.6876 82.6728C94.1748 82.9809 94.7419 83.1391 95.3183 83.1275C95.8623 83.0876 96.3916 82.9328 96.8714 82.6734C97.3511 82.4139 97.7704 82.0556 98.1015 81.6222C98.768 80.8439 99.2981 79.9586 99.6695 79.0036L98.9561 78.8468C98.9317 79.3765 99.0236 79.9051 99.2255 80.3954C99.4273 80.8857 99.7341 81.3259 100.124 81.6849C100.536 82.0152 101.024 82.2363 101.543 82.3278C102.088 82.418 102.646 82.3035 103.111 82.0064C103.923 81.4085 104.548 80.593 104.914 79.6544C105.269 78.8067 105.532 77.9236 105.698 77.0201Z" fill="#263238"/>
<path d="M101.184 90.3168C101.184 90.3168 117.985 78.7998 110.262 74.48C107.973 73.1785 97.0049 70.56 96.4404 72.7865C95.7191 75.6246 100.094 77.5533 103.034 78.3294C103.034 78.3294 96.7618 81.4654 97.6321 86.4517C97.8136 87.3592 98.2408 88.1996 98.867 88.8811C99.4933 89.5627 100.295 90.0593 101.184 90.3168Z" fill="#C95F50"/>
<path d="M110.881 74.8406C110.043 74.2233 109.118 73.7344 108.137 73.3902C107.165 73.0184 106.17 72.712 105.157 72.4729C103.134 71.9623 101.069 71.6292 98.9874 71.4773C98.4358 71.4399 97.8816 71.4795 97.341 71.5949C97.0293 71.668 96.7358 71.8041 96.4786 71.9947C96.3437 72.1057 96.2249 72.235 96.1258 72.3789C96.035 72.5275 95.9663 72.6886 95.9219 72.8571C95.7783 73.4651 95.8561 74.1045 96.1414 74.6603C96.4206 75.165 96.7839 75.6184 97.2155 76.0009C98.0319 76.7051 98.9625 77.2645 99.9674 77.6552C100.941 78.0558 101.942 78.386 102.962 78.643L102.9 77.9688C102.197 78.3479 101.533 78.7943 100.916 79.3016C100.298 79.7956 99.7352 80.3556 99.2382 80.9715C98.7347 81.5844 98.33 82.2721 98.0387 83.0099C97.7371 83.7354 97.5825 84.5135 97.584 85.2992C97.682 84.5358 97.9128 83.7955 98.2661 83.1118C98.6189 82.4404 99.0621 81.8205 99.5832 81.2694C100.097 80.7129 100.664 80.2087 101.277 79.7641C101.884 79.322 102.533 78.9388 103.213 78.6195L104.052 78.2275L103.15 77.9453C102.178 77.6627 101.224 77.317 100.297 76.9104C99.3857 76.5226 98.5416 75.9934 97.7957 75.3424C97.4447 75.0794 97.1667 74.731 96.9883 74.3303C96.81 73.9296 96.737 73.4899 96.7765 73.0531C96.9019 72.3632 98.0309 72.2691 98.9952 72.2691C99.9595 72.2691 101.01 72.4102 102.029 72.5278C103.048 72.6454 104.06 72.7865 105.063 72.9747C107.087 73.2923 109.05 73.9217 110.881 74.8406Z" fill="#263238"/>
<path d="M99.7789 93.1627C99.7789 93.1627 90.7943 110.317 91.5234 112.159C92.7308 115.217 107.846 131.265 111.515 136.22C115.185 141.175 117.474 147.392 103.487 144.483C93.4834 142.39 70.5985 128.96 66.9764 120.281C64.4754 114.284 65.1653 89.9091 65.1653 89.9091L99.7789 93.1627Z" fill="#B2BB77"/>
<path d="M67.4631 96.1419C80.305 96.5888 93.3351 98.3057 95.6871 98.4939C95.7969 98.4939 95.7342 98.6821 95.6244 98.6742C93.437 98.4861 77.8511 97.7021 67.4004 96.3222C67.275 96.3222 67.3377 96.1419 67.4631 96.1419Z" fill="#263238"/>
<path d="M121.786 138.627C119.779 139.113 114.832 136.157 112.566 133.288C112.417 133.092 112.362 130.748 112.158 127.91C112.033 126.185 111.853 124.272 111.555 122.539L122.891 123.323C122.637 125.599 122.661 127.897 122.962 130.167C123.007 130.405 123.073 130.639 123.158 130.865C123.158 130.865 123.158 130.936 123.158 130.983C123.644 132.316 124.922 137.866 121.786 138.627Z" fill="#C95F50"/>
<path d="M123.159 130.881C123.161 130.92 123.161 130.959 123.159 130.999C122.795 131.109 122.422 131.193 122.046 131.249C115.836 132.151 113.045 124.868 112.34 122.625L122.853 123.37C122.599 125.646 122.623 127.944 122.924 130.215C122.985 130.442 123.063 130.665 123.159 130.881Z" fill="#263238"/>
<path d="M119.293 100.524C119.293 100.524 123.425 101.199 125.016 104.868C126.608 108.537 126.678 112.755 126.388 113.029C126.098 113.304 119.293 100.524 119.293 100.524Z" fill="#263238"/>
<path d="M106.529 109.509C106.365 113.594 111.233 124.013 114.573 125.738C119.403 128.255 125.879 126.914 127.658 121.434C129.36 116.118 122.79 102.704 119.168 101.238C113.907 99.1289 106.772 103.488 106.529 109.509Z" fill="#C95F50"/>
<path d="M115.67 111.736C115.945 111.524 116.164 111.281 116.454 111.038C116.753 110.829 116.975 110.529 117.089 110.183C117.102 110.067 117.076 109.951 117.017 109.85C116.958 109.75 116.867 109.672 116.76 109.627C116.532 109.574 116.294 109.583 116.07 109.653C115.847 109.723 115.646 109.852 115.49 110.027C115.118 110.326 114.871 110.754 114.8 111.226C114.793 111.33 114.816 111.435 114.865 111.527C114.914 111.619 114.988 111.696 115.078 111.749C115.168 111.802 115.271 111.829 115.376 111.826C115.481 111.824 115.582 111.793 115.67 111.736Z" fill="#263238"/>
<path d="M122.672 108.709C122.338 108.781 122 108.834 121.66 108.866C121.311 108.971 120.936 108.958 120.594 108.827C120.494 108.767 120.416 108.675 120.375 108.565C120.334 108.455 120.331 108.335 120.367 108.223C120.467 108.013 120.621 107.833 120.814 107.702C121.007 107.571 121.232 107.494 121.464 107.479C121.932 107.377 122.421 107.453 122.836 107.69C122.928 107.75 123.001 107.835 123.045 107.935C123.089 108.035 123.103 108.145 123.086 108.253C123.069 108.361 123.02 108.462 122.947 108.543C122.873 108.624 122.778 108.682 122.672 108.709Z" fill="#263238"/>
<path d="M119.725 119.787C119.959 119.931 120.237 119.987 120.509 119.944C120.769 119.824 121.002 119.65 121.191 119.435C121.191 119.435 121.246 119.435 121.238 119.435C121.198 119.62 121.108 119.791 120.978 119.929C120.849 120.067 120.683 120.167 120.501 120.219C120.34 120.25 120.173 120.229 120.024 120.16C119.874 120.091 119.751 119.977 119.67 119.834C119.67 119.827 119.671 119.821 119.674 119.814C119.677 119.808 119.681 119.802 119.686 119.798C119.692 119.793 119.698 119.79 119.704 119.788C119.711 119.787 119.718 119.786 119.725 119.787Z" fill="#263238"/>
<path d="M122.085 117.247C121.948 117.768 121.678 118.243 121.301 118.627C121.088 118.838 120.813 118.976 120.517 119.019C119.882 119.113 119.647 118.596 119.56 118.102C119.514 117.843 119.501 117.58 119.521 117.318C120.361 117.573 121.261 117.549 122.085 117.247Z" fill="#263238"/>
<path d="M121.317 118.627C121.104 118.838 120.829 118.976 120.533 119.019C119.898 119.113 119.662 118.596 119.576 118.102C119.883 117.979 120.222 117.965 120.538 118.06C120.854 118.155 121.129 118.355 121.317 118.627Z" fill="#FF9BBC"/>
<path d="M116.517 113.468C116.482 113.261 116.501 113.047 116.572 112.849C116.617 112.744 116.683 112.649 116.765 112.57C116.847 112.49 116.944 112.428 117.05 112.386C117.163 112.35 117.282 112.34 117.398 112.356C117.515 112.373 117.627 112.415 117.725 112.48C117.891 112.603 118.027 112.761 118.125 112.943C118.18 113.052 118.227 113.165 118.266 113.28C118.359 113.517 118.391 113.773 118.36 114.025C118.31 113.847 118.239 113.676 118.148 113.515C118.073 113.368 117.984 113.229 117.882 113.1C117.678 112.825 117.411 112.637 117.176 112.739C116.941 112.841 116.8 113.1 116.807 113.445C116.827 113.796 116.88 114.145 116.964 114.487C116.739 114.187 116.586 113.838 116.517 113.468Z" fill="#263238"/>
<path d="M123.393 110.301C123.275 110.129 123.109 109.996 122.915 109.917C122.81 109.87 122.697 109.846 122.582 109.846C122.467 109.846 122.354 109.87 122.249 109.917C122.145 109.972 122.056 110.051 121.986 110.146C121.917 110.241 121.87 110.35 121.849 110.466C121.827 110.671 121.845 110.879 121.904 111.077C121.904 111.195 121.998 111.304 122.045 111.414C122.157 111.642 122.321 111.841 122.523 111.994C122.431 111.836 122.357 111.668 122.304 111.493C122.25 111.335 122.21 111.172 122.186 111.007C122.131 110.677 122.186 110.348 122.421 110.223C122.557 110.164 122.709 110.155 122.852 110.195C122.994 110.234 123.119 110.322 123.205 110.442C123.444 110.702 123.659 110.983 123.848 111.281C123.775 110.923 123.619 110.588 123.393 110.301Z" fill="#263238"/>
<path d="M110.074 118.674C111.43 118.478 111.093 114.268 110.858 112.716C110.623 111.352 109.196 107.345 109.125 107.055C109.055 106.765 115.891 107.98 118.463 105.691C121.034 103.402 121.748 99.7718 121.191 98.5017C120.634 97.2317 115.389 95.8283 112.112 97.216C108.835 98.6037 106.436 104.719 106.436 104.719C106.676 103.874 106.849 103.012 106.954 102.14C106.836 102.014 105.158 103.833 105.48 105.487C105.48 105.487 105.009 103.441 104.837 103.48C104.664 103.519 103.81 105.832 104.743 106.898C104.743 106.898 103.653 109.399 104.319 111.25C104.986 113.1 108.482 118.909 110.074 118.674Z" fill="#263238"/>
<path d="M120.249 104.052C119.59 104.952 118.797 105.745 117.897 106.404C116.851 107.014 115.672 107.358 114.463 107.408C113.248 107.495 112.028 107.384 110.849 107.079C109.814 106.82 108.795 106.397 107.713 106.232C107.454 106.193 107.36 106.585 107.564 106.71C109.786 107.949 112.348 108.441 114.871 108.114C116.043 107.963 117.156 107.51 118.1 106.8C119.044 106.089 119.788 105.145 120.257 104.06L120.249 104.052Z" fill="#263238"/>
<path d="M111.21 117.804C111.21 117.804 107.745 114.989 106.404 116.322C105.063 117.655 108.348 122.226 110.426 122.39C110.69 122.43 110.959 122.415 111.217 122.348C111.475 122.281 111.717 122.162 111.928 121.999C112.139 121.835 112.315 121.631 112.445 121.398C112.575 121.164 112.656 120.907 112.684 120.642L111.21 117.804Z" fill="#C95F50"/>
<path d="M107.408 117.6C107.408 117.6 107.408 117.647 107.408 117.655C108.874 117.812 109.909 118.831 110.756 119.96C110.642 119.849 110.505 119.765 110.356 119.712C110.206 119.66 110.047 119.64 109.889 119.655C109.731 119.67 109.578 119.719 109.441 119.799C109.303 119.878 109.185 119.987 109.094 120.117C109.094 120.117 109.094 120.195 109.157 120.179C109.362 120.034 109.607 119.956 109.858 119.956C110.11 119.956 110.355 120.034 110.56 120.179C110.894 120.438 111.201 120.73 111.477 121.05C111.571 121.151 111.759 121.05 111.681 120.901C111.195 119.239 109.227 117.263 107.408 117.6Z" fill="#263238"/>
<path d="M123.252 130.669L120.829 137.451L112.205 129.321L109.963 132.128C109.963 132.128 118.587 145.244 118.626 144.632L121.158 138.768L125.29 142.625L124.577 132.574L123.252 130.669Z" fill="#EBEBEB"/>
<path d="M125.212 137.639C125.04 135.977 124.914 134.307 124.663 132.661C124.663 132.606 124.561 132.582 124.546 132.661C124.279 134.276 124.969 140.603 125.024 142.123C124.851 141.951 121.198 138.737 121.167 138.791C120.61 139.732 118.744 144.005 118.626 144.389C117.254 142.304 112.033 134.738 110.434 132.778C110.425 132.766 110.412 132.757 110.398 132.754C110.383 132.751 110.368 132.754 110.355 132.763C110.343 132.771 110.334 132.784 110.331 132.798C110.328 132.813 110.331 132.828 110.34 132.841C111.563 135.052 118.477 145.244 118.579 145.212C119.568 143.193 120.45 141.123 121.221 139.011C121.849 139.717 125.541 143.362 125.549 143.119C125.532 141.288 125.419 139.459 125.212 137.639Z" fill="#263238"/>
<path d="M127.078 48.0043C126.517 47.9852 125.965 47.8555 125.454 47.6228C124.942 47.39 124.482 47.0588 124.099 46.648C123.548 46.1337 123.12 45.501 122.848 44.7976C122.577 44.0942 122.468 43.3383 122.531 42.5869L123.111 42.6888C123.06 43.3508 123.16 44.0158 123.403 44.6337C123.646 45.2515 124.026 45.8062 124.514 46.256C124.893 46.6745 125.365 46.9967 125.893 47.1957C126.421 47.3948 126.988 47.4651 127.549 47.4006C128.725 47.1968 129.791 46.0992 130.92 44.9467C132.276 43.5591 133.679 42.1165 135.585 41.8107C139.254 41.1522 144.091 46.0835 144.295 46.2952L143.871 46.7029C143.824 46.6558 139.05 41.7715 135.686 42.3909C133.97 42.6967 132.637 44.0608 131.343 45.3858C130.05 46.7107 128.991 47.7378 127.65 48.0122C127.46 48.0251 127.268 48.0225 127.078 48.0043Z" fill="#263238"/>
<path d="M123.087 43.0495L122.836 42.5163C123.368 42.2364 123.825 41.8331 124.169 41.3403C124.665 40.3429 125.041 39.2903 125.29 38.2043L125.862 38.3455C125.594 39.4878 125.189 40.5935 124.655 41.6383C124.26 42.2341 123.721 42.7198 123.087 43.0495Z" fill="#B2BB77"/>
<path d="M122.405 42.7907C122 42.2292 121.658 41.6245 121.386 40.9875C121.081 40.2035 121.574 37.679 121.629 37.3968L122.209 37.5144C121.947 38.5829 121.854 39.6863 121.935 40.7837C122.194 41.3711 122.512 41.9306 122.884 42.4536L122.405 42.7907Z" fill="#B2BB77"/>
<path d="M123.088 42.8848L122.586 42.5712C123.081 41.8278 123.506 41.0405 123.856 40.2192L124.64 37.193L125.212 37.3341C125.212 37.3341 124.617 39.6861 124.428 40.3682C124.063 41.2478 123.614 42.0905 123.088 42.8848Z" fill="#B2BB77"/>
<path d="M122.413 42.7124C122.321 41.6272 122.321 40.5361 122.413 39.4509C122.57 38.8708 122.789 37.0989 122.789 37.0519L123.377 37.1224C123.377 37.193 123.15 38.9805 122.985 39.5999C122.897 40.6198 122.897 41.6454 122.985 42.6653L122.413 42.7124Z" fill="#B2BB77"/>
<path d="M157.411 49.3136L176.94 37.2087L153.122 35.476L134.996 50.1211L157.411 49.3136Z" fill="#B2BB77"/>
<path opacity="0.1" d="M157.411 49.3136L176.94 37.2087L153.122 35.476L134.996 50.1211L157.411 49.3136Z" fill="black"/>
<path d="M168.92 47.824L167.674 41.2071C167.674 41.2071 160.257 40.2349 155.224 41.7951C150.191 43.3552 144.812 47.7535 144.812 47.7535L147.392 54.5116C147.392 54.5116 154.26 50.8346 158.368 49.6586C161.838 48.8012 165.364 48.1882 168.92 47.824Z" fill="#B2BB77"/>
</svg>
