<svg width="392" height="392" viewBox="0 0 392 392" fill="none" xmlns="http://www.w3.org/2000/svg">
<path d="M278.916 91.6104H269.57V345.674H278.916V91.6104Z" fill="#DBDBDB"/>
<path d="M274.244 48.1454L200.814 175.326H347.673L274.244 48.1454Z" fill="#DA756C"/>
<path d="M274.245 66.5695L216.777 166.114H331.72L274.245 66.5695Z" fill="white"/>
<path d="M268.426 95.3736H280.068L279.284 138.29H269.21L268.426 95.3736Z" fill="#DA756C"/>
<path d="M279.278 143.668H269.211V153.735H279.278V143.668Z" fill="#DA756C"/>
<path d="M347.673 182.727H200.814V231.86H347.673V182.727Z" fill="#DA756C"/>
<path d="M344.373 228.583H204.115V186.004H344.373V228.583ZM204.899 227.799H343.589V186.788H204.899V227.799Z" fill="white"/>
<path d="M223.276 193.24H226.184L228.019 198.626L229.846 193.24H232.786L230.01 200.641L232.072 205.847L236.682 193.193H240.116L233.491 209.461H230.833L228.019 202.633L225.196 209.461H222.539L215.961 193.193H219.356L223.981 205.847L225.996 200.641L223.276 193.24Z" fill="#263238"/>
<path d="M245.016 193.193H247.815L254.016 209.461H250.763L249.234 205.408H243.55L242.06 209.461H238.807L245.016 193.193ZM248.662 203.181L246.419 196.784L244.067 203.174L248.662 203.181Z" fill="#263238"/>
<path d="M255.789 209.461V193.193H262.986C263.703 193.186 264.412 193.347 265.056 193.664C265.677 193.967 266.233 194.388 266.695 194.902C267.157 195.412 267.524 196.002 267.776 196.643C268.029 197.266 268.159 197.931 268.161 198.603C268.173 199.616 267.901 200.613 267.377 201.48C266.876 202.314 266.124 202.967 265.228 203.346L268.945 209.461H265.393L262.069 204.013H258.933V209.461H255.789ZM258.925 201.237H262.892C263.166 201.232 263.435 201.163 263.676 201.033C263.929 200.891 264.151 200.699 264.327 200.469C264.518 200.215 264.666 199.932 264.766 199.63C264.871 199.298 264.924 198.951 264.923 198.603C264.925 198.242 264.864 197.884 264.742 197.545C264.625 197.242 264.458 196.961 264.248 196.714C264.051 196.483 263.808 196.296 263.535 196.165C263.292 196.04 263.024 195.973 262.751 195.969H258.925V201.237Z" fill="#263238"/>
<path d="M274.189 199.034V209.461H271.053V193.193H273.499L281.958 203.84V193.217H285.094V209.461H282.554L274.189 199.034Z" fill="#263238"/>
<path d="M288.512 209.461V193.193H291.648V209.461H288.512Z" fill="#263238"/>
<path d="M298.226 199.034V209.461H295.09V193.193H297.536L305.995 203.84V193.217H309.131V209.461H306.568L298.226 199.034Z" fill="#263238"/>
<path d="M323.84 207.627C323.259 208.245 322.557 208.738 321.777 209.074C320.998 209.409 320.158 209.581 319.309 209.579C318.268 209.587 317.238 209.367 316.29 208.936C315.364 208.519 314.532 207.919 313.844 207.172C313.132 206.4 312.571 205.501 312.19 204.522C311.779 203.476 311.574 202.361 311.586 201.237C311.57 199.1 312.389 197.041 313.868 195.498C314.58 194.751 315.432 194.151 316.377 193.734C317.362 193.29 318.432 193.065 319.513 193.076C320.882 193.038 322.237 193.371 323.433 194.04C324.491 194.643 325.348 195.546 325.895 196.635L323.542 198.376C323.167 197.597 322.566 196.95 321.818 196.517C321.082 196.09 320.246 195.868 319.395 195.875C318.739 195.869 318.092 196.02 317.506 196.314C316.936 196.6 316.436 197.006 316.04 197.505C315.629 198.027 315.311 198.616 315.099 199.246C314.876 199.918 314.765 200.623 314.77 201.331C314.765 202.061 314.89 202.785 315.138 203.471C315.365 204.105 315.705 204.692 316.142 205.204C316.569 205.687 317.088 206.079 317.67 206.357C318.268 206.641 318.922 206.786 319.583 206.78C320.414 206.753 321.228 206.54 321.965 206.156C322.702 205.772 323.343 205.227 323.84 204.561V203.417H320.563V201.065H326.459V209.43H323.84V207.627Z" fill="#263238"/>
<path d="M329.453 203.346V193.036H332.526V203.346H329.453ZM329.453 209.461V206.004H332.526V209.461H329.453Z" fill="#263238"/>
<path d="M220.5 214.228H221.982L225.259 222.852H223.534L222.75 220.704H219.739L218.955 222.852H217.23L220.5 214.228ZM222.428 219.512L221.245 216.133L220.006 219.52L222.428 219.512Z" fill="white"/>
<path d="M231.791 215.694H229.039V222.836H227.361V215.694H224.609V214.228H231.775L231.791 215.694Z" fill="white"/>
<path d="M239.293 215.694H236.541V222.836H234.879V215.694H232.127V214.228H239.293V215.694Z" fill="white"/>
<path d="M246.333 221.37V222.836H240.359V214.212H246.224V215.678H242.029V217.756H245.659V219.112H242.029V221.355L246.333 221.37Z" fill="white"/>
<path d="M249.313 217.317V222.805H247.635V214.181H248.936L253.421 219.834V214.197H255.091V222.821H253.734L249.313 217.317Z" fill="white"/>
<path d="M263.33 215.694H260.578V222.836H258.916V215.694H256.164V214.228H263.33V215.694Z" fill="white"/>
<path d="M264.396 222.836V214.212H266.074V222.836H264.396Z" fill="white"/>
<path d="M271.538 222.899C270.945 222.905 270.358 222.777 269.821 222.523C269.321 222.288 268.873 221.955 268.504 221.543C268.133 221.136 267.843 220.663 267.65 220.147C267.448 219.633 267.344 219.085 267.344 218.532C267.343 217.968 267.453 217.409 267.665 216.886C267.871 216.369 268.171 215.896 268.551 215.49C268.929 215.082 269.385 214.754 269.892 214.526C270.421 214.285 270.996 214.162 271.577 214.165C272.166 214.161 272.748 214.293 273.279 214.55C273.779 214.795 274.226 215.136 274.596 215.553C274.959 215.967 275.246 216.442 275.442 216.956C275.743 217.733 275.819 218.578 275.662 219.396C275.506 220.214 275.123 220.971 274.557 221.582C274.181 221.987 273.728 222.312 273.224 222.538C272.694 222.779 272.119 222.902 271.538 222.899ZM269.037 218.532C269.04 218.9 269.098 219.264 269.21 219.614C269.317 219.947 269.485 220.258 269.704 220.531C269.918 220.797 270.185 221.016 270.488 221.174C270.819 221.337 271.184 221.422 271.554 221.422C271.923 221.422 272.288 221.337 272.62 221.174C272.926 221.014 273.193 220.789 273.404 220.516C273.619 220.238 273.784 219.925 273.89 219.591C273.999 219.251 274.054 218.897 274.055 218.54C274.054 218.172 273.993 217.807 273.874 217.458C273.764 217.126 273.597 216.816 273.381 216.541C273.167 216.276 272.9 216.06 272.597 215.906C272.266 215.743 271.903 215.659 271.534 215.659C271.166 215.659 270.802 215.743 270.472 215.906C270.166 216.066 269.899 216.291 269.688 216.564C269.477 216.84 269.315 217.151 269.21 217.482C269.098 217.821 269.04 218.175 269.037 218.532Z" fill="white"/>
<path d="M278.705 217.317V222.805H277.027V214.181H278.321L282.805 219.834V214.197H284.475V222.821H283.119L278.705 217.317Z" fill="white"/>
<path d="M289.188 222.836V214.212H292.841C293.221 214.211 293.597 214.296 293.939 214.463C294.264 214.625 294.556 214.846 294.801 215.114C295.043 215.387 295.237 215.7 295.373 216.039C295.505 216.368 295.574 216.719 295.577 217.074C295.578 217.436 295.512 217.795 295.381 218.132C295.26 218.47 295.077 218.781 294.84 219.05C294.602 219.317 294.315 219.535 293.993 219.693C293.651 219.858 293.276 219.941 292.896 219.936H290.865V222.821L289.188 222.836ZM290.865 218.485H292.802C292.953 218.489 293.103 218.457 293.239 218.391C293.375 218.326 293.494 218.229 293.586 218.109C293.81 217.818 293.921 217.456 293.899 217.09C293.903 216.889 293.869 216.689 293.797 216.502C293.741 216.341 293.656 216.193 293.547 216.063C293.448 215.942 293.322 215.848 293.178 215.788C293.042 215.727 292.896 215.695 292.747 215.694H290.865V218.485Z" fill="white"/>
<path d="M296.744 222.836V214.212H298.414V221.355H302.804V222.821L296.744 222.836Z" fill="white"/>
<path d="M309.798 221.37V222.836H303.824V214.212H309.681V215.678H305.486V217.756H309.108V219.112H305.486V221.355L309.798 221.37Z" fill="white"/>
<path d="M313.554 214.228H315.036L318.305 222.852H316.588L315.804 220.704H312.817L312.033 222.852H310.309L313.554 214.228ZM315.483 219.52L314.291 216.141L313.06 219.52H315.483Z" fill="white"/>
<path d="M324.247 216.486C324.153 216.397 324.051 216.318 323.941 216.251C323.765 216.144 323.582 216.05 323.392 215.969C323.167 215.87 322.933 215.792 322.694 215.733C322.439 215.666 322.175 215.632 321.91 215.631C321.547 215.604 321.184 215.695 320.876 215.89C320.765 215.972 320.677 216.08 320.618 216.205C320.559 216.329 320.532 216.466 320.539 216.604C320.531 216.762 320.575 216.919 320.664 217.05C320.763 217.178 320.889 217.282 321.032 217.356C321.228 217.457 321.433 217.539 321.644 217.599L322.498 217.827C322.922 217.944 323.282 218.062 323.651 218.195C323.965 218.31 324.259 218.474 324.521 218.681C324.754 218.866 324.942 219.102 325.07 219.371C325.21 219.687 325.277 220.03 325.266 220.375C325.277 220.784 325.189 221.191 325.007 221.558C324.841 221.874 324.598 222.144 324.302 222.342C323.992 222.552 323.647 222.703 323.282 222.789C322.886 222.878 322.481 222.923 322.075 222.923C321.426 222.923 320.781 222.826 320.162 222.632C319.558 222.449 318.986 222.172 318.469 221.809L319.206 220.367C319.327 220.473 319.458 220.568 319.598 220.649C319.815 220.781 320.04 220.899 320.272 221.002C320.55 221.127 320.838 221.227 321.134 221.3C321.449 221.381 321.773 221.423 322.099 221.425C323.024 221.425 323.486 221.127 323.486 220.539C323.488 220.367 323.433 220.199 323.33 220.061C323.202 219.919 323.048 219.804 322.875 219.724C322.651 219.614 322.417 219.525 322.177 219.457L321.252 219.191C320.885 219.094 320.526 218.971 320.178 218.822C319.893 218.709 319.628 218.55 319.394 218.352C319.198 218.176 319.042 217.959 318.939 217.717C318.829 217.446 318.776 217.155 318.782 216.862C318.777 216.462 318.86 216.066 319.025 215.702C319.182 215.37 319.413 215.077 319.7 214.847C320.001 214.619 320.341 214.447 320.703 214.338C321.099 214.216 321.512 214.155 321.926 214.157C322.496 214.154 323.061 214.252 323.596 214.448C324.066 214.616 324.514 214.843 324.929 215.122L324.247 216.486Z" fill="white"/>
<path d="M332.527 221.37V222.836H326.553V214.212H332.417V215.678H328.223V217.756H331.845V219.112H328.223V221.355L332.527 221.37Z" fill="white"/>
<path d="M172.088 345.65H104.21C103.645 343.463 103.104 341.314 102.563 339.198C101.944 336.759 101.332 334.384 100.752 332.071C100.619 331.554 100.486 331.036 100.352 330.503C99.9054 328.731 99.4663 326.999 99.0351 325.321C98.7764 324.302 98.5177 323.29 98.2511 322.295C97.9846 321.299 97.7337 320.28 97.4671 319.308C97.3966 319.049 97.3417 318.79 97.2711 318.524C97.2006 318.257 97.13 317.959 97.0595 317.685C96.9889 317.41 96.887 317.018 96.8007 316.681C96.7067 316.328 96.6204 315.983 96.5342 315.638L96.0481 313.71C95.8051 312.785 95.5777 311.867 95.3503 310.981C95.2563 310.597 95.1543 310.197 95.0603 309.829C94.8982 309.207 94.7414 308.603 94.5899 308.018C94.4879 307.618 94.3939 307.234 94.2998 306.858C93.8999 305.29 93.5158 303.831 93.1865 302.467C93.0846 302.107 93.0062 301.754 92.9043 301.409C92.7631 300.813 92.6142 300.248 92.4809 299.7C92.3868 299.355 92.3006 299.018 92.2222 298.688C91.9164 297.52 91.642 296.454 91.4382 295.513C91.3676 295.27 91.3049 295.027 91.2422 294.792C91.0932 294.172 90.9443 293.624 90.8267 293.13C90.7718 292.934 90.7326 292.746 90.6777 292.573C90.6228 292.401 90.5836 292.197 90.5366 292.032C90.4895 291.868 90.4817 291.789 90.4503 291.687C90.419 291.585 90.3641 291.358 90.3327 291.225C90.3211 291.155 90.3028 291.087 90.2779 291.021C90.1759 290.613 90.1289 290.409 90.1289 290.409H156.204C156.204 290.409 158.376 297.904 161.865 310.009C162.571 312.471 163.331 315.129 164.154 317.951C166.483 326.05 169.18 335.458 172.088 345.65Z" fill="#37474F"/>
<path d="M115.319 345.65H113.626C111.117 335.249 108.684 324.829 106.327 314.392C105.754 311.86 105.198 309.319 104.641 306.771C104.586 306.528 104.531 306.301 104.484 306.058C104.484 305.932 104.649 305.878 104.68 306.003L104.751 306.238C105.519 308.967 106.28 311.7 107.032 314.439C109.897 324.814 112.659 335.217 115.319 345.65Z" fill="#263238"/>
<path d="M154.072 290.456L151.163 305.054L148.764 317.026L144.695 337.41L144.28 339.495L143.582 342.984L143.057 345.626H104.202L102.563 339.174C101.944 336.736 101.332 334.36 100.752 332.047C100.619 331.53 100.486 331.013 100.352 330.479C99.9054 328.708 99.4663 326.975 99.0351 325.297C98.7764 324.278 98.5177 323.267 98.2511 322.271C97.9846 321.275 97.7337 320.256 97.4671 319.284C97.3966 319.025 97.3417 318.767 97.2711 318.5C97.2006 318.233 97.13 317.935 97.0595 317.661C96.9889 317.387 96.887 316.995 96.8007 316.658C96.7067 316.305 96.6204 315.96 96.5342 315.615L96.0481 313.686C95.8051 312.761 95.5777 311.844 95.3503 310.958C95.2484 310.566 95.1543 310.174 95.0603 309.805C94.8982 309.183 94.7414 308.58 94.5899 307.994C94.4879 307.595 94.3939 307.21 94.2998 306.834C93.8999 305.266 93.5158 303.808 93.1865 302.444C93.0846 302.083 93.0062 301.73 92.9043 301.385C92.7631 300.789 92.6142 300.225 92.4809 299.676C92.3868 299.331 92.3006 298.994 92.2222 298.665C91.9164 297.497 91.642 296.43 91.4382 295.49C91.3676 295.247 91.3049 295.003 91.2422 294.768C91.0932 294.149 90.9443 293.6 90.8267 293.106C90.7718 292.91 90.7326 292.722 90.6777 292.55C90.6228 292.377 90.5836 292.173 90.5366 292.009C90.4895 291.844 90.4817 291.766 90.4503 291.664C90.419 291.562 90.3641 291.334 90.3327 291.201C90.3211 291.132 90.3028 291.063 90.2779 290.997C90.1759 290.59 90.1289 290.386 90.1289 290.386L154.072 290.456Z" fill="#263238"/>
<path d="M154.089 290.425C154.089 290.786 153.807 294.721 153.172 300.735C152.991 302.491 152.78 304.419 152.529 306.481C152.145 309.743 151.658 313.341 151.063 317.144C150.051 323.776 148.711 331.005 147.009 338.076C146.398 340.624 145.724 343.149 145.01 345.619H59.7188C60.7223 332.62 61.6474 320.86 62.3765 311.593C63.3957 298.555 64.0543 290.425 64.0543 290.425H141.419H154.089Z" fill="#37474F"/>
<path d="M153.909 298.265C153.807 301.315 153.681 304.364 153.485 307.399C153.274 310.691 152.976 313.984 152.544 317.269C152.544 317.387 152.544 317.512 152.544 317.63C152.137 320.711 151.682 323.776 151.157 326.842C150.663 329.696 150.302 332.777 149.04 335.419C148.564 336.44 147.887 337.355 147.049 338.108C146.28 338.811 145.339 339.298 144.32 339.519C144.153 339.564 143.983 339.592 143.811 339.605H143.662C143.692 339.624 143.717 339.65 143.734 339.682C143.751 339.714 143.758 339.75 143.756 339.786C143.756 340.813 143.756 341.855 143.638 342.867C143.638 342.914 143.638 342.953 143.638 343C143.536 343.886 143.372 344.764 143.207 345.642H141.741C141.743 345.624 141.743 345.605 141.741 345.587C142 344.623 142.211 343.651 142.454 342.679C142.697 341.706 143.035 340.719 143.238 339.715C143.243 339.695 143.252 339.677 143.264 339.661C143.276 339.645 143.291 339.631 143.309 339.621C142.38 339.665 141.46 339.423 140.672 338.928C139.884 338.433 139.267 337.709 138.903 336.853C138.534 335.546 138.51 334.166 138.832 332.847C139.099 331.099 139.358 329.358 139.616 327.61C140.118 324.396 140.761 321.228 141.325 318.037L141.584 316.579C142.729 310.088 143.936 303.588 145.363 297.16C145.418 296.885 145.473 296.619 145.535 296.376C145.598 296.132 145.865 296.25 145.849 296.423C145.802 296.854 145.763 297.293 145.708 297.724C145.457 300.194 145.167 302.648 144.822 305.101C144.407 307.987 144.124 310.88 143.717 313.765C143.583 314.745 143.442 315.725 143.301 316.705C142.635 321.448 141.945 326.183 141.137 330.911C140.761 333.106 139.397 337.034 142.548 337.716C143.271 337.874 144.027 337.78 144.689 337.449C146.085 336.609 147.129 335.292 147.629 333.741C148.399 331.159 148.96 328.518 149.307 325.846C149.829 322.956 150.287 320.06 150.679 317.159C151.196 313.537 151.729 309.931 152.294 306.317L153.164 300.789C153.305 299.943 153.438 299.088 153.579 298.234C153.619 298.03 153.909 298.085 153.909 298.265Z" fill="#263238"/>
<path d="M78.4012 320.938C81.9529 320.901 85.4865 320.427 88.9225 319.527C90.4905 319.119 92.0585 318.61 93.6265 318.1C95.1661 317.673 96.6071 316.949 97.868 315.968C100.22 313.906 101.372 310.66 102.415 307.775C103.553 304.52 104.475 301.194 105.175 297.818C105.175 297.653 105.449 297.708 105.457 297.865C105.542 301.681 105.058 305.489 104.022 309.163C103.168 312.299 102.015 315.764 99.4908 317.951C96.8409 320.248 93.2188 321.087 89.8476 321.479C86.036 321.922 82.1829 321.867 78.3856 321.315C78.3609 321.314 78.3366 321.308 78.3142 321.297C78.2917 321.287 78.2716 321.272 78.2548 321.254C78.2381 321.236 78.2251 321.214 78.2166 321.191C78.2081 321.168 78.2042 321.143 78.2052 321.119C78.2063 321.094 78.2122 321.07 78.2226 321.047C78.233 321.025 78.2477 321.005 78.2659 320.988C78.2841 320.971 78.3054 320.958 78.3286 320.95C78.3519 320.941 78.3765 320.937 78.4012 320.938Z" fill="#263238"/>
<path d="M72.5132 297.92C72.3251 302.692 72.1265 307.469 71.9174 312.252C71.4209 323.384 70.8825 334.517 70.3024 345.65H68.7344C69.4713 334.486 70.2553 323.337 71.0864 312.204C71.4 307.438 71.7475 302.676 72.1291 297.92C72.1291 297.646 72.5289 297.661 72.5132 297.92Z" fill="#263238"/>
<path d="M140.902 192.151C152.607 206.325 194.433 258.516 188.545 273.052C182.579 287.775 168.616 297.896 161.348 287.642C155.351 279.182 132.772 220.625 129.542 205.502C126.468 191.108 129.361 178.219 140.902 192.151Z" fill="#BC675A"/>
<path d="M137.538 243.173L181.027 234.549C181.027 234.549 150.411 196.596 138.259 187.972C124.579 178.274 122.579 187.392 125.151 203.127C127.723 218.861 137.538 243.173 137.538 243.173Z" fill="#B2BB77"/>
<path d="M181.025 234.526L137.537 243.15C137.537 243.15 127.69 218.846 125.15 203.079C122.61 187.313 124.577 178.227 138.258 187.925C138.948 188.419 139.701 189.007 140.508 189.673L141.496 190.512C145.91 194.346 151.61 200.32 157.302 206.631L157.615 206.976C162.1 211.97 166.576 217.168 170.394 221.668L171.962 223.573C177.333 229.947 181.025 234.526 181.025 234.526Z" fill="#B2BB77"/>
<path d="M150.332 230.386C149.834 231.641 149.519 232.961 149.399 234.306C150.192 233.226 150.83 232.042 151.297 230.786C151.795 229.544 152.112 228.237 152.238 226.905C151.443 227.971 150.801 229.142 150.332 230.386ZM134.104 211.335C132.849 210.833 131.529 210.516 130.184 210.394C131.254 211.195 132.434 211.836 133.688 212.299C134.943 212.8 136.263 213.116 137.608 213.24C136.538 212.44 135.357 211.798 134.104 211.335ZM142.485 192.425C142.192 191.783 141.865 191.157 141.505 190.551L140.509 189.728C140.744 190.806 141.091 191.857 141.544 192.864C142.064 194.097 142.765 195.246 143.621 196.274C143.429 194.943 143.046 193.647 142.485 192.425ZM172.363 224.357C172.245 224.106 172.128 223.855 172.002 223.612L170.434 221.707C170.658 222.765 170.995 223.795 171.438 224.781C171.967 226.011 172.67 227.159 173.523 228.191C173.322 226.864 172.932 225.573 172.363 224.357ZM157.31 206.67C157.09 206.827 156.871 206.999 156.659 207.18C156.983 207.142 157.305 207.087 157.624 207.015L157.31 206.67Z" fill="white"/>
<path d="M173.375 228.019C171.807 228.081 158.228 230.567 155.288 231.155C152.348 231.743 140.29 234.11 137.303 234.988C137.28 234.995 137.26 235.009 137.245 235.028C137.231 235.047 137.223 235.07 137.223 235.094C137.223 235.118 137.231 235.142 137.245 235.161C137.26 235.18 137.28 235.194 137.303 235.2C140.392 234.902 152.552 232.566 155.563 232.017C158.573 231.468 171.972 228.708 173.399 228.199C173.555 228.144 173.485 228.019 173.375 228.019Z" fill="#263238"/>
<path d="M162.603 238.187L137.515 243.165C137.515 243.165 127.668 218.861 125.128 203.103C123.254 191.492 123.834 183.503 129.761 183.981L162.603 238.187Z" fill="#263238"/>
<path d="M167.778 314.823L57.4453 320.656C57.4453 320.656 66.7906 226.647 107.621 186.67C112.662 181.731 126.069 179.45 132.921 184.797C136.574 187.65 143.199 200.414 146.712 213.444C150.224 226.474 168.076 314.384 167.778 314.823Z" fill="#B2BB77"/>
<path d="M120.047 195.459C119.555 196.703 119.241 198.009 119.114 199.34C119.914 198.267 120.556 197.084 121.019 195.828C121.514 194.585 121.83 193.278 121.96 191.947C121.161 193.022 120.517 194.205 120.047 195.459ZM107.354 245.776C106.849 247.029 106.532 248.35 106.413 249.696C107.99 247.523 108.968 244.973 109.251 242.303C108.46 243.367 107.821 244.536 107.354 245.776ZM99.2863 299.159C98.7887 300.398 98.4719 301.702 98.3455 303.032C99.9222 300.858 100.901 298.309 101.184 295.639C100.387 296.715 99.7477 297.901 99.2863 299.159ZM150.474 230.041L150.333 230.386C149.834 231.641 149.519 232.961 149.4 234.306C149.98 233.54 150.469 232.708 150.858 231.829C150.725 231.194 150.599 230.614 150.474 230.041ZM129.549 293.632C129.045 294.886 128.725 296.206 128.6 297.552C129.403 296.481 130.047 295.301 130.513 294.047C131.005 292.804 131.319 291.497 131.446 290.166C130.656 291.228 130.017 292.394 129.549 293.632ZM84.8215 226.286C84.3247 227.528 84.0105 228.835 83.8886 230.167C84.6842 229.092 85.323 227.909 85.7858 226.654C86.2879 225.4 86.6049 224.08 86.7266 222.734C85.9226 223.82 85.2809 225.016 84.8215 226.286ZM134.104 211.335C132.85 210.833 131.529 210.516 130.184 210.394C131.254 211.195 132.434 211.836 133.688 212.299C134.943 212.8 136.263 213.117 137.608 213.24C136.538 212.44 135.358 211.798 134.104 211.335ZM145.135 253.381C143.895 252.887 142.591 252.573 141.262 252.448C142.33 253.249 143.511 253.888 144.766 254.345C146.009 254.843 147.315 255.162 148.647 255.294C147.575 254.489 146.392 253.845 145.135 253.381ZM150.913 303.408C149.659 302.906 148.338 302.589 146.993 302.467C149.164 304.043 151.71 305.025 154.378 305.313C153.318 304.519 152.152 303.877 150.913 303.408ZM68.3418 300.672C67.0877 300.17 65.7672 299.853 64.4218 299.731C66.5971 301.306 69.1452 302.287 71.815 302.577C70.753 301.781 69.5837 301.14 68.3418 300.672ZM97.7418 267.07C96.4884 266.564 95.1678 266.244 93.8218 266.121C94.8946 266.924 96.0776 267.568 97.3342 268.034C98.5898 268.53 99.9098 268.844 101.254 268.967C100.179 268.171 98.9966 267.532 97.7418 267.07ZM108.302 219.442C107.773 218.212 107.07 217.063 106.217 216.031C106.638 218.684 107.749 221.18 109.439 223.268C109.241 221.945 108.858 220.657 108.302 219.442ZM127.377 261.778C126.847 260.549 126.148 259.401 125.299 258.367C125.493 259.69 125.876 260.979 126.436 262.193C126.964 263.423 127.663 264.571 128.514 265.604C128.319 264.278 127.936 262.987 127.377 261.77V261.778ZM82.4617 284.788C81.9333 283.56 81.231 282.414 80.3762 281.385C80.5745 282.708 80.9571 283.995 81.513 285.211C82.0396 286.441 82.7421 287.587 83.5985 288.614C83.4047 287.288 83.0219 285.997 82.4617 284.78V284.788ZM89.9254 318.304C89.3987 317.074 88.6992 315.926 87.8478 314.894C88.0364 316.218 88.4195 317.507 88.9846 318.72C89.0316 318.829 89.0865 318.931 89.1335 319.041L90.2076 318.986L89.9254 318.304ZM148.427 278.022C147.197 278.545 146.049 279.242 145.017 280.092C147.668 279.673 150.162 278.567 152.253 276.885C150.93 277.058 149.641 277.428 148.427 277.983V278.022ZM115.797 312.032C114.568 312.559 113.42 313.259 112.387 314.11C113.71 313.914 114.998 313.531 116.213 312.973C117.445 312.446 118.593 311.744 119.623 310.887C118.299 311.08 117.01 311.465 115.797 312.032ZM62.4854 319.794C62.015 320.013 61.5446 320.24 61.0898 320.491L63.6849 320.358C64.6304 319.904 65.5131 319.329 66.3113 318.649C64.9801 318.845 63.6839 319.23 62.4618 319.794H62.4854ZM82.9713 248.285C81.7426 248.814 80.5946 249.513 79.5609 250.363C82.2137 249.938 84.7103 248.83 86.805 247.148C85.4713 247.339 84.1721 247.722 82.9478 248.285H82.9713ZM112.959 281.589C111.73 282.12 110.582 282.823 109.549 283.675C110.875 283.485 112.167 283.102 113.383 282.538C114.613 282.009 115.762 281.307 116.793 280.452C115.46 280.647 114.161 281.03 112.936 281.589H112.959ZM126.287 230.261C125.058 230.788 123.909 231.488 122.877 232.338C125.53 231.914 128.026 230.806 130.121 229.124C128.774 229.312 127.461 229.695 126.225 230.261H126.287ZM96.7697 200.273C96.4953 200.398 96.2287 200.524 95.9857 200.665C95.6799 201.104 95.3742 201.551 95.0762 201.998C95.8052 201.781 96.5201 201.519 97.2166 201.214C98.4446 200.683 99.5925 199.984 100.627 199.136C99.2825 199.324 97.9725 199.707 96.7383 200.273H96.7697Z" fill="white"/>
<path d="M92.7636 200.171C61.7564 236.713 40.5649 294.463 51.5723 302.945C64.0614 312.581 110.2 320.507 128.53 322.099C134.214 322.592 135.076 275.498 128.977 275.639C121.583 275.811 93.9396 270.198 93.2027 270.19C91.6347 270.19 106.68 222.366 111.031 203.644C117.091 177.545 104.406 186.451 92.7636 200.171Z" fill="#BC675A"/>
<path d="M189.023 283.024C190.34 287.728 186.099 290.503 186.099 290.503C187.894 292.146 189.059 294.364 189.391 296.775C189.776 301.056 183.229 303.533 183.229 303.533C184.737 305.631 185.578 308.133 185.644 310.715C185.597 314.847 179.372 318.288 179.372 318.288C179.695 320.978 179.038 323.695 177.522 325.94C173.225 331.781 162.187 330.95 155.17 330.487C148.153 330.025 126.789 321.283 122.924 320.154L127.33 275.968C127.33 275.968 159.396 269.069 167.573 270.778C174.464 272.236 187.541 277.756 189.023 283.024Z" fill="#BC675A"/>
<path d="M185.965 290.307C179.011 287.022 171.461 285.964 164.013 284.482C163.848 284.482 163.801 284.717 163.966 284.749C171.422 286.129 178.501 288.975 185.918 290.66C185.956 290.652 185.991 290.633 186.018 290.604C186.045 290.576 186.062 290.539 186.067 290.501C186.072 290.462 186.065 290.422 186.047 290.388C186.029 290.353 186 290.325 185.965 290.307Z" fill="#263238"/>
<path d="M183.12 302.969C181.46 302.367 179.728 301.988 177.969 301.84C176.127 301.573 174.284 301.33 172.434 301.127C168.734 300.703 165.025 300.377 161.309 300.147C161.144 300.147 161.09 300.39 161.262 300.405C164.947 300.829 168.632 301.307 172.293 301.887C174.127 302.18 175.957 302.483 177.781 302.797C179.487 303.206 181.232 303.427 182.987 303.455C183.042 303.452 183.095 303.431 183.138 303.396C183.181 303.361 183.212 303.313 183.227 303.26C183.241 303.206 183.239 303.149 183.22 303.097C183.201 303.045 183.166 303 183.12 302.969Z" fill="#263238"/>
<path d="M179.191 318.304C177.827 317.638 176.008 317.685 174.526 317.52C172.833 317.363 171.147 317.199 169.454 317.026C166.083 316.681 162.711 316.328 159.348 315.866C159.183 315.866 159.129 316.101 159.301 316.125C162.711 316.611 166.114 317.152 169.532 317.606C171.21 317.836 172.888 318.053 174.566 318.257C176 318.437 177.764 318.822 179.183 318.453C179.195 318.445 179.205 318.434 179.212 318.422C179.219 318.409 179.223 318.395 179.224 318.381C179.225 318.366 179.222 318.352 179.216 318.338C179.211 318.325 179.202 318.313 179.191 318.304Z" fill="#263238"/>
<path d="M103.74 245.815L59.8359 239.426C59.8359 239.426 88.4519 199.944 100.141 190.708C113.297 180.312 115.735 189.312 114.018 205.157C112.301 221.002 103.74 245.815 103.74 245.815Z" fill="#B2BB77"/>
<path d="M96.739 200.273C95.4969 200.794 94.3374 201.494 93.2973 202.35C95.95 201.926 98.4466 200.818 100.541 199.136C99.2264 199.332 97.946 199.715 96.739 200.273ZM108.303 219.442C107.773 218.212 107.071 217.063 106.218 216.031C106.638 218.684 107.75 221.18 109.44 223.268C109.242 221.945 108.859 220.657 108.303 219.442ZM64.8694 232.644C64.6577 232.934 64.4461 233.224 64.2344 233.499H64.2893C65.5442 234 66.8641 234.319 68.2093 234.447C67.1856 233.693 66.0614 233.086 64.8694 232.644ZM84.8222 226.286C84.3254 227.528 84.0112 228.835 83.8893 230.167C84.6849 229.092 85.3237 227.909 85.7865 226.654C86.2886 225.4 86.6056 224.08 86.7273 222.734C85.9233 223.82 85.2816 225.016 84.8222 226.286Z" fill="white"/>
<path d="M67.173 232.213C68.741 232.213 82.4296 233.977 85.3931 234.432C88.3566 234.886 100.524 236.603 103.558 237.325C103.588 237.325 103.615 237.336 103.636 237.357C103.657 237.377 103.668 237.405 103.668 237.434C103.668 237.464 103.657 237.491 103.636 237.512C103.615 237.533 103.588 237.544 103.558 237.544C100.462 237.403 88.192 235.702 85.1579 235.302C82.1238 234.902 68.5998 232.848 67.1259 232.417C67.0005 232.378 67.0632 232.213 67.173 232.213Z" fill="#263238"/>
<path d="M100.267 244.969C101.6 245.063 103.677 245.29 103.677 245.29C104.986 239.238 106.946 233.271 108.522 227.258C110.098 221.245 111.917 215.13 113.595 209.054C113.6 209.035 113.612 209.019 113.629 209.009C113.646 209 113.666 208.997 113.685 209.003C113.704 209.008 113.719 209.02 113.729 209.037C113.739 209.054 113.741 209.074 113.736 209.093C113.004 212.589 112.257 216.078 111.494 219.559L112.011 218.305C112.623 216.823 113.273 215.357 113.838 213.852C113.845 213.825 113.863 213.802 113.887 213.788C113.911 213.774 113.94 213.77 113.967 213.777C113.994 213.784 114.017 213.802 114.031 213.826C114.045 213.851 114.049 213.879 114.042 213.907C113.614 215.471 113.09 217.008 112.474 218.509C112.027 219.559 111.509 220.571 110.984 221.582C110.529 223.573 110.082 225.572 109.573 227.556C108.005 233.648 106.75 240.523 104.728 246.474C104.728 246.474 101.662 245.76 100.157 245.235C100.131 245.215 100.112 245.187 100.103 245.155C100.094 245.124 100.096 245.09 100.109 245.059C100.121 245.029 100.144 245.004 100.172 244.987C100.201 244.971 100.234 244.964 100.267 244.969Z" fill="#263238"/>
<path d="M132.81 203.66C126.883 205.675 115.562 197.388 110.733 190.277C110.411 189.783 110.678 184.279 110.686 177.568C110.686 173.499 110.576 168.944 110.176 164.836C110.09 163.989 136.683 168.646 136.683 168.646C136.683 168.646 134.966 177.545 135.695 184.742C135.758 185.311 135.873 185.872 136.04 186.42C136.04 186.49 136.087 186.584 136.103 186.694C136.934 189.861 138.549 201.708 132.81 203.66Z" fill="#BC675A"/>
<path d="M133.454 187.086C134.344 187.03 135.228 186.899 136.096 186.694C136.082 186.599 136.061 186.504 136.034 186.412C135.872 185.863 135.759 185.302 135.696 184.734C134.967 177.545 136.676 168.646 136.676 168.646C136.676 168.646 115.101 164.859 110.883 164.726C112.114 169.43 118.15 188.215 133.454 187.086Z" fill="#263238"/>
<path d="M102.846 132.543C100.768 141.951 107.73 168.144 114.739 173.554C124.931 181.394 140.493 180.979 146.883 169.007C153.084 157.396 143.41 123.433 135.672 118.627C124.288 111.555 105.919 118.635 102.846 132.543Z" fill="#BC675A"/>
<path d="M148.757 154.315H148.694C149.204 160.908 148.184 167.541 143.872 172.77C142.802 174.121 141.495 175.266 140.015 176.149C140.004 176.16 139.997 176.175 139.995 176.19C139.993 176.206 139.996 176.222 140.004 176.236C140.012 176.249 140.025 176.26 140.04 176.265C140.054 176.271 140.071 176.271 140.086 176.267C141.427 175.537 142.672 174.644 143.794 173.609C144.9 172.537 145.85 171.315 146.616 169.979C148.343 167.015 149.293 163.663 149.376 160.234C149.369 158.245 149.161 156.262 148.757 154.315Z" fill="#263238"/>
<path d="M130.224 146.796C130.224 146.726 130.106 146.914 130.13 146.984C130.608 148.733 130.914 150.826 129.416 151.798C129.369 151.798 129.416 151.916 129.455 151.892C131.337 151.147 130.969 148.372 130.224 146.796Z" fill="#263238"/>
<path d="M128.2 145.33C125.299 145.808 126.467 151.563 129.149 151.116C131.83 150.669 130.623 144.93 128.2 145.33Z" fill="#263238"/>
<path d="M140.479 144.57C140.479 144.499 140.635 144.624 140.651 144.695C140.941 146.49 141.576 148.497 143.309 148.772C143.364 148.772 143.372 148.874 143.309 148.882C141.286 148.96 140.471 146.31 140.479 144.57Z" fill="#263238"/>
<path d="M141.708 142.39C144.531 141.606 145.887 147.321 143.276 148.043C140.666 148.764 139.341 143.041 141.708 142.39Z" fill="#263238"/>
<path d="M129.816 142.414C129.144 142.853 128.451 143.259 127.738 143.629C127.066 144.155 126.24 144.446 125.386 144.46C125.116 144.411 124.869 144.273 124.685 144.069C124.5 143.865 124.389 143.605 124.367 143.331C124.367 142.155 125.151 141.355 126.139 140.767C127.071 140.14 128.203 139.883 129.314 140.046C129.565 140.099 129.794 140.224 129.975 140.406C130.156 140.587 130.28 140.816 130.333 141.067C130.387 141.317 130.366 141.578 130.274 141.817C130.182 142.056 130.023 142.263 129.816 142.414Z" fill="#263238"/>
<path d="M143.057 137.043C142.253 137.042 141.45 136.998 140.65 136.91C139.796 136.98 138.942 136.768 138.22 136.306C138.028 136.121 137.902 135.879 137.859 135.616C137.817 135.353 137.861 135.084 137.985 134.848C138.604 133.852 139.757 133.648 140.87 133.672C141.993 133.663 143.08 134.071 143.92 134.817C144.087 135 144.2 135.226 144.246 135.47C144.292 135.714 144.269 135.966 144.179 136.197C144.089 136.429 143.937 136.631 143.739 136.78C143.54 136.929 143.305 137.021 143.057 137.043Z" fill="#263238"/>
<path d="M132.827 161.018C134.897 159.654 137.852 159.332 139.734 159.175C139.938 159.105 140.04 158.666 140.032 158.462C140.032 158.399 139.138 154.73 139.138 154.73C139.679 154.871 142.439 155.514 142.274 154.777C140.706 148.999 138.95 142.57 136.159 137.153C136.144 137.111 136.114 137.077 136.074 137.058C136.034 137.039 135.989 137.036 135.947 137.051C135.906 137.066 135.871 137.096 135.852 137.136C135.833 137.175 135.831 137.221 135.845 137.263C137.147 142.884 139.412 148.239 140.808 153.852C139.822 153.619 138.808 153.529 137.797 153.586C137.617 153.68 138.958 157.506 139.02 158.109C139.02 158.109 135.202 157.788 132.662 160.265C131.972 160.892 131.839 161.669 132.827 161.018Z" fill="#263238"/>
<path d="M129.29 165.965C129.8 166.279 130.348 166.749 130.999 166.678C131.652 166.525 132.264 166.233 132.795 165.824C132.806 165.815 132.82 165.81 132.834 165.811C132.848 165.811 132.862 165.816 132.873 165.825C132.884 165.834 132.892 165.847 132.894 165.861C132.897 165.875 132.895 165.89 132.889 165.902C132.71 166.302 132.427 166.645 132.07 166.898C131.713 167.15 131.294 167.302 130.858 167.337C130.479 167.32 130.114 167.19 129.809 166.966C129.503 166.741 129.271 166.431 129.141 166.075C129.094 165.981 129.22 165.918 129.29 165.965Z" fill="#263238"/>
<path d="M136.55 158.282C134.88 158.611 129.58 160.759 130.898 163.221C131.47 164.303 133.25 163.66 134.614 162.084C135.488 160.947 136.145 159.658 136.55 158.282Z" fill="#263238"/>
<path d="M133.932 162.782C132.724 163.825 131.376 164.123 130.89 163.221C130.731 162.919 130.666 162.578 130.701 162.239C130.735 161.9 130.869 161.579 131.086 161.316C132.105 161.143 134.277 160.971 133.932 162.782Z" fill="#FF9ABB"/>
<path d="M143.245 127.494C135.256 136.259 119.905 129.446 119.905 129.446C119.584 131.715 118.538 133.82 116.923 135.446C115.308 137.072 113.211 138.133 110.944 138.47C110.944 138.47 112.857 155.036 108.592 156C102.101 157.482 94.9351 135.969 95.9621 131.171C96.9892 126.373 102.234 123.974 102.234 123.974C102.234 123.974 101.85 120.532 105.135 116.534C108.757 112.104 125.096 113.076 125.096 113.076C125.486 110.831 126.399 108.709 127.761 106.883C128.085 106.431 128.498 106.05 128.974 105.763C129.449 105.476 129.978 105.288 130.529 105.211C131.079 105.134 131.64 105.169 132.176 105.315C132.712 105.461 133.213 105.714 133.649 106.06C133.117 107.439 132.905 108.922 133.03 110.395C133.375 115.295 137.232 114.386 136.166 110.113C135.834 108.5 134.932 107.061 133.625 106.06C134.872 102.814 137.765 101.167 139.999 102.226C144.084 104.139 149.893 120.211 143.245 127.494Z" fill="#263238"/>
<path d="M110.334 154.307C110.334 154.307 102.8 146.976 99.3578 149.822C95.916 152.668 102.721 164.083 107.551 164.899C108.163 165.041 108.797 165.06 109.416 164.953C110.036 164.847 110.627 164.617 111.157 164.278C111.686 163.939 112.141 163.497 112.497 162.979C112.853 162.461 113.101 161.877 113.227 161.261L110.334 154.307Z" fill="#BC675A"/>
<path d="M101.388 153.045C101.317 153.045 101.325 153.154 101.388 153.17C104.798 153.844 107.025 156.463 108.765 159.277C107.605 158.282 106.202 157.89 104.845 159.277C104.775 159.348 104.845 159.466 104.963 159.426C105.485 159.143 106.082 159.028 106.672 159.099C107.261 159.169 107.815 159.42 108.256 159.818C108.989 160.489 109.649 161.235 110.224 162.045C110.427 162.304 110.906 162.045 110.741 161.747C110.725 161.725 110.712 161.702 110.702 161.676C110.004 157.662 105.794 152.621 101.388 153.045Z" fill="#263238"/>
<path d="M107.448 192.354C110.846 197.704 115.581 202.076 121.183 205.04C123.901 206.547 126.944 207.37 130.05 207.439C131.673 207.49 133.272 207.047 134.637 206.168C135.885 205.16 136.85 203.844 137.436 202.35C138.149 200.667 138.603 198.886 138.784 197.066C139.018 195.018 139.107 192.957 139.051 190.896C139.051 190.818 139.168 190.826 139.168 190.896C139.223 192.848 139.443 194.816 139.356 196.745C139.318 198.468 139.054 200.178 138.572 201.833C138.103 203.411 137.301 204.871 136.22 206.114C135.063 207.346 133.509 208.132 131.83 208.332C128.549 208.713 125.228 208.13 122.273 206.655C119.308 205.281 116.576 203.453 114.174 201.237C111.421 198.696 109.102 195.722 107.307 192.433C107.212 192.323 107.408 192.245 107.448 192.354Z" fill="#263238"/>
<path d="M162.195 285.69C168.02 297.011 183.222 288.763 186.499 280.507C194.253 261.119 196.636 220.351 194.519 201.59C193.837 195.553 155.264 201.167 153.814 207.493C152.324 214.118 150.38 262.711 162.195 285.69Z" fill="#BC675A"/>
<path d="M194.19 204.467C194.19 204.467 195.758 192.245 196.675 181.496C197.177 175.498 195.891 163.268 194.237 158.697C191.775 151.853 177.107 124.805 170.474 128.223C164.469 131.312 180.023 152.951 180.023 152.951C180.023 152.951 166.256 129.728 159.71 134.785C153.163 139.842 173.986 161.943 173.986 161.943C173.986 161.943 159.31 138.423 153.383 144.695C148.906 149.438 166.64 170.567 166.64 170.567C166.64 170.567 153.885 150.418 149.063 155.099C143.748 160.273 158.887 180.767 158.887 180.767C148.695 194.722 146.601 203.448 154.739 211.805C156.056 213.099 194.19 204.467 194.19 204.467Z" fill="#BC675A"/>
<path d="M185.291 160.673C183.778 157.89 182.257 155.06 180.501 152.417C178.745 149.775 176.887 147.196 174.887 144.726C169.98 138.682 165.965 135.663 166.193 135.875C171.579 140.924 178.031 150.285 179.787 152.927C181.544 155.569 183.433 158.109 185.197 160.767C185.244 160.814 185.33 160.72 185.291 160.673Z" fill="#263238"/>
<path d="M175.876 167.204C173.783 163.731 171.831 160.21 169.604 156.824C167.378 153.437 164.955 150.465 162.493 147.259C162.305 147.016 162.235 147.196 162.415 147.455C164.767 150.748 166.649 153.978 168.938 157.302C171.227 160.626 173.642 163.864 175.821 167.259C175.829 167.313 175.908 167.259 175.876 167.204Z" fill="#263238"/>
<path d="M168.796 174.26C165.724 168.742 162.102 163.549 157.984 158.76C157.788 158.525 157.726 158.76 157.914 159.027C161.606 163.989 164.515 168.223 168.608 174.369C168.67 174.464 168.858 174.377 168.796 174.26Z" fill="#263238"/>
<path d="M158.989 141.3C158.584 140.177 158.359 138.997 158.322 137.804C158.353 136.708 158.77 135.659 159.498 134.84C159.545 134.785 159.632 134.84 159.577 134.919C158.644 135.703 158.628 137.223 158.793 138.329C158.982 139.411 159.268 140.473 159.647 141.504C160.036 142.578 160.494 143.626 161.019 144.64C161.515 145.651 162.065 146.635 162.666 147.588C162.671 147.596 162.674 147.606 162.674 147.615C162.674 147.625 162.671 147.635 162.666 147.643C162.661 147.648 162.654 147.652 162.648 147.655C162.641 147.658 162.634 147.659 162.626 147.659C162.619 147.659 162.612 147.658 162.605 147.655C162.598 147.652 162.592 147.648 162.587 147.643C161.461 146.31 160.056 145.239 158.471 144.507C157.75 144.108 156.943 143.89 156.119 143.872C155.357 143.918 154.638 144.24 154.097 144.779C153.556 145.317 153.229 146.034 153.179 146.796C153.186 147.561 153.332 148.318 153.61 149.031C154.152 150.685 154.786 152.308 155.508 153.891C155.908 154.769 156.292 155.632 156.786 156.479C157.28 157.325 157.773 158.141 158.173 159.011C158.173 159.066 158.001 159.113 157.962 159.081C157.428 158.635 153.681 155.005 151.431 154.816C150.854 154.737 150.268 154.84 149.753 155.112C149.238 155.383 148.822 155.809 148.561 156.33C148.038 157.456 147.903 158.724 148.177 159.936C148.644 162.018 149.265 164.062 150.035 166.051C150.035 166.114 149.957 166.145 149.933 166.051C149.345 164.601 148.068 161.488 147.668 159.975C147.272 158.712 147.341 157.349 147.864 156.134C148.112 155.583 148.5 155.108 148.99 154.756C149.48 154.403 150.054 154.186 150.655 154.127C151.905 154.17 153.108 154.618 154.081 155.404C155.282 156.333 156.426 157.333 157.507 158.399C157.138 157.866 155.531 155.067 155.108 154.213C154.244 152.505 153.505 150.736 152.897 148.921C152.356 147.353 152.215 145.604 153.485 144.295C154.065 143.747 154.798 143.389 155.587 143.268C156.375 143.148 157.182 143.271 157.899 143.621C159.065 144.118 160.129 144.827 161.035 145.714C160.808 145.393 160.588 145.056 160.392 144.711C159.816 143.622 159.346 142.479 158.989 141.3Z" fill="#263238"/>
<path d="M156.463 269.139C157.176 271.225 157.851 273.31 158.627 275.364C159.403 277.418 160.148 279.472 160.979 281.48C161.775 283.464 162.785 285.357 163.989 287.124C164.132 287.332 164.289 287.528 164.46 287.712L164.961 288.214C165.36 288.538 165.782 288.831 166.224 289.092C167.098 289.613 168.048 289.996 169.038 290.229C170.033 290.456 171.055 290.535 172.072 290.464C173.101 290.372 174.115 290.153 175.091 289.813C177.09 289.091 178.963 288.06 180.641 286.756C181.52 286.136 182.319 285.392 183.135 284.694C183.916 283.972 184.608 283.158 185.197 282.271C186.421 280.463 187.36 278.477 187.98 276.384C187.639 278.581 186.921 280.703 185.855 282.656C185.302 283.647 184.63 284.569 183.856 285.4C183.086 286.22 182.272 286.997 181.418 287.728C179.692 289.217 177.725 290.4 175.6 291.225C174.51 291.632 173.372 291.896 172.213 292.009C171.035 292.103 169.849 292.023 168.693 291.773C167.549 291.489 166.454 291.032 165.448 290.417C164.943 290.112 164.464 289.769 164.013 289.39L163.354 288.732C163.157 288.507 162.977 288.268 162.813 288.018C161.582 286.123 160.591 284.082 159.865 281.942C158.376 277.777 157.238 273.494 156.463 269.139Z" fill="#263238"/>
<path d="M157.576 104.068L166.992 90.5677L171.625 95.2873L180.124 85.111L184.977 90.1992L171.202 99.0662L167.509 94.4641L157.576 104.068Z" fill="#455A64"/>
<path d="M154.574 111.579L167.565 108.678L167.573 112.825L177.012 113.461L177.106 117.898L164.437 115.609L165.433 111.548L154.574 111.579Z" fill="#455A64"/>
<path d="M150.214 104.068L149.258 91.5634L153.711 92.1043L153.617 81.9123L158.58 81.3792L155.765 94.5818L151.806 93.837L150.214 104.068Z" fill="#455A64"/>
<path d="M40.5254 345.987L79.3883 345.791L118.259 345.728L196 345.595L273.742 345.728L312.613 345.791L351.475 345.987L312.613 346.175L273.742 346.246L196 346.379L118.259 346.246L79.3883 346.175L40.5254 345.987Z" fill="#263238"/>
<path d="M39.7402 88.592C39.7355 93.7484 41.1645 98.8046 43.8676 103.196C46.5707 107.587 50.4415 111.14 55.0475 113.458C59.6535 115.776 64.8133 116.768 69.9505 116.322C75.0876 115.877 79.9998 114.012 84.1382 110.936L97.7719 114.417L92.0958 101.724C94.0919 97.9946 95.2114 93.8591 95.3692 89.632C95.527 85.4049 94.719 81.1975 93.0065 77.3297C91.294 73.4618 88.7222 70.0353 85.4865 67.3106C82.2509 64.586 78.4366 62.6349 74.3337 61.6058C70.2308 60.5767 65.9472 60.4966 61.8087 61.3717C57.6701 62.2467 53.7856 64.0538 50.4504 66.6556C47.1152 69.2574 44.417 72.5854 42.5612 76.3865C40.7053 80.1877 39.7406 84.362 39.7402 88.592Z" fill="white"/>
<path d="M39.7402 88.592C39.767 93.7274 41.2073 98.7564 43.9033 103.127C44.5799 104.216 45.3207 105.263 46.122 106.263C46.956 107.232 47.846 108.151 48.7876 109.015C49.2488 109.456 49.733 109.872 50.238 110.262L51.806 111.406C52.3234 111.783 52.8958 112.073 53.4367 112.418L54.2207 112.904C54.4951 113.061 54.793 113.186 55.0753 113.327L56.8079 114.111L58.6111 114.754C59.2079 114.979 59.8213 115.157 60.4457 115.287C61.065 115.428 61.6766 115.632 62.3038 115.718C63.5577 115.943 64.8255 116.082 66.0983 116.134C67.3678 116.218 68.642 116.199 69.9086 116.079C72.4431 115.842 74.9332 115.259 77.3095 114.346C79.6766 113.42 81.9077 112.178 83.9422 110.654L84.0441 110.575H84.1774L97.8268 113.994L97.427 114.472L91.7273 101.842L91.6489 101.677L91.743 101.512C93.7062 97.8308 94.808 93.7517 94.9656 89.5825C95.1231 85.4132 94.3322 81.2626 92.6524 77.4435C90.945 73.6331 88.4243 70.2427 85.2671 67.5102C82.0785 64.7946 78.3105 62.8449 74.2519 61.8105C70.1829 60.7625 65.9297 60.6473 61.8098 61.4734C57.6891 62.3476 53.8159 64.1315 50.4732 66.6949C47.1429 69.2938 44.4464 72.6152 42.5871 76.4084C40.7279 80.2017 39.7544 84.3676 39.7402 88.592ZM39.7402 88.592C39.7434 84.3627 40.7069 80.1894 42.5579 76.3867C44.409 72.5841 47.0994 69.2514 50.4262 66.64C53.7511 63.9923 57.641 62.1455 61.7944 61.2428C65.9478 60.3401 70.2533 60.4056 74.3774 61.4342C78.5233 62.4389 82.3847 64.3777 85.667 67.1025C88.9527 69.847 91.5683 73.3056 93.3142 77.2146C95.0602 81.1236 95.8903 85.3797 95.7414 89.6582C95.6066 93.9456 94.471 98.142 92.425 101.912V101.575L98.0698 114.284L98.3599 114.934L97.67 114.754L84.0519 111.21L84.2871 111.163C80.1015 114.246 75.1377 116.098 69.9556 116.51C68.6719 116.612 67.3821 116.612 66.0983 116.51C64.8137 116.446 63.5352 116.292 62.2724 116.048C61.6295 115.954 61.018 115.742 60.3986 115.593C59.7693 115.449 59.151 115.26 58.5484 115.028L56.7452 114.354C56.165 114.088 55.5927 113.798 55.0126 113.515C54.7225 113.366 54.4324 113.241 54.1502 113.084L53.3662 112.575C52.833 112.23 52.2607 111.924 51.7433 111.54L50.1753 110.379C49.6685 109.986 49.1842 109.565 48.7249 109.117C47.7793 108.249 46.889 107.322 46.0593 106.342C45.2592 105.344 44.5233 104.297 43.8562 103.206C41.164 98.8068 39.7396 93.7494 39.7402 88.592Z" fill="#263238"/>
<path d="M63.8477 71.7908H70.3549L69.9158 95.7812H64.2867L63.8477 71.7908Z" fill="#B2BB77"/>
<path d="M69.9162 98.784H64.2871V104.413H69.9162V98.784Z" fill="#B2BB77"/>
</svg>
