<svg width="84" height="58" viewBox="0 0 84 58" fill="none" xmlns="http://www.w3.org/2000/svg">
<rect x="0.5" y="0.5" width="83" height="57" rx="3.5" fill="white" stroke="#F3F3F3"/>
<path d="M49.6656 37.8231H35.3047V12.1856H49.6656V37.8231Z" fill="#6C6BBD"/>
<path d="M36.2177 25.0048C36.2177 19.8042 38.6689 15.1715 42.4861 12.1861C39.6947 10.003 36.1718 8.69999 32.3431 8.69999C23.2791 8.69999 15.9316 15.9998 15.9316 25.0048C15.9316 34.0099 23.2791 41.3097 32.3431 41.3097C36.1718 41.3097 39.6947 40.0067 42.4861 37.8236C38.6689 34.8381 36.2177 30.2055 36.2177 25.0048Z" fill="#EB001B"/>
<path d="M69.0399 25.0048C69.0399 34.0099 61.6925 41.3097 52.6284 41.3097C48.7998 41.3097 45.2768 40.0067 42.4844 37.8236C46.3026 34.8381 48.7539 30.2055 48.7539 25.0048C48.7539 19.8042 46.3026 15.1715 42.4844 12.1861C45.2768 10.003 48.7998 8.69999 52.6284 8.69999C61.6925 8.69999 69.0399 15.9998 69.0399 25.0048Z" fill="#0099DF"/>
<path d="M54.5256 45.0674C54.7165 45.0674 54.991 45.1037 55.2007 45.1856L54.9086 46.0729C54.7082 45.991 54.5078 45.9641 54.3158 45.9641C53.696 45.9641 53.3861 46.3622 53.3861 47.0774V49.5052H52.4375V45.1763H53.3767V45.7018C53.6229 45.3214 53.9788 45.0674 54.5256 45.0674Z" fill="#231F20"/>
<path d="M51.0204 46.0366H49.4707V47.9927C49.4707 48.4271 49.6252 48.7173 50.1 48.7173C50.3462 48.7173 50.6562 48.6354 50.9379 48.4727L51.2113 49.2781C50.9108 49.4865 50.437 49.614 50.0269 49.614C48.9051 49.614 48.5138 49.0159 48.5138 48.0103V46.0366H47.6289V45.1763H48.5138V43.8629H49.4707V45.1763H51.0204V46.0366Z" fill="#231F20"/>
<path fill-rule="evenodd" clip-rule="evenodd" d="M40.0621 45.0674C41.284 45.0674 42.123 45.991 42.1324 47.3407C42.1324 47.4662 42.1232 47.5824 42.1139 47.6996L42.1136 47.7025H38.8777C39.0144 48.481 39.5706 48.7619 40.181 48.7619C40.6183 48.7619 41.0837 48.5992 41.4479 48.3089L41.9133 49.0065C41.3842 49.4502 40.7831 49.613 40.1268 49.613C38.8224 49.613 37.8926 48.7163 37.8926 47.3407C37.8926 45.991 38.7858 45.0674 40.0621 45.0674ZM40.0444 45.9091C39.3692 45.9091 38.9873 46.3352 38.8861 46.9603H41.1474C41.0472 46.2896 40.6548 45.9091 40.0444 45.9091Z" fill="#231F20"/>
<path d="M46.2983 46.2813C46.0343 46.1175 45.4969 45.9091 44.9407 45.9091C44.421 45.9091 44.1111 46.0999 44.1111 46.4171C44.1111 46.7063 44.4387 46.7882 44.8488 46.8421L45.2955 46.9053C46.244 47.0422 46.818 47.4402 46.818 48.2011C46.818 49.0252 46.0885 49.614 44.8311 49.614C44.1194 49.614 43.463 49.4326 42.9434 49.0521L43.39 48.3182C43.7093 48.5629 44.1841 48.7712 44.8405 48.7712C45.4875 48.7712 45.8339 48.5815 45.8339 48.2457C45.8339 48.0021 45.5876 47.8652 45.068 47.7937L44.6213 47.7305C43.6456 47.5936 43.1166 47.1593 43.1166 46.4534C43.1166 45.593 43.8283 45.0674 44.9313 45.0674C45.6242 45.0674 46.2534 45.2219 46.7084 45.5204L46.2983 46.2813Z" fill="#231F20"/>
<path fill-rule="evenodd" clip-rule="evenodd" d="M58.931 45.2426C58.643 45.1255 58.3299 45.0674 57.9918 45.0674C57.6537 45.0674 57.3407 45.1255 57.0526 45.2426C56.7646 45.3587 56.5173 45.5194 56.3086 45.7236C56.0999 45.9278 55.9361 46.1693 55.8171 46.4471C55.6982 46.726 55.6387 47.0287 55.6387 47.3552C55.6387 47.6817 55.6982 47.9844 55.8171 48.2633C55.9361 48.5411 56.0999 48.7837 56.3086 48.9879C56.5173 49.1921 56.7646 49.3517 57.0526 49.4689C57.3407 49.585 57.6537 49.643 57.9918 49.643C58.3299 49.643 58.643 49.585 58.931 49.4689C59.219 49.3517 59.4684 49.1921 59.6781 48.9879C59.8889 48.7837 60.0528 48.5411 60.1717 48.2633C60.2907 47.9844 60.3502 47.6817 60.3502 47.3552C60.3502 47.0287 60.2907 46.726 60.1717 46.4471C60.0528 46.1693 59.8889 45.9278 59.6781 45.7236C59.4684 45.5194 59.219 45.3587 58.931 45.2426ZM57.4481 46.0636C57.6161 45.9962 57.7967 45.962 57.9918 45.962C58.1869 45.962 58.3685 45.9962 58.5355 46.0636C58.7035 46.132 58.8496 46.2274 58.9717 46.3497C59.0958 46.472 59.1919 46.6192 59.2628 46.7903C59.3327 46.9613 59.3672 47.15 59.3672 47.3552C59.3672 47.5615 59.3327 47.7491 59.2628 47.9202C59.1919 48.0912 59.0958 48.2384 58.9717 48.3607C58.8496 48.4831 58.7035 48.5784 58.5355 48.6468C58.3685 48.7153 58.1869 48.7484 57.9918 48.7484C57.7967 48.7484 57.6161 48.7153 57.4481 48.6468C57.2812 48.5784 57.1361 48.4831 57.014 48.3607C56.8919 48.2384 56.7959 48.0912 56.726 47.9202C56.6561 47.7491 56.6217 47.5615 56.6217 47.3552C56.6217 47.15 56.6561 46.9613 56.726 46.7903C56.7959 46.6192 56.8919 46.472 57.014 46.3497C57.1361 46.2274 57.2812 46.132 57.4481 46.0636Z" fill="#231F20"/>
<path fill-rule="evenodd" clip-rule="evenodd" d="M36.8758 45.1763V47.3407V49.5051H35.9283V48.9796C35.6267 49.3693 35.1718 49.614 34.5519 49.614C33.33 49.614 32.373 48.6624 32.373 47.3407C32.373 46.018 33.33 45.0674 34.5519 45.0674C35.1718 45.0674 35.6267 45.3121 35.9283 45.7018V45.1763H36.8758ZM34.6698 45.9548C33.8496 45.9548 33.3476 46.5798 33.3476 47.3407C33.3476 48.1016 33.8496 48.7256 34.6698 48.7256C35.4535 48.7256 35.9825 48.1285 35.9825 47.3407C35.9825 46.5529 35.4535 45.9548 34.6698 45.9548Z" fill="#231F20"/>
<path d="M31.5332 49.5052V46.7882C31.5332 45.7651 30.8769 45.0768 29.8198 45.0674C29.2636 45.0581 28.6886 45.2302 28.2879 45.8376C27.9874 45.3577 27.5126 45.0674 26.8468 45.0674C26.3824 45.0674 25.9264 45.2032 25.5706 45.7101V45.1763H24.623V49.5052H25.58V47.1054C25.58 46.3539 25.9995 45.9548 26.6464 45.9548C27.2757 45.9548 27.595 46.3622 27.595 47.0961V49.5052H28.5519V47.1054C28.5519 46.3539 28.9902 45.9548 29.6184 45.9548C30.2664 45.9548 30.5763 46.3622 30.5763 47.0961V49.5052H31.5332V49.5052Z" fill="#231F20"/>
</svg>
