<svg width="84" height="58" viewBox="0 0 84 58" fill="none" xmlns="http://www.w3.org/2000/svg">
<rect x="0.5" y="0.5" width="83" height="57" rx="3.5" fill="white" stroke="#F3F3F3"/>
<path fill-rule="evenodd" clip-rule="evenodd" d="M30.7753 44.7914V46.9329V49.0743H29.8379V48.5543C29.5405 48.94 29.0893 49.182 28.4761 49.182C27.2671 49.182 26.3193 48.2415 26.3193 46.9329C26.3193 45.6252 27.2671 44.6837 28.4761 44.6837C29.0893 44.6837 29.5405 44.9258 29.8379 45.3114V44.7914H30.7753ZM28.5927 45.5616C27.7812 45.5616 27.2846 46.1801 27.2846 46.9329C27.2846 47.6856 27.7812 48.3041 28.5927 48.3041C29.3681 48.3041 29.8915 47.7123 29.8915 46.9329C29.8915 46.1534 29.3681 45.5616 28.5927 45.5616ZM62.4547 46.9329C62.4547 46.1801 62.9513 45.5616 63.7628 45.5616C64.5392 45.5616 65.0616 46.1534 65.0616 46.9329C65.0616 47.7123 64.5392 48.3041 63.7628 48.3041C62.9513 48.3041 62.4547 47.6856 62.4547 46.9329ZM65.9465 43.0715V46.9329V49.0743H65.008V48.5543C64.7106 48.94 64.2595 49.182 63.6462 49.182C62.4372 49.182 61.4894 48.2415 61.4894 46.9329C61.4894 45.6252 62.4372 44.6837 63.6462 44.6837C64.2595 44.6837 64.7106 44.9258 65.008 45.3114V43.0715H65.9465ZM42.412 45.5175C43.0159 45.5175 43.4041 45.8939 43.5032 46.5565H41.2659C41.3661 45.938 41.744 45.5175 42.412 45.5175ZM40.283 46.9329C40.283 45.5975 41.1668 44.6837 42.4305 44.6837C43.6385 44.6837 44.4686 45.5975 44.4778 46.9329C44.4778 47.058 44.4686 47.1749 44.4593 47.2908H41.2577C41.3929 48.062 41.9432 48.34 42.5472 48.34C42.9798 48.34 43.4402 48.1779 43.8016 47.8918L44.261 48.582C43.7376 49.021 43.1429 49.182 42.4935 49.182C41.2029 49.182 40.283 48.2949 40.283 46.9329ZM53.7502 46.9329C53.7502 46.1801 54.2468 45.5616 55.0583 45.5616C55.8337 45.5616 56.3571 46.1534 56.3571 46.9329C56.3571 47.7123 55.8337 48.3041 55.0583 48.3041C54.2468 48.3041 53.7502 47.6856 53.7502 46.9329ZM57.2409 44.7914V46.9329V49.0743H56.3035V48.5543C56.0051 48.94 55.555 49.182 54.9417 49.182C53.7327 49.182 52.7849 48.2415 52.7849 46.9329C52.7849 45.6252 53.7327 44.6837 54.9417 44.6837C55.555 44.6837 56.0051 44.9258 56.3035 45.3114V44.7914H57.2409ZM48.4558 46.9329C48.4558 48.2323 49.3664 49.182 50.7561 49.182C51.4055 49.182 51.8381 49.0384 52.3068 48.6713L51.8567 47.9185C51.5046 48.1697 51.135 48.3041 50.7282 48.3041C49.9797 48.2949 49.4294 47.7574 49.4294 46.9329C49.4294 46.1083 49.9797 45.5709 50.7282 45.5616C51.135 45.5616 51.5046 45.696 51.8567 45.9473L52.3068 45.1945C51.8381 44.8273 51.4055 44.6837 50.7561 44.6837C49.3664 44.6837 48.4558 45.6334 48.4558 46.9329ZM59.4058 45.3114C59.6494 44.935 60.0015 44.6837 60.5425 44.6837C60.7325 44.6837 61.003 44.7196 61.2105 44.8006L60.9214 45.6785C60.7232 45.5975 60.5249 45.5709 60.335 45.5709C59.7217 45.5709 59.4151 45.9647 59.4151 46.6734V49.0743H58.4766V44.7914H59.4058V45.3114ZM35.4119 45.1319C34.9607 44.8365 34.3392 44.6837 33.6537 44.6837C32.5614 44.6837 31.8583 45.2037 31.8583 46.0549C31.8583 46.7534 32.3817 47.1841 33.346 47.3185L33.7889 47.381C34.3031 47.4528 34.5457 47.5872 34.5457 47.8292C34.5457 48.1605 34.2029 48.3492 33.5628 48.3492C32.9134 48.3492 32.4447 48.1431 32.1288 47.901L31.6869 48.6261C32.201 49.0025 32.8504 49.182 33.5535 49.182C34.7987 49.182 35.5203 48.5995 35.5203 47.7841C35.5203 47.0313 34.9525 46.6375 34.014 46.5031L33.5721 46.4395C33.1664 46.3862 32.8411 46.3062 32.8411 46.019C32.8411 45.7052 33.1478 45.5175 33.6619 45.5175C34.2122 45.5175 34.745 45.7237 35.0062 45.8847L35.4119 45.1319ZM46.3724 45.3114C46.615 44.935 46.9671 44.6837 47.5081 44.6837C47.698 44.6837 47.9685 44.7196 48.1761 44.8006L47.887 45.6785C47.6888 45.5975 47.4905 45.5709 47.3006 45.5709C46.6873 45.5709 46.3806 45.9647 46.3806 46.6734V49.0743H45.4432V44.7914H46.3724V45.3114ZM39.5075 44.7914H37.9744V43.492H37.0266V44.7914H36.1521V45.6427H37.0266V47.5964C37.0266 48.5902 37.4148 49.182 38.5236 49.182C38.9304 49.182 39.3991 49.0569 39.6965 48.8507L39.426 48.0528C39.1462 48.2138 38.8395 48.2949 38.5959 48.2949C38.1272 48.2949 37.9744 48.0077 37.9744 47.578V45.6427H39.5075V44.7914ZM25.4902 46.3862V49.0743H24.5424V46.6908C24.5424 45.9647 24.2358 45.5616 23.5957 45.5616C22.9731 45.5616 22.5405 45.9565 22.5405 46.7V49.0743H21.5927V46.6908C21.5927 45.9647 21.2778 45.5616 20.6553 45.5616C20.0141 45.5616 19.5991 45.9565 19.5991 46.7V49.0743H18.6523V44.7914H19.5908V45.3196C19.9429 44.8181 20.393 44.6837 20.8535 44.6837C21.5122 44.6837 21.9809 44.9709 22.2783 45.4457C22.6758 44.8447 23.2436 44.6745 23.7939 44.6837C24.8408 44.6929 25.4902 45.3739 25.4902 46.3862Z" fill="#231F20"/>
<path d="M49.31 37.5138H35.1016V12.1486H49.31V37.5138Z" fill="#FF5F00"/>
<path d="M36.0023 24.8317C36.0023 19.6863 38.4275 15.1029 42.2041 12.1491C39.4424 9.98921 35.9569 8.70003 32.1688 8.70003C23.2011 8.70003 15.9316 15.9223 15.9316 24.8317C15.9316 33.7411 23.2011 40.9634 32.1688 40.9634C35.9569 40.9634 39.4424 39.6743 42.2041 37.5143C38.4275 34.5606 36.0023 29.9772 36.0023 24.8317Z" fill="#EB001B"/>
<path d="M68.4786 24.8317C68.4786 33.7411 61.2092 40.9634 52.2414 40.9634C48.4534 40.9634 44.9679 39.6743 42.2051 37.5143C45.9828 34.5606 48.408 29.9772 48.408 24.8317C48.408 19.6863 45.9828 15.1029 42.2051 12.1491C44.9679 9.98921 48.4534 8.70003 52.2414 8.70003C61.2092 8.70003 68.4786 15.9223 68.4786 24.8317Z" fill="#F79E1B"/>
</svg>
