<svg width="84" height="58" viewBox="0 0 84 58" fill="none" xmlns="http://www.w3.org/2000/svg">
<rect x="0.5" y="0.5" width="83" height="57" rx="3.5" fill="white" stroke="#F3F3F3"/>
<path d="M37.2956 39.7782H31.7031L35.2011 19.4772H40.7933L37.2956 39.7782Z" fill="#15195A"/>
<path d="M57.5689 19.9735C56.4658 19.5627 54.7163 19.1092 52.5529 19.1092C47.0301 19.1092 43.141 21.8734 43.1172 25.8255C43.0713 28.7413 45.9017 30.3608 48.0185 31.333C50.1822 32.3265 50.9177 32.9749 50.9177 33.8605C50.8957 35.2205 49.1693 35.8474 47.5592 35.8474C45.3264 35.8474 44.1301 35.5242 42.312 34.7675L41.5756 34.4432L40.793 39.0003C42.1046 39.5612 44.5212 40.0589 47.0301 40.0808C52.8982 40.0808 56.7184 37.3593 56.7637 33.1477C56.786 30.8367 55.2915 29.0659 52.0694 27.6189C50.1134 26.6901 48.9155 26.0637 48.9155 25.1133C48.9384 24.2493 49.9287 23.3644 52.1367 23.3644C53.9548 23.321 55.2906 23.7312 56.3025 24.1417L56.8084 24.3572L57.5689 19.9735Z" fill="#15195A"/>
<path fill-rule="evenodd" clip-rule="evenodd" d="M67.5796 19.4772H71.9054L76.4171 39.7779H71.239C71.239 39.7779 70.7322 37.4454 70.5717 36.7326H63.3914C63.1837 37.2723 62.2176 39.7779 62.2176 39.7779H56.3496L64.6565 21.1616C65.2321 19.844 66.2456 19.4772 67.5796 19.4772ZM67.235 26.9062C67.235 26.9062 65.4628 31.42 65.0022 32.5863H69.6507C69.4207 31.5713 68.3616 26.7119 68.3616 26.7119L67.9708 24.9626C67.8062 25.4131 67.5682 26.0324 67.4077 26.4501C67.2988 26.7332 67.2256 26.9237 67.235 26.9062Z" fill="#15195A"/>
<path fill-rule="evenodd" clip-rule="evenodd" d="M7.47096 19.4772H16.4687C17.6883 19.5199 18.678 19.8871 19 21.1837L20.9553 30.5102C20.9555 30.5111 20.9558 30.512 20.9561 30.5129L21.5546 33.3205L27.0315 19.4772H32.9451L24.1547 39.7567H18.2408L13.2562 22.1169C11.5363 21.1732 9.57348 20.4141 7.37891 19.8874L7.47096 19.4772Z" fill="#15195A"/>
<path fill-rule="evenodd" clip-rule="evenodd" d="M48.314 50.8515C48.2396 50.865 48.145 50.8718 48.0301 50.8718C47.7125 50.8718 47.486 50.7771 47.3509 50.5876C47.2157 50.3981 47.1481 50.1207 47.1481 49.7553V43.5232H47.9794V49.8162C47.9794 49.9515 48.0031 50.0463 48.0504 50.1004C48.0977 50.1545 48.1518 50.1816 48.2126 50.1816H48.2886C48.3123 50.1816 48.3478 50.1748 48.3951 50.1613L48.5066 50.7906C48.4525 50.8177 48.3883 50.838 48.314 50.8515ZM45.8202 50.0293V50.75H41.8867V44.0916H45.7189V44.8021H42.7282V46.893H45.2525V47.6136H42.7282V50.0293H45.8202ZM51.7307 50.8718C52.0686 50.8718 52.3693 50.821 52.6329 50.7195C52.8965 50.618 53.1364 50.4996 53.3527 50.3643L53.0587 49.8162C52.8762 49.9312 52.6853 50.0243 52.4859 50.0953C52.2866 50.1664 52.0686 50.2019 51.832 50.2019C51.3589 50.2019 50.9754 50.048 50.6814 49.7401C50.3874 49.4322 50.2235 49.0143 50.1897 48.4865H53.5149C53.5284 48.4256 53.5369 48.3529 53.5403 48.2683C53.5437 48.1837 53.5453 48.0975 53.5453 48.0095C53.5453 47.6576 53.5014 47.3396 53.4136 47.0554C53.3257 46.7712 53.199 46.5276 53.0334 46.3246C52.8678 46.1216 52.6617 45.966 52.415 45.8577C52.1683 45.7494 51.8895 45.6953 51.5786 45.6953C51.2947 45.6953 51.021 45.7545 50.7574 45.8729C50.4938 45.9913 50.259 46.1622 50.0528 46.3855C49.8467 46.6088 49.6811 46.8812 49.5561 47.2026C49.431 47.524 49.3685 47.8877 49.3685 48.2937C49.3685 48.6997 49.4293 49.0617 49.551 49.3797C49.6727 49.6978 49.8399 49.9668 50.0528 50.1867C50.2657 50.4066 50.5158 50.5758 50.803 50.6942C51.0903 50.8126 51.3995 50.8718 51.7307 50.8718ZM50.1794 47.8877H52.8152C52.8152 47.387 52.7088 47.0063 52.4959 46.7458C52.283 46.4853 51.9839 46.355 51.5987 46.355C51.4229 46.355 51.2557 46.3889 51.0968 46.4565C50.938 46.5242 50.7944 46.624 50.666 46.756C50.5376 46.8879 50.4311 47.0486 50.3466 47.2381C50.2622 47.4276 50.2064 47.6441 50.1794 47.8877ZM56.7082 50.8718C57.0056 50.8718 57.2895 50.816 57.5598 50.7043C57.8302 50.5927 58.0769 50.4387 58.2999 50.2425L57.9349 49.6842C57.7795 49.8196 57.6054 49.9363 57.4128 50.0344C57.2202 50.1325 57.009 50.1816 56.7792 50.1816C56.5562 50.1816 56.35 50.1359 56.1608 50.0446C55.9715 49.9532 55.811 49.8247 55.6792 49.6589C55.5474 49.4931 55.4444 49.2952 55.37 49.0651C55.2957 48.835 55.2585 48.5779 55.2585 48.2937C55.2585 48.0095 55.2974 47.7507 55.3751 47.5172C55.4528 47.2838 55.5593 47.0825 55.6944 46.9133C55.8296 46.7441 55.9918 46.6139 56.1811 46.5225C56.3703 46.4312 56.5764 46.3855 56.7995 46.3855C56.9955 46.3855 57.1729 46.4261 57.3317 46.5073C57.4905 46.5885 57.6409 46.6934 57.7829 46.8219L58.2087 46.2738C58.0329 46.1182 57.8302 45.9829 57.6004 45.8678C57.3706 45.7528 57.0935 45.6953 56.7691 45.6953C56.4514 45.6953 56.149 45.7528 55.8617 45.8678C55.5745 45.9829 55.3227 46.152 55.1064 46.3753C54.8902 46.5986 54.7178 46.871 54.5894 47.1924C54.461 47.5138 54.3968 47.8809 54.3968 48.2937C54.3968 48.6997 54.4559 49.0634 54.5742 49.3848C54.6925 49.7062 54.8547 49.9769 55.0608 50.1968C55.267 50.4167 55.512 50.5842 55.7958 50.6992C56.0797 50.8143 56.3838 50.8718 56.7082 50.8718ZM61.3061 50.816C61.1473 50.8532 60.9902 50.8718 60.8347 50.8718C60.5711 50.8718 60.3498 50.8312 60.1707 50.75C59.9916 50.6688 59.8463 50.5571 59.7347 50.415C59.6232 50.2729 59.5438 50.1004 59.4965 49.8974C59.4492 49.6944 59.4255 49.4711 59.4255 49.2275V46.4971H58.6956V45.8678L59.4661 45.8171L59.5675 44.4367H60.267V45.8171H61.5951V46.4971H60.267V49.2376C60.267 49.5421 60.3227 49.7773 60.4343 49.9431C60.5458 50.1088 60.7435 50.1917 61.0273 50.1917C61.1152 50.1917 61.2098 50.1782 61.3112 50.1511C61.4126 50.1241 61.5038 50.0936 61.5849 50.0598L61.7471 50.6891C61.612 50.7365 61.465 50.7787 61.3061 50.816ZM63.5413 50.75V47.5832C63.7103 47.1637 63.908 46.8693 64.1344 46.7001C64.3608 46.531 64.5788 46.4464 64.7883 46.4464C64.8897 46.4464 64.9741 46.4532 65.0417 46.4667C65.1093 46.4802 65.1837 46.5005 65.2648 46.5276L65.427 45.7968C65.2715 45.7291 65.0958 45.6953 64.8998 45.6953C64.6159 45.6953 64.354 45.7866 64.1141 45.9693C63.8742 46.152 63.6697 46.399 63.5008 46.7103H63.4703L63.3994 45.8171H62.71V50.75H63.5413ZM68.9095 50.6992C68.6358 50.8143 68.3469 50.8718 68.0427 50.8718C67.7386 50.8718 67.4497 50.8143 67.1759 50.6992C66.9022 50.5842 66.6606 50.4167 66.4511 50.1968C66.2416 49.9769 66.0743 49.7062 65.9493 49.3848C65.8242 49.0634 65.7617 48.6997 65.7617 48.2937C65.7617 47.8809 65.8242 47.5138 65.9493 47.1924C66.0743 46.871 66.2416 46.5986 66.4511 46.3753C66.6606 46.152 66.9022 45.9829 67.1759 45.8678C67.4497 45.7528 67.7386 45.6953 68.0427 45.6953C68.3469 45.6953 68.6358 45.7528 68.9095 45.8678C69.1833 45.9829 69.4249 46.152 69.6344 46.3753C69.8439 46.5986 70.0112 46.871 70.1362 47.1924C70.2613 47.5138 70.3238 47.8809 70.3238 48.2937C70.3238 48.6997 70.2613 49.0634 70.1362 49.3848C70.0112 49.7062 69.8439 49.9769 69.6344 50.1968C69.4249 50.4167 69.1833 50.5842 68.9095 50.6992ZM68.0426 50.1816C67.8331 50.1816 67.6405 50.1359 67.4648 50.0446C67.289 49.9532 67.1387 49.8246 67.0136 49.6589C66.8886 49.4931 66.7923 49.2952 66.7247 49.0651C66.6571 48.835 66.6233 48.5779 66.6233 48.2937C66.6233 48.0095 66.6571 47.7507 66.7247 47.5172C66.7923 47.2838 66.8886 47.0825 67.0136 46.9133C67.1387 46.7441 67.289 46.6139 67.4648 46.5225C67.6405 46.4312 67.8331 46.3855 68.0426 46.3855C68.2521 46.3855 68.4448 46.4312 68.6205 46.5225C68.7962 46.6139 68.9466 46.7441 69.0716 46.9133C69.1966 47.0825 69.293 47.2838 69.3605 47.5172C69.4281 47.7507 69.4619 48.0095 69.4619 48.2937C69.4619 48.5779 69.4281 48.835 69.3605 49.0651C69.293 49.2952 69.1966 49.4931 69.0716 49.6589C68.9466 49.8246 68.7962 49.9532 68.6205 50.0446C68.4448 50.1359 68.2521 50.1816 68.0426 50.1816ZM72.4527 47.1772V50.75H71.6214V45.8171H72.3108L72.3817 46.5276H72.4121C72.6487 46.2908 72.8971 46.0928 73.1573 45.9338C73.4175 45.7748 73.7199 45.6953 74.0646 45.6953C74.585 45.6953 74.9652 45.8577 75.2051 46.1825C75.4451 46.5073 75.565 46.9877 75.565 47.6238V50.75H74.7337V47.7354C74.7337 47.2685 74.6594 46.9319 74.5107 46.7255C74.362 46.5191 74.1255 46.4159 73.801 46.4159C73.5442 46.4159 73.3178 46.4802 73.1218 46.6088C72.9258 46.7374 72.7028 46.9268 72.4527 47.1772Z" fill="#15195A"/>
</svg>
